<?xml version="1.0" encoding="UTF-8"?>
<svg id="Camada_2" data-name="Camada 2" xmlns="http://www.w3.org/2000/svg" viewBox="0 0 778 746">
  <defs>
    <style>
      .cls-1, .cls-2 {
        stroke-width: 0px;
      }

      .cls-2 {
        fill: #fff;
      }
    </style>
  </defs>
  <g id="Camada_1-2" data-name="Camada 1">
    <g>
      <path class="cls-2" d="m0,0h778v746H0C0,497.33,0,248.67,0,0Zm155.79,705.8c-1.59.49-3.1,1.07-4.65,1.42-4.57,1.03-7.52-1.36-7.14-6.06.15-1.85.9-3.82,1.88-5.42,3.92-6.41,10.72-8,17.28-8.74,20.74-2.36,41.53-4.42,62.34-6.06,21.19-1.67,42.42-3.02,63.66-3.95,23.59-1.03,47.21-1.92,70.82-1.99,35.47-.1,70.93.58,106.4.92.67,0,1.33,0,2,.04,24.83,1.28,49.67,2.51,74.49,3.89,9.44.52,18.87,1.24,28.27,2.15,15.76,1.52,31.52,3.17,47.25,4.95,7.22.82,14.04,3.01,17.82,9.83,1.2,2.17,1.67,5.68.73,7.8-.68,1.53-4.21,2-6.56,2.52-1.26.28-2.72-.33-5.1-.69,1.35,2.84,2.07,5.05,3.33,6.9,7.69,11.3,24.14,11.71,34.08.49,2.85-3.22,5.45-3.88,9.43-3.41,5.26.63,10.69.98,15.94.4,8.96-.99,14.34-6.96,16.69-15.19,1.41-4.95,3.93-6.1,8.57-5.69,4.96.43,9.98.24,14.98.25,16.98.03,26.38-9.34,26.38-26.27,0-38.49.02-76.97-.06-115.46-.02-12.31.25-24.67-.63-36.93-.85-11.87-11.28-20.55-23.12-20.59-5.17-.02-10.33.01-15.5.03-23.33.05-46.66.24-69.99.08-9.32-.06-17.33-3.49-22.34-11.87-4.92-8.22.49-14.57,4.22-21.16.08-.14.2-.27.28-.41,5.75-9.95,12.18-19.57,17.13-29.89,33.99-70.84,38.44-143.49,12.64-217.88-14.18-40.89-37.28-76.08-67.7-106.62-24.12-24.22-51.88-43.07-83.13-57.03-34.85-15.57-71.23-23.95-109.33-24.98-39.12-1.06-76.41,7.18-112.35,22.29-50.4,21.18-90.85,54.89-121.54,99.67-45.47,66.35-60.2,139.47-43.81,218.42,7.61,36.65,23.11,70.02,43.94,101.02,5.18,7.71,4.61,13.33-1.35,20.43-5.6,6.67-13.27,7.88-21.26,7.9-29.66.07-59.32,0-88.98.04-2.98,0-6.06-.02-8.92.67-11.99,2.87-18.46,12.27-18.47,26.77-.02,23.16.1,46.31.15,69.47.06,25.99-.09,51.98.24,77.96.18,14.45,10.05,23.92,24.43,24.28,5.83.14,11.68.25,17.49-.08,4.29-.24,6.37.88,7.63,5.44,3.06,11.08,10.28,15.93,21.89,15.58,5.15-.16,10.29-.93,15.44-.98,1.76-.01,4.06.89,5.2,2.17,4.22,4.76,9,8.32,15.37,9.59,12.02,2.39,23.12-5.02,23.51-16.02Z"/>
      <path class="cls-1" d="m155.79,705.8c-.38,11-11.49,18.41-23.51,16.02-6.37-1.27-11.15-4.82-15.37-9.59-1.14-1.29-3.44-2.19-5.2-2.17-5.15.04-10.29.82-15.44.98-11.62.35-18.83-4.5-21.89-15.58-1.26-4.57-3.34-5.69-7.63-5.44-5.81.33-11.66.22-17.49.08-14.38-.36-24.24-9.83-24.43-24.28-.33-25.98-.18-51.97-.24-77.96-.05-23.16-.17-46.31-.15-69.47.01-14.5,6.48-23.89,18.47-26.77,2.87-.69,5.94-.67,8.92-.67,29.66-.04,59.32.03,88.98-.04,7.99-.02,15.66-1.23,21.26-7.9,5.96-7.09,6.53-12.71,1.35-20.43-20.83-31-36.33-64.38-43.94-101.02-16.4-78.94-1.66-152.07,43.81-218.42,30.69-44.78,71.14-78.49,121.54-99.67,35.94-15.1,73.23-23.34,112.35-22.29,38.1,1.03,74.48,9.41,109.33,24.98,31.25,13.96,59.01,32.81,83.13,57.03,30.42,30.54,53.51,65.72,67.7,106.62,25.8,74.4,21.35,147.04-12.64,217.88-4.96,10.33-11.38,19.95-17.13,29.89-.08.14-.2.27-.28.41-3.74,6.59-9.14,12.95-4.22,21.16,5.01,8.38,13.02,11.81,22.34,11.87,23.33.15,46.66-.03,69.99-.08,5.17-.01,10.33-.05,15.5-.03,11.84.05,22.27,8.73,23.12,20.59.88,12.26.61,24.62.63,36.93.07,38.49.05,76.97.06,115.46,0,16.93-9.39,26.3-26.38,26.27-5,0-10.02.18-14.98-.25-4.64-.4-7.16.74-8.57,5.69-2.35,8.23-7.73,14.2-16.69,15.19-5.24.58-10.67.23-15.94-.4-3.98-.48-6.57.19-9.43,3.41-9.94,11.22-26.4,10.81-34.08-.49-1.26-1.85-1.98-4.06-3.33-6.9,2.39.36,3.84.97,5.1.69,2.35-.52,5.87-.98,6.56-2.52.94-2.12.47-5.63-.73-7.8-3.78-6.82-10.61-9.01-17.82-9.83-15.74-1.78-31.49-3.43-47.25-4.95-9.41-.91-18.84-1.63-28.27-2.15-24.83-1.38-49.66-2.6-74.49-3.89-.67-.03-1.33-.04-2-.04-35.47-.35-70.93-1.02-106.4-.92-23.61.06-47.23.95-70.82,1.99-21.24.93-42.46,2.28-63.66,3.95-20.81,1.64-41.6,3.7-62.34,6.06-6.56.75-13.36,2.34-17.28,8.74-.98,1.6-1.73,3.57-1.88,5.42-.38,4.7,2.57,7.08,7.14,6.06,1.55-.35,3.05-.92,4.65-1.42Zm43.13-474.86c1.7,1.35,3.4,2.7,4.98,3.96-.28,1.33-.57,2.68-1.11,5.26,2.42-1.58,3.61-2.35,4.79-3.13.61-.71,1.22-1.42,1.83-2.13,1.67-1.06,3.34-2.12,5.24-3.32,1.43,1.18,2.81,2.32,3.88,3.2,7.65-1.88,14.42.14,21.34,3.26.88-1.35,1.83-2.79,2.58-3.95,2.72,1.22,5.08,2.28,6.37,2.86,2.58-1.45,4.37-2.46,7.39-4.16-.67,2.93-.94,4.08-1.2,5.23.5.22,1,.43,1.5.65.74-1.59,1.49-3.17,2.25-4.81,2.47.3,5.57.67,8.7,1.05-.12.62-.94,2.32-.63,3.78,1.5,6.96,2.7,14.08,5.18,20.71,2.85,7.61,9.68,9.4,16.68,5.46,1.1-.62,2.63-1.48,3.59-1.14,5.06,1.78,8.77-.66,12.24-3.63,3.6-3.08,6.98-6.41,10.08-9.29,11.53,6.06,23.23,12.2,35.2,18.49-1.09,1.25-1.88,2.31-2.81,3.21-6.34,6.08-11.41,13.05-14.26,21.39-1.13,3.3-2.99,4.12-6.27,4.11-46.3-.12-92.61-.13-138.91-.14-12.66,0-25.33.03-37.98.29-1.32.03-2.61,1.67-3.91,2.56,1.3.88,2.52,2.32,3.92,2.53,2.6.38,5.31.02,7.97.02,55.61.01,111.21.03,166.82.07,1.57,0,3.13.23,4.9.37-.33,6.74.07,12.82-5.71,17.32-3.51,2.73-6.74,6.1-9.23,9.78-8.18,12.07-15.79,24.53-24.02,36.57-2.23,3.26-5.52,6.18-8.96,8.14-3.69,2.09-8.1,2.97-12.25,4.18-9.05,2.65-18.04,5.82-24.38,13.02-8.1,9.21-15.57,19-22.99,28.78-8.28,10.9-16.88,20.03-32.74,16.59-7.45-1.62-14.61,4.65-14.7,12.29-.22,18.85.36,37.74,8.15,55.4,1.7,3.86,4.21,7.72,7.28,10.56,6.43,5.93,15.24,3.24,17.77-5.14,1-3.31.89-6.95,1.78-10.3,1.91-7.18,2.56-15.36,6.56-21.2,8.76-12.78,21.81-21.2,35.29-28.64,1.53-.84,3.49-1.25,5.25-1.25,26.33,0,52.66.08,78.99.19,1.77,0,3.53.37,5.72.61,0,4.27-.27,8.12.08,11.9.33,3.54-.93,4.95-4.37,4.77-1.83-.1-3.67-.04-5.5-.03-32.8.25-65.6.54-98.39.71-3.85.02-6.35,1.54-6.39,5.32-.03,3.83,2.94,4.71,6.29,4.77,5.99.12,11.98.52,17.98.54,29.66.1,59.33.14,88.99.1,2.89,0,4.82.59,6.52,3.31,3.24,5.21,8.59,7.44,13.23,4.54,3.65-2.27,6.11-6.61,8.74-10.29,1.34-1.87,1.88-4.32,2.78-6.5.65-.02,1.31-.04,1.96-.07.85,2.77,1.7,5.54,2.75,8.94.53,0,2.17,0,3.8,0,63.16.02,126.32-.22,189.48.32,9.55.08,13.13-5.42,18.59-12.21h-215.43c2.01-12.44,6.99-16.85,18.26-16.84,52.83,0,105.65,0,158.48,0,3.29,0,6.57,0,9.86,0-8.47-.89-16.93-.89-25.4-.89-4.23,0-9.28,1.12-7.97-6.18.16-.9-.74-1.99-1.75-4.44,9.42-.11,17.97-.25,26.52-.3,8.42-.05,16.85-.01,25.28-.01,0-.41,0-.82-.01-1.24h-174.28c1.97-2.21,4.11-3.41,6.35-4.4,13.71-6.02,27.45-11.97,41.16-18,12.59-5.53,24.26-12.51,34.06-22.31,9.23-9.24,10.85-19.61,6.3-31.51-6.95-18.2-19.58-31.93-33.6-44.68-4.34-3.95-9.09-7.47-14.5-11.88,2.49-.14,3.77-.26,5.04-.27,11.65-.08,23.29-.19,34.94-.19,41.73-.02,83.47,0,125.2-.02,10.48,0,20.96-.03,31.43-.28,1.14-.03,2.24-1.6,3.35-2.46-1.17-.99-2.2-2.35-3.55-2.86-1.31-.5-2.96-.13-4.46-.13-65.28,0-130.57-.07-195.85.11-5.94.02-10.49-2.23-15.09-5.32,4.78-6.04,10.62-10.02,17.71-12.66,9.81-3.66,19.49-7.73,28.99-12.16,3.25-1.51,5.01-1.16,7.93.76,11.1,7.29,22.31,14.47,33.93,20.87,7.73,4.26,16.4,5.38,24.21-.19,12.76-9.12,22.9-20.78,30.7-34.34,4.53-7.88,9.04-15.44,17.8-19.46,1.98-.91,3.25-3.37,5.55-5.9,3.78.54,9.25,3.5,12.71-1.09,2.69,2.4,4.88,4.36,7.07,6.31,1.2-1.54,2.4-3.08,3.59-4.62-.33-.32-.65-.63-.98-.95,1.42-.16,2.84-.33,4.26-.5-.15,2.39-.29,4.44-.49,7.51,2.03-2.1,3-3.4,4.25-4.31,1.32-.96,2.9-1.55,3.62-1.92,1.5,1.25,2.74,2.3,3.99,3.34.38-1.71.9-3.4,1.06-5.13.09-.93-.41-1.94-.71-2.89-3.5-11.04-.42-9.08-12.07-9.28-7.94-.13-15.88-.03-24.07-.03,0-4.15,0-7.29,0-10.43,0-3.33.08-6.67-.03-10-.23-6.35-4.45-12.52-10.02-14.32-6.16-1.99-10.12,1.44-13.56,5.94-.86,1.13-1.92,2.11-2.82,3.09-7.18-4.2-10.66-3.89-14.14,2.21-2.15,3.77-3.22,8.25-4.24,12.54-.82,3.46-.83,7.11-1.23,10.9-12.74,0-25.05.06-37.36-.04-3.23-.02-6.52-6.99-4.31-9.64,6.21-7.44,8.22-16.56,11.05-25.4.49-1.54,1.88-3.45,3.27-3.91,4.39-1.43,4.75-4.26,4.28-8.21-.84-7.08-1.33-14.22-1.7-21.34-.08-1.49,1.19-2.99,1.53-4.56.87-3.97,1.84-7.95,2.28-11.97.56-5.18-4.62-7-6.78-10.61-1.04-1.74-2.27-4.03-1.89-5.72.25-1.1,3.28-2.29,5.02-2.22,8.52.34,17.03,1.09,26.06,1.74-.43-1.23-.47-2.64-1.17-3.16-33.88-24.91-70.11-44.51-112.26-51.73-34.3-5.88-68.02-4.21-101.39,5.31-33.27,9.49-63.06,25.55-89.82,47.17.18.37.37.74.55,1.12h37.51c-1.03,8.47-2.61,17.12-3.03,25.82-1.09,22.29,2.62,43.78,12.17,64.11.46.99,1.03,2.25.79,3.18-.8,3.12-10.49,9.97-13.81,9.97-35.49.06-70.99.11-106.48.15-7.77,0-7.77-.03-9.57,7.58-.78,3.27,1.83,12.02,4.23,12.12,2.28.09,4.65-2.23,7.01-3.43.39-.2.93-.09,1.73-.16v6.5c3.81-.21,7.21-.4,10.61-.59.07-.01.14-.03.21-.05.29,1.18.58,2.36.69,2.8,4.1,1.57,4.73-5.69,9.1-2.39-.36-8.68-.22-7.13,5.53-7.3l-.1-.15Zm234.93,305.27c1.48-.13,2.97-.37,4.45-.36,20.97.04,41.95.12,62.92.19,8.91.03,13.91-6.81,20.48-11.03-1.79-.66-3.28-.66-4.76-.66-61.32-.02-122.64-.04-183.97-.05-8.26,0-8.12,0-7.79,8.36.12,3.13,1.42,4.05,4.29,3.96,3.86-.13,7.73-.03,10.52-.03-.94,3.87-2.33,7.36-2.53,10.92-.39,6.81-.11,13.65-.1,20.48.05,27.16.09,54.32.17,81.48.02,6.05,1.37,7.38,7.31,7.51,3.66.08,7.33.07,11,.04,5.57-.05,6.67-1.13,6.7-6.8.07-13.83.06-27.66.14-41.49,0-1.82.33-3.64.51-5.46.53-.12,1.05-.24,1.58-.37,7.59,13.61,15.19,27.22,23.51,42.14,8.4-15.05,16.06-28.77,23.72-42.49.56.19,1.12.38,1.68.58.08,1.74.23,3.47.24,5.21.07,14,.2,28,.11,41.99-.03,4.66,1.85,6.81,6.51,6.69,4-.1,8,.05,12-.05,5.61-.14,6.7-1.23,6.71-6.83.08-33.82.05-67.64.25-101.46.03-5.23-1.15-9.5-5.51-12.6l-.13.14Zm-234.87,31.39c-3.55-1.53-5.68-2.96-7.97-3.3-3.43-.52-6.98-.23-10.47-.36-3.67-.14-5.65,1.38-5.65,5.24.05,29.15.08,58.3.08,87.45,0,3.46,1.91,4.76,5.04,4.74,3.5-.01,7-.1,10.49-.22,6.4-.22,6.71-.56,6.69-6.99-.05-17.99-.08-35.98-.16-53.97-.02-4.71.88-9.04,4.94-11.94,3.91-2.81,8.27-3.57,12.74-1.44,4.86,2.32,6.99,6.41,7,11.72.05,17.82.1,35.65.17,53.47.03,6.56.53,7.03,7.25,6.83,3-.09,5.99-.44,8.98-.41,4.36.04,5.86-2.16,5.74-6.26-.15-5.21-.04-10.43-.04-15.64,1.29.52,1.74,1.16,2.13,1.84,7.67,13.38,19.18,19.83,34.63,19.41,8.32-.23,16.65-.21,24.98-.37,5.72-.11,6.55-.97,6.57-6.81.05-11.83.07-23.65.07-35.48,0-30.15,0-60.3-.02-90.44,0-6.54-.99-7.46-7.59-7.48-2.83,0-5.67.1-8.49,0-4.61-.15-6.68,1.96-6.67,6.6.03,11.66-.12,23.32-.18,34.97-.02,2.73,0,5.46,0,8.57-15.52-8.55-32.7-4.97-46.08,18.19-13.37-22.87-27.52-28.2-44.16-17.93Zm483.41-.42c-.1-1.56-.22-2.66-.23-3.75-.03-13.49-.19-26.98.02-40.47.08-4.82-1.73-6.7-6.44-6.41-3.32.2-6.66.02-9.99.01-6.32-.02-6.81.48-6.82,6.79-.02,20.82-.07,41.63-.06,62.45.01,24.31.17,48.63.04,72.94-.03,4.93,1.88,7.09,6.68,7.04,3.33-.04,6.66.09,9.99.07,6.39-.03,6.64-.36,6.67-6.88.09-20.32.1-40.63.41-60.94.13-8.19,5.26-12.99,12.83-12.92,7.46.06,11.69,4.55,11.79,13.04.23,19.98.32,39.97.39,59.95.05,14.38.92,15.25,15.33,14.58,5.46-.26,7.04-1.82,7.04-7.37.02-23.82.14-47.63-.07-71.45-.2-22.67-23.92-37.4-44.51-27.86-.86.4-1.77.67-3.1,1.16Zm-611.53,35.82c2.22-.12,3.68-.26,5.15-.26,8.99-.04,17.98,0,26.98-.1,6.36-.08,7.25-1.04,7.3-7.21.02-2,.03-4,0-5.99-.21-13.48,1.6-11.36-11.82-11.55-8.93-.13-17.86-.02-27.11-.02v-37.71c2.16,0,3.95,0,5.75,0,12.82-.04,25.64-.2,38.46-.07,4.16.04,5.76-1.72,5.66-5.65-.1-3.83-.24-7.66-.11-11.49.16-4.63-1.69-6.54-6.51-6.52-19.8.07-39.61-.15-59.42-.24-5.25-.02-7.06,1.82-7.08,7.31-.03,9.49.06,18.98.06,28.47.01,37.47,0,74.93.03,112.4,0,6.67,1.66,8.31,8.22,8.35,2.83.02,5.66-.09,8.49-.03,3.95.08,5.85-1.86,5.91-5.74.02-1.5.04-3,.04-4.5,0-19.63,0-39.25,0-59.46Zm423.7-1.24c-17.5-7.76-31.2-5.38-40.93,6.91-8.64,10.92-8.89,25.13-.72,36.08,4.14,5.55,9.5,9.18,16.12,11.15,9.97,2.96,18.59-.38,27.26-6.32,2.43,9.1,9.52,7.84,15.92,8.07,2.16.08,4.33.12,6.49.07,5.21-.12,6.05-1.5,3.43-5.93-4.26-7.21-6.3-14.87-6.07-23.32.3-10.81.11-21.64.05-32.47-.01-2.15-.12-4.35-.62-6.43-3.22-13.34-11.84-21.7-24.67-25.74-14.27-4.49-27.17-1.56-39.26,8.11,3.61,5.55,7.09,10.89,10.6,16.28,8.76-4.29,17.1-9.36,26.18-2.84,5.4,3.88,6.86,9.74,6.2,16.37Zm-275.72-100.29c2.88,4.33,6.37,5.21,10.68,5.21,104.32-.05,208.64-.1,312.95.23,8.61.03,12.27-5.36,16.93-10.77H224.26c.36,4.05,1.27,8.44-5.41,5.33Zm316.37,61.42c-4.41,3.61-12.47-3.05-13.16,6.2-.38,5.07-1.04,10.87,1,15.08,1.11,2.28,7.65,1.92,12.1,2.82,0,13.23,0,26.54,0,39.85.02,22.37,21.35,38.56,45.23,32.27,1.45-.38,2.76-1.33,4.4-2.16-3.66-5.64-7.04-10.57-10.11-15.68-1.73-2.88-3.03-5.33-7.25-3.66-1.3.51-4.18-.7-5.11-2-1.98-2.76-4.34-6.05-4.45-9.19-.43-13.11-.09-26.25,0-39.37,0-.24.4-.48.9-1.03,3.54,0,7.36-.05,11.18.02,2.94.05,4.27-1.3,4.25-4.21-.04-4.33-.15-8.66.06-12.98.16-3.42-1.09-4.9-4.58-4.74-3.77.17-7.55.04-11.93.04,0-7.02-.24-13.49.08-19.93.24-4.91-1.72-6.63-6.45-6.2-3.3.29-6.66.15-9.98.07-4.43-.11-6.33,1.91-6.21,6.37.18,6.3.04,12.61.04,18.45Zm118.17,11.5c-9.71-10.99-26.88-14.93-41.19-9.79-14.57,5.24-25.47,19.16-25.95,33.59-.29,8.82-.41,17.67-.12,26.49.96,28.79,32.17,48.8,58.71,37.69,2.96-1.24,5.58-3.27,8.36-4.94-4.02-6.31-7.56-11.87-11.26-17.67-.83.38-1.55.72-2.28,1.06-15.33,7.31-29.26-.31-30.93-17.31-.73-7.43-.82-15-.36-22.46.86-13.9,13.84-21.54,26.72-16.08,2.4,1.02,4.71,2.27,7.06,3.42,3.82-4.77,7.44-9.29,11.22-14.02Zm-520.46,39.74h.12c0,14.83-.04,29.66.02,44.5.02,5.8.9,6.57,6.76,6.53,3.33-.03,6.67-.27,10-.1,4.78.25,6.38-1.83,6.34-6.56-.21-20.16-.14-40.33-.16-60.49,0-9.33-.03-18.67.05-28,.03-4.16-1.75-6.17-6.02-6.03-3.66.12-7.34.16-11-.03-4.52-.24-6.22,1.69-6.17,6.2.16,14.66.06,29.33.06,43.99Zm12.81-62.33c7.91,0,14.6-6.41,14.6-14.01,0-7.95-7.02-15.13-14.85-15.18-7.78-.05-14.73,6.91-14.65,14.66.08,7.67,7.11,14.53,14.9,14.53Zm101.87-27.44c3.07,2.44,5.18,4.19,7.38,5.85,4.93,3.72,9.8,7.7,16.66,6.32,1.99-.4,5.43-.61,5.65-1.53.72-2.95.36-6.21.13-9.32-.04-.49-1.54-1.24-2.38-1.25-8.77-.09-17.54-.06-27.44-.06Z"/>
      <path class="cls-2" d="m183.49,238.03c-3.4.19-6.8.38-10.61.59v-6.5c-.8.06-1.35-.04-1.73.16-2.36,1.2-4.73,3.52-7.01,3.43-2.41-.09-5.01-8.85-4.23-12.12,1.81-7.61,1.81-7.58,9.57-7.58,35.49-.04,70.99-.09,106.48-.15,3.33,0,13.01-6.85,13.81-9.97.24-.94-.33-2.2-.79-3.18-9.55-20.33-13.27-41.82-12.17-64.11.43-8.7,2-17.35,3.03-25.82h-37.51c-.18-.37-.37-.74-.55-1.12,26.76-21.62,56.55-37.67,89.82-47.17,33.36-9.52,67.08-11.19,101.39-5.31,42.15,7.23,78.38,26.83,112.26,51.73.7.52.74,1.93,1.17,3.16-9.02-.64-17.53-1.39-26.06-1.74-1.74-.07-4.77,1.12-5.02,2.22-.38,1.69.85,3.98,1.89,5.72,2.15,3.61,7.34,5.42,6.78,10.61-.44,4.03-1.41,8-2.28,11.97-.34,1.56-1.61,3.07-1.53,4.56.37,7.13.86,14.26,1.7,21.34.47,3.95.12,6.78-4.28,8.21-1.39.45-2.78,2.37-3.27,3.91-2.83,8.85-4.85,17.96-11.05,25.4-2.21,2.65,1.08,9.62,4.31,9.64,12.31.09,24.63.04,37.36.04.39-3.79.41-7.44,1.23-10.9,1.02-4.29,2.09-8.78,4.24-12.54,3.49-6.1,6.97-6.41,14.14-2.21.9-.97,1.96-1.96,2.82-3.09,3.44-4.5,7.4-7.93,13.56-5.94,5.57,1.8,9.79,7.97,10.02,14.32.12,3.33.03,6.66.03,10,0,3.14,0,6.28,0,10.43,8.18,0,16.13-.11,24.07.03,11.65.19,8.57-1.76,12.07,9.28.3.95.8,1.96.71,2.89-.16,1.73-.69,3.42-1.06,5.13-1.25-1.04-2.49-2.08-3.99-3.34-.72.37-2.31.96-3.62,1.92-1.25.91-2.21,2.21-4.25,4.31.2-3.07.33-5.12.49-7.51-1.42.17-2.84.33-4.26.5.33.32.65.63.98.95-1.2,1.54-2.4,3.08-3.59,4.62-2.19-1.96-4.38-3.91-7.07-6.31-3.46,4.58-8.93,1.63-12.71,1.09-2.3,2.52-3.57,4.99-5.55,5.9-8.77,4.02-13.27,11.58-17.8,19.46-7.8,13.55-17.94,25.22-30.7,34.34-7.8,5.58-16.48,4.46-24.21.19-11.62-6.4-22.83-13.58-33.93-20.87-2.92-1.91-4.68-2.27-7.93-.76-9.49,4.43-19.17,8.5-28.99,12.16-7.09,2.64-12.93,6.62-17.71,12.66,4.6,3.09,9.14,5.33,15.09,5.32,65.28-.18,130.57-.11,195.85-.11,1.5,0,3.14-.37,4.46.13,1.35.51,2.38,1.87,3.55,2.86-1.12.86-2.22,2.43-3.35,2.46-10.47.25-20.95.28-31.43.28-41.73.02-83.47,0-125.2.02-11.65,0-23.29.11-34.94.19-1.27,0-2.54.13-5.04.27,5.42,4.41,10.16,7.93,14.5,11.88,14.02,12.75,26.65,26.48,33.6,44.68,4.55,11.9,2.93,22.27-6.3,31.51-9.8,9.8-21.46,16.78-34.06,22.31-13.71,6.02-27.45,11.97-41.16,18-2.24.98-4.38,2.18-6.35,4.4h174.28c0,.41,0,.82.01,1.24-8.43,0-16.85-.04-25.28.01-8.55.05-17.1.19-26.52.3,1,2.45,1.91,3.54,1.75,4.44-1.3,7.3,3.74,6.18,7.97,6.18,8.46,0,16.93,0,25.4.89-3.29,0-6.57,0-9.86,0-52.83,0-105.65.01-158.48,0-11.27,0-16.25,4.41-18.26,16.84h215.43c-5.46,6.78-9.04,12.29-18.59,12.21-63.16-.53-126.32-.3-189.48-.32-1.64,0-3.28,0-3.8,0-1.04-3.39-1.9-6.16-2.75-8.94-.65.02-1.31.04-1.96.07-.9,2.19-1.44,4.63-2.78,6.5-2.63,3.68-5.09,8.02-8.74,10.29-4.65,2.89-9.99.67-13.23-4.54-1.7-2.72-3.62-3.31-6.52-3.31-29.66.03-59.33,0-88.99-.1-5.99-.02-11.98-.43-17.98-.54-3.35-.06-6.32-.94-6.29-4.77.03-3.77,2.53-5.3,6.39-5.32,32.8-.17,65.6-.46,98.39-.71,1.83-.01,3.67-.07,5.5.03,3.45.18,4.7-1.23,4.37-4.77-.35-3.78-.08-7.63-.08-11.9-2.19-.24-3.96-.6-5.72-.61-26.33-.11-52.66-.19-78.99-.19-1.76,0-3.73.41-5.25,1.25-13.48,7.44-26.53,15.86-35.29,28.64-4,5.83-4.65,14.01-6.56,21.2-.89,3.36-.78,6.99-1.78,10.3-2.52,8.38-11.34,11.06-17.77,5.14-3.08-2.84-5.58-6.7-7.28-10.56-7.79-17.67-8.37-36.55-8.15-55.4.09-7.64,7.25-13.91,14.7-12.29,15.86,3.44,24.47-5.68,32.74-16.59,7.42-9.78,14.89-19.57,22.99-28.78,6.34-7.2,15.32-10.37,24.38-13.02,4.15-1.21,8.56-2.09,12.25-4.18,3.44-1.95,6.73-4.87,8.96-8.14,8.23-12.04,15.84-24.5,24.02-36.57,2.49-3.67,5.73-7.05,9.23-9.78,5.78-4.49,5.38-10.57,5.71-17.32-1.77-.14-3.33-.37-4.9-.37-55.61-.04-111.21-.06-166.82-.07-2.66,0-5.37.36-7.97-.02-1.4-.21-2.62-1.65-3.92-2.53,1.3-.89,2.59-2.54,3.91-2.56,12.66-.26,25.32-.29,37.98-.29,46.3,0,92.61.02,138.91.14,3.28,0,5.14-.81,6.27-4.11,2.85-8.34,7.92-15.31,14.26-21.39.94-.9,1.73-1.96,2.81-3.21-11.97-6.29-23.67-12.44-35.2-18.49-3.1,2.87-6.48,6.21-10.08,9.29-3.48,2.98-7.18,5.41-12.24,3.63-.95-.33-2.49.52-3.59,1.14-7,3.94-13.83,2.16-16.68-5.46-2.48-6.63-3.68-13.75-5.18-20.71-.31-1.45.51-3.15.63-3.78-3.14-.38-6.23-.75-8.7-1.05-.77,1.64-1.51,3.23-2.25,4.81-.5-.22-1-.43-1.5-.65.26-1.15.53-2.3,1.2-5.23-3.02,1.7-4.81,2.71-7.39,4.16-1.3-.58-3.66-1.64-6.37-2.86-.76,1.15-1.7,2.6-2.58,3.95-6.92-3.12-13.69-5.14-21.34-3.26-1.06-.88-2.45-2.02-3.88-3.2-1.89,1.2-3.57,2.26-5.24,3.31.17-1.25.35-2.48.35-2.45-2.93-1.91-5.03-3.27-7.42-4.83-.89.94-2.11,2.21-3.32,3.48-5.75.17-5.89-1.38-5.53,7.3-4.36-3.31-4.99,3.96-9.1,2.39-.11-.44-.4-1.62-.69-2.8,1.43.09,2.85.17,4.45.27-.4-2.9-.68-4.96-1-7.26-.96,1.14-1.8,2.16-3.42,4.09v-4.4c-.65.08-1.3.16-1.95.24l1.7,7.1Zm92.54,198.55c2.14.24,4.27.69,6.41.7,17.15.08,34.31.08,51.46.13,1.73,0,3.47.21,5.25.33v7.74c1.14-.57,1.29-1.17,1.37-1.77,1.16-9.55,2.05-19.14,3.54-28.64,1.26-8.06,6.05-11.57,14.23-11.6,6.15-.02,12.34-.75,18.45-.31,7.53.53,13.04-2.62,17.08-8.33,6.13-8.66,11.77-17.66,18.28-27.52-7.59-.76-14.64-1.46-21.71-2.17,1.47-.15,2.95-.31,5.04-.53-1.9-.86-3.06-1.54-4.32-1.94-3.99-1.28-7-6.84-11.8,1.23-4.63,7.78-13.22,13.29-20.34,19.48-25,21.76-52.67,39.43-82.76,53.21-6.21,3.85-12.43,7.7-19.4,12.03,14.58,0,28.33.57,41.99-.22,7.85-.46,9.61-3.32,9.73-10.29-7.94,0-15.88.13-23.82-.07-2.91-.07-5.79-.95-8.68-1.46Zm201.2-244.48q7.44-8.88,17.35-5.86c.8.24,1.59.48,2.4.68q7.17,1.77,8.88-5.47,2.07-8.77,10.01-11.53c-1.36-6.52-4.59-12.51-3.7-19.93.49-4.04.44-7.56,2.67-11.22,1.16-1.9,1.8-5.49.77-7.08-3.05-4.67-7.55-7.93-13.41-8.67-6.55-.83-13.12-1.53-19.66-2.5-13.74-2.03-25.72,8.02-25.56,21.87.05,4.29.71,8.64,1.62,12.85,1.22,5.58-.8,9.61-4.81,13.15-.82-.43-1.46-.66-1.97-1.05-12.54-9.74-26.72-12-42.07-9.61-2.43.38-5.41-.07-7.59-1.19-10.05-5.16-20.71-7.13-31.87-7.15-8.5-.02-17-.39-25.49-.09-2.71.09-5.83,1.22-7.96,2.9-12.3,9.67-20.97,22.19-27.47,36.32-5.03,10.95-10.67,21.47-20.54,29.06-1.94,1.49-3.42,3.64-4.89,5.65-6.07,8.29-12.14,16.61-6.34,27.68.51.96.05,2.42.54,3.41.91,1.86,1.82,4.24,3.41,5.04,1.03.52,3.51-1.09,4.93-2.25,3.8-3.08,7.38-6.43,11.49-10.07-.42,3.14-.74,5.48-1.05,7.81.49.1.99.2,1.48.31,6.59-7.46,14.59-14.21,12.49-26.02-.85-4.81.73-9.03,3.96-12.4,5.05-5.26,9.97-10.85,15.81-15.11,8.98-6.55,19.18-11.62,22.21-24.35,12.79,9.56,25.92,16.05,40.35,15.59-4.61,16.56-9,33.05-13.82,49.42-3.12,10.6-9.07,19.59-17.29,27.04-3.21,2.91-6.42,5.82-9.55,8.82-10.33,9.9-15.98,22.02-16.56,36.32-.17,4.16-1.56,7.2-4.64,9.96-10.5,9.42-19.19,20.3-26.02,32.69-3.53,6.41-7.26,12.73-11.1,18.96-3.31,5.36-8.06,8.5-14.48,9.59-12,2.04-23.45,5.85-32.07,14.94-4.89,5.16-9.07,11.05-13.13,16.91-6.59,9.51-13.69,18.48-23.24,25.21-4.81,3.39-10.09,4.97-16.04,3.95-1.79-.31-3.65-.39-5.47-.39-5.96,0-8.01,1.8-7.72,7.73.49,10.31.64,20.72,2.37,30.85,1.29,7.56,4.61,14.84,7.57,22.01.7,1.69,3.62,2.47,5.52,3.66.97-1.77,2.13-3.46,2.84-5.33.52-1.36.48-2.95.6-4.44,1.3-15.93,7.83-29.11,20.61-38.96,4.22-3.25,8.19-6.95,12.77-9.59,19.47-11.19,39.22-21.91,58.7-33.08,32.05-18.37,63.44-37.63,85-68.95,1.63-2.37,3.1-1.96,5.43-1.1,13.88,5.08,27.84,9.93,41.78,14.85,2.24.79,4.52,1.49,6.78,2.24-9.8,2.93-15.97,9.54-21.27,17.2-3.32,4.79-6.07,10.03-9.79,14.48-9.83,11.74-21.34,19.73-37.79,14.43-.63-.2-1.31-.25-1.97-.34-5.86-.84-8.65.81-9.58,6.6-1.16,7.23-2.33,14.53-2.49,21.83-.22,9.95.1,19.96,1.08,29.86.3,3.04,3.17,7.76,5.55,8.23,4.14.82,4.07-4.4,4.98-7.31,5.84-18.75,16.7-33.12,34.88-41.49,16.64-7.66,33.4-15.08,49.73-23.34,10.34-5.23,20.4-11.25,29.85-17.94,7.47-5.3,9.67-13.57,6.47-22.35-2.15-5.89-4.74-11.8-8.17-17.02-11.25-17.09-26.19-30.55-43.2-41.72-6.5-4.27-13.37-7.98-20.36-12.12,4.87-8.06,11.27-14.43,19.18-19.31,13.31-8.22,26.62-16.45,40.06-24.47,1.02-.61,3.78-.16,4.4.72,9.02,12.89,21.99,20.61,35.53,27.63,13.18,6.83,18.93,6.63,29.5-3.95,6.99-6.99,12.46-15.5,18.49-23.43,4.22-5.55,7.33-12.31,12.49-16.68,13.47-11.39,15.9-25.87,13.72-41.92-.29-2.15-3.2-4.5-5.45-5.57-.99-.47-3.83,1.72-5.07,3.29-4.33,5.5-8.33,11.27-12.61,17.15-.53-4.71-1-8.83-1.47-12.95-.57-.06-1.15-.12-1.72-.18-.82,1.53-2.23,3.02-2.36,4.6-.52,6.54-.71,13.11-.91,19.67-.08,2.57,1.22,6.11-.02,7.55-4.11,4.75-8.65,9.4-13.86,12.85-6.93,4.58-14.63,7.99-21.94,11.87-.63-10.79-7.89-18.06-17.28-24-1.44-.91-2.52-3.4-2.63-5.23-.69-11.53-6.05-20.21-15.38-26.69-1.75-1.21-3.43-2.52-5.43-3.98Zm-22.76,246.94c0-.3,0-.59,0-.89-3.5,0-7-.08-10.49.02-4.35.13-5.92,1.92-4.6,5.95.58,1.77,2.48,4.19,3.96,4.33,2.19.21,5.04-.8,6.74-2.28,2.53-2.22,4.04-3.37,5.89.49.49,1.02,2.13,2.13,3.22,2.1,8.3-.23,16.6-.67,24.89-1.19,1.26-.08,2.88-.55,3.63-1.44,1.2-1.43,1.82-3.35,2.69-5.07-1.5-.67-2.99-1.91-4.51-1.93-10.47-.17-20.94-.09-31.41-.09Z"/>
      <path class="cls-2" d="m433.99,536.07c4.36,3.1,5.54,7.37,5.51,12.6-.2,33.82-.17,67.64-.25,101.46-.01,5.61-1.1,6.69-6.71,6.83-4,.1-8-.05-12,.05-4.66.12-6.54-2.03-6.51-6.69.09-14-.04-27.99-.11-41.99,0-1.74-.15-3.47-.24-5.21-.56-.19-1.12-.38-1.68-.58-7.66,13.72-15.32,27.44-23.72,42.49-8.32-14.92-15.92-28.53-23.51-42.14-.53.12-1.05.24-1.58.37-.18,1.82-.5,3.64-.51,5.46-.08,13.83-.07,27.66-.14,41.49-.03,5.67-1.12,6.75-6.7,6.8-3.67.03-7.33.04-11-.04-5.94-.13-7.29-1.45-7.31-7.51-.09-27.16-.12-54.32-.17-81.48-.01-6.83-.29-13.68.1-20.48.2-3.56,1.6-7.05,2.53-10.92-2.79,0-6.66-.1-10.52.03-2.87.1-4.16-.82-4.29-3.96-.33-8.37-.47-8.36,7.79-8.36,61.32.02,122.64.03,183.97.05,1.49,0,2.98,0,4.76.66-6.56,4.22-11.57,11.06-20.48,11.03-20.97-.07-41.95-.15-62.92-.19-1.48,0-2.97.24-4.45.36.38-4.47-2.06-5.6-5.9-4.83-1.78.35-3.5,1.03-5.28,1.46-5.23,1.26-10.44,3.39-15.71,3.54-16.52.46-33.06.17-49.19.17,2.14,2.96,4.78,5.94,6.64,9.34,6.4,11.64,12.51,23.44,18.77,35.16,1.43,2.68,3.01,5.29,4.77,8.36,1.51-2.18,2.7-3.59,3.56-5.18,6.55-12.13,13.16-24.23,19.52-36.46,6.29-12.1,9.33-13.77,22.95-11.69Z"/>
      <path class="cls-2" d="m198.98,567.6c16.64-10.28,30.8-4.94,44.16,17.93,13.37-23.16,30.56-26.74,46.08-18.19,0-3.12-.01-5.85,0-8.57.07-11.66.21-23.32.18-34.97-.01-4.64,2.06-6.75,6.67-6.6,2.83.09,5.66-.01,8.49,0,6.6.02,7.58.95,7.59,7.48.03,30.15.03,60.3.02,90.44,0,11.83-.02,23.65-.07,35.48-.03,5.84-.86,6.7-6.57,6.81-8.33.16-16.66.14-24.98.37-15.44.43-26.95-6.03-34.63-19.41-.39-.68-.83-1.32-2.13-1.84,0,5.21-.11,10.43.04,15.64.12,4.1-1.38,6.3-5.74,6.26-2.99-.03-5.99.32-8.98.41-6.72.2-7.22-.27-7.25-6.83-.07-17.82-.12-35.65-.17-53.47-.01-5.3-2.15-9.4-7-11.72-4.47-2.13-8.83-1.37-12.74,1.44-4.06,2.91-4.96,7.24-4.94,11.94.08,17.99.11,35.98.16,53.97.02,6.43-.28,6.77-6.69,6.99-3.5.12-6.99.21-10.49.22-3.13.01-5.04-1.28-5.04-4.74,0-29.15-.03-58.3-.08-87.45,0-3.86,1.98-5.38,5.65-5.24,3.49.13,7.04-.16,10.47.36,2.29.35,4.42,1.78,7.97,3.3Zm90.86,44.65h-.06c0-4.15.02-8.31,0-12.46-.06-8.73-4.76-14.25-12.34-14.53-7.85-.29-14.96,5.95-15.35,13.97-.32,6.63-.42,13.31.02,19.93.69,10.27,9.74,17.49,19.11,15.77,5.84-1.07,8.59-4.33,8.61-10.22.01-4.15,0-8.31,0-12.46Z"/>
      <path class="cls-2" d="m682.39,567.17c1.32-.49,2.24-.77,3.1-1.16,20.59-9.54,44.31,5.19,44.51,27.86.21,23.81.09,47.63.07,71.45,0,5.55-1.59,7.11-7.04,7.37-14.41.67-15.28-.2-15.33-14.58-.07-19.98-.16-39.97-.39-59.95-.1-8.5-4.33-12.98-11.79-13.04-7.57-.07-12.7,4.74-12.83,12.92-.32,20.31-.32,40.63-.41,60.94-.03,6.52-.28,6.85-6.67,6.88-3.33.02-6.66-.11-9.99-.07-4.8.05-6.71-2.11-6.68-7.04.13-24.31-.03-48.63-.04-72.94-.01-20.82.04-41.63.06-62.45,0-6.31.5-6.81,6.82-6.79,3.33,0,6.67.19,9.99-.01,4.71-.29,6.52,1.6,6.44,6.41-.21,13.49-.05,26.98-.02,40.47,0,1.1.13,2.19.23,3.75Z"/>
      <path class="cls-2" d="m70.86,602.99c0,20.21,0,39.83,0,59.46,0,1.5-.01,3-.04,4.5-.06,3.88-1.96,5.81-5.91,5.74-2.83-.05-5.66.05-8.49.03-6.56-.04-8.21-1.67-8.22-8.35-.03-37.47-.02-74.93-.03-112.4,0-9.49-.09-18.98-.06-28.47.02-5.49,1.83-7.34,7.08-7.31,19.81.08,39.61.31,59.42.24,4.82-.02,6.66,1.89,6.51,6.52-.13,3.82,0,7.66.11,11.49.1,3.93-1.5,5.69-5.66,5.65-12.82-.13-25.64.03-38.46.07-1.8,0-3.59,0-5.75,0v37.71c9.25,0,18.19-.1,27.11.02,13.41.19,11.61-1.93,11.82,11.55.03,2,.02,4,0,5.99-.05,6.16-.94,7.13-7.3,7.21-8.99.11-17.98.06-26.98.1-1.47,0-2.94.15-5.15.26Z"/>
      <path class="cls-2" d="m494.56,601.75c.66-6.63-.8-12.49-6.2-16.37-9.08-6.52-17.42-1.45-26.18,2.84-3.51-5.39-6.98-10.73-10.6-16.28,12.09-9.67,24.99-12.6,39.26-8.11,12.83,4.04,21.45,12.4,24.67,25.74.5,2.07.61,4.28.62,6.43.06,10.82.25,21.65-.05,32.47-.24,8.45,1.81,16.1,6.07,23.32,2.62,4.43,1.77,5.81-3.43,5.93-2.16.05-4.33.01-6.49-.07-6.41-.23-13.49,1.03-15.92-8.07-8.67,5.93-17.28,9.28-27.26,6.32-6.62-1.97-11.98-5.6-16.12-11.15-8.17-10.95-7.93-25.15.72-36.08,9.72-12.29,23.43-14.67,40.93-6.91Zm-14.48,15.52c-5.54-.14-9.73,3.34-9.96,8.27-.26,5.71,4.01,10.06,9.9,10.1,5.44.03,10.28-4.31,10.43-9.34.15-5.16-4.1-8.86-10.37-9.02Z"/>
      <path class="cls-2" d="m218.84,501.47c6.68,3.1,5.78-1.28,5.41-5.33h335.15c-4.66,5.41-8.32,10.8-16.93,10.77-104.32-.34-208.64-.28-312.95-.23-4.31,0-7.8-.88-10.68-5.21Z"/>
      <path class="cls-2" d="m535.21,562.89c0-5.83.13-12.14-.04-18.45-.12-4.46,1.78-6.48,6.21-6.37,3.33.08,6.68.23,9.98-.07,4.73-.42,6.69,1.29,6.45,6.2-.31,6.44-.08,12.9-.08,19.93,4.38,0,8.16.13,11.93-.04,3.49-.16,4.74,1.32,4.58,4.74-.21,4.32-.1,8.66-.06,12.98.03,2.92-1.31,4.27-4.25,4.21-3.82-.07-7.64-.02-11.18-.02-.5.55-.89.79-.9,1.03-.09,13.13-.43,26.26,0,39.37.1,3.14,2.47,6.44,4.45,9.19.93,1.3,3.81,2.51,5.11,2,4.22-1.67,5.52.79,7.25,3.66,3.07,5.11,6.45,10.04,10.11,15.68-1.64.82-2.95,1.77-4.4,2.16-23.88,6.3-45.21-9.89-45.23-32.27-.01-13.31,0-26.62,0-39.85-4.45-.9-11-.54-12.1-2.82-2.05-4.21-1.38-10.01-1-15.08.69-9.25,8.75-2.59,13.16-6.2Z"/>
      <path class="cls-2" d="m653.37,574.39c-3.78,4.72-7.4,9.25-11.22,14.02-2.36-1.15-4.66-2.41-7.06-3.42-12.88-5.45-25.86,2.18-26.72,16.08-.46,7.46-.37,15.03.36,22.46,1.67,17,15.6,24.62,30.93,17.31.72-.34,1.45-.68,2.28-1.06,3.69,5.79,7.24,11.36,11.26,17.67-2.78,1.67-5.41,3.7-8.36,4.94-26.54,11.11-57.75-8.91-58.71-37.69-.29-8.82-.17-17.66.12-26.49.47-14.43,11.38-28.35,25.95-33.59,14.31-5.14,31.48-1.2,41.19,9.79Z"/>
      <path class="cls-2" d="m132.92,614.13c0-14.67.1-29.33-.06-43.99-.05-4.51,1.64-6.44,6.17-6.2,3.66.2,7.33.16,11,.03,4.26-.14,6.05,1.87,6.02,6.03-.08,9.33-.06,18.66-.05,28,.02,20.16-.05,40.33.16,60.49.05,4.73-1.55,6.81-6.34,6.56-3.32-.17-6.66.07-10,.1-5.86.04-6.74-.72-6.76-6.53-.06-14.83-.02-29.66-.02-44.5h-.12Z"/>
      <path class="cls-2" d="m145.72,551.8c-7.79,0-14.82-6.86-14.9-14.53-.08-7.75,6.87-14.71,14.65-14.66,7.83.05,14.85,7.22,14.85,15.18,0,7.6-6.69,14.02-14.6,14.01Z"/>
      <path class="cls-2" d="m247.59,524.36c9.9,0,18.67-.04,27.44.06.83,0,2.34.76,2.38,1.25.23,3.12.59,6.37-.13,9.32-.23.92-3.66,1.13-5.65,1.53-6.86,1.38-11.73-2.6-16.66-6.32-2.19-1.65-4.31-3.41-7.38-5.85Z"/>
      <path class="cls-1" d="m199.02,231.09c1.21-1.27,2.43-2.54,3.32-3.48,2.38,1.55,4.49,2.92,7.42,4.83,0-.03-.17,1.2-.35,2.45-.61.72-1.22,1.43-1.83,2.14-1.26-4.34-4.19-6.32-8.66-6.09l.1.15Z"/>
      <path class="cls-1" d="m183.49,238.03l-1.7-7.1c.65-.08,1.3-.16,1.95-.24v4.4c1.62-1.94,2.47-2.95,3.42-4.09.32,2.3.6,4.36,1,7.26-1.6-.1-3.03-.18-4.45-.27-.07.02-.14.03-.21.04Z"/>
      <path class="cls-2" d="m198.92,230.94c4.47-.22,7.4,1.75,8.66,6.09-1.18.77-2.37,1.54-4.79,3.12.54-2.58.83-3.93,1.11-5.26-1.58-1.26-3.28-2.61-4.98-3.96Z"/>
      <path class="cls-1" d="m477.23,192.1c1.99,1.47,3.68,2.77,5.43,3.98,9.33,6.48,14.69,15.16,15.38,26.69.11,1.83,1.19,4.32,2.63,5.23,9.39,5.94,16.66,13.21,17.28,24,7.31-3.88,15.02-7.29,21.94-11.87,5.2-3.44,9.75-8.1,13.86-12.85,1.24-1.44-.06-4.98.02-7.55.21-6.56.39-13.13.91-19.67.13-1.59,1.54-3.07,2.36-4.6.57.06,1.15.12,1.72.18.47,4.12.93,8.24,1.47,12.95,4.28-5.88,8.28-11.64,12.61-17.15,1.24-1.58,4.08-3.76,5.07-3.29,2.26,1.07,5.16,3.42,5.45,5.57,2.18,16.06-.25,30.53-13.72,41.92-5.17,4.37-8.28,11.14-12.49,16.68-6.03,7.93-11.5,16.44-18.49,23.43-10.58,10.58-16.32,10.78-29.5,3.95-13.54-7.02-26.51-14.74-35.53-27.63-.62-.89-3.39-1.33-4.4-.72-13.43,8.02-26.74,16.25-40.06,24.47-7.91,4.88-14.31,11.25-19.18,19.31,6.99,4.14,13.86,7.85,20.36,12.12,17.01,11.17,31.95,24.64,43.2,41.72,3.43,5.22,6.03,11.12,8.17,17.02,3.2,8.78,1,17.05-6.47,22.35-9.45,6.7-19.5,12.72-29.85,17.94-16.34,8.26-33.1,15.68-49.73,23.34-18.18,8.37-29.04,22.74-34.88,41.49-.91,2.91-.84,8.13-4.98,7.31-2.38-.47-5.24-5.19-5.55-8.23-.99-9.9-1.3-19.91-1.08-29.86.16-7.29,1.33-14.6,2.49-21.83.93-5.78,3.71-7.44,9.58-6.6.66.09,1.34.14,1.97.34,16.45,5.3,27.96-2.69,37.79-14.43,3.72-4.44,6.48-9.68,9.79-14.48,5.3-7.66,11.47-14.27,21.27-17.2-2.26-.74-4.54-1.45-6.78-2.24-13.94-4.91-27.9-9.77-41.78-14.85-2.33-.85-3.8-1.27-5.43,1.1-21.56,31.32-52.95,50.58-85,68.95-19.49,11.17-39.23,21.89-58.7,33.08-4.58,2.63-8.55,6.33-12.77,9.59-12.78,9.86-19.3,23.03-20.61,38.96-.12,1.49-.09,3.08-.6,4.44-.71,1.87-1.87,3.56-2.84,5.33-1.9-1.2-4.82-1.97-5.52-3.66-2.97-7.17-6.28-14.45-7.57-22.01-1.73-10.13-1.88-20.54-2.37-30.85-.28-5.93,1.77-7.72,7.72-7.73,1.83,0,3.68.08,5.47.39,5.95,1.03,11.23-.55,16.04-3.95,9.55-6.74,16.65-15.71,23.24-25.21,4.07-5.86,8.24-11.76,13.13-16.91,8.62-9.09,20.07-12.9,32.07-14.94,6.42-1.09,11.17-4.23,14.48-9.59,3.84-6.23,7.57-12.54,11.1-18.96,6.82-12.39,15.52-23.27,26.02-32.69,3.08-2.76,4.48-5.8,4.64-9.96.58-14.3,6.23-26.42,16.56-36.32,3.13-3,6.34-5.91,9.55-8.82,8.21-7.45,14.17-16.44,17.29-27.04,4.82-16.37,9.21-32.86,13.82-49.42-14.43.45-27.56-6.03-40.35-15.59-3.03,12.73-13.23,17.8-22.21,24.35-5.84,4.26-10.76,9.85-15.81,15.11-3.23,3.36-4.81,7.58-3.96,12.4,2.1,11.81-5.9,18.56-12.49,26.02-.49-.1-.99-.2-1.48-.31.31-2.34.63-4.67,1.05-7.81-4.11,3.64-7.69,6.99-11.49,10.07-1.43,1.16-3.91,2.77-4.93,2.25-1.59-.81-2.51-3.19-3.41-5.04-.48-.99-.03-2.45-.54-3.41-5.81-11.07.27-19.38,6.34-27.68,1.47-2.01,2.95-4.16,4.89-5.65,9.87-7.59,15.51-18.11,20.54-29.06,6.49-14.13,15.17-26.64,27.47-36.32,2.13-1.68,5.25-2.8,7.96-2.9,8.48-.3,16.99.07,25.49.09,11.16.03,21.82,1.99,31.87,7.15,2.18,1.12,5.16,1.57,7.59,1.19,15.35-2.39,29.53-.13,42.07,9.61.51.4,1.15.62,1.97,1.05,4.02-3.54,6.03-7.57,4.81-13.15-.92-4.2-1.57-8.55-1.62-12.85-.16-13.84,11.81-23.89,25.56-21.87,6.53.96,13.1,1.67,19.66,2.5,5.85.74,10.36,4,13.41,8.67,1.03,1.58.39,5.18-.77,7.08-2.23,3.65-2.18,7.17-2.67,11.22-.89,7.42,2.33,13.41,3.7,19.93q-7.93,2.76-10.01,11.53-1.71,7.24-8.88,5.47c-.81-.2-1.6-.44-2.4-.68q-9.91-3.02-17.35,5.86Z"/>
      <path class="cls-1" d="m276.15,436.58c30.16-13.76,57.82-31.43,82.82-53.19,7.12-6.2,15.72-11.7,20.34-19.48,4.8-8.07,7.81-2.5,11.8-1.23,1.25.4,2.42,1.08,4.32,1.94-2.09.22-3.57.37-5.04.53,7.06.71,14.1,1.41,21.7,2.17-6.51,9.85-12.15,18.86-18.28,27.52-4.04,5.7-9.54,8.86-17.08,8.33-6.11-.43-12.3.29-18.45.31-8.18.03-12.97,3.54-14.23,11.6-1.48,9.5-2.38,19.09-3.54,28.64-.07.6-.23,1.2-1.37,1.77v-7.74c-1.78-.12-3.52-.32-5.25-.33-17.15-.05-34.31-.04-51.46-.13-2.14-.01-4.28-.46-6.41-.7,0,0,.12,0,.12,0Z"/>
      <path class="cls-1" d="m454.47,439.05c10.47,0,20.95-.08,31.41.09,1.51.02,3,1.26,4.51,1.93-.87,1.71-1.49,3.64-2.69,5.07-.75.89-2.36,1.36-3.63,1.44-8.29.52-16.58.97-24.89,1.19-1.08.03-2.73-1.09-3.22-2.1-1.86-3.85-3.36-2.71-5.89-.49-1.69,1.49-4.54,2.49-6.74,2.28-1.49-.14-3.38-2.56-3.96-4.33-1.32-4.03.24-5.82,4.6-5.95,3.49-.1,6.99-.02,10.49-.02,0,.3,0,.59,0,.89Z"/>
      <path class="cls-1" d="m276.03,436.58c2.89.51,5.78,1.38,8.68,1.46,7.94.2,15.88.07,23.82.07-.12,6.98-1.88,9.84-9.73,10.29-13.66.79-27.41.22-41.99.22,6.98-4.32,13.19-8.17,19.37-12.04-.03,0-.15,0-.15,0Z"/>
      <path class="cls-1" d="m433.99,536.07c-13.62-2.08-16.66-.41-22.95,11.69-6.36,12.23-12.97,24.33-19.52,36.46-.86,1.59-2.04,2.99-3.56,5.18-1.76-3.07-3.34-5.68-4.77-8.36-6.26-11.72-12.37-23.52-18.77-35.16-1.87-3.4-4.51-6.37-6.64-9.34,16.13,0,32.67.29,49.19-.17,5.27-.15,10.48-2.28,15.71-3.54,1.77-.43,3.49-1.11,5.28-1.46,3.84-.76,6.28.36,5.9,4.83,0,0,.13-.13.13-.13Z"/>
      <path class="cls-1" d="m289.84,612.24c0,4.15.01,8.31,0,12.46-.02,5.88-2.77,9.14-8.61,10.22-9.37,1.72-18.42-5.5-19.11-15.77-.44-6.62-.34-13.3-.02-19.93.38-8.02,7.5-14.27,15.35-13.97,7.58.28,12.28,5.8,12.34,14.53.03,4.15,0,8.31,0,12.46h.06Z"/>
      <path class="cls-1" d="m480.08,617.28c6.26.16,10.52,3.86,10.37,9.02-.15,5.04-4.99,9.37-10.43,9.34-5.89-.03-10.16-4.39-9.9-10.1.23-4.93,4.42-8.41,9.96-8.27Z"/>
    </g>
  </g>
</svg>