<?xml version="1.0" encoding="UTF-8"?>
<svg xmlns="http://www.w3.org/2000/svg" viewBox="0 0 1336.77 707.87">
  <defs>
    <style>
      .cls-1 {
        fill: #e23d2c;
      }

      .cls-1, .cls-2, .cls-3, .cls-4, .cls-5, .cls-6, .cls-7, .cls-8, .cls-9, .cls-10, .cls-11, .cls-12, .cls-13, .cls-14, .cls-15, .cls-16 {
        stroke-width: 0px;
      }

      .cls-2 {
        fill: #fdbc42;
      }

      .cls-3 {
        fill: #020202;
      }

      .cls-4 {
        fill: #ee442b;
      }

      .cls-5 {
        fill: #850000;
      }

      .cls-7 {
        fill: #4a3f3f;
      }

      .cls-8 {
        fill: #ed722b;
      }

      .cls-9 {
        fill: #fcbc41;
      }

      .cls-10 {
        fill: #ffeea6;
      }

      .cls-11 {
        fill: #dcd9d3;
      }

      .cls-12 {
        fill: #fff;
      }

      .cls-13 {
        fill: #939598;
      }

      .cls-14 {
        fill: #fdbb3f;
      }

      .cls-15 {
        fill: #47704d;
      }

      .cls-16 {
        fill: #8f241e;
      }
    </style>
  </defs>
  <g id="Camada_1" data-name="Camada 1">
    <g>
      <path class="cls-15" d="M512.03,487.02c-2.8,3.33-7.29,28.25-6.96,34.96-1.83,5.33-3.98,17.59-3.83,24.84,2.38.63,5.01.46,7.38.36,5.43-12.19,5.64-21.2,6.3-23.53,2.62-4.56,8.24-18.06,8.24-18.06,0,0,6.52,15.89,7.68,18.06,0,3.16,5.16,19.6,6.81,23.53,2.33.13,5.02.14,7.44-.64-.19-5.12-3.11-22.06-4.27-24.56-.06-5.33-3.3-30.3-5.39-33.13s-21.94-3.59-23.41-1.83h0Z"/>
      <path class="cls-15" d="M505.49,547.94c-1.47,0-2.98-.1-4.41-.48-.28-.08-.48-.33-.49-.62-.15-7.16,1.96-19.43,3.83-24.95-.15-3.79,1.05-12.13,2.32-18.78.8-4.21,2.88-14.23,4.8-16.51.3-.35.97-.79,3.6-1.02,1.65-.15,3.85-.19,6.18-.12,1.3.04,12.79.47,14.67,3,1.26,1.7,2.64,9.6,3.58,15.92,1.04,7.01,1.88,14.6,1.94,17.46,1.3,3.11,4.09,19.85,4.27,24.68.01.29-.17.56-.46.65-2.59.84-5.46.8-7.68.67-.25-.01-.47-.17-.57-.4-1.56-3.7-6.7-19.92-6.86-23.62-1.11-2.17-5.42-12.6-7.04-16.51-1.53,3.61-5.49,12.85-7.62,16.6-.13.51-.26,1.38-.42,2.47-.59,4.06-1.68,11.61-5.9,21.07-.1.23-.33.38-.58.39-.2,0-.39.02-.59.02-.83.03-1.69.07-2.58.07h0ZM501.9,546.3c1.96.42,4.07.34,6.11.25h.18c4.01-9.13,5.06-16.42,5.63-20.36.18-1.24.31-2.14.47-2.72.01-.05.04-.1.06-.15,2.57-4.47,8.15-17.85,8.21-17.98.1-.25.34-.41.61-.41h0c.27,0,.51.16.61.41.07.16,6.52,15.89,7.65,17.99.05.1.08.2.08.31,0,2.88,4.76,18.28,6.61,22.89,1.89.09,4.2.09,6.3-.49-.35-5.64-3.11-21.5-4.18-23.8-.04-.09-.06-.18-.06-.27-.03-2.69-.87-10.34-1.92-17.41-1.48-9.98-2.7-14.47-3.34-15.33-.5-.68-3.23-1.67-9.25-2.21-2.92-.26-6.05-.36-8.6-.26-3.13.12-4.33.49-4.53.67-1.15,1.38-2.92,7.62-4.51,15.91-1.5,7.86-2.45,15.51-2.29,18.59,0,.08,0,.17-.03.25-1.8,5.23-3.84,16.96-3.8,24.1h0Z"/>
      <path class="cls-12" d="M537.7,555.01l.17,2.41s5.36,3.56,7.07,4.55c1.04.6,2.4,1.15,4.69.91,3.27-.35,3.1-2.05,3.1-2.05l-.08-2.09"/>
      <path class="cls-6" d="M548.58,563.59c-1.87,0-3.09-.55-3.97-1.05-1.71-.99-6.89-4.42-7.1-4.57-.17-.11-.28-.3-.29-.5l-.17-2.41c-.03-.36.25-.68.61-.7.36-.03.68.25.7.61l.15,2.08c1.11.73,5.31,3.5,6.76,4.35.93.53,2.16,1.05,4.3.82,1.98-.21,2.5-.96,2.51-1.34,0-.02,0,0,0-.03l-.08-2.09c-.01-.36.27-.67.63-.68h0c.36-.01.67.27.68.63,0,0,0,0,0,0l.08,2.09c.01.33-.05,2.35-3.69,2.73-.37.04-.75.06-1.12.06h0Z"/>
      <path class="cls-12" d="M545.38,546.66s-.18,3.78,2.07,6.17c.71.75,5.09,3.6,5.2,5.89.1,2.19-3.97,2.47-5.88,1.69-1.39-.56-9.07-5.41-9.07-5.41,0,0-.36-2.11.07-3.78l-.09-4.04s4.84.99,7.71-.52h0Z"/>
      <path class="cls-6" d="M549.11,561.47c-.95,0-1.88-.16-2.58-.44-1.43-.58-8.86-5.26-9.18-5.46-.16-.1-.27-.26-.3-.45-.02-.09-.36-2.2.06-3.96l-.09-3.96c0-.2.08-.39.24-.52.15-.13.36-.18.55-.14.05,0,4.65.92,7.27-.46.32-.17.72-.05.89.28.05.1.08.22.07.34,0,.04-.13,3.53,1.89,5.69.13.14.5.43.88.74,1.64,1.31,4.4,3.5,4.49,5.58.04.79-.31,1.46-1,1.95-.8.57-2.02.82-3.21.82h0ZM538.31,554.61c2.3,1.44,7.65,4.76,8.71,5.19,1.21.49,3.51.5,4.54-.23.42-.3.45-.61.44-.82-.07-1.48-2.72-3.59-4-4.61-.48-.38-.83-.66-1.02-.87-1.69-1.8-2.12-4.27-2.22-5.64-2.25.76-5.04.51-6.4.32l.08,3.25c0,.06,0,.12-.02.18-.3,1.17-.17,2.62-.1,3.23h0Z"/>
      <path class="cls-6" d="M540.98,557.71c-.32,0-.59-.23-.65-.54-.51-2.82-1.32-3.4-1.97-3.86-.53-.38-1.14-.8-1.25-2.02-.03-.36.24-.68.6-.71.36-.03.68.23.71.59.06.61.25.75.7,1.07.8.57,1.91,1.35,2.51,4.7.06.36-.17.7-.53.77-.04,0-.08.01-.12.01h0ZM542.51,550.75c-.36,0-.66-.3-.66-.66,0-.31.21-.57.51-.64l3.17-.74c.35-.09.71.13.79.49.09.35-.13.71-.48.8,0,0,0,0-.01,0l-3.17.74s-.1.02-.15.02h0ZM543.66,553.43c-.36,0-.66-.29-.66-.66,0-.29.19-.55.47-.63l3.03-.93c.35-.11.72.08.83.43s-.08.72-.43.83c0,0,0,0,0,0l-3.03.93c-.06.02-.13.03-.19.03h0ZM545.3,555.69c-.36,0-.66-.29-.66-.66,0-.27.16-.51.4-.61l3.19-1.34c.33-.14.72.01.86.35.14.33-.01.72-.35.87,0,0,0,0,0,0l-3.19,1.34c-.08.03-.17.05-.26.05h0ZM545.77,560.56c-.36,0-.66-.29-.66-.66,0-.04,0-.08.01-.12.48-2.61,2.13-3.68,3.42-4.11,1.36-.46,2.6-.31,2.66-.31.36.04.62.37.57.73,0,0,0,0,0,0-.04.36-.37.62-.73.57-.17-.02-3.93-.41-4.62,3.35-.06.31-.33.54-.65.54h0Z"/>
      <path class="cls-12" d="M508.6,555.01l-.17,2.41s-5.36,3.56-7.07,4.55c-1.04.6-2.4,1.15-4.69.91-3.27-.35-3.1-2.05-3.1-2.05l.08-2.09"/>
      <path class="cls-6" d="M497.72,563.59c-.35,0-.72-.02-1.12-.06-3.64-.39-3.7-2.41-3.69-2.73l.08-2.09c.01-.36.32-.65.68-.63,0,0,0,0,0,0,.36.01.65.32.63.68h0s-.08,2.09-.08,2.09c0,.03,0,.02,0,.03,0,.38.53,1.13,2.51,1.34,2.13.23,3.37-.29,4.3-.82,1.46-.84,5.66-3.61,6.76-4.35l.15-2.08c.03-.36.34-.64.7-.61.36.03.64.34.61.7h0s-.17,2.41-.17,2.41c-.01.2-.12.39-.29.5-.22.15-5.39,3.58-7.1,4.57-.88.51-2.1,1.05-3.97,1.05h0Z"/>
      <path class="cls-12" d="M500.92,546.66s.18,3.78-2.07,6.17c-.71.75-5.09,3.6-5.2,5.89-.1,2.19,3.97,2.47,5.88,1.69,1.39-.56,9.07-5.41,9.07-5.41,0,0,.36-2.11-.07-3.78l.09-4.04s-4.84.99-7.71-.52h0Z"/>
      <path class="cls-6" d="M497.19,561.47c-1.19,0-2.41-.25-3.21-.82-.69-.49-1.03-1.16-1-1.95.1-2.08,2.85-4.27,4.49-5.58.39-.31.76-.6.89-.74,2.02-2.15,1.89-5.65,1.89-5.69-.01-.24.11-.46.3-.59.2-.13.45-.14.66-.03,2.62,1.38,7.23.47,7.27.46.36-.07.7.16.78.51,0,.05.01.1.01.15l-.09,3.96c.42,1.77.07,3.87.06,3.96-.03.18-.14.35-.3.45-.32.2-7.74,4.88-9.18,5.46-.7.28-1.63.44-2.58.44h0ZM501.55,547.64c-.1,1.37-.53,3.84-2.22,5.64-.19.21-.54.48-1.02.87-1.28,1.02-3.93,3.13-4,4.61,0,.21.03.52.44.82,1.03.73,3.32.72,4.54.23,1.06-.43,6.41-3.75,8.71-5.19.07-.6.2-2.05-.09-3.23-.01-.06-.02-.12-.02-.18l.08-3.25c-1.36.19-4.16.44-6.4-.32h0Z"/>
      <path class="cls-6" d="M505.32,557.71c-.36,0-.66-.29-.66-.66,0-.04,0-.08.01-.12.6-3.36,1.7-4.13,2.51-4.7.45-.32.64-.45.7-1.07.04-.36.36-.63.72-.59.36.04.62.35.59.71-.11,1.22-.72,1.64-1.25,2.02-.65.46-1.47,1.04-1.97,3.86-.06.31-.33.54-.65.54h0ZM503.79,550.75s-.1,0-.15-.02l-3.17-.74c-.35-.08-.57-.44-.49-.79,0,0,0,0,0,0,.08-.35.44-.57.79-.49l3.17.74c.35.08.58.44.49.79-.07.3-.33.51-.64.51h0ZM502.64,553.43c-.07,0-.13,0-.19-.03l-3.03-.93c-.35-.11-.54-.48-.43-.83.11-.34.47-.54.82-.43l3.03.93c.35.11.54.47.44.82-.08.28-.34.47-.63.47h0ZM501,555.69c-.09,0-.17-.02-.26-.05l-3.19-1.34c-.34-.14-.49-.53-.35-.86.14-.34.53-.49.86-.35l3.19,1.34c.34.14.49.53.35.86-.1.24-.34.4-.61.4h0ZM500.53,560.56c-.32,0-.59-.23-.65-.54-.7-3.77-4.46-3.37-4.62-3.35-.36.04-.69-.22-.73-.58-.04-.36.21-.69.57-.73.05,0,1.3-.15,2.66.31,1.29.44,2.94,1.5,3.42,4.11.07.36-.17.7-.53.77-.04,0-.08.01-.12.01h0Z"/>
      <path class="cls-12" d="M524.14,458.68c2.27-13.56,3.31-18.39,5.67-23.77,2.33-5.33,11.66-13.55,14.32-15.19.76-.47,2.22-1.4,3.37-1.42,1.83-.02,2.75,1.11,4.41,2.48,1.6,1.32,2.85.87,3.59.72s.5.72.62,1.22,1.12.97.94,1.49c-.19.51-2.81,1.91-4.16,1.54s-3.95-1.21-5.28-2.05c-1.22,1.78-6.79,10.38-9.22,12.99-.84,4.3-1.72,19.48-2.76,20.64l-11.5,1.36h0Z"/>
      <path class="cls-6" d="M524.14,459.34c-.36,0-.66-.29-.66-.66,0-.04,0-.07,0-.11,2.29-13.64,3.31-18.44,5.71-23.93,2.46-5.63,12-13.89,14.57-15.49l.09-.05c.87-.54,2.33-1.44,3.62-1.46.02,0,.04,0,.06,0,1.72,0,2.77.91,3.98,1.96.25.22.51.45.8.68,1.2.99,2.09.79,2.81.63.08-.02.16-.04.24-.05.46-.09.76.05.93.18.4.32.42.82.43,1.19,0,.11,0,.24.02.32.04.07.2.23.3.33.35.34.87.86.62,1.55-.34.92-3.34,2.4-4.95,1.95-.56-.16-3.19-.91-4.9-1.81-.19.29-.43.64-.7,1.05-2.12,3.19-6.03,9.05-8.1,11.35-.2,1.59-.53,3.01-.54,3.08-.09.35-.45.57-.8.48-.34-.09-.56-.43-.48-.78,0-.02.35-1.55.54-3.15.02-.14.08-.27.17-.37,1.95-2.1,6.11-8.34,8.11-11.35.46-.69.83-1.24,1.05-1.56.2-.29.6-.37.9-.18,1.13.72,3.45,1.51,5.1,1.97.89.25,2.72-.63,3.27-1.08-.07-.07-.15-.16-.21-.22-.26-.26-.55-.55-.65-.94-.05-.2-.06-.41-.07-.6v-.09c-.78.17-2.24.5-3.93-.9-.3-.24-.56-.48-.82-.7-1.13-.98-1.88-1.63-3.12-1.63-.02,0-.03,0-.05,0-.92.01-2.24.83-2.94,1.26l-.09.05c-2.66,1.64-11.8,9.73-14.06,14.9-2.34,5.36-3.36,10.1-5.62,23.62-.05.32-.33.55-.65.55h0Z"/>
      <path class="cls-12" d="M535.42,483.44c1.84-2.12,4.25-5.49,5.25-6.76,1.04-1.32,7.79-10.65,6.64-12.17-1.21-1.59-2.5-2.96-3.72-3.7-1.11-.68-5.23-3.23-7.97-4.55-.82-.4-1.88-.37-3.35-.37-2.02,0-7.24.98-9.85,3.45-2.4,2.27-5.53,6-7.01,10.99-.94,3.18-2.72,10.54-3.37,16.7,2.73,4.33,21.78,4.79,23.41,1.83-.08-1.66-.1-3.25-.02-5.41h0Z"/>
      <path class="cls-6" d="M526.69,491.39c-5.5,0-13.32-1.02-15.22-4.02-.08-.13-.11-.27-.1-.42.65-6.11,2.42-13.56,3.39-16.82,1.54-5.17,4.76-8.99,7.19-11.28,2.72-2.56,8.05-3.63,10.3-3.63h.28c1.38,0,2.46,0,3.36.43,2.58,1.25,6.34,3.55,7.76,4.41l.27.16c1.2.73,2.51,2.03,3.9,3.87.5.66.59,1.99-2.47,6.9-1.71,2.74-3.66,5.41-4.18,6.07-.3.38-.72.95-1.22,1.62-1.11,1.49-2.62,3.51-3.89,4.99-.06,1.84-.05,3.35.03,5.13,0,.12-.02.24-.08.35-.96,1.74-5.49,2.13-8.11,2.21-.39.01-.8.02-1.22.02h0ZM512.71,486.84c1.73,2.22,9.11,3.4,15.16,3.22,4.03-.12,6.33-.79,6.9-1.4-.08-1.8-.08-3.33-.01-5.24,0-.15.06-.29.16-.41,1.27-1.46,2.84-3.56,3.99-5.1.5-.67.94-1.25,1.24-1.64.48-.61,2.31-3.11,3.96-5.74,2.84-4.52,2.69-5.54,2.66-5.64-1.27-1.67-2.49-2.89-3.52-3.52l-.27-.16c-1.4-.86-5.12-3.13-7.64-4.35-.63-.31-1.54-.3-2.79-.3h-.28s0,0,0,0c-2,0-6.98.99-9.4,3.27-2.32,2.18-5.38,5.81-6.83,10.69-.94,3.17-2.66,10.36-3.32,16.33h0Z"/>
      <path class="cls-5" d="M542.49,437.76c.02.86.24,1.71.65,2.46,0,0,7.74,4.41,4.49,10.52,0,0,1.6-.84,2.56-.33,1.01.53,1.33,1.84.49,2.8-1.26,1.45-3.06,1.13-3.06,1.13,0,0-1.05.85-1.67,2.39,1.35.36,4.09.06,6.71-2.3,3.46-3.12,3.32-7.61,1.28-11.08-2.16-3.66-5.3-4.24-7.02-4.63l-.13-.17c-2.31-3.1-1.49-4.81-1.49-4.81-2.81,1.66-2.82,4.01-2.82,4.01h0Z"/>
      <path class="cls-5" d="M547.05,457.53c-.47,0-.89-.05-1.27-.16-.18-.05-.33-.17-.42-.34-.08-.17-.09-.36-.02-.54.67-1.68,1.82-2.62,1.86-2.65.15-.12.34-.17.53-.14.05,0,1.46.23,2.45-.92.26-.3.36-.65.3-.99-.06-.34-.28-.63-.6-.79-.49-.26-1.53.11-1.95.33-.26.13-.57.08-.77-.12-.2-.2-.25-.52-.11-.77,1.2-2.27.89-4.56-.94-6.8-1.43-1.76-3.28-2.83-3.3-2.84-.11-.06-.19-.15-.25-.26-.46-.85-.71-1.8-.73-2.76h0c0-.13.04-2.76,3.14-4.59.25-.15.59-.13.8.08.21.2.27.51.13.77-.04.11-.5,1.56,1.4,4.11,1.76.4,5,1.14,7.21,4.89,2.49,4.22,1.93,8.89-1.4,11.9-2.06,1.86-4.33,2.61-6.06,2.61h0ZM546.95,456.21c1.24.02,3.26-.43,5.28-2.26,3.47-3.13,2.79-7.48,1.15-10.25-1.93-3.27-4.72-3.9-6.39-4.28l-.21-.05c-.15-.03-.28-.12-.38-.24l-.13-.17c-1.2-1.61-1.63-2.9-1.74-3.83-1.33,1.24-1.39,2.54-1.39,2.62.02.69.18,1.38.49,2,.53.32,2.14,1.39,3.47,3.02,1.82,2.22,2.38,4.57,1.68,6.88.55-.1,1.18-.1,1.7.17.68.35,1.14.98,1.28,1.72.14.74-.08,1.51-.6,2.1-1.15,1.32-2.66,1.42-3.33,1.38-.21.21-.57.61-.9,1.17h0Z"/>
      <path class="cls-6" d="M550.44,442.11c-.14,0-.28-.05-.39-.13-1.63-1.22-2.82-2.25-3.64-3.15-1.43-1.56-1.82-2.96-1.87-3.96-1.83,1.46-1.49,3.23-1.49,3.25.07.36-.15.71-.51.78-.36.07-.7-.15-.78-.51-.25-1.19.13-3.84,3.32-5.41.33-.16.72-.02.88.3.09.18.09.39,0,.57-.03.06-.72,1.76,1.41,4.09.76.83,1.92,1.83,3.46,2.98.29.22.35.63.13.92-.12.17-.32.26-.53.26h0Z"/>
      <path class="cls-12" d="M539.75,455.65c-1-.34-1.91-.91-2.64-1.72-2.76-3.03-2.02-8.2,1.65-11.56,1.11-1.02,2.77-2.13,4.59-1.87,0,0,8.32,4.05,4.74,10.54,0,0,1.26-1.04,2.21-.54,1,.52,1.31,1.82.47,2.78-1.27,1.45-2.69,1.14-3.05,1.14-.84,1.37-1.66,2.03-2.36,2.6-.38.3-1.06,1.4-1.78,3.78-3.37,1.73-8.87-2.57-7.97-4.55.73-1,.99-1.2,1.6-1.98"/>
      <path class="cls-6" d="M541.82,461.86c-1.94,0-4.04-1.04-5.46-2.41-1.29-1.24-1.78-2.5-1.33-3.47.02-.04.04-.08.07-.12.46-.62.75-.96,1.02-1.28.11-.13.22-.25.34-.4-2.8-3.31-1.99-8.77,1.87-12.29,1.71-1.56,3.48-2.27,5.12-2.04.07,0,.13.03.2.06.18.09,4.51,2.24,5.7,6.01.4,1.25.4,2.53.02,3.81.4-.07.83-.04,1.25.18.67.35,1.13.96,1.27,1.69.14.74-.08,1.51-.6,2.11-1.18,1.36-2.52,1.42-3.2,1.39-.84,1.26-1.64,1.91-2.3,2.44-.24.19-.87,1.16-1.56,3.45-.05.17-.17.31-.33.4-.64.33-1.35.47-2.07.47h0ZM536.2,456.58c-.1.35.18,1.07,1.06,1.92,1.53,1.47,4.05,2.5,5.78,1.83.61-1.94,1.3-3.33,1.91-3.81.67-.53,1.42-1.14,2.21-2.43.12-.19.32-.31.55-.31.07,0,.15,0,.24,0,.5.03,1.44.1,2.33-.93.26-.3.37-.65.3-1-.06-.33-.27-.61-.58-.77-.42-.22-1.19.22-1.49.47-.24.2-.6.2-.84,0s-.31-.55-.16-.82c.83-1.5,1.02-2.99.57-4.41-.94-2.96-4.33-4.86-4.93-5.17-1.53-.16-2.98.84-3.95,1.72-3.4,3.1-4.12,7.87-1.61,10.63.64.7,1.44,1.22,2.36,1.54.34.12.53.49.41.84-.12.34-.49.53-.84.41-.79-.27-1.51-.66-2.14-1.17-.1.12-.19.23-.28.33-.26.31-.51.6-.91,1.14h0Z"/>
      <ellipse class="cls-6" cx="544.52" cy="448.59" rx="1.4" ry="1.02" transform="translate(-134.66 639.49) rotate(-55.18)"/>
      <ellipse class="cls-6" cx="539.82" cy="445.3" rx="1.4" ry=".93" transform="translate(-134.04 634.02) rotate(-55.16)"/>
      <path class="cls-12" d="M556.74,484.56c-1.35-5.59-5.48-15.33-9.43-20.05-1.9,1.08-7.04,6.86-6.35,11.65.81.89,5.61,6.98,6.91,8.7-3,.44-7.1,3.5-9.58,4.8,0,0-2.45-1.91-3.79-2.14-2.31-.39-4.83.29-4.68.76.09.28-1,.63-.79,1.08.19.42-.51.84-.3,1.46.15.43-.37,1.32.2,1.31,2.29-.04,3-.46,3.59.17,1.15,1.23,2.6,2.55,6.19,2.55,1.88-.07,9.52-1.75,14.67-3.38,2.25-.71,4.31-2.94,3.36-6.9Z"/>
      <path class="cls-6" d="M538.71,495.5c-3.76,0-5.35-1.36-6.66-2.76-.15-.16-.3-.17-1.21-.08-.48.05-1.09.1-1.89.12-.4,0-.63-.19-.73-.31-.3-.36-.22-.8-.16-1.15.02-.1.05-.25.04-.32-.19-.59.07-1.07.22-1.36.02-.04.05-.09.07-.13-.22-.68.42-1.16.7-1.37.02-.02.05-.04.08-.06.03-.15.1-.29.2-.41.64-.74,3.23-1.14,5.23-.81,1.19.2,2.97,1.44,3.74,2.01.6-.33,1.29-.76,2.01-1.2,2.04-1.25,4.31-2.64,6.36-3.24-1.79-2.32-5.55-7.07-6.25-7.84-.09-.1-.15-.22-.16-.35-.75-5.17,4.67-11.18,6.67-12.32.28-.16.63-.09.83.15,3.93,4.68,8.12,14.29,9.57,20.32,1.07,4.45-1.38,6.92-3.8,7.69-5.2,1.64-12.89,3.34-14.85,3.41-.01,0-.02,0-.03,0h0ZM531.6,491.3c.55,0,1,.11,1.41.55,1.16,1.23,2.46,2.34,5.69,2.34,1.86-.07,9.48-1.77,14.49-3.35,1.97-.62,3.77-2.56,2.91-6.12-1.34-5.58-5.28-14.69-8.93-19.33-.93.71-2.31,2.16-3.46,3.91-1.57,2.39-2.32,4.71-2.12,6.57,1.12,1.3,5.56,6.94,6.81,8.58.22.29.16.7-.13.92-.09.07-.19.11-.3.13-2.03.29-4.74,1.96-6.92,3.29-.89.55-1.74,1.06-2.45,1.44-.23.12-.51.1-.71-.06-.9-.7-2.64-1.86-3.49-2.01-1.74-.29-3.42.08-3.92.32-.08.34-.4.58-.6.72-.05.03-.11.08-.16.12.07.39-.12.73-.23.94-.1.19-.14.28-.12.33.1.29.06.59.02.85.53-.02.97-.06,1.33-.1.32-.03.62-.06.89-.06h0ZM508.47,497.71c-.36,0-.66-.3-.66-.66,0-.25.15-.49.38-.6,1.94-.92,2.98-3.35,2.99-3.37.14-.34.53-.49.86-.35.34.14.49.53.35.86-.05.12-1.23,2.91-3.64,4.05-.09.04-.18.06-.28.06h0ZM537.86,500.57c-.06,0-.11,0-.17-.02-3.53-.94-4.72-4.18-4.77-4.32-.12-.34.06-.72.4-.84.34-.12.72.06.84.4.04.11,1.02,2.73,3.87,3.49.35.09.56.45.47.81-.08.29-.34.49-.64.49h0ZM522.54,507.99c-.28,0-.53-.18-.62-.44l-1.43-4.02c-.12-.34.06-.72.4-.84.34-.12.72.06.84.4,0,0,0,0,0,0l1.43,4.02c.12.34-.06.72-.4.84-.07.03-.15.04-.22.04h0Z"/>
    </g>
    <g>
      <path class="cls-8" d="M559.6,540.65h48.87v17.22h-48.87v-17.22Z"/>
      <path class="cls-7" d="M608.47,558.53h-48.87c-.36,0-.66-.3-.66-.66h0v-17.22c0-.36.3-.66.66-.66h48.87c.36,0,.66.3.66.66v17.22c0,.36-.3.66-.66.66h0ZM560.26,557.21h47.55v-15.9h-47.55v15.9Z"/>
      <path class="cls-7" d="M604.65,541.3c-.36,0-.66-.3-.66-.66v-5.41h-40.27v5.41c0,.36-.3.66-.66.66s-.66-.3-.66-.66v-6.07c0-.36.3-.66.66-.66h41.59c.36,0,.66.3.66.66v6.07c0,.36-.29.66-.66.66h0Z"/>
      <rect class="cls-7" x="562.4" y="533.38" width="42.91" height="2.38" rx=".66" ry=".66"/>
      <path class="cls-7" d="M591.43,558.53h-14.78c-.36,0-.66-.3-.66-.66h0v-9.49c0-.36.3-.66.66-.66h14.78c.36,0,.66.3.66.66v9.49c0,.36-.3.66-.66.66h0ZM577.31,557.21h13.46v-8.17h-13.46v8.17Z"/>
      <circle class="cls-7" cx="567.77" cy="549.26" r="6.04"/>
      <path class="cls-7" d="M567.77,555.95c-3.7,0-6.7-3-6.7-6.7,0-3.7,3-6.7,6.7-6.7s6.7,3,6.7,6.7c0,3.7-3,6.69-6.7,6.7ZM567.77,543.88c-2.97,0-5.38,2.41-5.38,5.38s2.41,5.38,5.38,5.38,5.38-2.41,5.38-5.38h0c0-2.97-2.41-5.38-5.38-5.38Z"/>
      <circle class="cls-7" cx="600.31" cy="549.26" r="6.04"/>
      <path class="cls-7" d="M600.31,555.95c-3.7,0-6.7-3-6.7-6.7s3-6.7,6.7-6.7,6.7,3,6.7,6.7c0,3.7-3,6.69-6.7,6.7ZM600.31,543.88c-2.97,0-5.38,2.41-5.38,5.38s2.41,5.38,5.38,5.38,5.38-2.41,5.38-5.38h0c0-2.97-2.41-5.38-5.38-5.38Z"/>
      <circle class="cls-8" cx="567.77" cy="549.26" r="1.71"/>
      <path class="cls-7" d="M567.77,551.63c-1.31,0-2.37-1.06-2.37-2.37s1.06-2.37,2.37-2.37,2.37,1.06,2.37,2.37c0,1.31-1.06,2.37-2.37,2.37ZM567.77,548.2c-.58,0-1.05.47-1.05,1.05s.47,1.05,1.05,1.05,1.05-.47,1.05-1.05c0-.58-.47-1.05-1.05-1.05Z"/>
      <circle class="cls-8" cx="600.31" cy="549.26" r="1.71"/>
      <path class="cls-7" d="M600.31,551.63c-1.31,0-2.37-1.06-2.37-2.37s1.06-2.37,2.37-2.37,2.37,1.06,2.37,2.37c0,1.31-1.06,2.37-2.37,2.37ZM600.31,548.2c-.58,0-1.05.47-1.05,1.05s.47,1.05,1.05,1.05,1.05-.47,1.05-1.05c0-.58-.47-1.05-1.05-1.05ZM591.43,554.85h-14.78c-.36,0-.66-.3-.66-.66s.3-.66.66-.66h14.78c.36,0,.66.3.66.66s-.3.66-.66.66Z"/>
      <path class="cls-7" d="M587.43,554.85h-6.79c-.36,0-.66-.3-.66-.66v-3.22c0-.36.3-.66.66-.66h6.79c.36,0,.66.3.66.66v3.22c0,.36-.3.66-.66.66h0ZM581.3,553.53h5.47v-1.9h-5.47v1.9ZM566.05,538.99h1.66v1.66h-1.66v-1.66Z"/>
      <path class="cls-7" d="M567.71,541.3h-1.66c-.36,0-.66-.3-.66-.66v-1.66c0-.36.3-.66.66-.66h1.66c.36,0,.66.3.66.66v1.66c0,.36-.3.66-.66.66ZM566.71,539.99h.34v-.34h-.34v.34ZM570.47,538.99h1.66v1.66h-1.66v-1.66Z"/>
      <path class="cls-7" d="M572.13,541.3h-1.66c-.36,0-.66-.3-.66-.66v-1.66c0-.36.3-.66.66-.66h1.66c.36,0,.66.3.66.66v1.66c0,.36-.3.66-.66.66ZM571.13,539.99h.34v-.34h-.34v.34ZM574.73,538.99h1.66v1.66h-1.66v-1.66Z"/>
      <path class="cls-7" d="M576.39,541.3h-1.66c-.36,0-.66-.3-.66-.66v-1.66c0-.36.3-.66.66-.66h1.66c.36,0,.66.3.66.66v1.66c0,.36-.3.66-.66.66ZM575.39,539.99h.34v-.34h-.34v.34ZM593.79,538.99h3.62v1.66h-3.62v-1.66Z"/>
      <path class="cls-7" d="M597.41,541.3h-3.62c-.36,0-.66-.3-.66-.66v-1.66c0-.36.3-.66.66-.66h3.62c.36,0,.66.3.66.66v1.66c0,.36-.3.66-.66.66ZM594.45,539.99h2.3v-.34h-2.3v.34ZM602.03,541.3c-.21,0-.41-.1-.53-.27l-23.17-31.44c-.22-.29-.15-.71.14-.92.29-.22.71-.15.92.14l23.17,31.44c.22.29.15.71-.14.92-.11.08-.25.13-.39.13h0Z"/>
      <circle class="cls-7" cx="578.85" cy="509.2" r=".76"/>
      <path class="cls-7" d="M578.85,510.62c-.78,0-1.42-.63-1.42-1.42s.63-1.42,1.42-1.42,1.42.63,1.42,1.42h0c0,.78-.63,1.42-1.42,1.42ZM578.85,509.1c-.05,0-.1.04-.1.1s.04.1.1.1c.05,0,.1-.04.1-.1h0c0-.05-.04-.1-.1-.1Z"/>
    </g>
    <g>
      <g>
        <path class="cls-5" d="M567.27,448.81c.49-5.96-2.9-8.44-6.84-8.73-3.47-.26-6.11,2.51-6.11,2.51.44.62,1.15,1.89,1.31,3.85h0c5.12.99,2.8,5.9,2.85,10.09.06,4.81,3.63,5.63,3.63,5.63-1.32-4.44,4.68-7.4,5.16-13.35Z"/>
        <path class="cls-5" d="M567.27,448.78c.49-5.96-2.9-8.44-6.84-8.73-3.47-.25-6.11,2.51-6.11,2.51.44.62,1.15,1.89,1.31,3.85h0c5.12.99,2.8,5.89,2.85,10.09.06,4.81,3.63,5.63,3.63,5.63-1.32-4.44,4.68-7.39,5.16-13.35h0Z"/>
        <path class="cls-5" d="M562.07,462.83s-.07,0-.1-.02c-.77-.22-1.49-.62-2.09-1.16-.91-.82-2.02-2.37-2.06-5.1-.02-1.09.12-2.2.25-3.28.43-3.54.52-5.57-2.57-6.17-.23-.04-.43-.21-.5-.44h0c-.02-.07-.03-.11-.03-.17-.14-1.81-.81-2.98-1.18-3.52-.2-.26-.18-.61.04-.84.12-.12,2.89-3,6.64-2.72,2.39.18,4.35,1.09,5.67,2.61,1.42,1.65,2.02,3.96,1.79,6.83-.25,3.01-1.8,5.28-3.18,7.28-1.46,2.13-2.62,3.81-2.02,5.84.11.35-.1.72-.45.82-.07.03-.15.03-.22.03h0ZM556.23,445.92c3.95,1.01,3.52,4.46,3.15,7.52-.12,1.03-.25,2.1-.24,3.1.04,2.65,1.22,3.93,2.11,4.52-.07-2.04,1.14-3.81,2.41-5.67,1.34-1.95,2.73-3.97,2.94-6.63.21-2.51-.29-4.48-1.47-5.85-1.37-1.6-3.34-2.05-4.76-2.16-2.41-.18-4.4,1.27-5.21,1.96.57.98.93,2.08,1.06,3.21Z"/>
      </g>
      <path class="cls-6" d="M560.89,456.95c-.35-.03-.63-.32-.61-.68.05-1.4.41-2.48.72-3.42.26-.78.5-1.5.56-2.36.22-2.94-1.11-3.27-1.11-3.27,0,0-.57-.21-.5-.7.06-.71.71-.61.71-.61.1.02,2.54.46,2.22,4.67-.07,1.01-.36,1.85-.63,2.68-.31.95-.61,1.84-.65,3.05-.02.36-.31.65-.68.64-.02,0-.03,0-.03,0h0Z"/>
      <path class="cls-6" d="M564.67,449.57c-.36-.03-.64-.35-.61-.71,0-.04,0-.1.02-.14.37-1.23.26-2.45-.31-3.4-.45-.76-1.21-1.32-2.08-1.5-1.82-.38-2.92.63-2.96.67-.26.26-.68.25-.94-.01s-.25-.68.01-.94c.07-.05,1.62-1.54,4.16-1.01,1.24.26,2.31,1.03,2.94,2.12.76,1.27.92,2.86.45,4.46-.09.3-.37.49-.68.47ZM555.6,447.72c-.34-.03-.61-.31-.62-.65,0-1.15-.26-2.29-.76-3.33-.19-.4-.43-.77-.73-1.11-.26-.26-.25-.68.01-.94.25-.25.66-.25.92,0,.07.07,1.81,1.84,1.87,5.35,0,.37-.28.67-.65.67-.01.01-.03,0-.06,0Z"/>
    </g>
    <g>
      <path class="cls-6" d="M577.78,526.77c-.13.72-.7.98-1.6,1.01s-1.65-.38-1.66-.91.7-.98,1.6-1.01,1.76.22,1.66.91Z"/>
      <path class="cls-6" d="M575.41,528.24c-.83-.18-1.41-.7-1.43-1.36-.01-.45.24-.87.71-1.16.43-.25.92-.39,1.41-.4.51-.02,1.44.04,1.93.58.23.25.33.6.28.94,0,0,0,.02,0,.03-.17.92-.88,1.4-2.11,1.44-.26,0-.53-.01-.78-.07ZM576.84,526.45c-.23-.05-.47-.06-.71-.05-.31,0-.61.08-.88.23-.15.1-.21.19-.21.22,0,.11.39.41,1.11.39.97-.03,1.05-.34,1.09-.56,0-.04,0-.05-.02-.07-.06-.06-.19-.13-.39-.17Z"/>
      <path class="cls-6" d="M577.66,527.29h0c-.29-.06-.47-.35-.41-.64,0,0,0,0,0,0l1.34-6.08c.06-.29.35-.47.64-.41.09.02.18.06.25.13.22.2,2.14,2.02,2.11,3.51,0,.29-.25.53-.54.52-.29,0-.53-.25-.52-.54,0,0,0,0,0,0,.01-.54-.53-1.35-1.09-2.01l-1.12,5.11c-.06.29-.35.47-.63.41Z"/>
    </g>
    <g>
      <path class="cls-6" d="M607.79,511.65c-.4.78-.05,1.43.78,2.12s1.83.85,2.23.36.05-1.43-.78-2.12-1.82-1.08-2.23-.36Z"/>
      <path class="cls-6" d="M608.95,514.76c.92.44,1.84.37,2.34-.23.34-.41.4-.99.18-1.6-.22-.55-.58-1.04-1.04-1.41-.47-.39-1.39-1.02-2.24-.87-.4.07-.75.32-.95.68,0,0,0,.02-.01.03-.51.99-.19,1.96.94,2.9.24.2.51.37.79.51ZM608.9,512.03c.25.13.49.28.71.47.29.23.52.52.66.86.07.2.06.33.03.36-.08.1-.67.1-1.34-.44-.89-.74-.74-1.09-.62-1.32.03-.05.04-.05.06-.05.1-.02.27.02.49.13Z"/>
      <path class="cls-6" d="M607.51,512.22h0c.32.15.7.02.85-.3,0,0,0,0,0,0l3.17-6.69c.15-.32.01-.7-.3-.85-.1-.05-.21-.07-.33-.06-.35.03-3.5.33-4.55,1.77-.21.28-.15.68.13.89.28.21.68.15.89-.13,0,0,0,0,0,0,.38-.52,1.49-.89,2.5-1.09l-2.66,5.62c-.15.32-.01.69.3.84Z"/>
    </g>
    <g>
      <path class="cls-6" d="M573.46,477.87c-.28.73-.92.89-1.87.74s-1.63-.72-1.54-1.27.92-.89,1.87-.74,1.78.57,1.54,1.27Z"/>
      <path class="cls-6" d="M570.7,478.95c-.83-.35-1.33-1-1.21-1.7.14-.9,1.22-1.42,2.51-1.22.54.08,1.49.32,1.89.98.19.31.23.69.1,1.04,0,0,0,.02,0,.03-.36.93-1.2,1.3-2.48,1.1-.27-.04-.54-.12-.8-.22h0ZM572.55,477.35c-.23-.09-.48-.16-.73-.2-.75-.12-1.2.15-1.22.27s.32.51,1.08.63c1.01.16,1.16-.15,1.25-.37.01-.05,0-.06,0-.07-.05-.08-.17-.17-.37-.25Z"/>
      <path class="cls-6" d="M573.23,478.39h0c-.29-.12-.42-.46-.3-.75l3.03-7.1c.11-.25.38-.39.65-.33l6.3,1.49c.3.07.49.38.41.68-.07.3-.38.49-.68.42l-5.84-1.38-2.85,6.66c-.12.29-.45.42-.74.3ZM579.76,479.35c-.28.73-.92.89-1.87.74s-1.63-.72-1.54-1.27.92-.89,1.87-.74,1.78.57,1.54,1.27Z"/>
      <path class="cls-6" d="M577,480.44c-.83-.35-1.33-1-1.21-1.7.08-.47.43-.86.97-1.08.5-.18,1.03-.23,1.55-.14.54.08,1.49.32,1.89.98.19.31.23.69.1,1.04,0,0,0,.02,0,.03-.36.93-1.2,1.3-2.48,1.1-.27-.04-.54-.12-.8-.22h0ZM578.85,478.84c-.23-.09-.48-.16-.73-.2-.32-.06-.65-.03-.96.07-.18.07-.26.16-.26.19-.02.12.32.51,1.08.63,1.01.16,1.16-.15,1.25-.37.01-.05,0-.06,0-.07-.05-.08-.17-.17-.37-.25Z"/>
      <path class="cls-6" d="M579.53,479.88h0c-.29-.12-.42-.46-.3-.75h0s3.03-7.1,3.03-7.1c.12-.29.45-.42.74-.3h0c.29.12.42.46.3.75h0s-3.03,7.1-3.03,7.1c-.12.29-.45.42-.74.3Z"/>
    </g>
    <path class="cls-13" d="M1059.7,501.3l22.2-.69-39.69,58.15-14.27-9.74,31.77-47.72Z"/>
    <path class="cls-11" d="M998.8,502l-20.65-.24,36.06,56.53,14.57-9.29-29.98-47Z"/>
    <circle class="cls-9" cx="1028.53" cy="559.8" r="17.36"/>
    <g>
      <path class="cls-2" d="M514.58,179.28l-1.93-4.9-69.18,27.29,1.95,4.93c-14.19,6.44-20.2,24.1-11.52,38.19,4.65,7.54,12.85,12.18,21.68,12.89l4.85.39c3.37.27,6.34,2.56,7.45,5.78.34.98.44,2.05.27,3.07-.4,2.46-1.98,4.38-4.18,5.25h0s-2.29.9-2.29.9l2.54,6.45,2.29-.9h.02c1.88-.75,3.62-1.83,4.97-3.34,3.4-3.82,4.42-8.72,3.07-13.22,2.46,1.62,5.1,2.94,7.86,3.93,13.55,4.89,24.6,14.94,29.89,28.34l8.77,22.24,13.3-5.25-8.65-21.93c-5.23-13.26-4.69-28.24,2.04-40.81,1.69-3.15,2.92-6.54,3.65-10.05,1.84,4.49,5.86,7.68,10.96,8.39,2.24.31,4.53-.05,6.64-.88h0s2.29-.91,2.29-.91l-2.55-6.44-2.29.9h0c-2.2.87-4.67.54-6.63-.98-.82-.63-1.47-1.48-1.9-2.43-1.4-3.11-.79-6.81,1.49-9.31l3.28-3.59c6.39-7,9.09-16.77,6.64-25.92-4.11-15.37-20.38-23.41-34.79-18.1ZM460.97,251.16l-5.49-.44c-7.69-.61-14.5-5.65-17.33-12.83-3.79-9.62.6-20.46,9.81-24.84l12.47,31.61c1.01,2.57,2.29,4.95,3.77,7.15-1.04-.32-2.11-.56-3.22-.65ZM538.04,218.16l-3.71,4.07c-1.02,1.11-1.84,2.36-2.48,3.69-.4-2.87-1.13-5.73-2.24-8.54l-12.48-31.64c9.9-3.56,20.93,1.37,24.82,11.22,2.83,7.18,1.3,15.51-3.9,21.21Z"/>
      <path class="cls-2" d="M505.41,320.02l43.45-17.14,1.87,4.74-43.45,17.14-1.87-4.74Z"/>
    </g>
  </g>
  <g id="Camada_8" data-name="Camada 8">
    <g>
      <path class="cls-2" d="M1032.5,234.9l-1.02-2.58-36.42,14.37,1.02,2.6c-7.47,3.39-10.64,12.69-6.07,20.1,2.45,3.97,6.76,6.41,11.41,6.79l2.55.2c1.78.14,3.34,1.35,3.92,3.04.18.52.23,1.08.14,1.62-.21,1.29-1.04,2.31-2.2,2.76h0s-1.2.48-1.2.48l1.34,3.39,1.2-.47h.01c.99-.39,1.91-.96,2.62-1.76,1.79-2.01,2.33-4.59,1.62-6.96,1.29.85,2.68,1.55,4.14,2.07,7.13,2.57,12.95,7.87,15.73,14.92l4.62,11.71,7-2.76-4.55-11.54c-2.75-6.98-2.47-14.87,1.08-21.48.89-1.66,1.54-3.44,1.92-5.29.97,2.36,3.08,4.04,5.77,4.42,1.18.17,2.39-.02,3.5-.46h0s1.2-.48,1.2-.48l-1.34-3.39-1.2.48h0c-1.16.46-2.46.28-3.49-.51-.43-.33-.77-.78-1-1.28-.74-1.64-.42-3.58.79-4.9l1.73-1.89c3.36-3.68,4.78-8.83,3.5-13.65-2.16-8.09-10.73-12.32-18.32-9.53ZM1004.28,272.75l-2.89-.23c-4.05-.32-7.63-2.98-9.12-6.76-2-5.06.32-10.77,5.16-13.08l6.56,16.64c.53,1.35,1.2,2.61,1.98,3.76-.55-.17-1.11-.3-1.69-.34ZM1044.85,255.37l-1.96,2.14c-.53.59-.97,1.24-1.31,1.94-.21-1.51-.6-3.02-1.18-4.5l-6.57-16.66c5.21-1.87,11.02.72,13.07,5.91,1.49,3.78.69,8.16-2.05,11.17Z"/>
      <path class="cls-2" d="M1027.67,309l22.87-9.02.99,2.5-22.87,9.02-.99-2.5Z"/>
    </g>
    <g>
      <path class="cls-2" d="M64.5,240.9l-1.02-2.58-36.42,14.37,1.02,2.6c-7.47,3.39-10.64,12.69-6.07,20.1,2.45,3.97,6.76,6.41,11.41,6.79l2.55.2c1.78.14,3.34,1.35,3.92,3.04.18.52.23,1.08.14,1.62-.21,1.29-1.04,2.31-2.2,2.76h0s-1.2.48-1.2.48l1.34,3.39,1.2-.47h.01c.99-.39,1.91-.96,2.62-1.76,1.79-2.01,2.33-4.59,1.62-6.96,1.29.85,2.68,1.55,4.14,2.07,7.13,2.57,12.95,7.87,15.73,14.92l4.62,11.71,7-2.76-4.55-11.54c-2.75-6.98-2.47-14.87,1.08-21.48.89-1.66,1.54-3.44,1.92-5.29.97,2.36,3.08,4.04,5.77,4.42,1.18.17,2.39-.02,3.5-.46h0s1.2-.48,1.2-.48l-1.34-3.39-1.2.48h0c-1.16.46-2.46.28-3.49-.51-.43-.33-.77-.78-1-1.28-.74-1.64-.42-3.58.79-4.9l1.73-1.89c3.36-3.68,4.78-8.83,3.5-13.65-2.16-8.09-10.73-12.32-18.32-9.53ZM36.28,278.75l-2.89-.23c-4.05-.32-7.63-2.98-9.12-6.76-2-5.06.32-10.77,5.16-13.08l6.56,16.64c.53,1.35,1.2,2.61,1.98,3.76-.55-.17-1.11-.3-1.69-.34ZM76.85,261.37l-1.96,2.14c-.53.59-.97,1.24-1.31,1.94-.21-1.51-.6-3.02-1.18-4.5l-6.57-16.66c5.21-1.87,11.02.72,13.07,5.91,1.49,3.78.69,8.16-2.05,11.17Z"/>
      <path class="cls-2" d="M59.67,315l22.87-9.02.99,2.5-22.87,9.02-.99-2.5Z"/>
    </g>
    <g>
      <path class="cls-2" d="M287.5,146.9l-1.02-2.58-36.42,14.37,1.02,2.6c-7.47,3.39-10.64,12.69-6.07,20.1,2.45,3.97,6.76,6.41,11.41,6.79l2.55.2c1.78.14,3.34,1.35,3.92,3.04.18.52.23,1.08.14,1.62-.21,1.29-1.04,2.31-2.2,2.76h0s-1.2.48-1.2.48l1.34,3.39,1.2-.47h.01c.99-.39,1.91-.96,2.62-1.76,1.79-2.01,2.33-4.59,1.62-6.96,1.29.85,2.68,1.55,4.14,2.07,7.13,2.57,12.95,7.87,15.73,14.92l4.62,11.71,7-2.76-4.55-11.54c-2.75-6.98-2.47-14.87,1.08-21.48.89-1.66,1.54-3.44,1.92-5.29.97,2.36,3.08,4.04,5.77,4.42,1.18.17,2.39-.02,3.5-.46h0s1.2-.48,1.2-.48l-1.34-3.39-1.2.48h0c-1.16.46-2.46.28-3.49-.51-.43-.33-.77-.78-1-1.28-.74-1.64-.42-3.58.79-4.9l1.73-1.89c3.36-3.68,4.78-8.83,3.5-13.65-2.16-8.09-10.73-12.32-18.32-9.53ZM259.28,184.75l-2.89-.23c-4.05-.32-7.63-2.98-9.12-6.76-2-5.06.32-10.77,5.16-13.08l6.56,16.64c.53,1.35,1.2,2.61,1.98,3.76-.55-.17-1.11-.3-1.69-.34ZM299.85,167.37l-1.96,2.14c-.53.59-.97,1.24-1.31,1.94-.21-1.51-.6-3.02-1.18-4.5l-6.57-16.66c5.21-1.87,11.02.72,13.07,5.91,1.49,3.78.69,8.16-2.05,11.17Z"/>
      <path class="cls-2" d="M282.67,221l22.87-9.02.99,2.5-22.87,9.02-.99-2.5Z"/>
    </g>
    <g>
      <path class="cls-2" d="M1060.5,30.9l-1.02-2.58-36.42,14.37,1.02,2.6c-7.47,3.39-10.64,12.69-6.07,20.1,2.45,3.97,6.76,6.41,11.41,6.79l2.55.2c1.78.14,3.34,1.35,3.92,3.04.18.52.23,1.08.14,1.62-.21,1.29-1.04,2.31-2.2,2.76h0s-1.2.48-1.2.48l1.34,3.39,1.2-.47h.01c.99-.39,1.91-.96,2.62-1.76,1.79-2.01,2.33-4.59,1.62-6.96,1.29.85,2.68,1.55,4.14,2.07,7.13,2.57,12.95,7.87,15.73,14.92l4.62,11.71,7-2.76-4.55-11.54c-2.75-6.98-2.47-14.87,1.08-21.48.89-1.66,1.54-3.44,1.92-5.29.97,2.36,3.08,4.04,5.77,4.42,1.18.17,2.39-.02,3.5-.46h0s1.2-.48,1.2-.48l-1.34-3.39-1.2.48h0c-1.16.46-2.46.28-3.49-.51-.43-.33-.77-.78-1-1.28-.74-1.64-.42-3.58.79-4.9l1.73-1.89c3.36-3.68,4.78-8.83,3.5-13.65-2.16-8.09-10.73-12.32-18.32-9.53ZM1032.28,68.75l-2.89-.23c-4.05-.32-7.63-2.98-9.12-6.76-2-5.06.32-10.77,5.16-13.08l6.56,16.64c.53,1.35,1.2,2.61,1.98,3.76-.55-.17-1.11-.3-1.69-.34ZM1072.85,51.37l-1.96,2.14c-.53.59-.97,1.24-1.31,1.94-.21-1.51-.6-3.02-1.18-4.5l-6.57-16.66c5.21-1.87,11.02.72,13.07,5.91,1.49,3.78.69,8.16-2.05,11.17Z"/>
      <path class="cls-2" d="M1055.67,105l22.87-9.02.99,2.5-22.87,9.02-.99-2.5Z"/>
    </g>
    <circle class="cls-10" cx="624.97" cy="653.7" r="29.29"/>
    <g>
      <path class="cls-4" d="M621.22,648.2c6.18-6.14,9.28-14.74,8.43-23.41-1.55-.26-3.12-.38-4.68-.38h-.48c.88,7.42-1.64,14.83-6.84,20.19-5.78,5.62-13.93,8.08-21.85,6.6-.08.83-.11,1.66-.11,2.54s0,1.79.13,2.67c1.57.27,3.17.4,4.76.41,7.75-.01,15.19-3.11,20.66-8.61Z"/>
      <path class="cls-4" d="M653.89,648.99c-16.05-1.52-30.3,10.27-31.82,26.32-.24,2.52-.15,5.06.27,7.56.88.08,1.78.13,2.68.13s1.66,0,2.48-.11c-1.46-7.93.99-16.08,6.59-21.89,5.37-5.21,12.79-7.73,20.22-6.86v-.44c-.02-1.58-.16-3.15-.42-4.71Z"/>
    </g>
    <circle class="cls-10" cx="946.97" cy="156.7" r="29.29"/>
    <g>
      <path class="cls-4" d="M943.22,151.2c6.18-6.14,9.28-14.74,8.43-23.41-1.55-.26-3.12-.38-4.68-.38h-.48c.88,7.42-1.64,14.83-6.84,20.19-5.78,5.62-13.93,8.08-21.85,6.6-.08.83-.11,1.66-.11,2.54s0,1.79.13,2.67c1.57.27,3.17.4,4.76.41,7.75-.01,15.19-3.11,20.66-8.61Z"/>
      <path class="cls-4" d="M975.89,151.99c-16.05-1.52-30.3,10.27-31.82,26.32-.24,2.52-.15,5.06.27,7.56.88.08,1.78.13,2.68.13s1.66,0,2.48-.11c-1.46-7.93.99-16.08,6.59-21.89,5.37-5.21,12.79-7.73,20.22-6.86v-.44c-.02-1.58-.16-3.15-.42-4.71Z"/>
    </g>
    <circle class="cls-10" cx="850.97" cy="477.7" r="29.29"/>
    <g>
      <path class="cls-4" d="M847.22,472.2c6.18-6.14,9.28-14.74,8.43-23.41-1.55-.26-3.12-.38-4.68-.38h-.48c.88,7.42-1.64,14.83-6.84,20.19-5.78,5.62-13.93,8.08-21.85,6.6-.08.83-.11,1.66-.11,2.54s0,1.79.13,2.67c1.57.27,3.17.4,4.76.41,7.75-.01,15.19-3.11,20.66-8.61Z"/>
      <path class="cls-4" d="M879.89,472.99c-16.05-1.52-30.3,10.27-31.82,26.32-.24,2.52-.15,5.06.27,7.56.88.08,1.78.13,2.68.13s1.66,0,2.48-.11c-1.46-7.93.99-16.08,6.59-21.89,5.37-5.21,12.79-7.73,20.22-6.86v-.44c-.02-1.58-.16-3.15-.42-4.71Z"/>
    </g>
    <circle class="cls-10" cx="232.97" cy="341.7" r="29.29"/>
    <g>
      <path class="cls-4" d="M229.22,336.2c6.18-6.14,9.28-14.74,8.43-23.41-1.55-.26-3.12-.38-4.68-.38h-.48c.88,7.42-1.64,14.83-6.84,20.19-5.78,5.62-13.93,8.08-21.85,6.6-.08.83-.11,1.66-.11,2.54s0,1.79.13,2.67c1.57.27,3.17.4,4.76.41,7.75-.01,15.19-3.11,20.66-8.61Z"/>
      <path class="cls-4" d="M261.89,336.99c-16.05-1.52-30.3,10.27-31.82,26.32-.24,2.52-.15,5.06.27,7.56.88.08,1.78.13,2.68.13s1.66,0,2.48-.11c-1.46-7.93.99-16.08,6.59-21.89,5.37-5.21,12.79-7.73,20.22-6.86v-.44c-.02-1.58-.16-3.15-.42-4.71Z"/>
    </g>
    <path class="cls-10" d="M1090.91,181.71c4.92-2.59,11.01-.69,13.59,4.23.17.32.32.66.46,1,13.49,29.3,34,75.92,34,75.92l-8.49,4.46s-27.01-43.74-43.23-71.07c-3.11-4.61-1.88-10.87,2.73-13.97.3-.2.62-.39.94-.56Z"/>
    <path class="cls-4" d="M1158.71,303.4l-5.85,3.08-22.39-39.17,8.49-4.46,19.76,40.55Z"/>
    <rect class="cls-10" x="1151" y="304.31" width="11.65" height="5.72" rx="2.86" ry="2.86" transform="translate(-10.11 573.35) rotate(-27.72)"/>
    <path class="cls-10" d="M17.91,308.71c4.92-2.59,11.01-.69,13.59,4.23.17.32.32.66.46,1,13.49,29.3,34,75.92,34,75.92l-8.49,4.46s-27.01-43.74-43.23-71.07c-3.11-4.61-1.88-10.87,2.73-13.97.3-.2.62-.39.94-.56Z"/>
    <path class="cls-4" d="M85.71,430.4l-5.85,3.08-22.39-39.17,8.49-4.46,19.76,40.55Z"/>
    <rect class="cls-10" x="78" y="431.31" width="11.65" height="5.72" rx="2.86" ry="2.86" transform="translate(-192.33 88.82) rotate(-27.72)"/>
    <path class="cls-10" d="M899.91,505.71c4.92-2.59,11.01-.69,13.59,4.23.17.32.32.66.46,1,13.49,29.3,34,75.92,34,75.92l-8.49,4.46s-27.01-43.74-43.23-71.07c-3.11-4.61-1.88-10.87,2.73-13.97.3-.2.62-.39.94-.56Z"/>
    <path class="cls-4" d="M967.71,627.4l-5.85,3.08-22.39-39.17,8.49-4.46,19.76,40.55Z"/>
    <rect class="cls-10" x="960" y="628.31" width="11.65" height="5.72" rx="2.86" ry="2.86" transform="translate(-182.74 521.69) rotate(-27.72)"/>
    <path class="cls-10" d="M574.91,303.71c4.92-2.59,11.01-.69,13.59,4.23.17.32.32.66.46,1,13.49,29.3,34,75.92,34,75.92l-8.49,4.46s-27.01-43.74-43.23-71.07c-3.11-4.61-1.88-10.87,2.73-13.97.3-.2.62-.39.94-.56Z"/>
    <path class="cls-4" d="M642.71,425.4l-5.85,3.08-22.39-39.17,8.49-4.46,19.76,40.55Z"/>
    <rect class="cls-10" x="635" y="426.31" width="11.65" height="5.72" rx="2.86" ry="2.86" transform="translate(-126.08 347.33) rotate(-27.72)"/>
  </g>
  <g id="Camada_7" data-name="Camada 7">
    <path class="cls-14" d="M650.82,60.64c-.08-.54-.17-1.06-.27-1.58l-7.14,1.94-1.35-4.95,7.09-1.93c-.19-.51-.38-1.01-.59-1.49l-6.91,1.88-1.35-4.95,5.81-1.58-.94-1.4-5.29,1.44-1.35-4.95,2.92-.79c-.46-.44-.94-.87-1.42-1.27l-1.92.52-.66-2.44c-.65-.42-1.31-.81-1.97-1.16l1.09,4.02-2.43.66c-1.09.3-2.22-.35-2.52-1.44l-.66-2.43,3.99-1.08c-.77-.39-1.56-.73-2.36-1.02l-2.05.56-.35-1.27c-.58-.13-1.16-.24-1.74-.31l.54,2-4.95,1.35-.86-3.17c-.26.05-.52.12-.77.19s-.51.15-.77.23l.86,3.17-4.95,1.35-.54-2c-.46.36-.91.75-1.34,1.17l.34,1.24-1.98.54c-.53.64-1.02,1.33-1.48,2.06l3.89-1.06.68,2.49c.29,1.06-.34,2.15-1.39,2.43l-3.04.83-.92-3.39c-.38.7-.74,1.42-1.07,2.17l.45,1.64-1.22.33c-.21.59-.4,1.19-.57,1.81l2.21-.6,1.35,4.95-4.55,1.24c-.05.55-.08,1.12-.11,1.68l5.08-1.38,1.35,4.95-6.21,1.69c.06.53.14,1.06.22,1.59l6.4-1.74,1.35,4.95-6.54,1.78c.16.5.33,1.01.52,1.51l6.44-1.75,1.49,5.49-5.27,1.43c.28.46.58.93.9,1.41l4.03-.63,1.96,3.74-3.25.88,1,1.38,2.66-.72,1.35,4.95-.68.18c.35.45.71.91,1.06,1.37h.03s.02.07.02.07c.83,1.06,1.68,2.13,2.52,3.18l-1-3.68,4.95-1.35,1.35,4.95-4.39,1.19c.37.46.74.91,1.1,1.36l3.71-1.01,1.35,4.95-1.48.4c.39.46.76.91,1.13,1.35l.76-.21.45,1.64,2.44,2.87-1.34-4.93,4.95-1.35,2.55,9.37,1.54-.42-2.55-9.37,4.95-1.35,1.26,4.62.65-3.69-.37-1.35.62-.17c.1-.57.2-1.15.29-1.74l-1.34.36-1.35-4.95,3.58-.97.27-1.73-4.26,1.16-1.35-4.95,4.41-1.2,1.25,4.61c.2-1.31.39-2.64.58-3.97l-.29-1.06.45-.12.23-1.72-1.1.3-1.35-4.95,3.1-.84.17-1.7-3.69,1c-.66-2.43.78-4.94,3.21-5.61l.85-.23c.03-.58.06-1.14.07-1.68l-5.75,1.56-1.49-5.49,7-1.9h0ZM641.86,61.42l-4.41,1.2-1.35-4.95,4.41-1.2,1.35,4.95ZM641.21,82.51l-4.95,1.35-1.35-4.95,4.95-1.35,1.35,4.95ZM626.81,74.72l4.95-1.35,1.2,4.41-4.95,1.35-1.2-4.41ZM627.44,51.4l-1.35-4.95,4.95-1.35,1.35,4.95-4.95,1.35ZM632.8,51.6l1.35,4.95-4.95,1.35-1.35-4.95,4.95-1.35ZM625.89,51.82l-4.95,1.35-1.35-4.95,4.95-1.35,1.35,4.95ZM626.31,53.36l1.35,4.95-4.95,1.35-1.35-4.95,4.95-1.35ZM628.08,59.86l1.35,4.95-4.95,1.35-1.35-4.95,4.95-1.35ZM629.84,66.35l1.49,5.49-4.95,1.35-1.49-5.49,4.95-1.35ZM633.37,79.33l1.35,4.95-4.95,1.35-1.35-4.95,4.95-1.35ZM634.49,77.37l-1.2-4.41,4.95-1.35,1.2,4.41-4.95,1.35ZM632.88,71.42l-1.49-5.49,4.95-1.35,1.49,5.49-4.95,1.35ZM630.97,64.38l-1.35-4.95,4.95-1.35,1.35,4.95-4.95,1.35ZM640.1,54.93l-4.41,1.2-1.35-4.95,4.41-1.2,1.35,4.95ZM636.99,43.49l1.35,4.95-4.41,1.2-1.35-4.95,4.41-1.2ZM629.42,39.16l1.2,4.41-4.95,1.35-1.2-4.41,4.95-1.35ZM617.98,42.27l4.95-1.35,1.2,4.41-4.95,1.35-1.2-4.41ZM613.11,49.98l4.95-1.35,1.35,4.95-4.95,1.35-1.35-4.95ZM614.87,56.47l4.95-1.35,1.35,4.95-4.95,1.35-1.35-4.95ZM616.64,62.96l4.95-1.35,1.35,4.95-4.95,1.35-1.35-4.95ZM618.4,69.46l4.95-1.35,1.49,5.49-4.95,1.35-1.49-5.49ZM625.26,75.14l1.2,4.41-4.95,1.35-1.2-4.41,4.95-1.35ZM623.28,87.38l-1.35-4.95,4.95-1.35,1.35,4.95-4.95,1.35ZM630.19,87.16l4.95-1.35,1.35,4.95-4.95,1.35-1.35-4.95ZM633.3,98.6l-1.35-4.95,4.95-1.35,1.35,4.95-4.95,1.35ZM644.74,95.49l-4.95,1.35-1.35-4.95,4.95-1.35,1.35,4.95ZM642.97,89l-4.95,1.35-1.35-4.95,4.95-1.35,1.35,4.95ZM642.75,82.09l-1.35-4.95,4.41-1.2,1.35,4.95-4.41,1.2ZM645.39,74.4l-4.41,1.2-1.2-4.41,4.41-1.2,1.2,4.41ZM643.77,68.45l-4.41,1.2-1.49-5.49,4.41-1.2,1.49,5.49Z"/>
    <path class="cls-14" d="M649.14,54.13c-.19-.51-.38-1.01-.59-1.49-.7-1.65-1.53-3.2-2.45-4.65l-.94-1.4c-1.13-1.59-2.38-3.03-3.71-4.3-.46-.44-.94-.87-1.42-1.27-.84-.7-1.7-1.34-2.58-1.92-.65-.42-1.31-.81-1.97-1.16-.18-.09-.35-.18-.53-.27-.77-.39-1.56-.73-2.36-1.02-.79-.3-1.6-.53-2.4-.71-.58-.13-1.16-.24-1.74-.31-1.8-.24-3.57-.19-5.27.17-.26.05-.52.12-.77.19s-.51.15-.77.23c-1.65.55-3.21,1.41-4.63,2.52-.46.36-.91.75-1.34,1.17-.58.55-1.12,1.14-1.65,1.78-.53.64-1.02,1.33-1.48,2.06-.27.42-.53.86-.78,1.31-.38.7-.74,1.42-1.07,2.17-.28.64-.54,1.3-.78,1.98-.21.59-.4,1.19-.57,1.81-.49,1.77-.83,3.64-1,5.59-.05.55-.08,1.12-.11,1.68-.06,1.71,0,3.47.21,5.26.06.53.14,1.06.22,1.59.27,1.65.67,3.31,1.2,4.99.16.5.33,1.01.52,1.51.06.18.13.35.2.53.48,1.25,1.33,2.84,2.46,4.64.28.46.58.93.9,1.41.82,1.26,1.75,2.6,2.75,3.99l1,1.38c1.06,1.43,2.18,2.92,3.33,4.41.35.45.71.91,1.06,1.37.02.02.03.04.05.07.83,1.06,1.68,2.13,2.52,3.18.3.38.6.75.9,1.12.37.46.74.91,1.1,1.36,1.23,1.5,2.43,2.96,3.58,4.34.39.46.76.91,1.13,1.35.41.49.82.97,1.21,1.44l2.44,2.87c2.58,3.01,4.28,4.93,4.28,4.93l5.82-1.58s.52-2.66,1.26-6.77l.65-3.69c.08-.5.17-1,.25-1.52.1-.57.2-1.15.29-1.74.3-1.77.6-3.64.89-5.56l.27-1.73c.02-.12.04-.25.05-.38.2-1.31.39-2.64.58-3.97.06-.39.11-.79.16-1.18l.23-1.72c.25-1.87.47-3.72.66-5.49l.17-1.7c.16-1.71.29-3.33.38-4.84.03-.58.06-1.14.07-1.68.07-2.11.03-3.91-.16-5.27-.03-.19-.06-.38-.09-.56-.08-.54-.17-1.06-.27-1.58-.35-1.72-.83-3.36-1.4-4.93ZM646.59,61.79c.13.61.24,1.24.33,1.87.14,1,.19,2.33.16,3.89,0,.53-.02,1.09-.05,1.67-.06,1.29-.14,2.7-.26,4.18-.01.21-.03.42-.05.63-.05.56-.1,1.12-.14,1.69-.07.74-.14,1.48-.22,2.24-.11,1.06-.22,2.15-.35,3.23-.07.57-.13,1.14-.2,1.71-.23,1.87-.46,3.73-.7,5.5-.07.54-.14,1.07-.22,1.6,0,.04,0,.08-.01.12-.19,1.37-.37,2.68-.55,3.89-.08.57-.16,1.12-.24,1.64-.09.61-.18,1.19-.26,1.73-.42,2.76-.7,4.51-.7,4.51l-4.81,1.31s-1.16-1.35-2.96-3.51c-.35-.42-.73-.87-1.13-1.35-.48-.58-.99-1.2-1.52-1.85-.65-.79-1.33-1.63-2.04-2.5-.14-.18-.29-.36-.44-.55-.21-.27-.43-.54-.65-.81-1.13-1.41-2.3-2.88-3.46-4.37-.36-.46-.71-.91-1.06-1.37-1.03-1.34-2.04-2.68-3.01-3.99-.1-.14-.21-.29-.31-.43-.34-.46-.68-.93-1-1.38-.47-.66-.92-1.31-1.36-1.94-.49-.71-.95-1.4-1.38-2.05-.32-.49-.62-.96-.89-1.41-.82-1.35-1.44-2.52-1.8-3.45-.23-.59-.43-1.18-.61-1.79-.16-.51-.31-1.02-.44-1.54-.42-1.68-.7-3.39-.84-5.09-.04-.55-.08-1.09-.09-1.63-.05-1.57,0-3.13.18-4.64.02-.25.06-.5.09-.74.08-.58.17-1.16.28-1.73.08-.43.17-.85.27-1.27.37-1.6.87-3.12,1.48-4.52.28-.66.6-1.3.94-1.91.25-.46.51-.89.79-1.31.38-.57.79-1.11,1.22-1.61,1.29-1.5,2.78-2.63,4.43-3.25.26-.1.53-.18.81-.26.24-.07.49-.12.73-.16,1.73-.31,3.57-.12,5.45.49.62.2,1.24.45,1.86.74.51.24,1.02.51,1.53.8.61.35,1.21.74,1.79,1.17.86.63,1.71,1.32,2.52,2.09.67.63,1.32,1.3,1.95,2.01.13.14.25.29.37.43.25.3.5.61.74.92,1.09,1.39,2.09,2.91,2.95,4.51.25.48.5.96.73,1.46.73,1.54,1.34,3.16,1.78,4.83.14.51.26,1.03.38,1.55h0Z"/>
    <path class="cls-1" d="M636.41,109.25l10.58-2.88.77,2.82-10.58,2.88-.77-2.82Z"/>
    <path class="cls-16" d="M638.4,111.74l8.12-2.21,7.23,26.6-8.12,2.21-7.23-26.6Z"/>
    <path class="cls-14" d="M200.82,203.64c-.08-.54-.17-1.06-.27-1.58l-7.14,1.94-1.35-4.95,7.09-1.93c-.19-.51-.38-1.01-.59-1.49l-6.91,1.88-1.35-4.95,5.81-1.58-.94-1.4-5.29,1.44-1.35-4.95,2.92-.79c-.46-.44-.94-.87-1.42-1.27l-1.92.52-.66-2.44c-.65-.42-1.31-.81-1.97-1.16l1.09,4.02-2.43.66c-1.09.3-2.22-.35-2.52-1.44l-.66-2.43,3.99-1.08c-.77-.39-1.56-.73-2.36-1.02l-2.05.56-.35-1.27c-.58-.13-1.16-.24-1.74-.31l.54,2-4.95,1.35-.86-3.17c-.26.05-.52.12-.77.19s-.51.15-.77.23l.86,3.17-4.95,1.35-.54-2c-.46.36-.91.75-1.34,1.17l.34,1.24-1.98.54c-.53.64-1.02,1.33-1.48,2.06l3.89-1.06.68,2.49c.29,1.06-.34,2.15-1.39,2.43l-3.04.83-.92-3.39c-.38.7-.74,1.42-1.07,2.17l.45,1.64-1.22.33c-.21.59-.4,1.19-.57,1.81l2.21-.6,1.35,4.95-4.55,1.24c-.05.55-.08,1.12-.11,1.68l5.08-1.38,1.35,4.95-6.21,1.69c.06.53.14,1.06.22,1.59l6.4-1.74,1.35,4.95-6.54,1.78c.16.5.33,1.01.52,1.51l6.44-1.75,1.49,5.49-5.27,1.43c.28.46.58.93.9,1.41l4.03-.63,1.96,3.74-3.25.88,1,1.38,2.66-.72,1.35,4.95-.68.18c.35.45.71.91,1.06,1.37h.03s.02.07.02.07c.83,1.06,1.68,2.13,2.52,3.18l-1-3.68,4.95-1.35,1.35,4.95-4.39,1.19c.37.46.74.91,1.1,1.36l3.71-1.01,1.35,4.95-1.48.4c.39.46.76.91,1.13,1.35l.76-.21.45,1.64,2.44,2.87-1.34-4.93,4.95-1.35,2.55,9.37,1.54-.42-2.55-9.37,4.95-1.35,1.26,4.62.65-3.69-.37-1.35.62-.17c.1-.57.2-1.15.29-1.74l-1.34.36-1.35-4.95,3.58-.97.27-1.73-4.26,1.16-1.35-4.95,4.41-1.2,1.25,4.61c.2-1.31.39-2.64.58-3.97l-.29-1.06.45-.12.23-1.72-1.1.3-1.35-4.95,3.1-.84.17-1.7-3.69,1c-.66-2.43.78-4.94,3.21-5.61l.85-.23c.03-.58.06-1.14.07-1.68l-5.75,1.56-1.49-5.49,7-1.9h0ZM191.86,204.42l-4.41,1.2-1.35-4.95,4.41-1.2,1.35,4.95ZM191.21,225.51l-4.95,1.35-1.35-4.95,4.95-1.35,1.35,4.95ZM176.81,217.72l4.95-1.35,1.2,4.41-4.95,1.35-1.2-4.41ZM177.44,194.4l-1.35-4.95,4.95-1.35,1.35,4.95-4.95,1.35ZM182.8,194.6l1.35,4.95-4.95,1.35-1.35-4.95,4.95-1.35ZM175.89,194.82l-4.95,1.35-1.35-4.95,4.95-1.35,1.35,4.95ZM176.31,196.36l1.35,4.95-4.95,1.35-1.35-4.95,4.95-1.35ZM178.08,202.86l1.35,4.95-4.95,1.35-1.35-4.95,4.95-1.35ZM179.84,209.35l1.49,5.49-4.95,1.35-1.49-5.49,4.95-1.35ZM183.37,222.33l1.35,4.95-4.95,1.35-1.35-4.95,4.95-1.35ZM184.49,220.37l-1.2-4.41,4.95-1.35,1.2,4.41-4.95,1.35ZM182.88,214.42l-1.49-5.49,4.95-1.35,1.49,5.49-4.95,1.35ZM180.97,207.38l-1.35-4.95,4.95-1.35,1.35,4.95-4.95,1.35ZM190.1,197.93l-4.41,1.2-1.35-4.95,4.41-1.2,1.35,4.95ZM186.99,186.49l1.35,4.95-4.41,1.2-1.35-4.95,4.41-1.2ZM179.42,182.16l1.2,4.41-4.95,1.35-1.2-4.41,4.95-1.35ZM167.98,185.27l4.95-1.35,1.2,4.41-4.95,1.35-1.2-4.41ZM163.11,192.98l4.95-1.35,1.35,4.95-4.95,1.35-1.35-4.95ZM164.87,199.47l4.95-1.35,1.35,4.95-4.95,1.35-1.35-4.95ZM166.64,205.96l4.95-1.35,1.35,4.95-4.95,1.35-1.35-4.95ZM168.4,212.46l4.95-1.35,1.49,5.49-4.95,1.35-1.49-5.49ZM175.26,218.14l1.2,4.41-4.95,1.35-1.2-4.41,4.95-1.35ZM173.28,230.38l-1.35-4.95,4.95-1.35,1.35,4.95-4.95,1.35ZM180.19,230.16l4.95-1.35,1.35,4.95-4.95,1.35-1.35-4.95ZM183.3,241.6l-1.35-4.95,4.95-1.35,1.35,4.95-4.95,1.35ZM194.74,238.49l-4.95,1.35-1.35-4.95,4.95-1.35,1.35,4.95ZM192.97,232l-4.95,1.35-1.35-4.95,4.95-1.35,1.35,4.95ZM192.75,225.09l-1.35-4.95,4.41-1.2,1.35,4.95-4.41,1.2ZM195.39,217.4l-4.41,1.2-1.2-4.41,4.41-1.2,1.2,4.41ZM193.77,211.45l-4.41,1.2-1.49-5.49,4.41-1.2,1.49,5.49Z"/>
    <path class="cls-14" d="M199.14,197.13c-.19-.51-.38-1.01-.59-1.49-.7-1.65-1.53-3.2-2.45-4.65l-.94-1.4c-1.13-1.59-2.38-3.03-3.71-4.3-.46-.44-.94-.87-1.42-1.27-.84-.7-1.7-1.34-2.58-1.92-.65-.42-1.31-.81-1.97-1.16-.18-.09-.35-.18-.53-.27-.77-.39-1.56-.73-2.36-1.02-.79-.3-1.6-.53-2.4-.71-.58-.13-1.16-.24-1.74-.31-1.8-.24-3.57-.19-5.27.17-.26.05-.52.12-.77.19s-.51.15-.77.23c-1.65.55-3.21,1.41-4.63,2.52-.46.36-.91.75-1.34,1.17-.58.55-1.12,1.14-1.65,1.78-.53.64-1.02,1.33-1.48,2.06-.27.42-.53.86-.78,1.31-.38.7-.74,1.42-1.07,2.17-.28.64-.54,1.3-.78,1.98-.21.59-.4,1.19-.57,1.81-.49,1.77-.83,3.64-1,5.59-.05.55-.08,1.12-.11,1.68-.06,1.71,0,3.47.21,5.26.06.53.14,1.06.22,1.59.27,1.65.67,3.31,1.2,4.99.16.5.33,1.01.52,1.51.06.18.13.35.2.53.48,1.25,1.33,2.84,2.46,4.64.28.46.58.93.9,1.41.82,1.26,1.75,2.6,2.75,3.99l1,1.38c1.06,1.43,2.18,2.92,3.33,4.41.35.45.71.91,1.06,1.37.02.02.03.04.05.07.83,1.06,1.68,2.13,2.52,3.18.3.38.6.75.9,1.12.37.46.74.91,1.1,1.36,1.23,1.5,2.43,2.96,3.58,4.34.39.46.76.91,1.13,1.35.41.49.82.97,1.21,1.44l2.44,2.87c2.58,3.01,4.28,4.93,4.28,4.93l5.82-1.58s.52-2.66,1.26-6.77l.65-3.69c.08-.5.17-1,.25-1.52.1-.57.2-1.15.29-1.74.3-1.77.6-3.64.89-5.56l.27-1.73c.02-.12.04-.25.05-.38.2-1.31.39-2.64.58-3.97.06-.39.11-.79.16-1.18l.23-1.72c.25-1.87.47-3.72.66-5.49l.17-1.7c.16-1.71.29-3.33.38-4.84.03-.58.06-1.14.07-1.68.07-2.11.03-3.91-.16-5.27-.03-.19-.06-.38-.09-.56-.08-.54-.17-1.06-.27-1.58-.35-1.72-.83-3.36-1.4-4.93ZM196.59,204.79c.13.61.24,1.24.33,1.87.14,1,.19,2.33.16,3.89,0,.53-.02,1.09-.05,1.67-.06,1.29-.14,2.7-.26,4.18-.01.21-.03.42-.05.63-.05.56-.1,1.12-.14,1.69-.07.74-.14,1.48-.22,2.24-.11,1.06-.22,2.15-.35,3.23-.07.57-.13,1.14-.2,1.71-.23,1.87-.46,3.73-.7,5.5-.07.54-.14,1.07-.22,1.6,0,.04,0,.08-.01.12-.19,1.37-.37,2.68-.55,3.89-.08.57-.16,1.12-.24,1.64-.09.61-.18,1.19-.26,1.73-.42,2.76-.7,4.51-.7,4.51l-4.81,1.31s-1.16-1.35-2.96-3.51c-.35-.42-.73-.87-1.13-1.35-.48-.58-.99-1.2-1.52-1.85-.65-.79-1.33-1.63-2.04-2.5-.14-.18-.29-.36-.44-.55-.21-.27-.43-.54-.65-.81-1.13-1.41-2.3-2.88-3.46-4.37-.36-.46-.71-.91-1.06-1.37-1.03-1.34-2.04-2.68-3.01-3.99-.1-.14-.21-.29-.31-.43-.34-.46-.68-.93-1-1.38-.47-.66-.92-1.31-1.36-1.94-.49-.71-.95-1.4-1.38-2.05-.32-.49-.62-.96-.89-1.41-.82-1.35-1.44-2.52-1.8-3.45-.23-.59-.43-1.18-.61-1.79-.16-.51-.31-1.02-.44-1.54-.42-1.68-.7-3.39-.84-5.09-.04-.55-.08-1.09-.09-1.63-.05-1.57,0-3.13.18-4.64.02-.25.06-.5.09-.74.08-.58.17-1.16.28-1.73.08-.43.17-.85.27-1.27.37-1.6.87-3.12,1.48-4.52.28-.66.6-1.3.94-1.91.25-.46.51-.89.79-1.31.38-.57.79-1.11,1.22-1.61,1.29-1.5,2.78-2.63,4.43-3.25.26-.1.53-.18.81-.26.24-.07.49-.12.73-.16,1.73-.31,3.57-.12,5.45.49.62.2,1.24.45,1.86.74.51.24,1.02.51,1.53.8.61.35,1.21.74,1.79,1.17.86.63,1.71,1.32,2.52,2.09.67.63,1.32,1.3,1.95,2.01.13.14.25.29.37.43.25.3.5.61.74.92,1.09,1.39,2.09,2.91,2.95,4.51.25.48.5.96.73,1.46.73,1.54,1.34,3.16,1.78,4.83.14.51.26,1.03.38,1.55h0Z"/>
    <path class="cls-1" d="M186.41,252.25l10.58-2.88.77,2.82-10.58,2.88-.77-2.82Z"/>
    <path class="cls-16" d="M188.4,254.74l8.12-2.21,7.23,26.6-8.12,2.21-7.23-26.6Z"/>
    <path class="cls-14" d="M68.82,488.64c-.08-.54-.17-1.06-.27-1.58l-7.14,1.94-1.35-4.95,7.09-1.93c-.19-.51-.38-1.01-.59-1.49l-6.91,1.88-1.35-4.95,5.81-1.58-.94-1.4-5.29,1.44-1.35-4.95,2.92-.79c-.46-.44-.94-.87-1.42-1.27l-1.92.52-.66-2.44c-.65-.42-1.31-.81-1.97-1.16l1.09,4.02-2.43.66c-1.09.3-2.22-.35-2.52-1.44l-.66-2.43,3.99-1.08c-.77-.39-1.56-.73-2.36-1.02l-2.05.56-.35-1.27c-.58-.13-1.16-.24-1.74-.31l.54,2-4.95,1.35-.86-3.17c-.26.05-.52.12-.77.19s-.51.15-.77.23l.86,3.17-4.95,1.35-.54-2c-.46.36-.91.75-1.34,1.17l.34,1.24-1.98.54c-.53.64-1.02,1.33-1.48,2.06l3.89-1.06.68,2.49c.29,1.06-.34,2.15-1.39,2.43l-3.04.83-.92-3.39c-.38.7-.74,1.42-1.07,2.17l.45,1.64-1.22.33c-.21.59-.4,1.19-.57,1.81l2.21-.6,1.35,4.95-4.55,1.24c-.05.55-.08,1.12-.11,1.68l5.08-1.38,1.35,4.95-6.21,1.69c.06.53.14,1.06.22,1.59l6.4-1.74,1.35,4.95-6.54,1.78c.16.5.33,1.01.52,1.51l6.44-1.75,1.49,5.49-5.27,1.43c.28.46.58.93.9,1.41l4.03-.63,1.96,3.74-3.25.88,1,1.38,2.66-.72,1.35,4.95-.68.18c.35.45.71.91,1.06,1.37h.03s.02.07.02.07c.83,1.06,1.68,2.13,2.52,3.18l-1-3.68,4.95-1.35,1.35,4.95-4.39,1.19c.37.46.74.91,1.1,1.36l3.71-1.01,1.35,4.95-1.48.4c.39.46.76.91,1.13,1.35l.76-.21.45,1.64,2.44,2.87-1.34-4.93,4.95-1.35,2.55,9.37,1.54-.42-2.55-9.37,4.95-1.35,1.26,4.62.65-3.69-.37-1.35.62-.17c.1-.57.2-1.15.29-1.74l-1.34.36-1.35-4.95,3.58-.97.27-1.73-4.26,1.16-1.35-4.95,4.41-1.2,1.25,4.61c.2-1.31.39-2.64.58-3.97l-.29-1.06.45-.12.23-1.72-1.1.3-1.35-4.95,3.1-.84.17-1.7-3.69,1c-.66-2.43.78-4.94,3.21-5.61l.85-.23c.03-.58.06-1.14.07-1.68l-5.75,1.56-1.49-5.49,7-1.9h0ZM59.86,489.42l-4.41,1.2-1.35-4.95,4.41-1.2,1.35,4.95ZM59.21,510.51l-4.95,1.35-1.35-4.95,4.95-1.35,1.35,4.95ZM44.81,502.72l4.95-1.35,1.2,4.41-4.95,1.35-1.2-4.41ZM45.44,479.4l-1.35-4.95,4.95-1.35,1.35,4.95-4.95,1.35ZM50.8,479.6l1.35,4.95-4.95,1.35-1.35-4.95,4.95-1.35ZM43.89,479.82l-4.95,1.35-1.35-4.95,4.95-1.35,1.35,4.95ZM44.31,481.36l1.35,4.95-4.95,1.35-1.35-4.95,4.95-1.35ZM46.08,487.86l1.35,4.95-4.95,1.35-1.35-4.95,4.95-1.35ZM47.84,494.35l1.49,5.49-4.95,1.35-1.49-5.49,4.95-1.35ZM51.37,507.33l1.35,4.95-4.95,1.35-1.35-4.95,4.95-1.35ZM52.49,505.37l-1.2-4.41,4.95-1.35,1.2,4.41-4.95,1.35ZM50.88,499.42l-1.49-5.49,4.95-1.35,1.49,5.49-4.95,1.35ZM48.97,492.38l-1.35-4.95,4.95-1.35,1.35,4.95-4.95,1.35ZM58.1,482.93l-4.41,1.2-1.35-4.95,4.41-1.2,1.35,4.95ZM54.99,471.49l1.35,4.95-4.41,1.2-1.35-4.95,4.41-1.2ZM47.42,467.16l1.2,4.41-4.95,1.35-1.2-4.41,4.95-1.35ZM35.98,470.27l4.95-1.35,1.2,4.41-4.95,1.35-1.2-4.41ZM31.11,477.98l4.95-1.35,1.35,4.95-4.95,1.35-1.35-4.95ZM32.87,484.47l4.95-1.35,1.35,4.95-4.95,1.35-1.35-4.95ZM34.64,490.96l4.95-1.35,1.35,4.95-4.95,1.35-1.35-4.95ZM36.4,497.46l4.95-1.35,1.49,5.49-4.95,1.35-1.49-5.49ZM43.26,503.14l1.2,4.41-4.95,1.35-1.2-4.41,4.95-1.35ZM41.28,515.38l-1.35-4.95,4.95-1.35,1.35,4.95-4.95,1.35ZM48.19,515.16l4.95-1.35,1.35,4.95-4.95,1.35-1.35-4.95ZM51.3,526.6l-1.35-4.95,4.95-1.35,1.35,4.95-4.95,1.35ZM62.74,523.49l-4.95,1.35-1.35-4.95,4.95-1.35,1.35,4.95ZM60.97,517l-4.95,1.35-1.35-4.95,4.95-1.35,1.35,4.95ZM60.75,510.09l-1.35-4.95,4.41-1.2,1.35,4.95-4.41,1.2ZM63.39,502.4l-4.41,1.2-1.2-4.41,4.41-1.2,1.2,4.41ZM61.77,496.45l-4.41,1.2-1.49-5.49,4.41-1.2,1.49,5.49Z"/>
    <path class="cls-14" d="M67.14,482.13c-.19-.51-.38-1.01-.59-1.49-.7-1.65-1.53-3.2-2.45-4.65l-.94-1.4c-1.13-1.59-2.38-3.03-3.71-4.3-.46-.44-.94-.87-1.42-1.27-.84-.7-1.7-1.34-2.58-1.92-.65-.42-1.31-.81-1.97-1.16-.18-.09-.35-.18-.53-.27-.77-.39-1.56-.73-2.36-1.02-.79-.3-1.6-.53-2.4-.71-.58-.13-1.16-.24-1.74-.31-1.8-.24-3.57-.19-5.27.17-.26.05-.52.12-.77.19s-.51.15-.77.23c-1.65.55-3.21,1.41-4.63,2.52-.46.36-.91.75-1.34,1.17-.58.55-1.12,1.14-1.65,1.78-.53.64-1.02,1.33-1.48,2.06-.27.42-.53.86-.78,1.31-.38.7-.74,1.42-1.07,2.17-.28.64-.54,1.3-.78,1.98-.21.59-.4,1.19-.57,1.81-.49,1.77-.83,3.64-1,5.59-.05.55-.08,1.12-.11,1.68-.06,1.71,0,3.47.21,5.26.06.53.14,1.06.22,1.59.27,1.65.67,3.31,1.2,4.99.16.5.33,1.01.52,1.51.06.18.13.35.2.53.48,1.25,1.33,2.84,2.46,4.64.28.46.58.93.9,1.41.82,1.26,1.75,2.6,2.75,3.99l1,1.38c1.06,1.43,2.18,2.92,3.33,4.41.35.45.71.91,1.06,1.37.02.02.03.04.05.07.83,1.06,1.68,2.13,2.52,3.18.3.38.6.75.9,1.12.37.46.74.91,1.1,1.36,1.23,1.5,2.43,2.96,3.58,4.34.39.46.76.91,1.13,1.35.41.49.82.97,1.21,1.44l2.44,2.87c2.58,3.01,4.28,4.93,4.28,4.93l5.82-1.58s.52-2.66,1.26-6.77l.65-3.69c.08-.5.17-1,.25-1.52.1-.57.2-1.15.29-1.74.3-1.77.6-3.64.89-5.56l.27-1.73c.02-.12.04-.25.05-.38.2-1.31.39-2.64.58-3.97.06-.39.11-.79.16-1.18l.23-1.72c.25-1.87.47-3.72.66-5.49l.17-1.7c.16-1.71.29-3.33.38-4.84.03-.58.06-1.14.07-1.68.07-2.11.03-3.91-.16-5.27-.03-.19-.06-.38-.09-.56-.08-.54-.17-1.06-.27-1.58-.35-1.72-.83-3.36-1.4-4.93ZM64.59,489.79c.13.61.24,1.24.33,1.87.14,1,.19,2.33.16,3.89,0,.53-.02,1.09-.05,1.67-.06,1.29-.14,2.7-.26,4.18-.01.21-.03.42-.05.63-.05.56-.1,1.12-.14,1.69-.07.74-.14,1.48-.22,2.24-.11,1.06-.22,2.15-.35,3.23-.07.57-.13,1.14-.2,1.71-.23,1.87-.46,3.73-.7,5.5-.07.54-.14,1.07-.22,1.6,0,.04,0,.08-.01.12-.19,1.37-.37,2.68-.55,3.89-.08.57-.16,1.12-.24,1.64-.09.61-.18,1.19-.26,1.73-.42,2.76-.7,4.51-.7,4.51l-4.81,1.31s-1.16-1.35-2.96-3.51c-.35-.42-.73-.87-1.13-1.35-.48-.58-.99-1.2-1.52-1.85-.65-.79-1.33-1.63-2.04-2.5-.14-.18-.29-.36-.44-.55-.21-.27-.43-.54-.65-.81-1.13-1.41-2.3-2.88-3.46-4.37-.36-.46-.71-.91-1.06-1.37-1.03-1.34-2.04-2.68-3.01-3.99-.1-.14-.21-.29-.31-.43-.34-.46-.68-.93-1-1.38-.47-.66-.92-1.31-1.36-1.94-.49-.71-.95-1.4-1.38-2.05-.32-.49-.62-.96-.89-1.41-.82-1.35-1.44-2.52-1.8-3.45-.23-.59-.43-1.18-.61-1.79-.16-.51-.31-1.02-.44-1.54-.42-1.68-.7-3.39-.84-5.09-.04-.55-.08-1.09-.09-1.63-.05-1.57,0-3.13.18-4.64.02-.25.06-.5.09-.74.08-.58.17-1.16.28-1.73.08-.43.17-.85.27-1.27.37-1.6.87-3.12,1.48-4.52.28-.66.6-1.3.94-1.91.25-.46.51-.89.79-1.31.38-.57.79-1.11,1.22-1.61,1.29-1.5,2.78-2.63,4.43-3.25.26-.1.53-.18.81-.26.24-.07.49-.12.73-.16,1.73-.31,3.57-.12,5.45.49.62.2,1.24.45,1.86.74.51.24,1.02.51,1.53.8.61.35,1.21.74,1.79,1.17.86.63,1.71,1.32,2.52,2.09.67.63,1.32,1.3,1.95,2.01.13.14.25.29.37.43.25.3.5.61.74.92,1.09,1.39,2.09,2.91,2.95,4.51.25.48.5.96.73,1.46.73,1.54,1.34,3.16,1.78,4.83.14.51.26,1.03.38,1.55h0Z"/>
    <path class="cls-1" d="M54.41,537.25l10.58-2.88.77,2.82-10.58,2.88-.77-2.82Z"/>
    <path class="cls-16" d="M56.4,539.74l8.12-2.21,7.23,26.6-8.12,2.21-7.23-26.6Z"/>
    <path class="cls-14" d="M943.82,369.64c-.08-.54-.17-1.06-.27-1.58l-7.14,1.94-1.35-4.95,7.09-1.93c-.19-.51-.38-1.01-.59-1.49l-6.91,1.88-1.35-4.95,5.81-1.58-.94-1.4-5.29,1.44-1.35-4.95,2.92-.79c-.46-.44-.94-.87-1.42-1.27l-1.92.52-.66-2.44c-.65-.42-1.31-.81-1.97-1.16l1.09,4.02-2.43.66c-1.09.3-2.22-.35-2.52-1.44l-.66-2.43,3.99-1.08c-.77-.39-1.56-.73-2.36-1.02l-2.05.56-.35-1.27c-.58-.13-1.16-.24-1.74-.31l.54,2-4.95,1.35-.86-3.17c-.26.05-.52.12-.77.19s-.51.15-.77.23l.86,3.17-4.95,1.35-.54-2c-.46.36-.91.75-1.34,1.17l.34,1.24-1.98.54c-.53.64-1.02,1.33-1.48,2.06l3.89-1.06.68,2.49c.29,1.06-.34,2.15-1.39,2.43l-3.04.83-.92-3.39c-.38.7-.74,1.42-1.07,2.17l.45,1.64-1.22.33c-.21.59-.4,1.19-.57,1.81l2.21-.6,1.35,4.95-4.55,1.24c-.05.55-.08,1.12-.11,1.68l5.08-1.38,1.35,4.95-6.21,1.69c.06.53.14,1.06.22,1.59l6.4-1.74,1.35,4.95-6.54,1.78c.16.5.33,1.01.52,1.51l6.44-1.75,1.49,5.49-5.27,1.43c.28.46.58.93.9,1.41l4.03-.63,1.96,3.74-3.25.88,1,1.38,2.66-.72,1.35,4.95-.68.18c.35.45.71.91,1.06,1.37h.03s.02.07.02.07c.83,1.06,1.68,2.13,2.52,3.18l-1-3.68,4.95-1.35,1.35,4.95-4.39,1.19c.37.46.74.91,1.1,1.36l3.71-1.01,1.35,4.95-1.48.4c.39.46.76.91,1.13,1.35l.76-.21.45,1.64,2.44,2.87-1.34-4.93,4.95-1.35,2.55,9.37,1.54-.42-2.55-9.37,4.95-1.35,1.26,4.62.65-3.69-.37-1.35.62-.17c.1-.57.2-1.15.29-1.74l-1.34.36-1.35-4.95,3.58-.97.27-1.73-4.26,1.16-1.35-4.95,4.41-1.2,1.25,4.61c.2-1.31.39-2.64.58-3.97l-.29-1.06.45-.12.23-1.72-1.1.3-1.35-4.95,3.1-.84.17-1.7-3.69,1c-.66-2.43.78-4.94,3.21-5.61l.85-.23c.03-.58.06-1.14.07-1.68l-5.75,1.56-1.49-5.49,7-1.9h0ZM934.86,370.42l-4.41,1.2-1.35-4.95,4.41-1.2,1.35,4.95ZM934.21,391.51l-4.95,1.35-1.35-4.95,4.95-1.35,1.35,4.95ZM919.81,383.72l4.95-1.35,1.2,4.41-4.95,1.35-1.2-4.41ZM920.44,360.4l-1.35-4.95,4.95-1.35,1.35,4.95-4.95,1.35ZM925.8,360.6l1.35,4.95-4.95,1.35-1.35-4.95,4.95-1.35ZM918.89,360.82l-4.95,1.35-1.35-4.95,4.95-1.35,1.35,4.95ZM919.31,362.36l1.35,4.95-4.95,1.35-1.35-4.95,4.95-1.35ZM921.08,368.86l1.35,4.95-4.95,1.35-1.35-4.95,4.95-1.35ZM922.84,375.35l1.49,5.49-4.95,1.35-1.49-5.49,4.95-1.35ZM926.37,388.33l1.35,4.95-4.95,1.35-1.35-4.95,4.95-1.35ZM927.49,386.37l-1.2-4.41,4.95-1.35,1.2,4.41-4.95,1.35ZM925.88,380.42l-1.49-5.49,4.95-1.35,1.49,5.49-4.95,1.35ZM923.97,373.38l-1.35-4.95,4.95-1.35,1.35,4.95-4.95,1.35ZM933.1,363.93l-4.41,1.2-1.35-4.95,4.41-1.2,1.35,4.95ZM929.99,352.49l1.35,4.95-4.41,1.2-1.35-4.95,4.41-1.2ZM922.42,348.16l1.2,4.41-4.95,1.35-1.2-4.41,4.95-1.35ZM910.98,351.27l4.95-1.35,1.2,4.41-4.95,1.35-1.2-4.41ZM906.11,358.98l4.95-1.35,1.35,4.95-4.95,1.35-1.35-4.95ZM907.87,365.47l4.95-1.35,1.35,4.95-4.95,1.35-1.35-4.95ZM909.64,371.96l4.95-1.35,1.35,4.95-4.95,1.35-1.35-4.95ZM911.4,378.46l4.95-1.35,1.49,5.49-4.95,1.35-1.49-5.49ZM918.26,384.14l1.2,4.41-4.95,1.35-1.2-4.41,4.95-1.35ZM916.28,396.38l-1.35-4.95,4.95-1.35,1.35,4.95-4.95,1.35ZM923.19,396.16l4.95-1.35,1.35,4.95-4.95,1.35-1.35-4.95ZM926.3,407.6l-1.35-4.95,4.95-1.35,1.35,4.95-4.95,1.35ZM937.74,404.49l-4.95,1.35-1.35-4.95,4.95-1.35,1.35,4.95ZM935.97,398l-4.95,1.35-1.35-4.95,4.95-1.35,1.35,4.95ZM935.75,391.09l-1.35-4.95,4.41-1.2,1.35,4.95-4.41,1.2ZM938.39,383.4l-4.41,1.2-1.2-4.41,4.41-1.2,1.2,4.41ZM936.77,377.45l-4.41,1.2-1.49-5.49,4.41-1.2,1.49,5.49Z"/>
    <path class="cls-14" d="M942.14,363.13c-.19-.51-.38-1.01-.59-1.49-.7-1.65-1.53-3.2-2.45-4.65l-.94-1.4c-1.13-1.59-2.38-3.03-3.71-4.3-.46-.44-.94-.87-1.42-1.27-.84-.7-1.7-1.34-2.58-1.92-.65-.42-1.31-.81-1.97-1.16-.18-.09-.35-.18-.53-.27-.77-.39-1.56-.73-2.36-1.02-.79-.3-1.6-.53-2.4-.71-.58-.13-1.16-.24-1.74-.31-1.8-.24-3.57-.19-5.27.17-.26.05-.52.12-.77.19s-.51.15-.77.23c-1.65.55-3.21,1.41-4.63,2.52-.46.36-.91.75-1.34,1.17-.58.55-1.12,1.14-1.65,1.78-.53.64-1.02,1.33-1.48,2.06-.27.42-.53.86-.78,1.31-.38.7-.74,1.42-1.07,2.17-.28.64-.54,1.3-.78,1.98-.21.59-.4,1.19-.57,1.81-.49,1.77-.83,3.64-1,5.59-.05.55-.08,1.12-.11,1.68-.06,1.71,0,3.47.21,5.26.06.53.14,1.06.22,1.59.27,1.65.67,3.31,1.2,4.99.16.5.33,1.01.52,1.51.06.18.13.35.2.53.48,1.25,1.33,2.84,2.46,4.64.28.46.58.93.9,1.41.82,1.26,1.75,2.6,2.75,3.99l1,1.38c1.06,1.43,2.18,2.92,3.33,4.41.35.45.71.91,1.06,1.37.02.02.03.04.05.07.83,1.06,1.68,2.13,2.52,3.18.3.38.6.75.9,1.12.37.46.74.91,1.1,1.36,1.23,1.5,2.43,2.96,3.58,4.34.39.46.76.91,1.13,1.35.41.49.82.97,1.21,1.44l2.44,2.87c2.58,3.01,4.28,4.93,4.28,4.93l5.82-1.58s.52-2.66,1.26-6.77l.65-3.69c.08-.5.17-1,.25-1.52.1-.57.2-1.15.29-1.74.3-1.77.6-3.64.89-5.56l.27-1.73c.02-.12.04-.25.05-.38.2-1.31.39-2.64.58-3.97.06-.39.11-.79.16-1.18l.23-1.72c.25-1.87.47-3.72.66-5.49l.17-1.7c.16-1.71.29-3.33.38-4.84.03-.58.06-1.14.07-1.68.07-2.11.03-3.91-.16-5.27-.03-.19-.06-.38-.09-.56-.08-.54-.17-1.06-.27-1.58-.35-1.72-.83-3.36-1.4-4.93ZM939.59,370.79c.13.61.24,1.24.33,1.87.14,1,.19,2.33.16,3.89,0,.53-.02,1.09-.05,1.67-.06,1.29-.14,2.7-.26,4.18-.01.21-.03.42-.05.63-.05.56-.1,1.12-.14,1.69-.07.74-.14,1.48-.22,2.24-.11,1.06-.22,2.15-.35,3.23-.07.57-.13,1.14-.2,1.71-.23,1.87-.46,3.73-.7,5.5-.07.54-.14,1.07-.22,1.6,0,.04,0,.08-.01.12-.19,1.37-.37,2.68-.55,3.89-.08.57-.16,1.12-.24,1.64-.09.61-.18,1.19-.26,1.73-.42,2.76-.7,4.51-.7,4.51l-4.81,1.31s-1.16-1.35-2.96-3.51c-.35-.42-.73-.87-1.13-1.35-.48-.58-.99-1.2-1.52-1.85-.65-.79-1.33-1.63-2.04-2.5-.14-.18-.29-.36-.44-.55-.21-.27-.43-.54-.65-.81-1.13-1.41-2.3-2.88-3.46-4.37-.36-.46-.71-.91-1.06-1.37-1.03-1.34-2.04-2.68-3.01-3.99-.1-.14-.21-.29-.31-.43-.34-.46-.68-.93-1-1.38-.47-.66-.92-1.31-1.36-1.94-.49-.71-.95-1.4-1.38-2.05-.32-.49-.62-.96-.89-1.41-.82-1.35-1.44-2.52-1.8-3.45-.23-.59-.43-1.18-.61-1.79-.16-.51-.31-1.02-.44-1.54-.42-1.68-.7-3.39-.84-5.09-.04-.55-.08-1.09-.09-1.63-.05-1.57,0-3.13.18-4.64.02-.25.06-.5.09-.74.08-.58.17-1.16.28-1.73.08-.43.17-.85.27-1.27.37-1.6.87-3.12,1.48-4.52.28-.66.6-1.3.94-1.91.25-.46.51-.89.79-1.31.38-.57.79-1.11,1.22-1.61,1.29-1.5,2.78-2.63,4.43-3.25.26-.1.53-.18.81-.26.24-.07.49-.12.73-.16,1.73-.31,3.57-.12,5.45.49.62.2,1.24.45,1.86.74.51.24,1.02.51,1.53.8.61.35,1.21.74,1.79,1.17.86.63,1.71,1.32,2.52,2.09.67.63,1.32,1.3,1.95,2.01.13.14.25.29.37.43.25.3.5.61.74.92,1.09,1.39,2.09,2.91,2.95,4.51.25.48.5.96.73,1.46.73,1.54,1.34,3.16,1.78,4.83.14.51.26,1.03.38,1.55h0Z"/>
    <path class="cls-1" d="M929.41,418.25l10.58-2.88.77,2.82-10.58,2.88-.77-2.82Z"/>
    <path class="cls-16" d="M931.4,420.74l8.12-2.21,7.23,26.6-8.12,2.21-7.23-26.6Z"/>
    <path class="cls-14" d="M1298.82,491.64c-.08-.54-.17-1.06-.27-1.58l-7.14,1.94-1.35-4.95,7.09-1.93c-.19-.51-.38-1.01-.59-1.49l-6.91,1.88-1.35-4.95,5.81-1.58-.94-1.4-5.29,1.44-1.35-4.95,2.92-.79c-.46-.44-.94-.87-1.42-1.27l-1.92.52-.66-2.44c-.65-.42-1.31-.81-1.97-1.16l1.09,4.02-2.43.66c-1.09.3-2.22-.35-2.52-1.44l-.66-2.43,3.99-1.08c-.77-.39-1.56-.73-2.36-1.02l-2.05.56-.35-1.27c-.58-.13-1.16-.24-1.74-.31l.54,2-4.95,1.35-.86-3.17c-.26.05-.52.12-.77.19s-.51.15-.77.23l.86,3.17-4.95,1.35-.54-2c-.46.36-.91.75-1.34,1.17l.34,1.24-1.98.54c-.53.64-1.02,1.33-1.48,2.06l3.89-1.06.68,2.49c.29,1.06-.34,2.15-1.39,2.43l-3.04.83-.92-3.39c-.38.7-.74,1.42-1.07,2.17l.45,1.64-1.22.33c-.21.59-.4,1.19-.57,1.81l2.21-.6,1.35,4.95-4.55,1.24c-.05.55-.08,1.12-.11,1.68l5.08-1.38,1.35,4.95-6.21,1.69c.06.53.14,1.06.22,1.59l6.4-1.74,1.35,4.95-6.54,1.78c.16.5.33,1.01.52,1.51l6.44-1.75,1.49,5.49-5.27,1.43c.28.46.58.93.9,1.41l4.03-.63,1.96,3.74-3.25.88,1,1.38,2.66-.72,1.35,4.95-.68.18c.35.45.71.91,1.06,1.37h.03s.02.07.02.07c.83,1.06,1.68,2.13,2.52,3.18l-1-3.68,4.95-1.35,1.35,4.95-4.39,1.19c.37.46.74.91,1.1,1.36l3.71-1.01,1.35,4.95-1.48.4c.39.46.76.91,1.13,1.35l.76-.21.45,1.64,2.44,2.87-1.34-4.93,4.95-1.35,2.55,9.37,1.54-.42-2.55-9.37,4.95-1.35,1.26,4.62.65-3.69-.37-1.35.62-.17c.1-.57.2-1.15.29-1.74l-1.34.36-1.35-4.95,3.58-.97.27-1.73-4.26,1.16-1.35-4.95,4.41-1.2,1.25,4.61c.2-1.31.39-2.64.58-3.97l-.29-1.06.45-.12.23-1.72-1.1.3-1.35-4.95,3.1-.84.17-1.7-3.69,1c-.66-2.43.78-4.94,3.21-5.61l.85-.23c.03-.58.06-1.14.07-1.68l-5.75,1.56-1.49-5.49,7-1.9h0ZM1289.86,492.42l-4.41,1.2-1.35-4.95,4.41-1.2,1.35,4.95ZM1289.21,513.51l-4.95,1.35-1.35-4.95,4.95-1.35,1.35,4.95ZM1274.81,505.72l4.95-1.35,1.2,4.41-4.95,1.35-1.2-4.41ZM1275.44,482.4l-1.35-4.95,4.95-1.35,1.35,4.95-4.95,1.35ZM1280.8,482.6l1.35,4.95-4.95,1.35-1.35-4.95,4.95-1.35ZM1273.89,482.82l-4.95,1.35-1.35-4.95,4.95-1.35,1.35,4.95ZM1274.31,484.36l1.35,4.95-4.95,1.35-1.35-4.95,4.95-1.35ZM1276.08,490.86l1.35,4.95-4.95,1.35-1.35-4.95,4.95-1.35ZM1277.84,497.35l1.49,5.49-4.95,1.35-1.49-5.49,4.95-1.35ZM1281.37,510.33l1.35,4.95-4.95,1.35-1.35-4.95,4.95-1.35ZM1282.49,508.37l-1.2-4.41,4.95-1.35,1.2,4.41-4.95,1.35ZM1280.88,502.42l-1.49-5.49,4.95-1.35,1.49,5.49-4.95,1.35ZM1278.97,495.38l-1.35-4.95,4.95-1.35,1.35,4.95-4.95,1.35ZM1288.1,485.93l-4.41,1.2-1.35-4.95,4.41-1.2,1.35,4.95ZM1284.99,474.49l1.35,4.95-4.41,1.2-1.35-4.95,4.41-1.2ZM1277.42,470.16l1.2,4.41-4.95,1.35-1.2-4.41,4.95-1.35ZM1265.98,473.27l4.95-1.35,1.2,4.41-4.95,1.35-1.2-4.41ZM1261.11,480.98l4.95-1.35,1.35,4.95-4.95,1.35-1.35-4.95ZM1262.87,487.47l4.95-1.35,1.35,4.95-4.95,1.35-1.35-4.95ZM1264.64,493.96l4.95-1.35,1.35,4.95-4.95,1.35-1.35-4.95ZM1266.4,500.46l4.95-1.35,1.49,5.49-4.95,1.35-1.49-5.49ZM1273.26,506.14l1.2,4.41-4.95,1.35-1.2-4.41,4.95-1.35ZM1271.28,518.38l-1.35-4.95,4.95-1.35,1.35,4.95-4.95,1.35ZM1278.19,518.16l4.95-1.35,1.35,4.95-4.95,1.35-1.35-4.95ZM1281.3,529.6l-1.35-4.95,4.95-1.35,1.35,4.95-4.95,1.35ZM1292.74,526.49l-4.95,1.35-1.35-4.95,4.95-1.35,1.35,4.95ZM1290.97,520l-4.95,1.35-1.35-4.95,4.95-1.35,1.35,4.95ZM1290.75,513.09l-1.35-4.95,4.41-1.2,1.35,4.95-4.41,1.2ZM1293.39,505.4l-4.41,1.2-1.2-4.41,4.41-1.2,1.2,4.41ZM1291.77,499.45l-4.41,1.2-1.49-5.49,4.41-1.2,1.49,5.49Z"/>
    <path class="cls-14" d="M1297.14,485.13c-.19-.51-.38-1.01-.59-1.49-.7-1.65-1.53-3.2-2.45-4.65l-.94-1.4c-1.13-1.59-2.38-3.03-3.71-4.3-.46-.44-.94-.87-1.42-1.27-.84-.7-1.7-1.34-2.58-1.92-.65-.42-1.31-.81-1.97-1.16-.18-.09-.35-.18-.53-.27-.77-.39-1.56-.73-2.36-1.02-.79-.3-1.6-.53-2.4-.71-.58-.13-1.16-.24-1.74-.31-1.8-.24-3.57-.19-5.27.17-.26.05-.52.12-.77.19s-.51.15-.77.23c-1.65.55-3.21,1.41-4.63,2.52-.46.36-.91.75-1.34,1.17-.58.55-1.12,1.14-1.65,1.78-.53.64-1.02,1.33-1.48,2.06-.27.42-.53.86-.78,1.31-.38.7-.74,1.42-1.07,2.17-.28.64-.54,1.3-.78,1.98-.21.59-.4,1.19-.57,1.81-.49,1.77-.83,3.64-1,5.59-.05.55-.08,1.12-.11,1.68-.06,1.71,0,3.47.21,5.26.06.53.14,1.06.22,1.59.27,1.65.67,3.31,1.2,4.99.16.5.33,1.01.52,1.51.06.18.13.35.2.53.48,1.25,1.33,2.84,2.46,4.64.28.46.58.93.9,1.41.82,1.26,1.75,2.6,2.75,3.99l1,1.38c1.06,1.43,2.18,2.92,3.33,4.41.35.45.71.91,1.06,1.37.02.02.03.04.05.07.83,1.06,1.68,2.13,2.52,3.18.3.38.6.75.9,1.12.37.46.74.91,1.1,1.36,1.23,1.5,2.43,2.96,3.58,4.34.39.46.76.91,1.13,1.35.41.49.82.97,1.21,1.44l2.44,2.87c2.58,3.01,4.28,4.93,4.28,4.93l5.82-1.58s.52-2.66,1.26-6.77l.65-3.69c.08-.5.17-1,.25-1.52.1-.57.2-1.15.29-1.74.3-1.77.6-3.64.89-5.56l.27-1.73c.02-.12.04-.25.05-.38.2-1.31.39-2.64.58-3.97.06-.39.11-.79.16-1.18l.23-1.72c.25-1.87.47-3.72.66-5.49l.17-1.7c.16-1.71.29-3.33.38-4.84.03-.58.06-1.14.07-1.68.07-2.11.03-3.91-.16-5.27-.03-.19-.06-.38-.09-.56-.08-.54-.17-1.06-.27-1.58-.35-1.72-.83-3.36-1.4-4.93ZM1294.59,492.79c.13.61.24,1.24.33,1.87.14,1,.19,2.33.16,3.89,0,.53-.02,1.09-.05,1.67-.06,1.29-.14,2.7-.26,4.18-.01.21-.03.42-.05.63-.05.56-.1,1.12-.14,1.69-.07.74-.14,1.48-.22,2.24-.11,1.06-.22,2.15-.35,3.23-.07.57-.13,1.14-.2,1.71-.23,1.87-.46,3.73-.7,5.5-.07.54-.14,1.07-.22,1.6,0,.04,0,.08-.01.12-.19,1.37-.37,2.68-.55,3.89-.08.57-.16,1.12-.24,1.64-.09.61-.18,1.19-.26,1.73-.42,2.76-.7,4.51-.7,4.51l-4.81,1.31s-1.16-1.35-2.96-3.51c-.35-.42-.73-.87-1.13-1.35-.48-.58-.99-1.2-1.52-1.85-.65-.79-1.33-1.63-2.04-2.5-.14-.18-.29-.36-.44-.55-.21-.27-.43-.54-.65-.81-1.13-1.41-2.3-2.88-3.46-4.37-.36-.46-.71-.91-1.06-1.37-1.03-1.34-2.04-2.68-3.01-3.99-.1-.14-.21-.29-.31-.43-.34-.46-.68-.93-1-1.38-.47-.66-.92-1.31-1.36-1.94-.49-.71-.95-1.4-1.38-2.05-.32-.49-.62-.96-.89-1.41-.82-1.35-1.44-2.52-1.8-3.45-.23-.59-.43-1.18-.61-1.79-.16-.51-.31-1.02-.44-1.54-.42-1.68-.7-3.39-.84-5.09-.04-.55-.08-1.09-.09-1.63-.05-1.57,0-3.13.18-4.64.02-.25.06-.5.09-.74.08-.58.17-1.16.28-1.73.08-.43.17-.85.27-1.27.37-1.6.87-3.12,1.48-4.52.28-.66.6-1.3.94-1.91.25-.46.51-.89.79-1.31.38-.57.79-1.11,1.22-1.61,1.29-1.5,2.78-2.63,4.43-3.25.26-.1.53-.18.81-.26.24-.07.49-.12.73-.16,1.73-.31,3.57-.12,5.45.49.62.2,1.24.45,1.86.74.51.24,1.02.51,1.53.8.61.35,1.21.74,1.79,1.17.86.63,1.71,1.32,2.52,2.09.67.63,1.32,1.3,1.95,2.01.13.14.25.29.37.43.25.3.5.61.74.92,1.09,1.39,2.09,2.91,2.95,4.51.25.48.5.96.73,1.46.73,1.54,1.34,3.16,1.78,4.83.14.51.26,1.03.38,1.55h0Z"/>
    <path class="cls-1" d="M1284.41,540.25l10.58-2.88.77,2.82-10.58,2.88-.77-2.82Z"/>
    <path class="cls-16" d="M1286.4,542.74l8.12-2.21,7.23,26.6-8.12,2.21-7.23-26.6Z"/>
    <path class="cls-14" d="M878.82,585.64c-.08-.54-.17-1.06-.27-1.58l-7.14,1.94-1.35-4.95,7.09-1.93c-.19-.51-.38-1.01-.59-1.49l-6.91,1.88-1.35-4.95,5.81-1.58-.94-1.4-5.29,1.44-1.35-4.95,2.92-.79c-.46-.44-.94-.87-1.42-1.27l-1.92.52-.66-2.44c-.65-.42-1.31-.81-1.97-1.16l1.09,4.02-2.43.66c-1.09.3-2.22-.35-2.52-1.44l-.66-2.43,3.99-1.08c-.77-.39-1.56-.73-2.36-1.02l-2.05.56-.35-1.27c-.58-.13-1.16-.24-1.74-.31l.54,2-4.95,1.35-.86-3.17c-.26.05-.52.12-.77.19s-.51.15-.77.23l.86,3.17-4.95,1.35-.54-2c-.46.36-.91.75-1.34,1.17l.34,1.24-1.98.54c-.53.64-1.02,1.33-1.48,2.06l3.89-1.06.68,2.49c.29,1.06-.34,2.15-1.39,2.43l-3.04.83-.92-3.39c-.38.7-.74,1.42-1.07,2.17l.45,1.64-1.22.33c-.21.59-.4,1.19-.57,1.81l2.21-.6,1.35,4.95-4.55,1.24c-.05.55-.08,1.12-.11,1.68l5.08-1.38,1.35,4.95-6.21,1.69c.06.53.14,1.06.22,1.59l6.4-1.74,1.35,4.95-6.54,1.78c.16.5.33,1.01.52,1.51l6.44-1.75,1.49,5.49-5.27,1.43c.28.46.58.93.9,1.41l4.03-.63,1.96,3.74-3.25.88,1,1.38,2.66-.72,1.35,4.95-.68.18c.35.45.71.91,1.06,1.37h.03s.02.07.02.07c.83,1.06,1.68,2.13,2.52,3.18l-1-3.68,4.95-1.35,1.35,4.95-4.39,1.19c.37.46.74.91,1.1,1.36l3.71-1.01,1.35,4.95-1.48.4c.39.46.76.91,1.13,1.35l.76-.21.45,1.64,2.44,2.87-1.34-4.93,4.95-1.35,2.55,9.37,1.54-.42-2.55-9.37,4.95-1.35,1.26,4.62.65-3.69-.37-1.35.62-.17c.1-.57.2-1.15.29-1.74l-1.34.36-1.35-4.95,3.58-.97.27-1.73-4.26,1.16-1.35-4.95,4.41-1.2,1.25,4.61c.2-1.31.39-2.64.58-3.97l-.29-1.06.45-.12.23-1.72-1.1.3-1.35-4.95,3.1-.84.17-1.7-3.69,1c-.66-2.43.78-4.94,3.21-5.61l.85-.23c.03-.58.06-1.14.07-1.68l-5.75,1.56-1.49-5.49,7-1.9h0ZM869.86,586.42l-4.41,1.2-1.35-4.95,4.41-1.2,1.35,4.95ZM869.21,607.51l-4.95,1.35-1.35-4.95,4.95-1.35,1.35,4.95ZM854.81,599.72l4.95-1.35,1.2,4.41-4.95,1.35-1.2-4.41ZM855.44,576.4l-1.35-4.95,4.95-1.35,1.35,4.95-4.95,1.35ZM860.8,576.6l1.35,4.95-4.95,1.35-1.35-4.95,4.95-1.35ZM853.89,576.82l-4.95,1.35-1.35-4.95,4.95-1.35,1.35,4.95ZM854.31,578.36l1.35,4.95-4.95,1.35-1.35-4.95,4.95-1.35ZM856.08,584.86l1.35,4.95-4.95,1.35-1.35-4.95,4.95-1.35ZM857.84,591.35l1.49,5.49-4.95,1.35-1.49-5.49,4.95-1.35ZM861.37,604.33l1.35,4.95-4.95,1.35-1.35-4.95,4.95-1.35ZM862.49,602.37l-1.2-4.41,4.95-1.35,1.2,4.41-4.95,1.35ZM860.88,596.42l-1.49-5.49,4.95-1.35,1.49,5.49-4.95,1.35ZM858.97,589.38l-1.35-4.95,4.95-1.35,1.35,4.95-4.95,1.35ZM868.1,579.93l-4.41,1.2-1.35-4.95,4.41-1.2,1.35,4.95ZM864.99,568.49l1.35,4.95-4.41,1.2-1.35-4.95,4.41-1.2ZM857.42,564.16l1.2,4.41-4.95,1.35-1.2-4.41,4.95-1.35ZM845.98,567.27l4.95-1.35,1.2,4.41-4.95,1.35-1.2-4.41ZM841.11,574.98l4.95-1.35,1.35,4.95-4.95,1.35-1.35-4.95ZM842.87,581.47l4.95-1.35,1.35,4.95-4.95,1.35-1.35-4.95ZM844.64,587.96l4.95-1.35,1.35,4.95-4.95,1.35-1.35-4.95ZM846.4,594.46l4.95-1.35,1.49,5.49-4.95,1.35-1.49-5.49ZM853.26,600.14l1.2,4.41-4.95,1.35-1.2-4.41,4.95-1.35ZM851.28,612.38l-1.35-4.95,4.95-1.35,1.35,4.95-4.95,1.35ZM858.19,612.16l4.95-1.35,1.35,4.95-4.95,1.35-1.35-4.95ZM861.3,623.6l-1.35-4.95,4.95-1.35,1.35,4.95-4.95,1.35ZM872.74,620.49l-4.95,1.35-1.35-4.95,4.95-1.35,1.35,4.95ZM870.97,614l-4.95,1.35-1.35-4.95,4.95-1.35,1.35,4.95ZM870.75,607.09l-1.35-4.95,4.41-1.2,1.35,4.95-4.41,1.2ZM873.39,599.4l-4.41,1.2-1.2-4.41,4.41-1.2,1.2,4.41ZM871.77,593.45l-4.41,1.2-1.49-5.49,4.41-1.2,1.49,5.49Z"/>
    <path class="cls-14" d="M877.14,579.13c-.19-.51-.38-1.01-.59-1.49-.7-1.65-1.53-3.2-2.45-4.65l-.94-1.4c-1.13-1.59-2.38-3.03-3.71-4.3-.46-.44-.94-.87-1.42-1.27-.84-.7-1.7-1.34-2.58-1.92-.65-.42-1.31-.81-1.97-1.16-.18-.09-.35-.18-.53-.27-.77-.39-1.56-.73-2.36-1.02-.79-.3-1.6-.53-2.4-.71-.58-.13-1.16-.24-1.74-.31-1.8-.24-3.57-.19-5.27.17-.26.05-.52.12-.77.19s-.51.15-.77.23c-1.65.55-3.21,1.41-4.63,2.52-.46.36-.91.75-1.34,1.17-.58.55-1.12,1.14-1.65,1.78-.53.64-1.02,1.33-1.48,2.06-.27.42-.53.86-.78,1.31-.38.7-.74,1.42-1.07,2.17-.28.64-.54,1.3-.78,1.98-.21.59-.4,1.19-.57,1.81-.49,1.77-.83,3.64-1,5.59-.05.55-.08,1.12-.11,1.68-.06,1.71,0,3.47.21,5.26.06.53.14,1.06.22,1.59.27,1.65.67,3.31,1.2,4.99.16.5.33,1.01.52,1.51.06.18.13.35.2.53.48,1.25,1.33,2.84,2.46,4.64.28.46.58.93.9,1.41.82,1.26,1.75,2.6,2.75,3.99l1,1.38c1.06,1.43,2.18,2.92,3.33,4.41.35.45.71.91,1.06,1.37.02.02.03.04.05.07.83,1.06,1.68,2.13,2.52,3.18.3.38.6.75.9,1.12.37.46.74.91,1.1,1.36,1.23,1.5,2.43,2.96,3.58,4.34.39.46.76.91,1.13,1.35.41.49.82.97,1.21,1.44l2.44,2.87c2.58,3.01,4.28,4.93,4.28,4.93l5.82-1.58s.52-2.66,1.26-6.77l.65-3.69c.08-.5.17-1,.25-1.52.1-.57.2-1.15.29-1.74.3-1.77.6-3.64.89-5.56l.27-1.73c.02-.12.04-.25.05-.38.2-1.31.39-2.64.58-3.97.06-.39.11-.79.16-1.18l.23-1.72c.25-1.87.47-3.72.66-5.49l.17-1.7c.16-1.71.29-3.33.38-4.84.03-.58.06-1.14.07-1.68.07-2.11.03-3.91-.16-5.27-.03-.19-.06-.38-.09-.56-.08-.54-.17-1.06-.27-1.58-.35-1.72-.83-3.36-1.4-4.93ZM874.59,586.79c.13.61.24,1.24.33,1.87.14,1,.19,2.33.16,3.89,0,.53-.02,1.09-.05,1.67-.06,1.29-.14,2.7-.26,4.18-.01.21-.03.42-.05.63-.05.56-.1,1.12-.14,1.69-.07.74-.14,1.48-.22,2.24-.11,1.06-.22,2.15-.35,3.23-.07.57-.13,1.14-.2,1.71-.23,1.87-.46,3.73-.7,5.5-.07.54-.14,1.07-.22,1.6,0,.04,0,.08-.01.12-.19,1.37-.37,2.68-.55,3.89-.08.57-.16,1.12-.24,1.64-.09.61-.18,1.19-.26,1.73-.42,2.76-.7,4.51-.7,4.51l-4.81,1.31s-1.16-1.35-2.96-3.51c-.35-.42-.73-.87-1.13-1.35-.48-.58-.99-1.2-1.52-1.85-.65-.79-1.33-1.63-2.04-2.5-.14-.18-.29-.36-.44-.55-.21-.27-.43-.54-.65-.81-1.13-1.41-2.3-2.88-3.46-4.37-.36-.46-.71-.91-1.06-1.37-1.03-1.34-2.04-2.68-3.01-3.99-.1-.14-.21-.29-.31-.43-.34-.46-.68-.93-1-1.38-.47-.66-.92-1.31-1.36-1.94-.49-.71-.95-1.4-1.38-2.05-.32-.49-.62-.96-.89-1.41-.82-1.35-1.44-2.52-1.8-3.45-.23-.59-.43-1.18-.61-1.79-.16-.51-.31-1.02-.44-1.54-.42-1.68-.7-3.39-.84-5.09-.04-.55-.08-1.09-.09-1.63-.05-1.57,0-3.13.18-4.64.02-.25.06-.5.09-.74.08-.58.17-1.16.28-1.73.08-.43.17-.85.27-1.27.37-1.6.87-3.12,1.48-4.52.28-.66.6-1.3.94-1.91.25-.46.51-.89.79-1.31.38-.57.79-1.11,1.22-1.61,1.29-1.5,2.78-2.63,4.43-3.25.26-.1.53-.18.81-.26.24-.07.49-.12.73-.16,1.73-.31,3.57-.12,5.45.49.62.2,1.24.45,1.86.74.51.24,1.02.51,1.53.8.61.35,1.21.74,1.79,1.17.86.63,1.71,1.32,2.52,2.09.67.63,1.32,1.3,1.95,2.01.13.14.25.29.37.43.25.3.5.61.74.92,1.09,1.39,2.09,2.91,2.95,4.51.25.48.5.96.73,1.46.73,1.54,1.34,3.16,1.78,4.83.14.51.26,1.03.38,1.55h0Z"/>
    <path class="cls-1" d="M864.41,634.25l10.58-2.88.77,2.82-10.58,2.88-.77-2.82Z"/>
    <path class="cls-16" d="M866.4,636.74l8.12-2.21,7.23,26.6-8.12,2.21-7.23-26.6Z"/>
    <path class="cls-14" d="M702.82,511.64c-.08-.54-.17-1.06-.27-1.58l-7.14,1.94-1.35-4.95,7.09-1.93c-.19-.51-.38-1.01-.59-1.49l-6.91,1.88-1.35-4.95,5.81-1.58-.94-1.4-5.29,1.44-1.35-4.95,2.92-.79c-.46-.44-.94-.87-1.42-1.27l-1.92.52-.66-2.44c-.65-.42-1.31-.81-1.97-1.16l1.09,4.02-2.43.66c-1.09.3-2.22-.35-2.52-1.44l-.66-2.43,3.99-1.08c-.77-.39-1.56-.73-2.36-1.02l-2.05.56-.35-1.27c-.58-.13-1.16-.24-1.74-.31l.54,2-4.95,1.35-.86-3.17c-.26.05-.52.12-.77.19s-.51.15-.77.23l.86,3.17-4.95,1.35-.54-2c-.46.36-.91.75-1.34,1.17l.34,1.24-1.98.54c-.53.64-1.02,1.33-1.48,2.06l3.89-1.06.68,2.49c.29,1.06-.34,2.15-1.39,2.43l-3.04.83-.92-3.39c-.38.7-.74,1.42-1.07,2.17l.45,1.64-1.22.33c-.21.59-.4,1.19-.57,1.81l2.21-.6,1.35,4.95-4.55,1.24c-.05.55-.08,1.12-.11,1.68l5.08-1.38,1.35,4.95-6.21,1.69c.06.53.14,1.06.22,1.59l6.4-1.74,1.35,4.95-6.54,1.78c.16.5.33,1.01.52,1.51l6.44-1.75,1.49,5.49-5.27,1.43c.28.46.58.93.9,1.41l4.03-.63,1.96,3.74-3.25.88,1,1.38,2.66-.72,1.35,4.95-.68.18c.35.45.71.91,1.06,1.37h.03s.02.07.02.07c.83,1.06,1.68,2.13,2.52,3.18l-1-3.68,4.95-1.35,1.35,4.95-4.39,1.19c.37.46.74.91,1.1,1.36l3.71-1.01,1.35,4.95-1.48.4c.39.46.76.91,1.13,1.35l.76-.21.45,1.64,2.44,2.87-1.34-4.93,4.95-1.35,2.55,9.37,1.54-.42-2.55-9.37,4.95-1.35,1.26,4.62.65-3.69-.37-1.35.62-.17c.1-.57.2-1.15.29-1.74l-1.34.36-1.35-4.95,3.58-.97.27-1.73-4.26,1.16-1.35-4.95,4.41-1.2,1.25,4.61c.2-1.31.39-2.64.58-3.97l-.29-1.06.45-.12.23-1.72-1.1.3-1.35-4.95,3.1-.84.17-1.7-3.69,1c-.66-2.43.78-4.94,3.21-5.61l.85-.23c.03-.58.06-1.14.07-1.68l-5.75,1.56-1.49-5.49,7-1.9h0ZM693.86,512.42l-4.41,1.2-1.35-4.95,4.41-1.2,1.35,4.95ZM693.21,533.51l-4.95,1.35-1.35-4.95,4.95-1.35,1.35,4.95ZM678.81,525.72l4.95-1.35,1.2,4.41-4.95,1.35-1.2-4.41ZM679.44,502.4l-1.35-4.95,4.95-1.35,1.35,4.95-4.95,1.35ZM684.8,502.6l1.35,4.95-4.95,1.35-1.35-4.95,4.95-1.35ZM677.89,502.82l-4.95,1.35-1.35-4.95,4.95-1.35,1.35,4.95ZM678.31,504.36l1.35,4.95-4.95,1.35-1.35-4.95,4.95-1.35ZM680.08,510.86l1.35,4.95-4.95,1.35-1.35-4.95,4.95-1.35ZM681.84,517.35l1.49,5.49-4.95,1.35-1.49-5.49,4.95-1.35ZM685.37,530.33l1.35,4.95-4.95,1.35-1.35-4.95,4.95-1.35ZM686.49,528.37l-1.2-4.41,4.95-1.35,1.2,4.41-4.95,1.35ZM684.88,522.42l-1.49-5.49,4.95-1.35,1.49,5.49-4.95,1.35ZM682.97,515.38l-1.35-4.95,4.95-1.35,1.35,4.95-4.95,1.35ZM692.1,505.93l-4.41,1.2-1.35-4.95,4.41-1.2,1.35,4.95ZM688.99,494.49l1.35,4.95-4.41,1.2-1.35-4.95,4.41-1.2ZM681.42,490.16l1.2,4.41-4.95,1.35-1.2-4.41,4.95-1.35ZM669.98,493.27l4.95-1.35,1.2,4.41-4.95,1.35-1.2-4.41ZM665.11,500.98l4.95-1.35,1.35,4.95-4.95,1.35-1.35-4.95ZM666.87,507.47l4.95-1.35,1.35,4.95-4.95,1.35-1.35-4.95ZM668.64,513.96l4.95-1.35,1.35,4.95-4.95,1.35-1.35-4.95ZM670.4,520.46l4.95-1.35,1.49,5.49-4.95,1.35-1.49-5.49ZM677.26,526.14l1.2,4.41-4.95,1.35-1.2-4.41,4.95-1.35ZM675.28,538.38l-1.35-4.95,4.95-1.35,1.35,4.95-4.95,1.35ZM682.19,538.16l4.95-1.35,1.35,4.95-4.95,1.35-1.35-4.95ZM685.3,549.6l-1.35-4.95,4.95-1.35,1.35,4.95-4.95,1.35ZM696.74,546.49l-4.95,1.35-1.35-4.95,4.95-1.35,1.35,4.95ZM694.97,540l-4.95,1.35-1.35-4.95,4.95-1.35,1.35,4.95ZM694.75,533.09l-1.35-4.95,4.41-1.2,1.35,4.95-4.41,1.2ZM697.39,525.4l-4.41,1.2-1.2-4.41,4.41-1.2,1.2,4.41ZM695.77,519.45l-4.41,1.2-1.49-5.49,4.41-1.2,1.49,5.49Z"/>
    <path class="cls-14" d="M701.14,505.13c-.19-.51-.38-1.01-.59-1.49-.7-1.65-1.53-3.2-2.45-4.65l-.94-1.4c-1.13-1.59-2.38-3.03-3.71-4.3-.46-.44-.94-.87-1.42-1.27-.84-.7-1.7-1.34-2.58-1.92-.65-.42-1.31-.81-1.97-1.16-.18-.09-.35-.18-.53-.27-.77-.39-1.56-.73-2.36-1.02-.79-.3-1.6-.53-2.4-.71-.58-.13-1.16-.24-1.74-.31-1.8-.24-3.57-.19-5.27.17-.26.05-.52.12-.77.19s-.51.15-.77.23c-1.65.55-3.21,1.41-4.63,2.52-.46.36-.91.75-1.34,1.17-.58.55-1.12,1.14-1.65,1.78-.53.64-1.02,1.33-1.48,2.06-.27.42-.53.86-.78,1.31-.38.7-.74,1.42-1.07,2.17-.28.64-.54,1.3-.78,1.98-.21.59-.4,1.19-.57,1.81-.49,1.77-.83,3.64-1,5.59-.05.55-.08,1.12-.11,1.68-.06,1.71,0,3.47.21,5.26.06.53.14,1.06.22,1.59.27,1.65.67,3.31,1.2,4.99.16.5.33,1.01.52,1.51.06.18.13.35.2.53.48,1.25,1.33,2.84,2.46,4.64.28.46.58.93.9,1.41.82,1.26,1.75,2.6,2.75,3.99l1,1.38c1.06,1.43,2.18,2.92,3.33,4.41.35.45.71.91,1.06,1.37.02.02.03.04.05.07.83,1.06,1.68,2.13,2.52,3.18.3.38.6.75.9,1.12.37.46.74.91,1.1,1.36,1.23,1.5,2.43,2.96,3.58,4.34.39.46.76.91,1.13,1.35.41.49.82.97,1.21,1.44l2.44,2.87c2.58,3.01,4.28,4.93,4.28,4.93l5.82-1.58s.52-2.66,1.26-6.77l.65-3.69c.08-.5.17-1,.25-1.52.1-.57.2-1.15.29-1.74.3-1.77.6-3.64.89-5.56l.27-1.73c.02-.12.04-.25.05-.38.2-1.31.39-2.64.58-3.97.06-.39.11-.79.16-1.18l.23-1.72c.25-1.87.47-3.72.66-5.49l.17-1.7c.16-1.71.29-3.33.38-4.84.03-.58.06-1.14.07-1.68.07-2.11.03-3.91-.16-5.27-.03-.19-.06-.38-.09-.56-.08-.54-.17-1.06-.27-1.58-.35-1.72-.83-3.36-1.4-4.93ZM698.59,512.79c.13.61.24,1.24.33,1.87.14,1,.19,2.33.16,3.89,0,.53-.02,1.09-.05,1.67-.06,1.29-.14,2.7-.26,4.18-.01.21-.03.42-.05.63-.05.56-.1,1.12-.14,1.69-.07.74-.14,1.48-.22,2.24-.11,1.06-.22,2.15-.35,3.23-.07.57-.13,1.14-.2,1.71-.23,1.87-.46,3.73-.7,5.5-.07.54-.14,1.07-.22,1.6,0,.04,0,.08-.01.12-.19,1.37-.37,2.68-.55,3.89-.08.57-.16,1.12-.24,1.64-.09.61-.18,1.19-.26,1.73-.42,2.76-.7,4.51-.7,4.51l-4.81,1.31s-1.16-1.35-2.96-3.51c-.35-.42-.73-.87-1.13-1.35-.48-.58-.99-1.2-1.52-1.85-.65-.79-1.33-1.63-2.04-2.5-.14-.18-.29-.36-.44-.55-.21-.27-.43-.54-.65-.81-1.13-1.41-2.3-2.88-3.46-4.37-.36-.46-.71-.91-1.06-1.37-1.03-1.34-2.04-2.68-3.01-3.99-.1-.14-.21-.29-.31-.43-.34-.46-.68-.93-1-1.38-.47-.66-.92-1.31-1.36-1.94-.49-.71-.95-1.4-1.38-2.05-.32-.49-.62-.96-.89-1.41-.82-1.35-1.44-2.52-1.8-3.45-.23-.59-.43-1.18-.61-1.79-.16-.51-.31-1.02-.44-1.54-.42-1.68-.7-3.39-.84-5.09-.04-.55-.08-1.09-.09-1.63-.05-1.57,0-3.13.18-4.64.02-.25.06-.5.09-.74.08-.58.17-1.16.28-1.73.08-.43.17-.85.27-1.27.37-1.6.87-3.12,1.48-4.52.28-.66.6-1.3.94-1.91.25-.46.51-.89.79-1.31.38-.57.79-1.11,1.22-1.61,1.29-1.5,2.78-2.63,4.43-3.25.26-.1.53-.18.81-.26.24-.07.49-.12.73-.16,1.73-.31,3.57-.12,5.45.49.62.2,1.24.45,1.86.74.51.24,1.02.51,1.53.8.61.35,1.21.74,1.79,1.17.86.63,1.71,1.32,2.52,2.09.67.63,1.32,1.3,1.95,2.01.13.14.25.29.37.43.25.3.5.61.74.92,1.09,1.39,2.09,2.91,2.95,4.51.25.48.5.96.73,1.46.73,1.54,1.34,3.16,1.78,4.83.14.51.26,1.03.38,1.55h0Z"/>
    <path class="cls-1" d="M688.41,560.25l10.58-2.88.77,2.82-10.58,2.88-.77-2.82Z"/>
    <path class="cls-16" d="M690.4,562.74l8.12-2.21,7.23,26.6-8.12,2.21-7.23-26.6Z"/>
    <path class="cls-14" d="M428.82,366.64c-.08-.54-.17-1.06-.27-1.58l-7.14,1.94-1.35-4.95,7.09-1.93c-.19-.51-.38-1.01-.59-1.49l-6.91,1.88-1.35-4.95,5.81-1.58-.94-1.4-5.29,1.44-1.35-4.95,2.92-.79c-.46-.44-.94-.87-1.42-1.27l-1.92.52-.66-2.44c-.65-.42-1.31-.81-1.97-1.16l1.09,4.02-2.43.66c-1.09.3-2.22-.35-2.52-1.44l-.66-2.43,3.99-1.08c-.77-.39-1.56-.73-2.36-1.02l-2.05.56-.35-1.27c-.58-.13-1.16-.24-1.74-.31l.54,2-4.95,1.35-.86-3.17c-.26.05-.52.12-.77.19s-.51.15-.77.23l.86,3.17-4.95,1.35-.54-2c-.46.36-.91.75-1.34,1.17l.34,1.24-1.98.54c-.53.64-1.02,1.33-1.48,2.06l3.89-1.06.68,2.49c.29,1.06-.34,2.15-1.39,2.43l-3.04.83-.92-3.39c-.38.7-.74,1.42-1.07,2.17l.45,1.64-1.22.33c-.21.59-.4,1.19-.57,1.81l2.21-.6,1.35,4.95-4.55,1.24c-.05.55-.08,1.12-.11,1.68l5.08-1.38,1.35,4.95-6.21,1.69c.06.53.14,1.06.22,1.59l6.4-1.74,1.35,4.95-6.54,1.78c.16.5.33,1.01.52,1.51l6.44-1.75,1.49,5.49-5.27,1.43c.28.46.58.93.9,1.41l4.03-.63,1.96,3.74-3.25.88,1,1.38,2.66-.72,1.35,4.95-.68.18c.35.45.71.91,1.06,1.37h.03s.02.07.02.07c.83,1.06,1.68,2.13,2.52,3.18l-1-3.68,4.95-1.35,1.35,4.95-4.39,1.19c.37.46.74.91,1.1,1.36l3.71-1.01,1.35,4.95-1.48.4c.39.46.76.91,1.13,1.35l.76-.21.45,1.64,2.44,2.87-1.34-4.93,4.95-1.35,2.55,9.37,1.54-.42-2.55-9.37,4.95-1.35,1.26,4.62.65-3.69-.37-1.35.62-.17c.1-.57.2-1.15.29-1.74l-1.34.36-1.35-4.95,3.58-.97.27-1.73-4.26,1.16-1.35-4.95,4.41-1.2,1.25,4.61c.2-1.31.39-2.64.58-3.97l-.29-1.06.45-.12.23-1.72-1.1.3-1.35-4.95,3.1-.84.17-1.7-3.69,1c-.66-2.43.78-4.94,3.21-5.61l.85-.23c.03-.58.06-1.14.07-1.68l-5.75,1.56-1.49-5.49,7-1.9h0ZM419.86,367.42l-4.41,1.2-1.35-4.95,4.41-1.2,1.35,4.95ZM419.21,388.51l-4.95,1.35-1.35-4.95,4.95-1.35,1.35,4.95ZM404.81,380.72l4.95-1.35,1.2,4.41-4.95,1.35-1.2-4.41ZM405.44,357.4l-1.35-4.95,4.95-1.35,1.35,4.95-4.95,1.35ZM410.8,357.6l1.35,4.95-4.95,1.35-1.35-4.95,4.95-1.35ZM403.89,357.82l-4.95,1.35-1.35-4.95,4.95-1.35,1.35,4.95ZM404.31,359.36l1.35,4.95-4.95,1.35-1.35-4.95,4.95-1.35ZM406.08,365.86l1.35,4.95-4.95,1.35-1.35-4.95,4.95-1.35ZM407.84,372.35l1.49,5.49-4.95,1.35-1.49-5.49,4.95-1.35ZM411.37,385.33l1.35,4.95-4.95,1.35-1.35-4.95,4.95-1.35ZM412.49,383.37l-1.2-4.41,4.95-1.35,1.2,4.41-4.95,1.35ZM410.88,377.42l-1.49-5.49,4.95-1.35,1.49,5.49-4.95,1.35ZM408.97,370.38l-1.35-4.95,4.95-1.35,1.35,4.95-4.95,1.35ZM418.1,360.93l-4.41,1.2-1.35-4.95,4.41-1.2,1.35,4.95ZM414.99,349.49l1.35,4.95-4.41,1.2-1.35-4.95,4.41-1.2ZM407.42,345.16l1.2,4.41-4.95,1.35-1.2-4.41,4.95-1.35ZM395.98,348.27l4.95-1.35,1.2,4.41-4.95,1.35-1.2-4.41ZM391.11,355.98l4.95-1.35,1.35,4.95-4.95,1.35-1.35-4.95ZM392.87,362.47l4.95-1.35,1.35,4.95-4.95,1.35-1.35-4.95ZM394.64,368.96l4.95-1.35,1.35,4.95-4.95,1.35-1.35-4.95ZM396.4,375.46l4.95-1.35,1.49,5.49-4.95,1.35-1.49-5.49ZM403.26,381.14l1.2,4.41-4.95,1.35-1.2-4.41,4.95-1.35ZM401.28,393.38l-1.35-4.95,4.95-1.35,1.35,4.95-4.95,1.35ZM408.19,393.16l4.95-1.35,1.35,4.95-4.95,1.35-1.35-4.95ZM411.3,404.6l-1.35-4.95,4.95-1.35,1.35,4.95-4.95,1.35ZM422.74,401.49l-4.95,1.35-1.35-4.95,4.95-1.35,1.35,4.95ZM420.97,395l-4.95,1.35-1.35-4.95,4.95-1.35,1.35,4.95ZM420.75,388.09l-1.35-4.95,4.41-1.2,1.35,4.95-4.41,1.2ZM423.39,380.4l-4.41,1.2-1.2-4.41,4.41-1.2,1.2,4.41ZM421.77,374.45l-4.41,1.2-1.49-5.49,4.41-1.2,1.49,5.49Z"/>
    <path class="cls-14" d="M427.14,360.13c-.19-.51-.38-1.01-.59-1.49-.7-1.65-1.53-3.2-2.45-4.65l-.94-1.4c-1.13-1.59-2.38-3.03-3.71-4.3-.46-.44-.94-.87-1.42-1.27-.84-.7-1.7-1.34-2.58-1.92-.65-.42-1.31-.81-1.97-1.16-.18-.09-.35-.18-.53-.27-.77-.39-1.56-.73-2.36-1.02-.79-.3-1.6-.53-2.4-.71-.58-.13-1.16-.24-1.74-.31-1.8-.24-3.57-.19-5.27.17-.26.05-.52.12-.77.19s-.51.15-.77.23c-1.65.55-3.21,1.41-4.63,2.52-.46.36-.91.75-1.34,1.17-.58.55-1.12,1.14-1.65,1.78-.53.64-1.02,1.33-1.48,2.06-.27.42-.53.86-.78,1.31-.38.7-.74,1.42-1.07,2.17-.28.64-.54,1.3-.78,1.98-.21.59-.4,1.19-.57,1.81-.49,1.77-.83,3.64-1,5.59-.05.55-.08,1.12-.11,1.68-.06,1.71,0,3.47.21,5.26.06.53.14,1.06.22,1.59.27,1.65.67,3.31,1.2,4.99.16.5.33,1.01.52,1.51.06.18.13.35.2.53.48,1.25,1.33,2.84,2.46,4.64.28.46.58.93.9,1.41.82,1.26,1.75,2.6,2.75,3.99l1,1.38c1.06,1.43,2.18,2.92,3.33,4.41.35.45.71.91,1.06,1.37.02.02.03.04.05.07.83,1.06,1.68,2.13,2.52,3.18.3.38.6.75.9,1.12.37.46.74.91,1.1,1.36,1.23,1.5,2.43,2.96,3.58,4.34.39.46.76.91,1.13,1.35.41.49.82.97,1.21,1.44l2.44,2.87c2.58,3.01,4.28,4.93,4.28,4.93l5.82-1.58s.52-2.66,1.26-6.77l.65-3.69c.08-.5.17-1,.25-1.52.1-.57.2-1.15.29-1.74.3-1.77.6-3.64.89-5.56l.27-1.73c.02-.12.04-.25.05-.38.2-1.31.39-2.64.58-3.97.06-.39.11-.79.16-1.18l.23-1.72c.25-1.87.47-3.72.66-5.49l.17-1.7c.16-1.71.29-3.33.38-4.84.03-.58.06-1.14.07-1.68.07-2.11.03-3.91-.16-5.27-.03-.19-.06-.38-.09-.56-.08-.54-.17-1.06-.27-1.58-.35-1.72-.83-3.36-1.4-4.93ZM424.59,367.79c.13.61.24,1.24.33,1.87.14,1,.19,2.33.16,3.89,0,.53-.02,1.09-.05,1.67-.06,1.29-.14,2.7-.26,4.18-.01.21-.03.42-.05.63-.05.56-.1,1.12-.14,1.69-.07.74-.14,1.48-.22,2.24-.11,1.06-.22,2.15-.35,3.23-.07.57-.13,1.14-.2,1.71-.23,1.87-.46,3.73-.7,5.5-.07.54-.14,1.07-.22,1.6,0,.04,0,.08-.01.12-.19,1.37-.37,2.68-.55,3.89-.08.57-.16,1.12-.24,1.64-.09.61-.18,1.19-.26,1.73-.42,2.76-.7,4.51-.7,4.51l-4.81,1.31s-1.16-1.35-2.96-3.51c-.35-.42-.73-.87-1.13-1.35-.48-.58-.99-1.2-1.52-1.85-.65-.79-1.33-1.63-2.04-2.5-.14-.18-.29-.36-.44-.55-.21-.27-.43-.54-.65-.81-1.13-1.41-2.3-2.88-3.46-4.37-.36-.46-.71-.91-1.06-1.37-1.03-1.34-2.04-2.68-3.01-3.99-.1-.14-.21-.29-.31-.43-.34-.46-.68-.93-1-1.38-.47-.66-.92-1.31-1.36-1.94-.49-.71-.95-1.4-1.38-2.05-.32-.49-.62-.96-.89-1.41-.82-1.35-1.44-2.52-1.8-3.45-.23-.59-.43-1.18-.61-1.79-.16-.51-.31-1.02-.44-1.54-.42-1.68-.7-3.39-.84-5.09-.04-.55-.08-1.09-.09-1.63-.05-1.57,0-3.13.18-4.64.02-.25.06-.5.09-.74.08-.58.17-1.16.28-1.73.08-.43.17-.85.27-1.27.37-1.6.87-3.12,1.48-4.52.28-.66.6-1.3.94-1.91.25-.46.51-.89.79-1.31.38-.57.79-1.11,1.22-1.61,1.29-1.5,2.78-2.63,4.43-3.25.26-.1.53-.18.81-.26.24-.07.49-.12.73-.16,1.73-.31,3.57-.12,5.45.49.62.2,1.24.45,1.86.74.51.24,1.02.51,1.53.8.61.35,1.21.74,1.79,1.17.86.63,1.71,1.32,2.52,2.09.67.63,1.32,1.3,1.95,2.01.13.14.25.29.37.43.25.3.5.61.74.92,1.09,1.39,2.09,2.91,2.95,4.51.25.48.5.96.73,1.46.73,1.54,1.34,3.16,1.78,4.83.14.51.26,1.03.38,1.55h0Z"/>
    <path class="cls-1" d="M414.41,415.25l10.58-2.88.77,2.82-10.58,2.88-.77-2.82Z"/>
    <path class="cls-16" d="M416.4,417.74l8.12-2.21,7.23,26.6-8.12,2.21-7.23-26.6Z"/>
  </g>
  <g id="Camada_2" data-name="Camada 2">
    <path class="cls-1" d="M80.01,31.19c7.14,9.78,6.84,22.83.25,32.79-1.99,3.01-4.56,5.74-7.68,8.02s-6.51,3.89-9.98,4.87c-11.5,3.24-24.02-.43-31.16-10.22s-6.84-22.84-.23-32.79c1.98-3.02,4.56-5.75,7.68-8.03s6.51-3.89,9.99-4.86c11.49-3.26,24,.43,31.15,10.23Z"/>
    <path class="cls-11" d="M48.85,20.96l31.4,43.02c-1.99,3.01-4.56,5.74-7.68,8.02s-6.51,3.89-9.98,4.87l-31.4-43.02c1.99-3.02,4.56-5.75,7.68-8.03s6.51-3.89,9.99-4.86Z"/>
    <path class="cls-11" d="M48.85,20.96l31.4,43.02c-1.99,3.01-4.56,5.74-7.68,8.02s-6.51,3.89-9.98,4.87l-31.4-43.02c1.99-3.02,4.56-5.75,7.68-8.03s6.51-3.89,9.99-4.86Z"/>
    <path class="cls-1" d="M1292.43,44.24c4.7,11.16,1.41,23.79-7.29,31.97-2.63,2.47-5.76,4.54-9.32,6.04s-7.23,2.29-10.83,2.45c-11.94.52-23.28-5.94-27.98-17.11s-1.4-23.8,7.31-31.97c2.63-2.48,5.76-4.55,9.32-6.05s7.23-2.29,10.84-2.44c11.93-.53,23.26,5.93,27.97,17.11Z"/>
    <path class="cls-11" d="M1264.46,27.13l20.67,49.08c-2.63,2.47-5.76,4.54-9.32,6.04s-7.23,2.29-10.83,2.45l-20.67-49.08c2.63-2.48,5.76-4.55,9.32-6.05,3.56-1.5,7.23-2.29,10.84-2.44Z"/>
    <path class="cls-11" d="M1264.46,27.13l20.67,49.08c-2.63,2.47-5.76,4.54-9.32,6.04s-7.23,2.29-10.83,2.45l-20.67-49.08c2.63-2.48,5.76-4.55,9.32-6.05,3.56-1.5,7.23-2.29,10.84-2.44Z"/>
    <path class="cls-1" d="M1149.43,353.24c4.7,11.16,1.41,23.79-7.29,31.97-2.63,2.47-5.76,4.54-9.32,6.04s-7.23,2.29-10.83,2.45c-11.94.52-23.28-5.94-27.98-17.11-4.71-11.17-1.4-23.8,7.31-31.97,2.63-2.48,5.76-4.55,9.32-6.05s7.23-2.29,10.84-2.44c11.93-.53,23.26,5.93,27.97,17.11Z"/>
    <path class="cls-11" d="M1121.46,336.13l20.67,49.08c-2.63,2.47-5.76,4.54-9.32,6.04s-7.23,2.29-10.83,2.45l-20.67-49.08c2.63-2.48,5.76-4.55,9.32-6.05,3.56-1.5,7.23-2.29,10.84-2.44Z"/>
    <path class="cls-11" d="M1121.46,336.13l20.67,49.08c-2.63,2.47-5.76,4.54-9.32,6.04s-7.23,2.29-10.83,2.45l-20.67-49.08c2.63-2.48,5.76-4.55,9.32-6.05,3.56-1.5,7.23-2.29,10.84-2.44Z"/>
    <path class="cls-1" d="M1166.43,87.24c4.7,11.16,1.41,23.79-7.29,31.97-2.63,2.47-5.76,4.54-9.32,6.04s-7.23,2.29-10.83,2.45c-11.94.52-23.28-5.94-27.98-17.11-4.71-11.17-1.4-23.8,7.31-31.97,2.63-2.48,5.76-4.55,9.32-6.05s7.23-2.29,10.84-2.44c11.93-.53,23.26,5.93,27.97,17.11Z"/>
    <path class="cls-11" d="M1138.46,70.13l20.67,49.08c-2.63,2.47-5.76,4.54-9.32,6.04s-7.23,2.29-10.83,2.45l-20.67-49.08c2.63-2.48,5.76-4.55,9.32-6.05,3.56-1.5,7.23-2.29,10.84-2.44Z"/>
    <path class="cls-11" d="M1138.46,70.13l20.67,49.08c-2.63,2.47-5.76,4.54-9.32,6.04s-7.23,2.29-10.83,2.45l-20.67-49.08c2.63-2.48,5.76-4.55,9.32-6.05,3.56-1.5,7.23-2.29,10.84-2.44Z"/>
    <path class="cls-1" d="M903.43,66.24c4.7,11.16,1.41,23.79-7.29,31.97-2.63,2.47-5.76,4.54-9.32,6.04s-7.23,2.29-10.83,2.45c-11.94.52-23.28-5.94-27.98-17.11-4.71-11.17-1.4-23.8,7.31-31.97,2.63-2.48,5.76-4.55,9.32-6.05s7.23-2.29,10.84-2.44c11.93-.53,23.26,5.93,27.97,17.11Z"/>
    <path class="cls-11" d="M875.46,49.13l20.67,49.08c-2.63,2.47-5.76,4.54-9.32,6.04s-7.23,2.29-10.83,2.45l-20.67-49.08c2.63-2.48,5.76-4.55,9.32-6.05,3.56-1.5,7.23-2.29,10.84-2.44Z"/>
    <path class="cls-11" d="M875.46,49.13l20.67,49.08c-2.63,2.47-5.76,4.54-9.32,6.04s-7.23,2.29-10.83,2.45l-20.67-49.08c2.63-2.48,5.76-4.55,9.32-6.05,3.56-1.5,7.23-2.29,10.84-2.44Z"/>
    <path class="cls-1" d="M153.43,349.24c4.7,11.16,1.41,23.79-7.29,31.97-2.63,2.47-5.76,4.54-9.32,6.04s-7.23,2.29-10.83,2.45c-11.94.52-23.28-5.94-27.98-17.11-4.71-11.17-1.4-23.8,7.31-31.97,2.63-2.48,5.76-4.55,9.32-6.05s7.23-2.29,10.84-2.44c11.93-.53,23.26,5.93,27.97,17.11Z"/>
    <path class="cls-11" d="M125.46,332.13l20.67,49.08c-2.63,2.47-5.76,4.54-9.32,6.04s-7.23,2.29-10.83,2.45l-20.67-49.08c2.63-2.48,5.76-4.55,9.32-6.05,3.56-1.5,7.23-2.29,10.84-2.44Z"/>
    <path class="cls-11" d="M125.46,332.13l20.67,49.08c-2.63,2.47-5.76,4.54-9.32,6.04s-7.23,2.29-10.83,2.45l-20.67-49.08c2.63-2.48,5.76-4.55,9.32-6.05,3.56-1.5,7.23-2.29,10.84-2.44Z"/>
  </g>
  <g id="Camada_3" data-name="Camada 3">
    <path class="cls-3" d="M792.38,643.99c2.02,3.14,3.46,6.48,4.35,9.9,1.21,4.63,1.42,9.42.68,14.04-1.13,7.17-4.52,13.95-9.92,19.2-1.63,1.59-3.44,3.04-5.43,4.31s-4.06,2.33-6.18,3.15c-7.02,2.72-14.6,3-21.59,1.05-4.36-1.21-8.5-3.28-12.13-6.15-2.89-2.29-5.46-5.09-7.57-8.36s-3.55-6.68-4.43-10.21c-1.11-4.44-1.3-9.01-.64-13.44,1.1-7.32,4.55-14.27,10.1-19.61,1.59-1.53,3.35-2.94,5.29-4.18s3.94-2.27,6-3.07c7.16-2.83,14.92-3.09,22.04-1.05,1.3.37,2.57.81,3.81,1.34h0c1.68.71,3.31,1.54,4.87,2.51h.02c1.07.69,2.11,1.41,3.11,2.21,2.9,2.29,5.48,5.09,7.59,8.38Z"/>
    <g>
      <path class="cls-11" d="M761.55,636.21l.6,12.64-10.65,6.85-11.25-5.8-.61-12.04c1.59-1.54,3.35-2.94,5.29-4.18s3.94-2.27,6-3.07l10.62,5.6Z"/>
      <path class="cls-11" d="M784.9,635.69l.89,12.43-10.53,6.77-11.74-6.05-.61-12.65,10.22-6.6c1.3.37,2.51.81,3.75,1.33,1.68.7,3.38,1.6,4.94,2.57,1.07.68,2.08,1.4,3.08,2.19Z"/>
      <path class="cls-11" d="M750.81,657.02l.8,13.02-10.52,6.82-10.86-5.79c-1.11-4.44-1.3-9.01-.64-13.44l9.97-6.41,11.25,5.8Z"/>
      <path class="cls-11" d="M763.56,676.85l.6,12.64-9.81,6.31c-4.36-1.21-8.5-3.28-12.13-6.15l-.57-11.75,10.65-6.85,11.25,5.8Z"/>
      <path class="cls-11" d="M786.99,675.77l.55,11.51c-1.63,1.59-3.44,3.04-5.43,4.31s-4.06,2.33-6.18,3.15l-10.24-5.28-.6-12.64,10.65-6.85,11.25,5.8Z"/>
      <path class="cls-11" d="M796.77,654.04c1.21,4.63,1.42,9.42.68,14.04l-9.48,6.09-11.25-5.8-.6-12.64,10.65-6.85,10,5.15Z"/>
    </g>
    <path class="cls-3" d="M1263.38,644.99c2.02,3.14,3.46,6.48,4.35,9.9,1.21,4.63,1.42,9.42.68,14.04-1.13,7.17-4.52,13.95-9.92,19.2-1.63,1.59-3.44,3.04-5.43,4.31s-4.06,2.33-6.18,3.15c-7.02,2.72-14.6,3-21.59,1.05-4.36-1.21-8.5-3.28-12.13-6.15-2.89-2.29-5.46-5.09-7.57-8.36s-3.55-6.68-4.43-10.21c-1.11-4.44-1.3-9.01-.64-13.44,1.1-7.32,4.55-14.27,10.1-19.61,1.59-1.53,3.35-2.94,5.29-4.18s3.94-2.27,6-3.07c7.16-2.83,14.92-3.09,22.04-1.05,1.3.37,2.57.81,3.81,1.34h0c1.68.71,3.31,1.54,4.87,2.51h.02c1.07.69,2.11,1.41,3.11,2.21,2.9,2.29,5.48,5.09,7.59,8.38Z"/>
    <g>
      <path class="cls-11" d="M1232.55,637.21l.6,12.64-10.65,6.85-11.25-5.8-.61-12.04c1.59-1.54,3.35-2.94,5.29-4.18s3.94-2.27,6-3.07l10.62,5.6Z"/>
      <path class="cls-11" d="M1255.9,636.69l.89,12.43-10.53,6.77-11.74-6.05-.61-12.65,10.22-6.6c1.3.37,2.51.81,3.75,1.33,1.68.7,3.38,1.6,4.94,2.57,1.07.68,2.08,1.4,3.08,2.19Z"/>
      <path class="cls-11" d="M1221.81,658.02l.8,13.02-10.52,6.82-10.86-5.79c-1.11-4.44-1.3-9.01-.64-13.44l9.97-6.41,11.25,5.8Z"/>
      <path class="cls-11" d="M1234.56,677.85l.6,12.64-9.81,6.31c-4.36-1.21-8.5-3.28-12.13-6.15l-.57-11.75,10.65-6.85,11.25,5.8Z"/>
      <path class="cls-11" d="M1257.99,676.77l.55,11.51c-1.63,1.59-3.44,3.04-5.43,4.31s-4.06,2.33-6.18,3.15l-10.24-5.28-.6-12.64,10.65-6.85,11.25,5.8Z"/>
      <path class="cls-11" d="M1267.77,655.04c1.21,4.63,1.42,9.42.68,14.04l-9.48,6.09-11.25-5.8-.6-12.64,10.65-6.85,10,5.15Z"/>
    </g>
    <path class="cls-3" d="M1297.38,293.99c2.02,3.14,3.46,6.48,4.35,9.9,1.21,4.63,1.42,9.42.68,14.04-1.13,7.17-4.52,13.95-9.92,19.2-1.63,1.59-3.44,3.04-5.43,4.31s-4.06,2.33-6.18,3.15c-7.02,2.72-14.6,3-21.59,1.05-4.36-1.21-8.5-3.28-12.13-6.15-2.89-2.29-5.46-5.09-7.57-8.36s-3.55-6.68-4.43-10.21c-1.11-4.44-1.3-9.01-.64-13.44,1.1-7.32,4.55-14.27,10.1-19.61,1.59-1.53,3.35-2.94,5.29-4.18s3.94-2.27,6-3.07c7.16-2.83,14.92-3.09,22.04-1.05,1.3.37,2.57.81,3.81,1.34h0c1.68.71,3.31,1.54,4.87,2.51h.02c1.07.69,2.11,1.41,3.11,2.21,2.9,2.29,5.48,5.09,7.59,8.38Z"/>
    <g>
      <path class="cls-11" d="M1266.55,286.21l.6,12.64-10.65,6.85-11.25-5.8-.61-12.04c1.59-1.54,3.35-2.94,5.29-4.18s3.94-2.27,6-3.07l10.62,5.6Z"/>
      <path class="cls-11" d="M1289.9,285.69l.89,12.43-10.53,6.77-11.74-6.05-.61-12.65,10.22-6.6c1.3.37,2.51.81,3.75,1.33,1.68.7,3.38,1.6,4.94,2.57,1.07.68,2.08,1.4,3.08,2.19Z"/>
      <path class="cls-11" d="M1255.81,307.02l.8,13.02-10.52,6.82-10.86-5.79c-1.11-4.44-1.3-9.01-.64-13.44l9.97-6.41,11.25,5.8Z"/>
      <path class="cls-11" d="M1268.56,326.85l.6,12.64-9.81,6.31c-4.36-1.21-8.5-3.28-12.13-6.15l-.57-11.75,10.65-6.85,11.25,5.8Z"/>
      <path class="cls-11" d="M1291.99,325.77l.55,11.51c-1.63,1.59-3.44,3.04-5.43,4.31s-4.06,2.33-6.18,3.15l-10.24-5.28-.6-12.64,10.65-6.85,11.25,5.8Z"/>
      <path class="cls-11" d="M1301.77,304.04c1.21,4.63,1.42,9.42.68,14.04l-9.48,6.09-11.25-5.8-.6-12.64,10.65-6.85,10,5.15Z"/>
    </g>
    <path class="cls-3" d="M315.38,409.99c2.02,3.14,3.46,6.48,4.35,9.9,1.21,4.63,1.42,9.42.68,14.04-1.13,7.17-4.52,13.95-9.92,19.2-1.63,1.59-3.44,3.04-5.43,4.31s-4.06,2.33-6.18,3.15c-7.02,2.72-14.6,3-21.59,1.05-4.36-1.21-8.5-3.28-12.13-6.15-2.89-2.29-5.46-5.09-7.57-8.36s-3.55-6.68-4.43-10.21c-1.11-4.44-1.3-9.01-.64-13.44,1.1-7.32,4.55-14.27,10.1-19.61,1.59-1.53,3.35-2.94,5.29-4.18s3.94-2.27,6-3.07c7.16-2.83,14.92-3.09,22.04-1.05,1.3.37,2.57.81,3.81,1.34h0c1.68.71,3.31,1.54,4.87,2.51h.02c1.07.69,2.11,1.41,3.11,2.21,2.9,2.29,5.48,5.09,7.59,8.38Z"/>
    <g>
      <path class="cls-11" d="M284.55,402.21l.6,12.64-10.65,6.85-11.25-5.8-.61-12.04c1.59-1.54,3.35-2.94,5.29-4.18s3.94-2.27,6-3.07l10.62,5.6Z"/>
      <path class="cls-11" d="M307.9,401.69l.89,12.43-10.53,6.77-11.74-6.05-.61-12.65,10.22-6.6c1.3.37,2.51.81,3.75,1.33,1.68.7,3.38,1.6,4.94,2.57,1.07.68,2.08,1.4,3.08,2.19Z"/>
      <path class="cls-11" d="M273.81,423.02l.8,13.02-10.52,6.82-10.86-5.79c-1.11-4.44-1.3-9.01-.64-13.44l9.97-6.41,11.25,5.8Z"/>
      <path class="cls-11" d="M286.56,442.85l.6,12.64-9.81,6.31c-4.36-1.21-8.5-3.28-12.13-6.15l-.57-11.75,10.65-6.85,11.25,5.8Z"/>
      <path class="cls-11" d="M309.99,441.77l.55,11.51c-1.63,1.59-3.44,3.04-5.43,4.31s-4.06,2.33-6.18,3.15l-10.24-5.28-.6-12.64,10.65-6.85,11.25,5.8Z"/>
      <path class="cls-11" d="M319.77,420.04c1.21,4.63,1.42,9.42.68,14.04l-9.48,6.09-11.25-5.8-.6-12.64,10.65-6.85,10,5.15Z"/>
    </g>
    <path class="cls-3" d="M547.38,87.99c2.02,3.14,3.46,6.48,4.35,9.9,1.21,4.63,1.42,9.42.68,14.04-1.13,7.17-4.52,13.95-9.92,19.2-1.63,1.59-3.44,3.04-5.43,4.31s-4.06,2.33-6.18,3.15c-7.02,2.72-14.6,3-21.59,1.05-4.36-1.21-8.5-3.28-12.13-6.15-2.89-2.29-5.46-5.09-7.57-8.36s-3.55-6.68-4.43-10.21c-1.11-4.44-1.3-9.01-.64-13.44,1.1-7.32,4.55-14.27,10.1-19.61,1.59-1.53,3.35-2.94,5.29-4.18s3.94-2.27,6-3.07c7.16-2.83,14.92-3.09,22.04-1.05,1.3.37,2.57.81,3.81,1.34h0c1.68.71,3.31,1.54,4.87,2.51h.02c1.07.69,2.11,1.41,3.11,2.21,2.9,2.29,5.48,5.09,7.59,8.38Z"/>
    <g>
      <path class="cls-11" d="M516.55,80.21l.6,12.64-10.65,6.85-11.25-5.8-.61-12.04c1.59-1.54,3.35-2.94,5.29-4.18s3.94-2.27,6-3.07l10.62,5.6Z"/>
      <path class="cls-11" d="M539.9,79.69l.89,12.43-10.53,6.77-11.74-6.05-.61-12.65,10.22-6.6c1.3.37,2.51.81,3.75,1.33,1.68.7,3.38,1.6,4.94,2.57,1.07.68,2.08,1.4,3.08,2.19Z"/>
      <path class="cls-11" d="M505.81,101.02l.8,13.02-10.52,6.82-10.86-5.79c-1.11-4.44-1.3-9.01-.64-13.44l9.97-6.41,11.25,5.8Z"/>
      <path class="cls-11" d="M518.56,120.85l.6,12.64-9.81,6.31c-4.36-1.21-8.5-3.28-12.13-6.15l-.57-11.75,10.65-6.85,11.25,5.8Z"/>
      <path class="cls-11" d="M541.99,119.77l.55,11.51c-1.63,1.59-3.44,3.04-5.43,4.31s-4.06,2.33-6.18,3.15l-10.24-5.28-.6-12.64,10.65-6.85,11.25,5.8Z"/>
      <path class="cls-11" d="M551.77,98.04c1.21,4.63,1.42,9.42.68,14.04l-9.48,6.09-11.25-5.8-.6-12.64,10.65-6.85,10,5.15Z"/>
    </g>
  </g>
  <g id="Camada_6" data-name="Camada 6">
    <path class="cls-13" d="M107.63,145.96l16.95-4.28-20.7,51.42-12.62-5.08,16.37-42.06Z"/>
    <path class="cls-11" d="M60.92,156.78l-15.92,3.3,37.27,37.38,9.63-9.61-30.99-31.08Z"/>
    <circle class="cls-9" cx="93.54" cy="196.2" r="13.67"/>
    <path class="cls-13" d="M350.63,250.96l16.95-4.28-20.7,51.42-12.62-5.08,16.37-42.06Z"/>
    <path class="cls-11" d="M303.92,261.78l-15.92,3.3,37.27,37.38,9.63-9.61-30.99-31.08Z"/>
    <circle class="cls-9" cx="336.54" cy="301.2" r="13.67"/>
    <path class="cls-13" d="M1195.63,144.96l16.95-4.28-20.7,51.42-12.62-5.08,16.37-42.06Z"/>
    <path class="cls-11" d="M1148.92,155.78l-15.92,3.3,37.27,37.38,9.63-9.61-30.99-31.08Z"/>
    <circle class="cls-9" cx="1181.54" cy="195.2" r="13.67"/>
    <path class="cls-13" d="M1045.63,643.96l16.95-4.28-20.7,51.42-12.62-5.08,16.37-42.06Z"/>
    <path class="cls-11" d="M998.92,654.78l-15.92,3.3,37.27,37.38,9.63-9.61-30.99-31.08Z"/>
    <circle class="cls-9" cx="1031.54" cy="694.2" r="13.67"/>
    <path class="cls-13" d="M532.63,631.96l16.95-4.28-20.7,51.42-12.62-5.08,16.37-42.06Z"/>
    <path class="cls-11" d="M485.92,642.78l-15.92,3.3,37.27,37.38,9.63-9.61-30.99-31.08Z"/>
    <circle class="cls-9" cx="518.54" cy="682.2" r="13.67"/>
    <path class="cls-13" d="M62.63,625.96l16.95-4.28-20.7,51.42-12.62-5.08,16.37-42.06Z"/>
    <path class="cls-11" d="M15.92,636.78l-15.92,3.3,37.27,37.38,9.63-9.61-30.99-31.08Z"/>
    <circle class="cls-9" cx="48.54" cy="676.2" r="13.67"/>
    <path class="cls-13" d="M762.63,419.96l16.95-4.28-20.7,51.42-12.62-5.08,16.37-42.06Z"/>
    <path class="cls-11" d="M715.92,430.78l-15.92,3.3,37.27,37.38,9.63-9.61-30.99-31.08Z"/>
    <circle class="cls-9" cx="748.54" cy="470.2" r="13.67"/>
  </g>
</svg>