<svg enable-background="new 0 0 88.71 97.537" height="98" viewBox="0 0 88.71 97.537" width="89" xmlns="http://www.w3.org/2000/svg"><g fill="#fdbc42"><path d="m70.393 3.724v-3.724h-52.596v3.75c-11.005.554-19.548 10.615-17.489 22.132 1.102 6.169 5.291 11.349 10.919 14.105l3.089 1.513c2.15 1.053 3.509 3.327 3.4 5.732-.033.734-.241 1.463-.617 2.094-.902 1.511-2.44 2.369-4.111 2.369-.001 0-.002 0-.003 0l-1.739-.001-.003 4.9 1.738.001h.018c1.426 0 2.858-.259 4.132-.902 3.226-1.628 5.169-4.59 5.452-7.898 1.198 1.702 2.592 3.255 4.15 4.627 7.645 6.732 12.307 16.216 12.307 26.403v16.909h10.115v-16.67c0-10.083 4.243-19.798 11.934-26.318 1.928-1.634 3.617-3.542 5.008-5.662.043 3.43 1.859 6.572 5.031 8.366 1.395.789 2.994 1.145 4.597 1.145h.007l1.739-.001-.003-4.9-1.739.001c-.001 0-.002 0-.003 0-1.67 0-3.208-.859-4.11-2.366-.376-.629-.583-1.357-.618-2.089-.113-2.408 1.247-4.685 3.399-5.74l3.092-1.513c6.017-2.945 10.33-8.673 11.096-15.328 1.284-11.176-7.33-20.689-18.192-20.935zm-53.923 33.375-3.498-1.713c-4.903-2.401-8.072-7.481-8.072-12.94 0-7.313 5.706-13.305 12.897-13.795v24.03c0 1.951.219 3.851.622 5.681-.603-.479-1.243-.918-1.949-1.263zm59.269-1.713-3.5 1.713c-.957.469-1.823 1.074-2.588 1.781.481-1.989.742-4.063.742-6.199v-24.057c7.434.228 13.416 6.333 13.416 13.821.001 5.46-3.167 10.54-8.07 12.941z"/><path d="m27.839 93.931h33.032v3.607h-33.032z"/></g></svg>