<svg enable-background="new 0 0 22.966 22.199" height="22.199" viewBox="0 0 22.966 22.199" width="22.966" xmlns="http://www.w3.org/2000/svg"><path d="m22.966 11.012c0 4.625-3.029 8.579-7.305 10.167-1.292.48-2.701.744-4.175.744s-2.883-.264-4.175-.744c-4.277-1.588-7.311-5.542-7.311-10.167 0-4.63 3.034-8.584 7.31-10.167 1.292-.485 2.701-.749 4.175-.749s2.883.264 4.175.749c4.277 1.583 7.306 5.536 7.306 10.167z" fill="#e23d2c"/><path d="m15.658.844v20.335c-1.292.48-2.701.744-4.175.744s-2.883-.264-4.175-.744v-20.335c1.292-.484 2.701-.748 4.175-.748s2.883.264 4.175.748z" fill="#dcd9d3"/></svg>