<svg enable-background="new 0 0 60.978 61.113" height="61.113" viewBox="0 0 60.978 61.113" width="60.978" xmlns="http://www.w3.org/2000/svg"><path d="m60.978 30.487c0 3.312-.528 6.5-1.504 9.484-1.32 4.044-3.464 7.712-6.232 10.812-4.288 4.808-10.076 8.244-16.628 9.58-1.976.404-4.028.616-6.124.616s-4.148-.212-6.124-.616c-6.552-1.336-12.34-4.772-16.628-9.58-2.68-2.996-4.772-6.528-6.104-10.416-1.058-3.1-1.634-6.42-1.634-9.88 0-3.412.56-6.692 1.592-9.756 1.3-3.852 3.352-7.356 5.98-10.348 4.336-4.944 10.252-8.472 16.963-9.8 1.924-.383 3.916-.583 5.956-.583s4.032.2 5.956.584c6.708 1.328 12.624 4.856 16.963 9.8.792.896 1.528 1.84 2.204 2.828l.004.004c.916 1.332 1.732 2.74 2.432 4.212l.012.02c.476 1.02.9 2.06 1.272 3.136 1.064 3.103 1.644 6.435 1.644 9.903z" fill="#020202"/><g fill="#dcd9d3"><path d="m41.687 9.867-5.62 9.732h-11.24l-5.62-9.732 5.328-9.283c1.924-.384 3.916-.584 5.956-.584s4.032.2 5.956.584z"/><path d="m59.373 20.698-5.309 9.711h-11.117l-5.864-10.155 5.62-9.736 10.804-.025c.792.896 1.486 1.809 2.162 2.797.916 1.332 1.755 2.818 2.454 4.29.477 1.02.878 2.042 1.25 3.118z"/><path d="m23.671 20.254-5.655 10.112-11.137.043-5.332-9.543c1.3-3.852 3.352-7.356 5.98-10.348h10.524z"/><path d="m23.671 41.186-5.62 9.732h-10.355c-2.68-2.996-4.772-6.528-6.104-10.416l5.22-9.048h11.24z"/><path d="m41.687 51.638-5.116 8.86c-1.976.404-4.028.616-6.124.616s-4.148-.212-6.124-.616l-5.116-8.86 5.62-9.732h11.24z"/><path d="m59.43 40.106c-1.32 4.044-3.464 7.712-6.232 10.812h-10.003l-5.62-9.732 5.62-9.732h11.24z"/></g></svg>