<svg enable-background="new 0 0 75.341 189.611" height="189.611" viewBox="0 0 75.341 189.611" width="75.341" xmlns="http://www.w3.org/2000/svg"><path d="m74.948 58.265c.12-.96.2-1.91.27-2.85h-13.21v-9.15h13.1c-.09-.96-.19-1.91-.32-2.85h-12.78v-9.15h10.74l-.96-2.85h-9.78v-9.15h5.4c-.59-.98-1.21-1.93-1.85-2.85h-3.55v-4.52c-.92-1.03-1.87-2.01-2.85-2.92v7.44h-4.485c-2.024 0-3.665-1.641-3.665-3.665v-4.485h7.37c-1.15-1.04-2.35-1.99-3.58-2.85h-3.79v-2.35c-.94-.5-1.89-.96-2.85-1.35v3.7h-9.15v-5.87c-.47-.03-.95-.04-1.42-.04-.48 0-.95.01-1.43.04v5.87h-9.15v-3.69c-.96.41-1.91.87-2.85 1.39v2.3h-3.67c-1.21.86-2.38 1.81-3.52 2.85h7.19v4.612c0 1.954-1.584 3.538-3.538 3.538h-5.612v-6.27c-.98 1.02-1.94 2.09-2.85 3.23v3.04h-2.26c-.63.92-1.24 1.87-1.82 2.85h4.08v9.15h-8.42c-.35.93-.67 1.89-.97 2.85h9.39v9.15h-11.48c-.14.94-.26 1.89-.36 2.85h11.84v9.15h-12.1c.04.94.1 1.89.19 2.85h11.91v10.15h-9.75c.27.92.57 1.87.89 2.85l7.23.793 1.63 7.358h-6l1.08 2.85h4.92v9.15h-1.25c.39.94.79 1.9 1.19 2.85h.06v.14c.93 2.22 1.89 4.45 2.85 6.66v-6.8h9.15v9.15h-8.12c.42.96.84 1.91 1.26 2.85h6.86v9.15h-2.73c.45.97.89 1.92 1.32 2.85h1.41v3.04l2.85 6.08v-9.12h9.15v17.32h2.85v-17.32h9.15v8.55l2.85-6.05v-2.5h1.15c.44-.93.88-1.88 1.32-2.85h-2.47v-9.15h6.61l1.27-2.85h-7.88v-9.15h8.15v8.53c.96-2.17 1.91-4.37 2.85-6.57v-1.96h.83l1.2-2.85h-2.03v-9.15h5.73l1.09-2.85h-6.82c0-4.501 3.649-8.15 8.15-8.15h1.58c.32-.98.63-1.93.91-2.85h-10.64v-10.15h12.94zm-15.79-2.85h-8.15v-9.15h8.15zm-11 36h-9.15v-9.15h9.15zm-21.15-20.15h9.15v8.15h-9.15zm12-39.85v-9.15h9.15v9.15zm9.15 2.85v9.15h-9.15v-9.15zm-12-2.85h-9.15v-9.15h9.15zm0 2.85v9.15h-9.15v-9.15zm0 12v9.15h-9.15v-9.15zm0 12v10.15h-9.15v-10.15zm0 24v9.15h-9.15v-9.15zm2.85-2.85v-8.15h9.15v8.15zm0-11v-10.15h9.15v10.15zm0-13v-9.15h9.15v9.15zm20.15-12h-8.15v-9.15h8.15zm0-21.15v9.15h-8.15v-9.15zm-11-11v8.15h-9.15v-8.15zm-21.15 0h9.15v8.15h-9.15zm-12 11h9.15v9.15h-9.15zm0 12h9.15v9.15h-9.15zm0 12h9.15v9.15h-9.15zm0 12h9.15v10.15h-9.15zm9.15 13v8.15h-9.15v-8.15zm-9.15 20.15v-9.15h9.15v9.15zm12 2.85h9.15v9.15h-9.15zm0 21.15v-9.15h9.15v9.15zm21.15 0h-9.15v-9.15h9.15zm0-12h-9.15v-9.15h9.15zm2.85-12v-9.15h8.15v9.15zm8.15-12h-8.15v-8.15h8.15zm0-11h-8.15v-10.15h8.15z" fill="#fdbb3f"/><path d="m75.108 46.265c-.09-.96-.19-1.91-.32-2.85-.44-3.17-1.13-6.23-2.04-9.15l-.96-2.85c-1.2-3.26-2.68-6.33-4.38-9.15-.59-.98-1.21-1.93-1.85-2.85-1.11-1.6-2.3-3.11-3.55-4.52-.92-1.03-1.87-2.01-2.85-2.92-.26-.24-.51-.48-.78-.71-1.15-1.04-2.35-1.99-3.58-2.85-1.23-.88-2.5-1.66-3.79-2.35-.94-.5-1.89-.96-2.85-1.35-2.98-1.25-6.06-1.99-9.15-2.17-.47-.03-.95-.04-1.42-.04-.48 0-.95.01-1.43.04-3.1.18-6.18.93-9.15 2.18-.96.41-1.91.87-2.85 1.39-1.25.67-2.47 1.44-3.67 2.3-1.21.86-2.38 1.81-3.52 2.85-.67.6-1.32 1.23-1.96 1.88-.98 1.02-1.94 2.09-2.85 3.23-.78.97-1.54 1.99-2.26 3.04-.63.92-1.24 1.87-1.82 2.85-1.67 2.82-3.14 5.88-4.34 9.15-.35.93-.67 1.89-.97 2.85-.91 2.92-1.62 5.98-2.09 9.15-.14.94-.26 1.89-.36 2.85-.3 2.97-.39 6.02-.26 9.15.04.94.1 1.89.19 2.85.02.34.06.67.09 1.01.24 2.38.97 5.51 2.07 9.14.27.92.57 1.87.89 2.85.82 2.55 1.79 5.29 2.86 8.15l1.08 2.85c1.15 2.96 2.38 6.04 3.67 9.15.39.94.79 1.9 1.19 2.85.02.05.04.09.06.14.93 2.22 1.89 4.45 2.85 6.66.34.79.69 1.57 1.03 2.35.42.96.84 1.91 1.26 2.85 1.41 3.16 2.8 6.24 4.13 9.15.45.97.89 1.92 1.32 2.85.48 1.04.95 2.06 1.41 3.04l2.85 6.08c3.03 6.39 5.06 10.49 5.06 10.49h10.76s2.15-4.34 5.33-11.06l2.85-6.05c.38-.82.76-1.65 1.15-2.5.44-.93.88-1.88 1.32-2.85 1.34-2.91 2.73-5.99 4.14-9.15l1.27-2.85c.09-.2.18-.41.27-.62.96-2.17 1.91-4.37 2.85-6.57.28-.65.56-1.31.83-1.96l1.2-2.85c1.3-3.1 2.54-6.18 3.7-9.15l1.09-2.85c1.08-2.86 2.06-5.6 2.91-8.15.32-.98.63-1.93.91-2.85 1.11-3.6 1.88-6.72 2.19-9.14.04-.34.08-.68.11-1.01.12-.96.2-1.91.27-2.85.2-3.13.15-6.18-.11-9.15zm-7.99 12c-.06 1.12-.16 2.25-.31 3.37-.23 1.79-.77 4.1-1.54 6.78-.26.91-.55 1.86-.86 2.85-.7 2.2-1.51 4.58-2.4 7.08-.12.35-.25.71-.38 1.07-.34.94-.69 1.89-1.04 2.85-.47 1.24-.94 2.49-1.43 3.76-.69 1.78-1.39 3.59-2.11 5.39-.38.95-.76 1.9-1.14 2.85-1.27 3.11-2.54 6.2-3.78 9.15-.38.9-.75 1.78-1.12 2.65-.03.07-.05.13-.08.2-.97 2.27-1.9 4.44-2.77 6.44-.4.94-.8 1.85-1.18 2.71-.44 1.01-.86 1.96-1.25 2.85-2.01 4.56-3.31 7.43-3.31 7.43h-8.9s-1.36-2.87-3.45-7.43c-.41-.89-.85-1.84-1.31-2.85-.55-1.22-1.14-2.52-1.75-3.89-.75-1.66-1.53-3.43-2.35-5.26-.16-.38-.33-.76-.5-1.15-.24-.56-.49-1.13-.74-1.7-1.29-2.95-2.61-6.04-3.91-9.15-.4-.95-.8-1.9-1.19-2.85-1.14-2.79-2.26-5.57-3.31-8.27-.11-.29-.23-.59-.34-.88-.37-.96-.73-1.91-1.08-2.85-.5-1.36-.98-2.68-1.43-3.97-.51-1.45-.98-2.85-1.41-4.18-.32-.99-.61-1.95-.87-2.85-.78-2.71-1.3-5.02-1.48-6.78-.12-1.12-.19-2.24-.22-3.37-.04-.95-.05-1.9-.03-2.85.06-3.09.38-6.16.93-9.15.18-.96.38-1.91.6-2.85.65-2.73 1.48-5.38 2.48-7.91.16-.42.33-.83.5-1.24.41-.97.84-1.92 1.29-2.85.34-.7.69-1.39 1.06-2.06 1.39-2.58 2.96-4.96 4.66-7.09.8-1.01 1.64-1.96 2.51-2.85.64-.67 1.3-1.3 1.98-1.89.93-.81 1.88-1.55 2.85-2.21 2.92-1.98 6.01-3.22 9.15-3.53.5-.05 1-.07 1.51-.07.45 0 .9.02 1.34.06 3.12.27 6.21 1.47 9.15 3.4.97.63 1.92 1.35 2.85 2.14.77.65 1.52 1.35 2.25 2.1.88.89 1.73 1.84 2.54 2.85 1.19 1.48 2.32 3.07 3.36 4.77.86 1.39 1.67 2.86 2.41 4.38.15.3.3.61.44.92.3.63.58 1.28.85 1.93 1.23 2.9 2.23 5.98 2.96 9.15.21.94.41 1.89.57 2.85.53 3 .82 6.07.81 9.15 0 .95-.03 1.9-.08 2.85z" fill="#fdbb3f"/><path d="m27.375 135.203h19.566v5.219h-19.566z" fill="#e23d2c"/><path d="m29.651 140.422h15.013v49.189h-15.013z" fill="#8f241e"/></svg>