<?xml version="1.0" encoding="UTF-8"?>
<svg xmlns="http://www.w3.org/2000/svg" viewBox="0 0 1336.77 707.87">
  <defs>
    <style>
      .cls-1 {
        fill: #e23d2c;
      }

      .cls-1, .cls-2, .cls-3, .cls-4, .cls-5, .cls-6, .cls-7, .cls-8, .cls-9, .cls-10 {
        stroke-width: 0px;
      }

      .cls-2 {
        fill: #fdbc42;
      }

      .cls-3 {
        fill: #020202;
      }

      .cls-4 {
        fill: #ee442b;
      }

      .cls-5 {
        fill: #fcbc41;
      }

      .cls-6 {
        fill: #ffeea6;
      }

      .cls-7 {
        fill: #dcd9d3;
      }

      .cls-8 {
        fill: #939598;
      }

      .cls-9 {
        fill: #fdbb3f;
      }

      .cls-10 {
        fill: #8f241e;
      }
    </style>
  </defs>
  <g id="Camada_1" data-name="Camada 1">
    <path class="cls-8" d="M1059.7,501.3l22.2-.69-39.69,58.15-14.27-9.74,31.77-47.72Z"/>
    <path class="cls-7" d="M998.8,502l-20.65-.24,36.06,56.53,14.57-9.29-29.98-47Z"/>
    <circle class="cls-5" cx="1028.53" cy="559.8" r="17.36"/>
    <g>
      <path class="cls-2" d="M514.58,179.28l-1.93-4.9-69.18,27.29,1.95,4.93c-14.19,6.44-20.2,24.1-11.52,38.19,4.65,7.54,12.85,12.18,21.68,12.89l4.85.39c3.37.27,6.34,2.56,7.45,5.78.34.98.44,2.05.27,3.07-.4,2.46-1.98,4.38-4.18,5.25h0s-2.29.9-2.29.9l2.54,6.45,2.29-.9h.02c1.88-.75,3.62-1.83,4.97-3.34,3.4-3.82,4.42-8.72,3.07-13.22,2.46,1.62,5.1,2.94,7.86,3.93,13.55,4.89,24.6,14.94,29.89,28.34l8.77,22.24,13.3-5.25-8.65-21.93c-5.23-13.26-4.69-28.24,2.04-40.81,1.69-3.15,2.92-6.54,3.65-10.05,1.84,4.49,5.86,7.68,10.96,8.39,2.24.31,4.53-.05,6.64-.88h0s2.29-.91,2.29-.91l-2.55-6.44-2.29.9h0c-2.2.87-4.67.54-6.63-.98-.82-.63-1.47-1.48-1.9-2.43-1.4-3.11-.79-6.81,1.49-9.31l3.28-3.59c6.39-7,9.09-16.77,6.64-25.92-4.11-15.37-20.38-23.41-34.79-18.1ZM460.97,251.16l-5.49-.44c-7.69-.61-14.5-5.65-17.33-12.83-3.79-9.62.6-20.46,9.81-24.84l12.47,31.61c1.01,2.57,2.29,4.95,3.77,7.15-1.04-.32-2.11-.56-3.22-.65ZM538.04,218.16l-3.71,4.07c-1.02,1.11-1.84,2.36-2.48,3.69-.4-2.87-1.13-5.73-2.24-8.54l-12.48-31.64c9.9-3.56,20.93,1.37,24.82,11.22,2.83,7.18,1.3,15.51-3.9,21.21Z"/>
      <path class="cls-2" d="M505.41,320.02l43.45-17.14,1.87,4.74-43.45,17.14-1.87-4.74Z"/>
    </g>
  </g>
  <g id="Camada_8" data-name="Camada 8">
    <g>
      <path class="cls-2" d="M1032.5,234.9l-1.02-2.58-36.42,14.37,1.02,2.6c-7.47,3.39-10.64,12.69-6.07,20.1,2.45,3.97,6.76,6.41,11.41,6.79l2.55.2c1.78.14,3.34,1.35,3.92,3.04.18.52.23,1.08.14,1.62-.21,1.29-1.04,2.31-2.2,2.76h0s-1.2.48-1.2.48l1.34,3.39,1.2-.47h.01c.99-.39,1.91-.96,2.62-1.76,1.79-2.01,2.33-4.59,1.62-6.96,1.29.85,2.68,1.55,4.14,2.07,7.13,2.57,12.95,7.87,15.73,14.92l4.62,11.71,7-2.76-4.55-11.54c-2.75-6.98-2.47-14.87,1.08-21.48.89-1.66,1.54-3.44,1.92-5.29.97,2.36,3.08,4.04,5.77,4.42,1.18.17,2.39-.02,3.5-.46h0s1.2-.48,1.2-.48l-1.34-3.39-1.2.48h0c-1.16.46-2.46.28-3.49-.51-.43-.33-.77-.78-1-1.28-.74-1.64-.42-3.58.79-4.9l1.73-1.89c3.36-3.68,4.78-8.83,3.5-13.65-2.16-8.09-10.73-12.32-18.32-9.53ZM1004.28,272.75l-2.89-.23c-4.05-.32-7.63-2.98-9.12-6.76-2-5.06.32-10.77,5.16-13.08l6.56,16.64c.53,1.35,1.2,2.61,1.98,3.76-.55-.17-1.11-.3-1.69-.34ZM1044.85,255.37l-1.96,2.14c-.53.59-.97,1.24-1.31,1.94-.21-1.51-.6-3.02-1.18-4.5l-6.57-16.66c5.21-1.87,11.02.72,13.07,5.91,1.49,3.78.69,8.16-2.05,11.17Z"/>
      <path class="cls-2" d="M1027.67,309l22.87-9.02.99,2.5-22.87,9.02-.99-2.5Z"/>
    </g>
    <g>
      <path class="cls-2" d="M64.5,240.9l-1.02-2.58-36.42,14.37,1.02,2.6c-7.47,3.39-10.64,12.69-6.07,20.1,2.45,3.97,6.76,6.41,11.41,6.79l2.55.2c1.78.14,3.34,1.35,3.92,3.04.18.52.23,1.08.14,1.62-.21,1.29-1.04,2.31-2.2,2.76h0s-1.2.48-1.2.48l1.34,3.39,1.2-.47h.01c.99-.39,1.91-.96,2.62-1.76,1.79-2.01,2.33-4.59,1.62-6.96,1.29.85,2.68,1.55,4.14,2.07,7.13,2.57,12.95,7.87,15.73,14.92l4.62,11.71,7-2.76-4.55-11.54c-2.75-6.98-2.47-14.87,1.08-21.48.89-1.66,1.54-3.44,1.92-5.29.97,2.36,3.08,4.04,5.77,4.42,1.18.17,2.39-.02,3.5-.46h0s1.2-.48,1.2-.48l-1.34-3.39-1.2.48h0c-1.16.46-2.46.28-3.49-.51-.43-.33-.77-.78-1-1.28-.74-1.64-.42-3.58.79-4.9l1.73-1.89c3.36-3.68,4.78-8.83,3.5-13.65-2.16-8.09-10.73-12.32-18.32-9.53ZM36.28,278.75l-2.89-.23c-4.05-.32-7.63-2.98-9.12-6.76-2-5.06.32-10.77,5.16-13.08l6.56,16.64c.53,1.35,1.2,2.61,1.98,3.76-.55-.17-1.11-.3-1.69-.34ZM76.85,261.37l-1.96,2.14c-.53.59-.97,1.24-1.31,1.94-.21-1.51-.6-3.02-1.18-4.5l-6.57-16.66c5.21-1.87,11.02.72,13.07,5.91,1.49,3.78.69,8.16-2.05,11.17Z"/>
      <path class="cls-2" d="M59.67,315l22.87-9.02.99,2.5-22.87,9.02-.99-2.5Z"/>
    </g>
    <g>
      <path class="cls-2" d="M287.5,146.9l-1.02-2.58-36.42,14.37,1.02,2.6c-7.47,3.39-10.64,12.69-6.07,20.1,2.45,3.97,6.76,6.41,11.41,6.79l2.55.2c1.78.14,3.34,1.35,3.92,3.04.18.52.23,1.08.14,1.62-.21,1.29-1.04,2.31-2.2,2.76h0s-1.2.48-1.2.48l1.34,3.39,1.2-.47h.01c.99-.39,1.91-.96,2.62-1.76,1.79-2.01,2.33-4.59,1.62-6.96,1.29.85,2.68,1.55,4.14,2.07,7.13,2.57,12.95,7.87,15.73,14.92l4.62,11.71,7-2.76-4.55-11.54c-2.75-6.98-2.47-14.87,1.08-21.48.89-1.66,1.54-3.44,1.92-5.29.97,2.36,3.08,4.04,5.77,4.42,1.18.17,2.39-.02,3.5-.46h0s1.2-.48,1.2-.48l-1.34-3.39-1.2.48h0c-1.16.46-2.46.28-3.49-.51-.43-.33-.77-.78-1-1.28-.74-1.64-.42-3.58.79-4.9l1.73-1.89c3.36-3.68,4.78-8.83,3.5-13.65-2.16-8.09-10.73-12.32-18.32-9.53ZM259.28,184.75l-2.89-.23c-4.05-.32-7.63-2.98-9.12-6.76-2-5.06.32-10.77,5.16-13.08l6.56,16.64c.53,1.35,1.2,2.61,1.98,3.76-.55-.17-1.11-.3-1.69-.34ZM299.85,167.37l-1.96,2.14c-.53.59-.97,1.24-1.31,1.94-.21-1.51-.6-3.02-1.18-4.5l-6.57-16.66c5.21-1.87,11.02.72,13.07,5.91,1.49,3.78.69,8.16-2.05,11.17Z"/>
      <path class="cls-2" d="M282.67,221l22.87-9.02.99,2.5-22.87,9.02-.99-2.5Z"/>
    </g>
    <g>
      <path class="cls-2" d="M1060.5,30.9l-1.02-2.58-36.42,14.37,1.02,2.6c-7.47,3.39-10.64,12.69-6.07,20.1,2.45,3.97,6.76,6.41,11.41,6.79l2.55.2c1.78.14,3.34,1.35,3.92,3.04.18.52.23,1.08.14,1.62-.21,1.29-1.04,2.31-2.2,2.76h0s-1.2.48-1.2.48l1.34,3.39,1.2-.47h.01c.99-.39,1.91-.96,2.62-1.76,1.79-2.01,2.33-4.59,1.62-6.96,1.29.85,2.68,1.55,4.14,2.07,7.13,2.57,12.95,7.87,15.73,14.92l4.62,11.71,7-2.76-4.55-11.54c-2.75-6.98-2.47-14.87,1.08-21.48.89-1.66,1.54-3.44,1.92-5.29.97,2.36,3.08,4.04,5.77,4.42,1.18.17,2.39-.02,3.5-.46h0s1.2-.48,1.2-.48l-1.34-3.39-1.2.48h0c-1.16.46-2.46.28-3.49-.51-.43-.33-.77-.78-1-1.28-.74-1.64-.42-3.58.79-4.9l1.73-1.89c3.36-3.68,4.78-8.83,3.5-13.65-2.16-8.09-10.73-12.32-18.32-9.53ZM1032.28,68.75l-2.89-.23c-4.05-.32-7.63-2.98-9.12-6.76-2-5.06.32-10.77,5.16-13.08l6.56,16.64c.53,1.35,1.2,2.61,1.98,3.76-.55-.17-1.11-.3-1.69-.34ZM1072.85,51.37l-1.96,2.14c-.53.59-.97,1.24-1.31,1.94-.21-1.51-.6-3.02-1.18-4.5l-6.57-16.66c5.21-1.87,11.02.72,13.07,5.91,1.49,3.78.69,8.16-2.05,11.17Z"/>
      <path class="cls-2" d="M1055.67,105l22.87-9.02.99,2.5-22.87,9.02-.99-2.5Z"/>
    </g>
    <circle class="cls-6" cx="624.97" cy="653.7" r="29.29"/>
    <g>
      <path class="cls-4" d="M621.22,648.2c6.18-6.14,9.28-14.74,8.43-23.41-1.55-.26-3.12-.38-4.68-.38h-.48c.88,7.42-1.64,14.83-6.84,20.19-5.78,5.62-13.93,8.08-21.85,6.6-.08.83-.11,1.66-.11,2.54s0,1.79.13,2.67c1.57.27,3.17.4,4.76.41,7.75-.01,15.19-3.11,20.66-8.61Z"/>
      <path class="cls-4" d="M653.89,648.99c-16.05-1.52-30.3,10.27-31.82,26.32-.24,2.52-.15,5.06.27,7.56.88.08,1.78.13,2.68.13s1.66,0,2.48-.11c-1.46-7.93.99-16.08,6.59-21.89,5.37-5.21,12.79-7.73,20.22-6.86v-.44c-.02-1.58-.16-3.15-.42-4.71Z"/>
    </g>
    <circle class="cls-6" cx="946.97" cy="156.7" r="29.29"/>
    <g>
      <path class="cls-4" d="M943.22,151.2c6.18-6.14,9.28-14.74,8.43-23.41-1.55-.26-3.12-.38-4.68-.38h-.48c.88,7.42-1.64,14.83-6.84,20.19-5.78,5.62-13.93,8.08-21.85,6.6-.08.83-.11,1.66-.11,2.54s0,1.79.13,2.67c1.57.27,3.17.4,4.76.41,7.75-.01,15.19-3.11,20.66-8.61Z"/>
      <path class="cls-4" d="M975.89,151.99c-16.05-1.52-30.3,10.27-31.82,26.32-.24,2.52-.15,5.06.27,7.56.88.08,1.78.13,2.68.13s1.66,0,2.48-.11c-1.46-7.93.99-16.08,6.59-21.89,5.37-5.21,12.79-7.73,20.22-6.86v-.44c-.02-1.58-.16-3.15-.42-4.71Z"/>
    </g>
    <circle class="cls-6" cx="232.97" cy="341.7" r="29.29"/>
    <g>
      <path class="cls-4" d="M229.22,336.2c6.18-6.14,9.28-14.74,8.43-23.41-1.55-.26-3.12-.38-4.68-.38h-.48c.88,7.42-1.64,14.83-6.84,20.19-5.78,5.62-13.93,8.08-21.85,6.6-.08.83-.11,1.66-.11,2.54s0,1.79.13,2.67c1.57.27,3.17.4,4.76.41,7.75-.01,15.19-3.11,20.66-8.61Z"/>
      <path class="cls-4" d="M261.89,336.99c-16.05-1.52-30.3,10.27-31.82,26.32-.24,2.52-.15,5.06.27,7.56.88.08,1.78.13,2.68.13s1.66,0,2.48-.11c-1.46-7.93.99-16.08,6.59-21.89,5.37-5.21,12.79-7.73,20.22-6.86v-.44c-.02-1.58-.16-3.15-.42-4.71Z"/>
    </g>
    <path class="cls-6" d="M1090.91,181.71c4.92-2.59,11.01-.69,13.59,4.23.17.32.32.66.46,1,13.49,29.3,34,75.92,34,75.92l-8.49,4.46s-27.01-43.74-43.23-71.07c-3.11-4.61-1.88-10.87,2.73-13.97.3-.2.62-.39.94-.56Z"/>
    <path class="cls-4" d="M1158.71,303.4l-5.85,3.08-22.39-39.17,8.49-4.46,19.76,40.55Z"/>
    <rect class="cls-6" x="1151" y="304.31" width="11.65" height="5.72" rx="2.86" ry="2.86" transform="translate(-10.11 573.35) rotate(-27.72)"/>
    <path class="cls-6" d="M17.91,308.71c4.92-2.59,11.01-.69,13.59,4.23.17.32.32.66.46,1,13.49,29.3,34,75.92,34,75.92l-8.49,4.46s-27.01-43.74-43.23-71.07c-3.11-4.61-1.88-10.87,2.73-13.97.3-.2.62-.39.94-.56Z"/>
    <path class="cls-4" d="M85.71,430.4l-5.85,3.08-22.39-39.17,8.49-4.46,19.76,40.55Z"/>
    <rect class="cls-6" x="78" y="431.31" width="11.65" height="5.72" rx="2.86" ry="2.86" transform="translate(-192.33 88.82) rotate(-27.72)"/>
    <path class="cls-6" d="M899.91,505.71c4.92-2.59,11.01-.69,13.59,4.23.17.32.32.66.46,1,13.49,29.3,34,75.92,34,75.92l-8.49,4.46s-27.01-43.74-43.23-71.07c-3.11-4.61-1.88-10.87,2.73-13.97.3-.2.62-.39.94-.56Z"/>
    <path class="cls-4" d="M967.71,627.4l-5.85,3.08-22.39-39.17,8.49-4.46,19.76,40.55Z"/>
    <rect class="cls-6" x="960" y="628.31" width="11.65" height="5.72" rx="2.86" ry="2.86" transform="translate(-182.74 521.69) rotate(-27.72)"/>
    <path class="cls-6" d="M574.91,303.71c4.92-2.59,11.01-.69,13.59,4.23.17.32.32.66.46,1,13.49,29.3,34,75.92,34,75.92l-8.49,4.46s-27.01-43.74-43.23-71.07c-3.11-4.61-1.88-10.87,2.73-13.97.3-.2.62-.39.94-.56Z"/>
    <path class="cls-4" d="M642.71,425.4l-5.85,3.08-22.39-39.17,8.49-4.46,19.76,40.55Z"/>
    <rect class="cls-6" x="635" y="426.31" width="11.65" height="5.72" rx="2.86" ry="2.86" transform="translate(-126.08 347.33) rotate(-27.72)"/>
  </g>
  <g id="Camada_7" data-name="Camada 7">
    <path class="cls-9" d="M650.82,60.64c-.08-.54-.17-1.06-.27-1.58l-7.14,1.94-1.35-4.95,7.09-1.93c-.19-.51-.38-1.01-.59-1.49l-6.91,1.88-1.35-4.95,5.81-1.58-.94-1.4-5.29,1.44-1.35-4.95,2.92-.79c-.46-.44-.94-.87-1.42-1.27l-1.92.52-.66-2.44c-.65-.42-1.31-.81-1.97-1.16l1.09,4.02-2.43.66c-1.09.3-2.22-.35-2.52-1.44l-.66-2.43,3.99-1.08c-.77-.39-1.56-.73-2.36-1.02l-2.05.56-.35-1.27c-.58-.13-1.16-.24-1.74-.31l.54,2-4.95,1.35-.86-3.17c-.26.05-.52.12-.77.19s-.51.15-.77.23l.86,3.17-4.95,1.35-.54-2c-.46.36-.91.75-1.34,1.17l.34,1.24-1.98.54c-.53.64-1.02,1.33-1.48,2.06l3.89-1.06.68,2.49c.29,1.06-.34,2.15-1.39,2.43l-3.04.83-.92-3.39c-.38.7-.74,1.42-1.07,2.17l.45,1.64-1.22.33c-.21.59-.4,1.19-.57,1.81l2.21-.6,1.35,4.95-4.55,1.24c-.05.55-.08,1.12-.11,1.68l5.08-1.38,1.35,4.95-6.21,1.69c.06.53.14,1.06.22,1.59l6.4-1.74,1.35,4.95-6.54,1.78c.16.5.33,1.01.52,1.51l6.44-1.75,1.49,5.49-5.27,1.43c.28.46.58.93.9,1.41l4.03-.63,1.96,3.74-3.25.88,1,1.38,2.66-.72,1.35,4.95-.68.18c.35.45.71.91,1.06,1.37h.03s.02.07.02.07c.83,1.06,1.68,2.13,2.52,3.18l-1-3.68,4.95-1.35,1.35,4.95-4.39,1.19c.37.46.74.91,1.1,1.36l3.71-1.01,1.35,4.95-1.48.4c.39.46.76.91,1.13,1.35l.76-.21.45,1.64,2.44,2.87-1.34-4.93,4.95-1.35,2.55,9.37,1.54-.42-2.55-9.37,4.95-1.35,1.26,4.62.65-3.69-.37-1.35.62-.17c.1-.57.2-1.15.29-1.74l-1.34.36-1.35-4.95,3.58-.97.27-1.73-4.26,1.16-1.35-4.95,4.41-1.2,1.25,4.61c.2-1.31.39-2.64.58-3.97l-.29-1.06.45-.12.23-1.72-1.1.3-1.35-4.95,3.1-.84.17-1.7-3.69,1c-.66-2.43.78-4.94,3.21-5.61l.85-.23c.03-.58.06-1.14.07-1.68l-5.75,1.56-1.49-5.49,7-1.9h0ZM641.86,61.42l-4.41,1.2-1.35-4.95,4.41-1.2,1.35,4.95ZM641.21,82.51l-4.95,1.35-1.35-4.95,4.95-1.35,1.35,4.95ZM626.81,74.72l4.95-1.35,1.2,4.41-4.95,1.35-1.2-4.41ZM627.44,51.4l-1.35-4.95,4.95-1.35,1.35,4.95-4.95,1.35ZM632.8,51.6l1.35,4.95-4.95,1.35-1.35-4.95,4.95-1.35ZM625.89,51.82l-4.95,1.35-1.35-4.95,4.95-1.35,1.35,4.95ZM626.31,53.36l1.35,4.95-4.95,1.35-1.35-4.95,4.95-1.35ZM628.08,59.86l1.35,4.95-4.95,1.35-1.35-4.95,4.95-1.35ZM629.84,66.35l1.49,5.49-4.95,1.35-1.49-5.49,4.95-1.35ZM633.37,79.33l1.35,4.95-4.95,1.35-1.35-4.95,4.95-1.35ZM634.49,77.37l-1.2-4.41,4.95-1.35,1.2,4.41-4.95,1.35ZM632.88,71.42l-1.49-5.49,4.95-1.35,1.49,5.49-4.95,1.35ZM630.97,64.38l-1.35-4.95,4.95-1.35,1.35,4.95-4.95,1.35ZM640.1,54.93l-4.41,1.2-1.35-4.95,4.41-1.2,1.35,4.95ZM636.99,43.49l1.35,4.95-4.41,1.2-1.35-4.95,4.41-1.2ZM629.42,39.16l1.2,4.41-4.95,1.35-1.2-4.41,4.95-1.35ZM617.98,42.27l4.95-1.35,1.2,4.41-4.95,1.35-1.2-4.41ZM613.11,49.98l4.95-1.35,1.35,4.95-4.95,1.35-1.35-4.95ZM614.87,56.47l4.95-1.35,1.35,4.95-4.95,1.35-1.35-4.95ZM616.64,62.96l4.95-1.35,1.35,4.95-4.95,1.35-1.35-4.95ZM618.4,69.46l4.95-1.35,1.49,5.49-4.95,1.35-1.49-5.49ZM625.26,75.14l1.2,4.41-4.95,1.35-1.2-4.41,4.95-1.35ZM623.28,87.38l-1.35-4.95,4.95-1.35,1.35,4.95-4.95,1.35ZM630.19,87.16l4.95-1.35,1.35,4.95-4.95,1.35-1.35-4.95ZM633.3,98.6l-1.35-4.95,4.95-1.35,1.35,4.95-4.95,1.35ZM644.74,95.49l-4.95,1.35-1.35-4.95,4.95-1.35,1.35,4.95ZM642.97,89l-4.95,1.35-1.35-4.95,4.95-1.35,1.35,4.95ZM642.75,82.09l-1.35-4.95,4.41-1.2,1.35,4.95-4.41,1.2ZM645.39,74.4l-4.41,1.2-1.2-4.41,4.41-1.2,1.2,4.41ZM643.77,68.45l-4.41,1.2-1.49-5.49,4.41-1.2,1.49,5.49Z"/>
    <path class="cls-9" d="M649.14,54.13c-.19-.51-.38-1.01-.59-1.49-.7-1.65-1.53-3.2-2.45-4.65l-.94-1.4c-1.13-1.59-2.38-3.03-3.71-4.3-.46-.44-.94-.87-1.42-1.27-.84-.7-1.7-1.34-2.58-1.92-.65-.42-1.31-.81-1.97-1.16-.18-.09-.35-.18-.53-.27-.77-.39-1.56-.73-2.36-1.02-.79-.3-1.6-.53-2.4-.71-.58-.13-1.16-.24-1.74-.31-1.8-.24-3.57-.19-5.27.17-.26.05-.52.12-.77.19s-.51.15-.77.23c-1.65.55-3.21,1.41-4.63,2.52-.46.36-.91.75-1.34,1.17-.58.55-1.12,1.14-1.65,1.78-.53.64-1.02,1.33-1.48,2.06-.27.42-.53.86-.78,1.31-.38.7-.74,1.42-1.07,2.17-.28.64-.54,1.3-.78,1.98-.21.59-.4,1.19-.57,1.81-.49,1.77-.83,3.64-1,5.59-.05.55-.08,1.12-.11,1.68-.06,1.71,0,3.47.21,5.26.06.53.14,1.06.22,1.59.27,1.65.67,3.31,1.2,4.99.16.5.33,1.01.52,1.51.06.18.13.35.2.53.48,1.25,1.33,2.84,2.46,4.64.28.46.58.93.9,1.41.82,1.26,1.75,2.6,2.75,3.99l1,1.38c1.06,1.43,2.18,2.92,3.33,4.41.35.45.71.91,1.06,1.37.02.02.03.04.05.07.83,1.06,1.68,2.13,2.52,3.18.3.38.6.75.9,1.12.37.46.74.91,1.1,1.36,1.23,1.5,2.43,2.96,3.58,4.34.39.46.76.91,1.13,1.35.41.49.82.97,1.21,1.44l2.44,2.87c2.58,3.01,4.28,4.93,4.28,4.93l5.82-1.58s.52-2.66,1.26-6.77l.65-3.69c.08-.5.17-1,.25-1.52.1-.57.2-1.15.29-1.74.3-1.77.6-3.64.89-5.56l.27-1.73c.02-.12.04-.25.05-.38.2-1.31.39-2.64.58-3.97.06-.39.11-.79.16-1.18l.23-1.72c.25-1.87.47-3.72.66-5.49l.17-1.7c.16-1.71.29-3.33.38-4.84.03-.58.06-1.14.07-1.68.07-2.11.03-3.91-.16-5.27-.03-.19-.06-.38-.09-.56-.08-.54-.17-1.06-.27-1.58-.35-1.72-.83-3.36-1.4-4.93ZM646.59,61.79c.13.61.24,1.24.33,1.87.14,1,.19,2.33.16,3.89,0,.53-.02,1.09-.05,1.67-.06,1.29-.14,2.7-.26,4.18-.01.21-.03.42-.05.63-.05.56-.1,1.12-.14,1.69-.07.74-.14,1.48-.22,2.24-.11,1.06-.22,2.15-.35,3.23-.07.57-.13,1.14-.2,1.71-.23,1.87-.46,3.73-.7,5.5-.07.54-.14,1.07-.22,1.6,0,.04,0,.08-.01.12-.19,1.37-.37,2.68-.55,3.89-.08.57-.16,1.12-.24,1.64-.09.61-.18,1.19-.26,1.73-.42,2.76-.7,4.51-.7,4.51l-4.81,1.31s-1.16-1.35-2.96-3.51c-.35-.42-.73-.87-1.13-1.35-.48-.58-.99-1.2-1.52-1.85-.65-.79-1.33-1.63-2.04-2.5-.14-.18-.29-.36-.44-.55-.21-.27-.43-.54-.65-.81-1.13-1.41-2.3-2.88-3.46-4.37-.36-.46-.71-.91-1.06-1.37-1.03-1.34-2.04-2.68-3.01-3.99-.1-.14-.21-.29-.31-.43-.34-.46-.68-.93-1-1.38-.47-.66-.92-1.31-1.36-1.94-.49-.71-.95-1.4-1.38-2.05-.32-.49-.62-.96-.89-1.41-.82-1.35-1.44-2.52-1.8-3.45-.23-.59-.43-1.18-.61-1.79-.16-.51-.31-1.02-.44-1.54-.42-1.68-.7-3.39-.84-5.09-.04-.55-.08-1.09-.09-1.63-.05-1.57,0-3.13.18-4.64.02-.25.06-.5.09-.74.08-.58.17-1.16.28-1.73.08-.43.17-.85.27-1.27.37-1.6.87-3.12,1.48-4.52.28-.66.6-1.3.94-1.91.25-.46.51-.89.79-1.31.38-.57.79-1.11,1.22-1.61,1.29-1.5,2.78-2.63,4.43-3.25.26-.1.53-.18.81-.26.24-.07.49-.12.73-.16,1.73-.31,3.57-.12,5.45.49.62.2,1.24.45,1.86.74.51.24,1.02.51,1.53.8.61.35,1.21.74,1.79,1.17.86.63,1.71,1.32,2.52,2.09.67.63,1.32,1.3,1.95,2.01.13.14.25.29.37.43.25.3.5.61.74.92,1.09,1.39,2.09,2.91,2.95,4.51.25.48.5.96.73,1.46.73,1.54,1.34,3.16,1.78,4.83.14.51.26,1.03.38,1.55h0Z"/>
    <path class="cls-1" d="M636.41,109.25l10.58-2.88.77,2.82-10.58,2.88-.77-2.82Z"/>
    <path class="cls-10" d="M638.4,111.74l8.12-2.21,7.23,26.6-8.12,2.21-7.23-26.6Z"/>
    <path class="cls-9" d="M200.82,203.64c-.08-.54-.17-1.06-.27-1.58l-7.14,1.94-1.35-4.95,7.09-1.93c-.19-.51-.38-1.01-.59-1.49l-6.91,1.88-1.35-4.95,5.81-1.58-.94-1.4-5.29,1.44-1.35-4.95,2.92-.79c-.46-.44-.94-.87-1.42-1.27l-1.92.52-.66-2.44c-.65-.42-1.31-.81-1.97-1.16l1.09,4.02-2.43.66c-1.09.3-2.22-.35-2.52-1.44l-.66-2.43,3.99-1.08c-.77-.39-1.56-.73-2.36-1.02l-2.05.56-.35-1.27c-.58-.13-1.16-.24-1.74-.31l.54,2-4.95,1.35-.86-3.17c-.26.05-.52.12-.77.19s-.51.15-.77.23l.86,3.17-4.95,1.35-.54-2c-.46.36-.91.75-1.34,1.17l.34,1.24-1.98.54c-.53.64-1.02,1.33-1.48,2.06l3.89-1.06.68,2.49c.29,1.06-.34,2.15-1.39,2.43l-3.04.83-.92-3.39c-.38.7-.74,1.42-1.07,2.17l.45,1.64-1.22.33c-.21.59-.4,1.19-.57,1.81l2.21-.6,1.35,4.95-4.55,1.24c-.05.55-.08,1.12-.11,1.68l5.08-1.38,1.35,4.95-6.21,1.69c.06.53.14,1.06.22,1.59l6.4-1.74,1.35,4.95-6.54,1.78c.16.5.33,1.01.52,1.51l6.44-1.75,1.49,5.49-5.27,1.43c.28.46.58.93.9,1.41l4.03-.63,1.96,3.74-3.25.88,1,1.38,2.66-.72,1.35,4.95-.68.18c.35.45.71.91,1.06,1.37h.03s.02.07.02.07c.83,1.06,1.68,2.13,2.52,3.18l-1-3.68,4.95-1.35,1.35,4.95-4.39,1.19c.37.46.74.91,1.1,1.36l3.71-1.01,1.35,4.95-1.48.4c.39.46.76.91,1.13,1.35l.76-.21.45,1.64,2.44,2.87-1.34-4.93,4.95-1.35,2.55,9.37,1.54-.42-2.55-9.37,4.95-1.35,1.26,4.62.65-3.69-.37-1.35.62-.17c.1-.57.2-1.15.29-1.74l-1.34.36-1.35-4.95,3.58-.97.27-1.73-4.26,1.16-1.35-4.95,4.41-1.2,1.25,4.61c.2-1.31.39-2.64.58-3.97l-.29-1.06.45-.12.23-1.72-1.1.3-1.35-4.95,3.1-.84.17-1.7-3.69,1c-.66-2.43.78-4.94,3.21-5.61l.85-.23c.03-.58.06-1.14.07-1.68l-5.75,1.56-1.49-5.49,7-1.9h0ZM191.86,204.42l-4.41,1.2-1.35-4.95,4.41-1.2,1.35,4.95ZM191.21,225.51l-4.95,1.35-1.35-4.95,4.95-1.35,1.35,4.95ZM176.81,217.72l4.95-1.35,1.2,4.41-4.95,1.35-1.2-4.41ZM177.44,194.4l-1.35-4.95,4.95-1.35,1.35,4.95-4.95,1.35ZM182.8,194.6l1.35,4.95-4.95,1.35-1.35-4.95,4.95-1.35ZM175.89,194.82l-4.95,1.35-1.35-4.95,4.95-1.35,1.35,4.95ZM176.31,196.36l1.35,4.95-4.95,1.35-1.35-4.95,4.95-1.35ZM178.08,202.86l1.35,4.95-4.95,1.35-1.35-4.95,4.95-1.35ZM179.84,209.35l1.49,5.49-4.95,1.35-1.49-5.49,4.95-1.35ZM183.37,222.33l1.35,4.95-4.95,1.35-1.35-4.95,4.95-1.35ZM184.49,220.37l-1.2-4.41,4.95-1.35,1.2,4.41-4.95,1.35ZM182.88,214.42l-1.49-5.49,4.95-1.35,1.49,5.49-4.95,1.35ZM180.97,207.38l-1.35-4.95,4.95-1.35,1.35,4.95-4.95,1.35ZM190.1,197.93l-4.41,1.2-1.35-4.95,4.41-1.2,1.35,4.95ZM186.99,186.49l1.35,4.95-4.41,1.2-1.35-4.95,4.41-1.2ZM179.42,182.16l1.2,4.41-4.95,1.35-1.2-4.41,4.95-1.35ZM167.98,185.27l4.95-1.35,1.2,4.41-4.95,1.35-1.2-4.41ZM163.11,192.98l4.95-1.35,1.35,4.95-4.95,1.35-1.35-4.95ZM164.87,199.47l4.95-1.35,1.35,4.95-4.95,1.35-1.35-4.95ZM166.64,205.96l4.95-1.35,1.35,4.95-4.95,1.35-1.35-4.95ZM168.4,212.46l4.95-1.35,1.49,5.49-4.95,1.35-1.49-5.49ZM175.26,218.14l1.2,4.41-4.95,1.35-1.2-4.41,4.95-1.35ZM173.28,230.38l-1.35-4.95,4.95-1.35,1.35,4.95-4.95,1.35ZM180.19,230.16l4.95-1.35,1.35,4.95-4.95,1.35-1.35-4.95ZM183.3,241.6l-1.35-4.95,4.95-1.35,1.35,4.95-4.95,1.35ZM194.74,238.49l-4.95,1.35-1.35-4.95,4.95-1.35,1.35,4.95ZM192.97,232l-4.95,1.35-1.35-4.95,4.95-1.35,1.35,4.95ZM192.75,225.09l-1.35-4.95,4.41-1.2,1.35,4.95-4.41,1.2ZM195.39,217.4l-4.41,1.2-1.2-4.41,4.41-1.2,1.2,4.41ZM193.77,211.45l-4.41,1.2-1.49-5.49,4.41-1.2,1.49,5.49Z"/>
    <path class="cls-9" d="M199.14,197.13c-.19-.51-.38-1.01-.59-1.49-.7-1.65-1.53-3.2-2.45-4.65l-.94-1.4c-1.13-1.59-2.38-3.03-3.71-4.3-.46-.44-.94-.87-1.42-1.27-.84-.7-1.7-1.34-2.58-1.92-.65-.42-1.31-.81-1.97-1.16-.18-.09-.35-.18-.53-.27-.77-.39-1.56-.73-2.36-1.02-.79-.3-1.6-.53-2.4-.71-.58-.13-1.16-.24-1.74-.31-1.8-.24-3.57-.19-5.27.17-.26.05-.52.12-.77.19s-.51.15-.77.23c-1.65.55-3.21,1.41-4.63,2.52-.46.36-.91.75-1.34,1.17-.58.55-1.12,1.14-1.65,1.78-.53.64-1.02,1.33-1.48,2.06-.27.42-.53.86-.78,1.31-.38.7-.74,1.42-1.07,2.17-.28.64-.54,1.3-.78,1.98-.21.59-.4,1.19-.57,1.81-.49,1.77-.83,3.64-1,5.59-.05.55-.08,1.12-.11,1.68-.06,1.71,0,3.47.21,5.26.06.53.14,1.06.22,1.59.27,1.65.67,3.31,1.2,4.99.16.5.33,1.01.52,1.51.06.18.13.35.2.53.48,1.25,1.33,2.84,2.46,4.64.28.46.58.93.9,1.41.82,1.26,1.75,2.6,2.75,3.99l1,1.38c1.06,1.43,2.18,2.92,3.33,4.41.35.45.71.91,1.06,1.37.02.02.03.04.05.07.83,1.06,1.68,2.13,2.52,3.18.3.38.6.75.9,1.12.37.46.74.91,1.1,1.36,1.23,1.5,2.43,2.96,3.58,4.34.39.46.76.91,1.13,1.35.41.49.82.97,1.21,1.44l2.44,2.87c2.58,3.01,4.28,4.93,4.28,4.93l5.82-1.58s.52-2.66,1.26-6.77l.65-3.69c.08-.5.17-1,.25-1.52.1-.57.2-1.15.29-1.74.3-1.77.6-3.64.89-5.56l.27-1.73c.02-.12.04-.25.05-.38.2-1.31.39-2.64.58-3.97.06-.39.11-.79.16-1.18l.23-1.72c.25-1.87.47-3.72.66-5.49l.17-1.7c.16-1.71.29-3.33.38-4.84.03-.58.06-1.14.07-1.68.07-2.11.03-3.91-.16-5.27-.03-.19-.06-.38-.09-.56-.08-.54-.17-1.06-.27-1.58-.35-1.72-.83-3.36-1.4-4.93ZM196.59,204.79c.13.61.24,1.24.33,1.87.14,1,.19,2.33.16,3.89,0,.53-.02,1.09-.05,1.67-.06,1.29-.14,2.7-.26,4.18-.01.21-.03.42-.05.63-.05.56-.1,1.12-.14,1.69-.07.74-.14,1.48-.22,2.24-.11,1.06-.22,2.15-.35,3.23-.07.57-.13,1.14-.2,1.71-.23,1.87-.46,3.73-.7,5.5-.07.54-.14,1.07-.22,1.6,0,.04,0,.08-.01.12-.19,1.37-.37,2.68-.55,3.89-.08.57-.16,1.12-.24,1.64-.09.61-.18,1.19-.26,1.73-.42,2.76-.7,4.51-.7,4.51l-4.81,1.31s-1.16-1.35-2.96-3.51c-.35-.42-.73-.87-1.13-1.35-.48-.58-.99-1.2-1.52-1.85-.65-.79-1.33-1.63-2.04-2.5-.14-.18-.29-.36-.44-.55-.21-.27-.43-.54-.65-.81-1.13-1.41-2.3-2.88-3.46-4.37-.36-.46-.71-.91-1.06-1.37-1.03-1.34-2.04-2.68-3.01-3.99-.1-.14-.21-.29-.31-.43-.34-.46-.68-.93-1-1.38-.47-.66-.92-1.31-1.36-1.94-.49-.71-.95-1.4-1.38-2.05-.32-.49-.62-.96-.89-1.41-.82-1.35-1.44-2.52-1.8-3.45-.23-.59-.43-1.18-.61-1.79-.16-.51-.31-1.02-.44-1.54-.42-1.68-.7-3.39-.84-5.09-.04-.55-.08-1.09-.09-1.63-.05-1.57,0-3.13.18-4.64.02-.25.06-.5.09-.74.08-.58.17-1.16.28-1.73.08-.43.17-.85.27-1.27.37-1.6.87-3.12,1.48-4.52.28-.66.6-1.3.94-1.91.25-.46.51-.89.79-1.31.38-.57.79-1.11,1.22-1.61,1.29-1.5,2.78-2.63,4.43-3.25.26-.1.53-.18.81-.26.24-.07.49-.12.73-.16,1.73-.31,3.57-.12,5.45.49.62.2,1.24.45,1.86.74.51.24,1.02.51,1.53.8.61.35,1.21.74,1.79,1.17.86.63,1.71,1.32,2.52,2.09.67.63,1.32,1.3,1.95,2.01.13.14.25.29.37.43.25.3.5.61.74.92,1.09,1.39,2.09,2.91,2.95,4.51.25.48.5.96.73,1.46.73,1.54,1.34,3.16,1.78,4.83.14.51.26,1.03.38,1.55h0Z"/>
    <path class="cls-1" d="M186.41,252.25l10.58-2.88.77,2.82-10.58,2.88-.77-2.82Z"/>
    <path class="cls-10" d="M188.4,254.74l8.12-2.21,7.23,26.6-8.12,2.21-7.23-26.6Z"/>
    <path class="cls-9" d="M68.82,488.64c-.08-.54-.17-1.06-.27-1.58l-7.14,1.94-1.35-4.95,7.09-1.93c-.19-.51-.38-1.01-.59-1.49l-6.91,1.88-1.35-4.95,5.81-1.58-.94-1.4-5.29,1.44-1.35-4.95,2.92-.79c-.46-.44-.94-.87-1.42-1.27l-1.92.52-.66-2.44c-.65-.42-1.31-.81-1.97-1.16l1.09,4.02-2.43.66c-1.09.3-2.22-.35-2.52-1.44l-.66-2.43,3.99-1.08c-.77-.39-1.56-.73-2.36-1.02l-2.05.56-.35-1.27c-.58-.13-1.16-.24-1.74-.31l.54,2-4.95,1.35-.86-3.17c-.26.05-.52.12-.77.19s-.51.15-.77.23l.86,3.17-4.95,1.35-.54-2c-.46.36-.91.75-1.34,1.17l.34,1.24-1.98.54c-.53.64-1.02,1.33-1.48,2.06l3.89-1.06.68,2.49c.29,1.06-.34,2.15-1.39,2.43l-3.04.83-.92-3.39c-.38.7-.74,1.42-1.07,2.17l.45,1.64-1.22.33c-.21.59-.4,1.19-.57,1.81l2.21-.6,1.35,4.95-4.55,1.24c-.05.55-.08,1.12-.11,1.68l5.08-1.38,1.35,4.95-6.21,1.69c.06.53.14,1.06.22,1.59l6.4-1.74,1.35,4.95-6.54,1.78c.16.5.33,1.01.52,1.51l6.44-1.75,1.49,5.49-5.27,1.43c.28.46.58.93.9,1.41l4.03-.63,1.96,3.74-3.25.88,1,1.38,2.66-.72,1.35,4.95-.68.18c.35.45.71.91,1.06,1.37h.03s.02.07.02.07c.83,1.06,1.68,2.13,2.52,3.18l-1-3.68,4.95-1.35,1.35,4.95-4.39,1.19c.37.46.74.91,1.1,1.36l3.71-1.01,1.35,4.95-1.48.4c.39.46.76.91,1.13,1.35l.76-.21.45,1.64,2.44,2.87-1.34-4.93,4.95-1.35,2.55,9.37,1.54-.42-2.55-9.37,4.95-1.35,1.26,4.62.65-3.69-.37-1.35.62-.17c.1-.57.2-1.15.29-1.74l-1.34.36-1.35-4.95,3.58-.97.27-1.73-4.26,1.16-1.35-4.95,4.41-1.2,1.25,4.61c.2-1.31.39-2.64.58-3.97l-.29-1.06.45-.12.23-1.72-1.1.3-1.35-4.95,3.1-.84.17-1.7-3.69,1c-.66-2.43.78-4.94,3.21-5.61l.85-.23c.03-.58.06-1.14.07-1.68l-5.75,1.56-1.49-5.49,7-1.9h0ZM59.86,489.42l-4.41,1.2-1.35-4.95,4.41-1.2,1.35,4.95ZM59.21,510.51l-4.95,1.35-1.35-4.95,4.95-1.35,1.35,4.95ZM44.81,502.72l4.95-1.35,1.2,4.41-4.95,1.35-1.2-4.41ZM45.44,479.4l-1.35-4.95,4.95-1.35,1.35,4.95-4.95,1.35ZM50.8,479.6l1.35,4.95-4.95,1.35-1.35-4.95,4.95-1.35ZM43.89,479.82l-4.95,1.35-1.35-4.95,4.95-1.35,1.35,4.95ZM44.31,481.36l1.35,4.95-4.95,1.35-1.35-4.95,4.95-1.35ZM46.08,487.86l1.35,4.95-4.95,1.35-1.35-4.95,4.95-1.35ZM47.84,494.35l1.49,5.49-4.95,1.35-1.49-5.49,4.95-1.35ZM51.37,507.33l1.35,4.95-4.95,1.35-1.35-4.95,4.95-1.35ZM52.49,505.37l-1.2-4.41,4.95-1.35,1.2,4.41-4.95,1.35ZM50.88,499.42l-1.49-5.49,4.95-1.35,1.49,5.49-4.95,1.35ZM48.97,492.38l-1.35-4.95,4.95-1.35,1.35,4.95-4.95,1.35ZM58.1,482.93l-4.41,1.2-1.35-4.95,4.41-1.2,1.35,4.95ZM54.99,471.49l1.35,4.95-4.41,1.2-1.35-4.95,4.41-1.2ZM47.42,467.16l1.2,4.41-4.95,1.35-1.2-4.41,4.95-1.35ZM35.98,470.27l4.95-1.35,1.2,4.41-4.95,1.35-1.2-4.41ZM31.11,477.98l4.95-1.35,1.35,4.95-4.95,1.35-1.35-4.95ZM32.87,484.47l4.95-1.35,1.35,4.95-4.95,1.35-1.35-4.95ZM34.64,490.96l4.95-1.35,1.35,4.95-4.95,1.35-1.35-4.95ZM36.4,497.46l4.95-1.35,1.49,5.49-4.95,1.35-1.49-5.49ZM43.26,503.14l1.2,4.41-4.95,1.35-1.2-4.41,4.95-1.35ZM41.28,515.38l-1.35-4.95,4.95-1.35,1.35,4.95-4.95,1.35ZM48.19,515.16l4.95-1.35,1.35,4.95-4.95,1.35-1.35-4.95ZM51.3,526.6l-1.35-4.95,4.95-1.35,1.35,4.95-4.95,1.35ZM62.74,523.49l-4.95,1.35-1.35-4.95,4.95-1.35,1.35,4.95ZM60.97,517l-4.95,1.35-1.35-4.95,4.95-1.35,1.35,4.95ZM60.75,510.09l-1.35-4.95,4.41-1.2,1.35,4.95-4.41,1.2ZM63.39,502.4l-4.41,1.2-1.2-4.41,4.41-1.2,1.2,4.41ZM61.77,496.45l-4.41,1.2-1.49-5.49,4.41-1.2,1.49,5.49Z"/>
    <path class="cls-9" d="M67.14,482.13c-.19-.51-.38-1.01-.59-1.49-.7-1.65-1.53-3.2-2.45-4.65l-.94-1.4c-1.13-1.59-2.38-3.03-3.71-4.3-.46-.44-.94-.87-1.42-1.27-.84-.7-1.7-1.34-2.58-1.92-.65-.42-1.31-.81-1.97-1.16-.18-.09-.35-.18-.53-.27-.77-.39-1.56-.73-2.36-1.02-.79-.3-1.6-.53-2.4-.71-.58-.13-1.16-.24-1.74-.31-1.8-.24-3.57-.19-5.27.17-.26.05-.52.12-.77.19s-.51.15-.77.23c-1.65.55-3.21,1.41-4.63,2.52-.46.36-.91.75-1.34,1.17-.58.55-1.12,1.14-1.65,1.78-.53.64-1.02,1.33-1.48,2.06-.27.42-.53.86-.78,1.31-.38.7-.74,1.42-1.07,2.17-.28.64-.54,1.3-.78,1.98-.21.59-.4,1.19-.57,1.81-.49,1.77-.83,3.64-1,5.59-.05.55-.08,1.12-.11,1.68-.06,1.71,0,3.47.21,5.26.06.53.14,1.06.22,1.59.27,1.65.67,3.31,1.2,4.99.16.5.33,1.01.52,1.51.06.18.13.35.2.53.48,1.25,1.33,2.84,2.46,4.64.28.46.58.93.9,1.41.82,1.26,1.75,2.6,2.75,3.99l1,1.38c1.06,1.43,2.18,2.92,3.33,4.41.35.45.71.91,1.06,1.37.02.02.03.04.05.07.83,1.06,1.68,2.13,2.52,3.18.3.38.6.75.9,1.12.37.46.74.91,1.1,1.36,1.23,1.5,2.43,2.96,3.58,4.34.39.46.76.91,1.13,1.35.41.49.82.97,1.21,1.44l2.44,2.87c2.58,3.01,4.28,4.93,4.28,4.93l5.82-1.58s.52-2.66,1.26-6.77l.65-3.69c.08-.5.17-1,.25-1.52.1-.57.2-1.15.29-1.74.3-1.77.6-3.64.89-5.56l.27-1.73c.02-.12.04-.25.05-.38.2-1.31.39-2.64.58-3.97.06-.39.11-.79.16-1.18l.23-1.72c.25-1.87.47-3.72.66-5.49l.17-1.7c.16-1.71.29-3.33.38-4.84.03-.58.06-1.14.07-1.68.07-2.11.03-3.91-.16-5.27-.03-.19-.06-.38-.09-.56-.08-.54-.17-1.06-.27-1.58-.35-1.72-.83-3.36-1.4-4.93ZM64.59,489.79c.13.61.24,1.24.33,1.87.14,1,.19,2.33.16,3.89,0,.53-.02,1.09-.05,1.67-.06,1.29-.14,2.7-.26,4.18-.01.21-.03.42-.05.63-.05.56-.1,1.12-.14,1.69-.07.74-.14,1.48-.22,2.24-.11,1.06-.22,2.15-.35,3.23-.07.57-.13,1.14-.2,1.71-.23,1.87-.46,3.73-.7,5.5-.07.54-.14,1.07-.22,1.6,0,.04,0,.08-.01.12-.19,1.37-.37,2.68-.55,3.89-.08.57-.16,1.12-.24,1.64-.09.61-.18,1.19-.26,1.73-.42,2.76-.7,4.51-.7,4.51l-4.81,1.31s-1.16-1.35-2.96-3.51c-.35-.42-.73-.87-1.13-1.35-.48-.58-.99-1.2-1.52-1.85-.65-.79-1.33-1.63-2.04-2.5-.14-.18-.29-.36-.44-.55-.21-.27-.43-.54-.65-.81-1.13-1.41-2.3-2.88-3.46-4.37-.36-.46-.71-.91-1.06-1.37-1.03-1.34-2.04-2.68-3.01-3.99-.1-.14-.21-.29-.31-.43-.34-.46-.68-.93-1-1.38-.47-.66-.92-1.31-1.36-1.94-.49-.71-.95-1.4-1.38-2.05-.32-.49-.62-.96-.89-1.41-.82-1.35-1.44-2.52-1.8-3.45-.23-.59-.43-1.18-.61-1.79-.16-.51-.31-1.02-.44-1.54-.42-1.68-.7-3.39-.84-5.09-.04-.55-.08-1.09-.09-1.63-.05-1.57,0-3.13.18-4.64.02-.25.06-.5.09-.74.08-.58.17-1.16.28-1.73.08-.43.17-.85.27-1.27.37-1.6.87-3.12,1.48-4.52.28-.66.6-1.3.94-1.91.25-.46.51-.89.79-1.31.38-.57.79-1.11,1.22-1.61,1.29-1.5,2.78-2.63,4.43-3.25.26-.1.53-.18.81-.26.24-.07.49-.12.73-.16,1.73-.31,3.57-.12,5.45.49.62.2,1.24.45,1.86.74.51.24,1.02.51,1.53.8.61.35,1.21.74,1.79,1.17.86.63,1.71,1.32,2.52,2.09.67.63,1.32,1.3,1.95,2.01.13.14.25.29.37.43.25.3.5.61.74.92,1.09,1.39,2.09,2.91,2.95,4.51.25.48.5.96.73,1.46.73,1.54,1.34,3.16,1.78,4.83.14.51.26,1.03.38,1.55h0Z"/>
    <path class="cls-1" d="M54.41,537.25l10.58-2.88.77,2.82-10.58,2.88-.77-2.82Z"/>
    <path class="cls-10" d="M56.4,539.74l8.12-2.21,7.23,26.6-8.12,2.21-7.23-26.6Z"/>
    <path class="cls-9" d="M943.82,369.64c-.08-.54-.17-1.06-.27-1.58l-7.14,1.94-1.35-4.95,7.09-1.93c-.19-.51-.38-1.01-.59-1.49l-6.91,1.88-1.35-4.95,5.81-1.58-.94-1.4-5.29,1.44-1.35-4.95,2.92-.79c-.46-.44-.94-.87-1.42-1.27l-1.92.52-.66-2.44c-.65-.42-1.31-.81-1.97-1.16l1.09,4.02-2.43.66c-1.09.3-2.22-.35-2.52-1.44l-.66-2.43,3.99-1.08c-.77-.39-1.56-.73-2.36-1.02l-2.05.56-.35-1.27c-.58-.13-1.16-.24-1.74-.31l.54,2-4.95,1.35-.86-3.17c-.26.05-.52.12-.77.19s-.51.15-.77.23l.86,3.17-4.95,1.35-.54-2c-.46.36-.91.75-1.34,1.17l.34,1.24-1.98.54c-.53.64-1.02,1.33-1.48,2.06l3.89-1.06.68,2.49c.29,1.06-.34,2.15-1.39,2.43l-3.04.83-.92-3.39c-.38.7-.74,1.42-1.07,2.17l.45,1.64-1.22.33c-.21.59-.4,1.19-.57,1.81l2.21-.6,1.35,4.95-4.55,1.24c-.05.55-.08,1.12-.11,1.68l5.08-1.38,1.35,4.95-6.21,1.69c.06.53.14,1.06.22,1.59l6.4-1.74,1.35,4.95-6.54,1.78c.16.5.33,1.01.52,1.51l6.44-1.75,1.49,5.49-5.27,1.43c.28.46.58.93.9,1.41l4.03-.63,1.96,3.74-3.25.88,1,1.38,2.66-.72,1.35,4.95-.68.18c.35.45.71.91,1.06,1.37h.03s.02.07.02.07c.83,1.06,1.68,2.13,2.52,3.18l-1-3.68,4.95-1.35,1.35,4.95-4.39,1.19c.37.46.74.91,1.1,1.36l3.71-1.01,1.35,4.95-1.48.4c.39.46.76.91,1.13,1.35l.76-.21.45,1.64,2.44,2.87-1.34-4.93,4.95-1.35,2.55,9.37,1.54-.42-2.55-9.37,4.95-1.35,1.26,4.62.65-3.69-.37-1.35.62-.17c.1-.57.2-1.15.29-1.74l-1.34.36-1.35-4.95,3.58-.97.27-1.73-4.26,1.16-1.35-4.95,4.41-1.2,1.25,4.61c.2-1.31.39-2.64.58-3.97l-.29-1.06.45-.12.23-1.72-1.1.3-1.35-4.95,3.1-.84.17-1.7-3.69,1c-.66-2.43.78-4.94,3.21-5.61l.85-.23c.03-.58.06-1.14.07-1.68l-5.75,1.56-1.49-5.49,7-1.9h0ZM934.86,370.42l-4.41,1.2-1.35-4.95,4.41-1.2,1.35,4.95ZM934.21,391.51l-4.95,1.35-1.35-4.95,4.95-1.35,1.35,4.95ZM919.81,383.72l4.95-1.35,1.2,4.41-4.95,1.35-1.2-4.41ZM920.44,360.4l-1.35-4.95,4.95-1.35,1.35,4.95-4.95,1.35ZM925.8,360.6l1.35,4.95-4.95,1.35-1.35-4.95,4.95-1.35ZM918.89,360.82l-4.95,1.35-1.35-4.95,4.95-1.35,1.35,4.95ZM919.31,362.36l1.35,4.95-4.95,1.35-1.35-4.95,4.95-1.35ZM921.08,368.86l1.35,4.95-4.95,1.35-1.35-4.95,4.95-1.35ZM922.84,375.35l1.49,5.49-4.95,1.35-1.49-5.49,4.95-1.35ZM926.37,388.33l1.35,4.95-4.95,1.35-1.35-4.95,4.95-1.35ZM927.49,386.37l-1.2-4.41,4.95-1.35,1.2,4.41-4.95,1.35ZM925.88,380.42l-1.49-5.49,4.95-1.35,1.49,5.49-4.95,1.35ZM923.97,373.38l-1.35-4.95,4.95-1.35,1.35,4.95-4.95,1.35ZM933.1,363.93l-4.41,1.2-1.35-4.95,4.41-1.2,1.35,4.95ZM929.99,352.49l1.35,4.95-4.41,1.2-1.35-4.95,4.41-1.2ZM922.42,348.16l1.2,4.41-4.95,1.35-1.2-4.41,4.95-1.35ZM910.98,351.27l4.95-1.35,1.2,4.41-4.95,1.35-1.2-4.41ZM906.11,358.98l4.95-1.35,1.35,4.95-4.95,1.35-1.35-4.95ZM907.87,365.47l4.95-1.35,1.35,4.95-4.95,1.35-1.35-4.95ZM909.64,371.96l4.95-1.35,1.35,4.95-4.95,1.35-1.35-4.95ZM911.4,378.46l4.95-1.35,1.49,5.49-4.95,1.35-1.49-5.49ZM918.26,384.14l1.2,4.41-4.95,1.35-1.2-4.41,4.95-1.35ZM916.28,396.38l-1.35-4.95,4.95-1.35,1.35,4.95-4.95,1.35ZM923.19,396.16l4.95-1.35,1.35,4.95-4.95,1.35-1.35-4.95ZM926.3,407.6l-1.35-4.95,4.95-1.35,1.35,4.95-4.95,1.35ZM937.74,404.49l-4.95,1.35-1.35-4.95,4.95-1.35,1.35,4.95ZM935.97,398l-4.95,1.35-1.35-4.95,4.95-1.35,1.35,4.95ZM935.75,391.09l-1.35-4.95,4.41-1.2,1.35,4.95-4.41,1.2ZM938.39,383.4l-4.41,1.2-1.2-4.41,4.41-1.2,1.2,4.41ZM936.77,377.45l-4.41,1.2-1.49-5.49,4.41-1.2,1.49,5.49Z"/>
    <path class="cls-9" d="M942.14,363.13c-.19-.51-.38-1.01-.59-1.49-.7-1.65-1.53-3.2-2.45-4.65l-.94-1.4c-1.13-1.59-2.38-3.03-3.71-4.3-.46-.44-.94-.87-1.42-1.27-.84-.7-1.7-1.34-2.58-1.92-.65-.42-1.31-.81-1.97-1.16-.18-.09-.35-.18-.53-.27-.77-.39-1.56-.73-2.36-1.02-.79-.3-1.6-.53-2.4-.71-.58-.13-1.16-.24-1.74-.31-1.8-.24-3.57-.19-5.27.17-.26.05-.52.12-.77.19s-.51.15-.77.23c-1.65.55-3.21,1.41-4.63,2.52-.46.36-.91.75-1.34,1.17-.58.55-1.12,1.14-1.65,1.78-.53.64-1.02,1.33-1.48,2.06-.27.42-.53.86-.78,1.31-.38.7-.74,1.42-1.07,2.17-.28.64-.54,1.3-.78,1.98-.21.59-.4,1.19-.57,1.81-.49,1.77-.83,3.64-1,5.59-.05.55-.08,1.12-.11,1.68-.06,1.71,0,3.47.21,5.26.06.53.14,1.06.22,1.59.27,1.65.67,3.31,1.2,4.99.16.5.33,1.01.52,1.51.06.18.13.35.2.53.48,1.25,1.33,2.84,2.46,4.64.28.46.58.93.9,1.41.82,1.26,1.75,2.6,2.75,3.99l1,1.38c1.06,1.43,2.18,2.92,3.33,4.41.35.45.71.91,1.06,1.37.02.02.03.04.05.07.83,1.06,1.68,2.13,2.52,3.18.3.38.6.75.9,1.12.37.46.74.91,1.1,1.36,1.23,1.5,2.43,2.96,3.58,4.34.39.46.76.91,1.13,1.35.41.49.82.97,1.21,1.44l2.44,2.87c2.58,3.01,4.28,4.93,4.28,4.93l5.82-1.58s.52-2.66,1.26-6.77l.65-3.69c.08-.5.17-1,.25-1.52.1-.57.2-1.15.29-1.74.3-1.77.6-3.64.89-5.56l.27-1.73c.02-.12.04-.25.05-.38.2-1.31.39-2.64.58-3.97.06-.39.11-.79.16-1.18l.23-1.72c.25-1.87.47-3.72.66-5.49l.17-1.7c.16-1.71.29-3.33.38-4.84.03-.58.06-1.14.07-1.68.07-2.11.03-3.91-.16-5.27-.03-.19-.06-.38-.09-.56-.08-.54-.17-1.06-.27-1.58-.35-1.72-.83-3.36-1.4-4.93ZM939.59,370.79c.13.61.24,1.24.33,1.87.14,1,.19,2.33.16,3.89,0,.53-.02,1.09-.05,1.67-.06,1.29-.14,2.7-.26,4.18-.01.21-.03.42-.05.63-.05.56-.1,1.12-.14,1.69-.07.74-.14,1.48-.22,2.24-.11,1.06-.22,2.15-.35,3.23-.07.57-.13,1.14-.2,1.71-.23,1.87-.46,3.73-.7,5.5-.07.54-.14,1.07-.22,1.6,0,.04,0,.08-.01.12-.19,1.37-.37,2.68-.55,3.89-.08.57-.16,1.12-.24,1.64-.09.61-.18,1.19-.26,1.73-.42,2.76-.7,4.51-.7,4.51l-4.81,1.31s-1.16-1.35-2.96-3.51c-.35-.42-.73-.87-1.13-1.35-.48-.58-.99-1.2-1.52-1.85-.65-.79-1.33-1.63-2.04-2.5-.14-.18-.29-.36-.44-.55-.21-.27-.43-.54-.65-.81-1.13-1.41-2.3-2.88-3.46-4.37-.36-.46-.71-.91-1.06-1.37-1.03-1.34-2.04-2.68-3.01-3.99-.1-.14-.21-.29-.31-.43-.34-.46-.68-.93-1-1.38-.47-.66-.92-1.31-1.36-1.94-.49-.71-.95-1.4-1.38-2.05-.32-.49-.62-.96-.89-1.41-.82-1.35-1.44-2.52-1.8-3.45-.23-.59-.43-1.18-.61-1.79-.16-.51-.31-1.02-.44-1.54-.42-1.68-.7-3.39-.84-5.09-.04-.55-.08-1.09-.09-1.63-.05-1.57,0-3.13.18-4.64.02-.25.06-.5.09-.74.08-.58.17-1.16.28-1.73.08-.43.17-.85.27-1.27.37-1.6.87-3.12,1.48-4.52.28-.66.6-1.3.94-1.91.25-.46.51-.89.79-1.31.38-.57.79-1.11,1.22-1.61,1.29-1.5,2.78-2.63,4.43-3.25.26-.1.53-.18.81-.26.24-.07.49-.12.73-.16,1.73-.31,3.57-.12,5.45.49.62.2,1.24.45,1.86.74.51.24,1.02.51,1.53.8.61.35,1.21.74,1.79,1.17.86.63,1.71,1.32,2.52,2.09.67.63,1.32,1.3,1.95,2.01.13.14.25.29.37.43.25.3.5.61.74.92,1.09,1.39,2.09,2.91,2.95,4.51.25.48.5.96.73,1.46.73,1.54,1.34,3.16,1.78,4.83.14.51.26,1.03.38,1.55h0Z"/>
    <path class="cls-1" d="M929.41,418.25l10.58-2.88.77,2.82-10.58,2.88-.77-2.82Z"/>
    <path class="cls-10" d="M931.4,420.74l8.12-2.21,7.23,26.6-8.12,2.21-7.23-26.6Z"/>
    <path class="cls-9" d="M469.82,521.64c-.08-.54-.17-1.06-.27-1.58l-7.14,1.94-1.35-4.95,7.09-1.93c-.19-.51-.38-1.01-.59-1.49l-6.91,1.88-1.35-4.95,5.81-1.58-.94-1.4-5.29,1.44-1.35-4.95,2.92-.79c-.46-.44-.94-.87-1.42-1.27l-1.92.52-.66-2.44c-.65-.42-1.31-.81-1.97-1.16l1.09,4.02-2.43.66c-1.09.3-2.22-.35-2.52-1.44l-.66-2.43,3.99-1.08c-.77-.39-1.56-.73-2.36-1.02l-2.05.56-.35-1.27c-.58-.13-1.16-.24-1.74-.31l.54,2-4.95,1.35-.86-3.17c-.26.05-.52.12-.77.19s-.51.15-.77.23l.86,3.17-4.95,1.35-.54-2c-.46.36-.91.75-1.34,1.17l.34,1.24-1.98.54c-.53.64-1.02,1.33-1.48,2.06l3.89-1.06.68,2.49c.29,1.06-.34,2.15-1.39,2.43l-3.04.83-.92-3.39c-.38.7-.74,1.42-1.07,2.17l.45,1.64-1.22.33c-.21.59-.4,1.19-.57,1.81l2.21-.6,1.35,4.95-4.55,1.24c-.05.55-.08,1.12-.11,1.68l5.08-1.38,1.35,4.95-6.21,1.69c.06.53.14,1.06.22,1.59l6.4-1.74,1.35,4.95-6.54,1.78c.16.5.33,1.01.52,1.51l6.44-1.75,1.49,5.49-5.27,1.43c.28.46.58.93.9,1.41l4.03-.63,1.96,3.74-3.25.88,1,1.38,2.66-.72,1.35,4.95-.68.18c.35.45.71.91,1.06,1.37h.03s.02.07.02.07c.83,1.06,1.68,2.13,2.52,3.18l-1-3.68,4.95-1.35,1.35,4.95-4.39,1.19c.37.46.74.91,1.1,1.36l3.71-1.01,1.35,4.95-1.48.4c.39.46.76.91,1.13,1.35l.76-.21.45,1.64,2.44,2.87-1.34-4.93,4.95-1.35,2.55,9.37,1.54-.42-2.55-9.37,4.95-1.35,1.26,4.62.65-3.69-.37-1.35.62-.17c.1-.57.2-1.15.29-1.74l-1.34.36-1.35-4.95,3.58-.97.27-1.73-4.26,1.16-1.35-4.95,4.41-1.2,1.25,4.61c.2-1.31.39-2.64.58-3.97l-.29-1.06.45-.12.23-1.72-1.1.3-1.35-4.95,3.1-.84.17-1.7-3.69,1c-.66-2.43.78-4.94,3.21-5.61l.85-.23c.03-.58.06-1.14.07-1.68l-5.75,1.56-1.49-5.49,7-1.9h0ZM460.86,522.42l-4.41,1.2-1.35-4.95,4.41-1.2,1.35,4.95ZM460.21,543.51l-4.95,1.35-1.35-4.95,4.95-1.35,1.35,4.95ZM445.81,535.72l4.95-1.35,1.2,4.41-4.95,1.35-1.2-4.41ZM446.44,512.4l-1.35-4.95,4.95-1.35,1.35,4.95-4.95,1.35ZM451.8,512.6l1.35,4.95-4.95,1.35-1.35-4.95,4.95-1.35ZM444.89,512.82l-4.95,1.35-1.35-4.95,4.95-1.35,1.35,4.95ZM445.31,514.36l1.35,4.95-4.95,1.35-1.35-4.95,4.95-1.35ZM447.08,520.86l1.35,4.95-4.95,1.35-1.35-4.95,4.95-1.35ZM448.84,527.35l1.49,5.49-4.95,1.35-1.49-5.49,4.95-1.35ZM452.37,540.33l1.35,4.95-4.95,1.35-1.35-4.95,4.95-1.35ZM453.49,538.37l-1.2-4.41,4.95-1.35,1.2,4.41-4.95,1.35ZM451.88,532.42l-1.49-5.49,4.95-1.35,1.49,5.49-4.95,1.35ZM449.97,525.38l-1.35-4.95,4.95-1.35,1.35,4.95-4.95,1.35ZM459.1,515.93l-4.41,1.2-1.35-4.95,4.41-1.2,1.35,4.95ZM455.99,504.49l1.35,4.95-4.41,1.2-1.35-4.95,4.41-1.2ZM448.42,500.16l1.2,4.41-4.95,1.35-1.2-4.41,4.95-1.35ZM436.98,503.27l4.95-1.35,1.2,4.41-4.95,1.35-1.2-4.41ZM432.11,510.98l4.95-1.35,1.35,4.95-4.95,1.35-1.35-4.95ZM433.87,517.47l4.95-1.35,1.35,4.95-4.95,1.35-1.35-4.95ZM435.64,523.96l4.95-1.35,1.35,4.95-4.95,1.35-1.35-4.95ZM437.4,530.46l4.95-1.35,1.49,5.49-4.95,1.35-1.49-5.49ZM444.26,536.14l1.2,4.41-4.95,1.35-1.2-4.41,4.95-1.35ZM442.28,548.38l-1.35-4.95,4.95-1.35,1.35,4.95-4.95,1.35ZM449.19,548.16l4.95-1.35,1.35,4.95-4.95,1.35-1.35-4.95ZM452.3,559.6l-1.35-4.95,4.95-1.35,1.35,4.95-4.95,1.35ZM463.74,556.49l-4.95,1.35-1.35-4.95,4.95-1.35,1.35,4.95ZM461.97,550l-4.95,1.35-1.35-4.95,4.95-1.35,1.35,4.95ZM461.75,543.09l-1.35-4.95,4.41-1.2,1.35,4.95-4.41,1.2ZM464.39,535.4l-4.41,1.2-1.2-4.41,4.41-1.2,1.2,4.41ZM462.77,529.45l-4.41,1.2-1.49-5.49,4.41-1.2,1.49,5.49Z"/>
    <path class="cls-9" d="M468.14,515.13c-.19-.51-.38-1.01-.59-1.49-.7-1.65-1.53-3.2-2.45-4.65l-.94-1.4c-1.13-1.59-2.38-3.03-3.71-4.3-.46-.44-.94-.87-1.42-1.27-.84-.7-1.7-1.34-2.58-1.92-.65-.42-1.31-.81-1.97-1.16-.18-.09-.35-.18-.53-.27-.77-.39-1.56-.73-2.36-1.02-.79-.3-1.6-.53-2.4-.71-.58-.13-1.16-.24-1.74-.31-1.8-.24-3.57-.19-5.27.17-.26.05-.52.12-.77.19s-.51.15-.77.23c-1.65.55-3.21,1.41-4.63,2.52-.46.36-.91.75-1.34,1.17-.58.55-1.12,1.14-1.65,1.78-.53.64-1.02,1.33-1.48,2.06-.27.42-.53.86-.78,1.31-.38.7-.74,1.42-1.07,2.17-.28.64-.54,1.3-.78,1.98-.21.59-.4,1.19-.57,1.81-.49,1.77-.83,3.64-1,5.59-.05.55-.08,1.12-.11,1.68-.06,1.71,0,3.47.21,5.26.06.53.14,1.06.22,1.59.27,1.65.67,3.31,1.2,4.99.16.5.33,1.01.52,1.51.06.18.13.35.2.53.48,1.25,1.33,2.84,2.46,4.64.28.46.58.93.9,1.41.82,1.26,1.75,2.6,2.75,3.99l1,1.38c1.06,1.43,2.18,2.92,3.33,4.41.35.45.71.91,1.06,1.37.02.02.03.04.05.07.83,1.06,1.68,2.13,2.52,3.18.3.38.6.75.9,1.12.37.46.74.91,1.1,1.36,1.23,1.5,2.43,2.96,3.58,4.34.39.46.76.91,1.13,1.35.41.49.82.97,1.21,1.44l2.44,2.87c2.58,3.01,4.28,4.93,4.28,4.93l5.82-1.58s.52-2.66,1.26-6.77l.65-3.69c.08-.5.17-1,.25-1.52.1-.57.2-1.15.29-1.74.3-1.77.6-3.64.89-5.56l.27-1.73c.02-.12.04-.25.05-.38.2-1.31.39-2.64.58-3.97.06-.39.11-.79.16-1.18l.23-1.72c.25-1.87.47-3.72.66-5.49l.17-1.7c.16-1.71.29-3.33.38-4.84.03-.58.06-1.14.07-1.68.07-2.11.03-3.91-.16-5.27-.03-.19-.06-.38-.09-.56-.08-.54-.17-1.06-.27-1.58-.35-1.72-.83-3.36-1.4-4.93ZM465.59,522.79c.13.61.24,1.24.33,1.87.14,1,.19,2.33.16,3.89,0,.53-.02,1.09-.05,1.67-.06,1.29-.14,2.7-.26,4.18-.01.21-.03.42-.05.63-.05.56-.1,1.12-.14,1.69-.07.74-.14,1.48-.22,2.24-.11,1.06-.22,2.15-.35,3.23-.07.57-.13,1.14-.2,1.71-.23,1.87-.46,3.73-.7,5.5-.07.54-.14,1.07-.22,1.6,0,.04,0,.08-.01.12-.19,1.37-.37,2.68-.55,3.89-.08.57-.16,1.12-.24,1.64-.09.61-.18,1.19-.26,1.73-.42,2.76-.7,4.51-.7,4.51l-4.81,1.31s-1.16-1.35-2.96-3.51c-.35-.42-.73-.87-1.13-1.35-.48-.58-.99-1.2-1.52-1.85-.65-.79-1.33-1.63-2.04-2.5-.14-.18-.29-.36-.44-.55-.21-.27-.43-.54-.65-.81-1.13-1.41-2.3-2.88-3.46-4.37-.36-.46-.71-.91-1.06-1.37-1.03-1.34-2.04-2.68-3.01-3.99-.1-.14-.21-.29-.31-.43-.34-.46-.68-.93-1-1.38-.47-.66-.92-1.31-1.36-1.94-.49-.71-.95-1.4-1.38-2.05-.32-.49-.62-.96-.89-1.41-.82-1.35-1.44-2.52-1.8-3.45-.23-.59-.43-1.18-.61-1.79-.16-.51-.31-1.02-.44-1.54-.42-1.68-.7-3.39-.84-5.09-.04-.55-.08-1.09-.09-1.63-.05-1.57,0-3.13.18-4.64.02-.25.06-.5.09-.74.08-.58.17-1.16.28-1.73.08-.43.17-.85.27-1.27.37-1.6.87-3.12,1.48-4.52.28-.66.6-1.3.94-1.91.25-.46.51-.89.79-1.31.38-.57.79-1.11,1.22-1.61,1.29-1.5,2.78-2.63,4.43-3.25.26-.1.53-.18.81-.26.24-.07.49-.12.73-.16,1.73-.31,3.57-.12,5.45.49.62.2,1.24.45,1.86.74.51.24,1.02.51,1.53.8.61.35,1.21.74,1.79,1.17.86.63,1.71,1.32,2.52,2.09.67.63,1.32,1.3,1.95,2.01.13.14.25.29.37.43.25.3.5.61.74.92,1.09,1.39,2.09,2.91,2.95,4.51.25.48.5.96.73,1.46.73,1.54,1.34,3.16,1.78,4.83.14.51.26,1.03.38,1.55h0Z"/>
    <path class="cls-1" d="M455.41,570.25l10.58-2.88.77,2.82-10.58,2.88-.77-2.82Z"/>
    <path class="cls-10" d="M457.4,572.74l8.12-2.21,7.23,26.6-8.12,2.21-7.23-26.6Z"/>
    <path class="cls-9" d="M1298.82,491.64c-.08-.54-.17-1.06-.27-1.58l-7.14,1.94-1.35-4.95,7.09-1.93c-.19-.51-.38-1.01-.59-1.49l-6.91,1.88-1.35-4.95,5.81-1.58-.94-1.4-5.29,1.44-1.35-4.95,2.92-.79c-.46-.44-.94-.87-1.42-1.27l-1.92.52-.66-2.44c-.65-.42-1.31-.81-1.97-1.16l1.09,4.02-2.43.66c-1.09.3-2.22-.35-2.52-1.44l-.66-2.43,3.99-1.08c-.77-.39-1.56-.73-2.36-1.02l-2.05.56-.35-1.27c-.58-.13-1.16-.24-1.74-.31l.54,2-4.95,1.35-.86-3.17c-.26.05-.52.12-.77.19s-.51.15-.77.23l.86,3.17-4.95,1.35-.54-2c-.46.36-.91.75-1.34,1.17l.34,1.24-1.98.54c-.53.64-1.02,1.33-1.48,2.06l3.89-1.06.68,2.49c.29,1.06-.34,2.15-1.39,2.43l-3.04.83-.92-3.39c-.38.7-.74,1.42-1.07,2.17l.45,1.64-1.22.33c-.21.59-.4,1.19-.57,1.81l2.21-.6,1.35,4.95-4.55,1.24c-.05.55-.08,1.12-.11,1.68l5.08-1.38,1.35,4.95-6.21,1.69c.06.53.14,1.06.22,1.59l6.4-1.74,1.35,4.95-6.54,1.78c.16.5.33,1.01.52,1.51l6.44-1.75,1.49,5.49-5.27,1.43c.28.46.58.93.9,1.41l4.03-.63,1.96,3.74-3.25.88,1,1.38,2.66-.72,1.35,4.95-.68.18c.35.45.71.91,1.06,1.37h.03s.02.07.02.07c.83,1.06,1.68,2.13,2.52,3.18l-1-3.68,4.95-1.35,1.35,4.95-4.39,1.19c.37.46.74.91,1.1,1.36l3.71-1.01,1.35,4.95-1.48.4c.39.46.76.91,1.13,1.35l.76-.21.45,1.64,2.44,2.87-1.34-4.93,4.95-1.35,2.55,9.37,1.54-.42-2.55-9.37,4.95-1.35,1.26,4.62.65-3.69-.37-1.35.62-.17c.1-.57.2-1.15.29-1.74l-1.34.36-1.35-4.95,3.58-.97.27-1.73-4.26,1.16-1.35-4.95,4.41-1.2,1.25,4.61c.2-1.31.39-2.64.58-3.97l-.29-1.06.45-.12.23-1.72-1.1.3-1.35-4.95,3.1-.84.17-1.7-3.69,1c-.66-2.43.78-4.94,3.21-5.61l.85-.23c.03-.58.06-1.14.07-1.68l-5.75,1.56-1.49-5.49,7-1.9h0ZM1289.86,492.42l-4.41,1.2-1.35-4.95,4.41-1.2,1.35,4.95ZM1289.21,513.51l-4.95,1.35-1.35-4.95,4.95-1.35,1.35,4.95ZM1274.81,505.72l4.95-1.35,1.2,4.41-4.95,1.35-1.2-4.41ZM1275.44,482.4l-1.35-4.95,4.95-1.35,1.35,4.95-4.95,1.35ZM1280.8,482.6l1.35,4.95-4.95,1.35-1.35-4.95,4.95-1.35ZM1273.89,482.82l-4.95,1.35-1.35-4.95,4.95-1.35,1.35,4.95ZM1274.31,484.36l1.35,4.95-4.95,1.35-1.35-4.95,4.95-1.35ZM1276.08,490.86l1.35,4.95-4.95,1.35-1.35-4.95,4.95-1.35ZM1277.84,497.35l1.49,5.49-4.95,1.35-1.49-5.49,4.95-1.35ZM1281.37,510.33l1.35,4.95-4.95,1.35-1.35-4.95,4.95-1.35ZM1282.49,508.37l-1.2-4.41,4.95-1.35,1.2,4.41-4.95,1.35ZM1280.88,502.42l-1.49-5.49,4.95-1.35,1.49,5.49-4.95,1.35ZM1278.97,495.38l-1.35-4.95,4.95-1.35,1.35,4.95-4.95,1.35ZM1288.1,485.93l-4.41,1.2-1.35-4.95,4.41-1.2,1.35,4.95ZM1284.99,474.49l1.35,4.95-4.41,1.2-1.35-4.95,4.41-1.2ZM1277.42,470.16l1.2,4.41-4.95,1.35-1.2-4.41,4.95-1.35ZM1265.98,473.27l4.95-1.35,1.2,4.41-4.95,1.35-1.2-4.41ZM1261.11,480.98l4.95-1.35,1.35,4.95-4.95,1.35-1.35-4.95ZM1262.87,487.47l4.95-1.35,1.35,4.95-4.95,1.35-1.35-4.95ZM1264.64,493.96l4.95-1.35,1.35,4.95-4.95,1.35-1.35-4.95ZM1266.4,500.46l4.95-1.35,1.49,5.49-4.95,1.35-1.49-5.49ZM1273.26,506.14l1.2,4.41-4.95,1.35-1.2-4.41,4.95-1.35ZM1271.28,518.38l-1.35-4.95,4.95-1.35,1.35,4.95-4.95,1.35ZM1278.19,518.16l4.95-1.35,1.35,4.95-4.95,1.35-1.35-4.95ZM1281.3,529.6l-1.35-4.95,4.95-1.35,1.35,4.95-4.95,1.35ZM1292.74,526.49l-4.95,1.35-1.35-4.95,4.95-1.35,1.35,4.95ZM1290.97,520l-4.95,1.35-1.35-4.95,4.95-1.35,1.35,4.95ZM1290.75,513.09l-1.35-4.95,4.41-1.2,1.35,4.95-4.41,1.2ZM1293.39,505.4l-4.41,1.2-1.2-4.41,4.41-1.2,1.2,4.41ZM1291.77,499.45l-4.41,1.2-1.49-5.49,4.41-1.2,1.49,5.49Z"/>
    <path class="cls-9" d="M1297.14,485.13c-.19-.51-.38-1.01-.59-1.49-.7-1.65-1.53-3.2-2.45-4.65l-.94-1.4c-1.13-1.59-2.38-3.03-3.71-4.3-.46-.44-.94-.87-1.42-1.27-.84-.7-1.7-1.34-2.58-1.92-.65-.42-1.31-.81-1.97-1.16-.18-.09-.35-.18-.53-.27-.77-.39-1.56-.73-2.36-1.02-.79-.3-1.6-.53-2.4-.71-.58-.13-1.16-.24-1.74-.31-1.8-.24-3.57-.19-5.27.17-.26.05-.52.12-.77.19s-.51.15-.77.23c-1.65.55-3.21,1.41-4.63,2.52-.46.36-.91.75-1.34,1.17-.58.55-1.12,1.14-1.65,1.78-.53.64-1.02,1.33-1.48,2.06-.27.42-.53.86-.78,1.31-.38.7-.74,1.42-1.07,2.17-.28.64-.54,1.3-.78,1.98-.21.59-.4,1.19-.57,1.81-.49,1.77-.83,3.64-1,5.59-.05.55-.08,1.12-.11,1.68-.06,1.71,0,3.47.21,5.26.06.53.14,1.06.22,1.59.27,1.65.67,3.31,1.2,4.99.16.5.33,1.01.52,1.51.06.18.13.35.2.53.48,1.25,1.33,2.84,2.46,4.64.28.46.58.93.9,1.41.82,1.26,1.75,2.6,2.75,3.99l1,1.38c1.06,1.43,2.18,2.92,3.33,4.41.35.45.71.91,1.06,1.37.02.02.03.04.05.07.83,1.06,1.68,2.13,2.52,3.18.3.38.6.75.9,1.12.37.46.74.91,1.1,1.36,1.23,1.5,2.43,2.96,3.58,4.34.39.46.76.91,1.13,1.35.41.49.82.97,1.21,1.44l2.44,2.87c2.58,3.01,4.28,4.93,4.28,4.93l5.82-1.58s.52-2.66,1.26-6.77l.65-3.69c.08-.5.17-1,.25-1.52.1-.57.2-1.15.29-1.74.3-1.77.6-3.64.89-5.56l.27-1.73c.02-.12.04-.25.05-.38.2-1.31.39-2.64.58-3.97.06-.39.11-.79.16-1.18l.23-1.72c.25-1.87.47-3.72.66-5.49l.17-1.7c.16-1.71.29-3.33.38-4.84.03-.58.06-1.14.07-1.68.07-2.11.03-3.91-.16-5.27-.03-.19-.06-.38-.09-.56-.08-.54-.17-1.06-.27-1.58-.35-1.72-.83-3.36-1.4-4.93ZM1294.59,492.79c.13.61.24,1.24.33,1.87.14,1,.19,2.33.16,3.89,0,.53-.02,1.09-.05,1.67-.06,1.29-.14,2.7-.26,4.18-.01.21-.03.42-.05.63-.05.56-.1,1.12-.14,1.69-.07.74-.14,1.48-.22,2.24-.11,1.06-.22,2.15-.35,3.23-.07.57-.13,1.14-.2,1.71-.23,1.87-.46,3.73-.7,5.5-.07.54-.14,1.07-.22,1.6,0,.04,0,.08-.01.12-.19,1.37-.37,2.68-.55,3.89-.08.57-.16,1.12-.24,1.64-.09.61-.18,1.19-.26,1.73-.42,2.76-.7,4.51-.7,4.51l-4.81,1.31s-1.16-1.35-2.96-3.51c-.35-.42-.73-.87-1.13-1.35-.48-.58-.99-1.2-1.52-1.85-.65-.79-1.33-1.63-2.04-2.5-.14-.18-.29-.36-.44-.55-.21-.27-.43-.54-.65-.81-1.13-1.41-2.3-2.88-3.46-4.37-.36-.46-.71-.91-1.06-1.37-1.03-1.34-2.04-2.68-3.01-3.99-.1-.14-.21-.29-.31-.43-.34-.46-.68-.93-1-1.38-.47-.66-.92-1.31-1.36-1.94-.49-.71-.95-1.4-1.38-2.05-.32-.49-.62-.96-.89-1.41-.82-1.35-1.44-2.52-1.8-3.45-.23-.59-.43-1.18-.61-1.79-.16-.51-.31-1.02-.44-1.54-.42-1.68-.7-3.39-.84-5.09-.04-.55-.08-1.09-.09-1.63-.05-1.57,0-3.13.18-4.64.02-.25.06-.5.09-.74.08-.58.17-1.16.28-1.73.08-.43.17-.85.27-1.27.37-1.6.87-3.12,1.48-4.52.28-.66.6-1.3.94-1.91.25-.46.51-.89.79-1.31.38-.57.79-1.11,1.22-1.61,1.29-1.5,2.78-2.63,4.43-3.25.26-.1.53-.18.81-.26.24-.07.49-.12.73-.16,1.73-.31,3.57-.12,5.45.49.62.2,1.24.45,1.86.74.51.24,1.02.51,1.53.8.61.35,1.21.74,1.79,1.17.86.63,1.71,1.32,2.52,2.09.67.63,1.32,1.3,1.95,2.01.13.14.25.29.37.43.25.3.5.61.74.92,1.09,1.39,2.09,2.91,2.95,4.51.25.48.5.96.73,1.46.73,1.54,1.34,3.16,1.78,4.83.14.51.26,1.03.38,1.55h0Z"/>
    <path class="cls-1" d="M1284.41,540.25l10.58-2.88.77,2.82-10.58,2.88-.77-2.82Z"/>
    <path class="cls-10" d="M1286.4,542.74l8.12-2.21,7.23,26.6-8.12,2.21-7.23-26.6Z"/>
    <path class="cls-9" d="M878.82,585.64c-.08-.54-.17-1.06-.27-1.58l-7.14,1.94-1.35-4.95,7.09-1.93c-.19-.51-.38-1.01-.59-1.49l-6.91,1.88-1.35-4.95,5.81-1.58-.94-1.4-5.29,1.44-1.35-4.95,2.92-.79c-.46-.44-.94-.87-1.42-1.27l-1.92.52-.66-2.44c-.65-.42-1.31-.81-1.97-1.16l1.09,4.02-2.43.66c-1.09.3-2.22-.35-2.52-1.44l-.66-2.43,3.99-1.08c-.77-.39-1.56-.73-2.36-1.02l-2.05.56-.35-1.27c-.58-.13-1.16-.24-1.74-.31l.54,2-4.95,1.35-.86-3.17c-.26.05-.52.12-.77.19s-.51.15-.77.23l.86,3.17-4.95,1.35-.54-2c-.46.36-.91.75-1.34,1.17l.34,1.24-1.98.54c-.53.64-1.02,1.33-1.48,2.06l3.89-1.06.68,2.49c.29,1.06-.34,2.15-1.39,2.43l-3.04.83-.92-3.39c-.38.7-.74,1.42-1.07,2.17l.45,1.64-1.22.33c-.21.59-.4,1.19-.57,1.81l2.21-.6,1.35,4.95-4.55,1.24c-.05.55-.08,1.12-.11,1.68l5.08-1.38,1.35,4.95-6.21,1.69c.06.53.14,1.06.22,1.59l6.4-1.74,1.35,4.95-6.54,1.78c.16.5.33,1.01.52,1.51l6.44-1.75,1.49,5.49-5.27,1.43c.28.46.58.93.9,1.41l4.03-.63,1.96,3.74-3.25.88,1,1.38,2.66-.72,1.35,4.95-.68.18c.35.45.71.91,1.06,1.37h.03s.02.07.02.07c.83,1.06,1.68,2.13,2.52,3.18l-1-3.68,4.95-1.35,1.35,4.95-4.39,1.19c.37.46.74.91,1.1,1.36l3.71-1.01,1.35,4.95-1.48.4c.39.46.76.91,1.13,1.35l.76-.21.45,1.64,2.44,2.87-1.34-4.93,4.95-1.35,2.55,9.37,1.54-.42-2.55-9.37,4.95-1.35,1.26,4.62.65-3.69-.37-1.35.62-.17c.1-.57.2-1.15.29-1.74l-1.34.36-1.35-4.95,3.58-.97.27-1.73-4.26,1.16-1.35-4.95,4.41-1.2,1.25,4.61c.2-1.31.39-2.64.58-3.97l-.29-1.06.45-.12.23-1.72-1.1.3-1.35-4.95,3.1-.84.17-1.7-3.69,1c-.66-2.43.78-4.94,3.21-5.61l.85-.23c.03-.58.06-1.14.07-1.68l-5.75,1.56-1.49-5.49,7-1.9h0ZM869.86,586.42l-4.41,1.2-1.35-4.95,4.41-1.2,1.35,4.95ZM869.21,607.51l-4.95,1.35-1.35-4.95,4.95-1.35,1.35,4.95ZM854.81,599.72l4.95-1.35,1.2,4.41-4.95,1.35-1.2-4.41ZM855.44,576.4l-1.35-4.95,4.95-1.35,1.35,4.95-4.95,1.35ZM860.8,576.6l1.35,4.95-4.95,1.35-1.35-4.95,4.95-1.35ZM853.89,576.82l-4.95,1.35-1.35-4.95,4.95-1.35,1.35,4.95ZM854.31,578.36l1.35,4.95-4.95,1.35-1.35-4.95,4.95-1.35ZM856.08,584.86l1.35,4.95-4.95,1.35-1.35-4.95,4.95-1.35ZM857.84,591.35l1.49,5.49-4.95,1.35-1.49-5.49,4.95-1.35ZM861.37,604.33l1.35,4.95-4.95,1.35-1.35-4.95,4.95-1.35ZM862.49,602.37l-1.2-4.41,4.95-1.35,1.2,4.41-4.95,1.35ZM860.88,596.42l-1.49-5.49,4.95-1.35,1.49,5.49-4.95,1.35ZM858.97,589.38l-1.35-4.95,4.95-1.35,1.35,4.95-4.95,1.35ZM868.1,579.93l-4.41,1.2-1.35-4.95,4.41-1.2,1.35,4.95ZM864.99,568.49l1.35,4.95-4.41,1.2-1.35-4.95,4.41-1.2ZM857.42,564.16l1.2,4.41-4.95,1.35-1.2-4.41,4.95-1.35ZM845.98,567.27l4.95-1.35,1.2,4.41-4.95,1.35-1.2-4.41ZM841.11,574.98l4.95-1.35,1.35,4.95-4.95,1.35-1.35-4.95ZM842.87,581.47l4.95-1.35,1.35,4.95-4.95,1.35-1.35-4.95ZM844.64,587.96l4.95-1.35,1.35,4.95-4.95,1.35-1.35-4.95ZM846.4,594.46l4.95-1.35,1.49,5.49-4.95,1.35-1.49-5.49ZM853.26,600.14l1.2,4.41-4.95,1.35-1.2-4.41,4.95-1.35ZM851.28,612.38l-1.35-4.95,4.95-1.35,1.35,4.95-4.95,1.35ZM858.19,612.16l4.95-1.35,1.35,4.95-4.95,1.35-1.35-4.95ZM861.3,623.6l-1.35-4.95,4.95-1.35,1.35,4.95-4.95,1.35ZM872.74,620.49l-4.95,1.35-1.35-4.95,4.95-1.35,1.35,4.95ZM870.97,614l-4.95,1.35-1.35-4.95,4.95-1.35,1.35,4.95ZM870.75,607.09l-1.35-4.95,4.41-1.2,1.35,4.95-4.41,1.2ZM873.39,599.4l-4.41,1.2-1.2-4.41,4.41-1.2,1.2,4.41ZM871.77,593.45l-4.41,1.2-1.49-5.49,4.41-1.2,1.49,5.49Z"/>
    <path class="cls-9" d="M877.14,579.13c-.19-.51-.38-1.01-.59-1.49-.7-1.65-1.53-3.2-2.45-4.65l-.94-1.4c-1.13-1.59-2.38-3.03-3.71-4.3-.46-.44-.94-.87-1.42-1.27-.84-.7-1.7-1.34-2.58-1.92-.65-.42-1.31-.81-1.97-1.16-.18-.09-.35-.18-.53-.27-.77-.39-1.56-.73-2.36-1.02-.79-.3-1.6-.53-2.4-.71-.58-.13-1.16-.24-1.74-.31-1.8-.24-3.57-.19-5.27.17-.26.05-.52.12-.77.19s-.51.15-.77.23c-1.65.55-3.21,1.41-4.63,2.52-.46.36-.91.75-1.34,1.17-.58.55-1.12,1.14-1.65,1.78-.53.64-1.02,1.33-1.48,2.06-.27.42-.53.86-.78,1.31-.38.7-.74,1.42-1.07,2.17-.28.64-.54,1.3-.78,1.98-.21.59-.4,1.19-.57,1.81-.49,1.77-.83,3.64-1,5.59-.05.55-.08,1.12-.11,1.68-.06,1.71,0,3.47.21,5.26.06.53.14,1.06.22,1.59.27,1.65.67,3.31,1.2,4.99.16.5.33,1.01.52,1.51.06.18.13.35.2.53.48,1.25,1.33,2.84,2.46,4.64.28.46.58.93.9,1.41.82,1.26,1.75,2.6,2.75,3.99l1,1.38c1.06,1.43,2.18,2.92,3.33,4.41.35.45.71.91,1.06,1.37.02.02.03.04.05.07.83,1.06,1.68,2.13,2.52,3.18.3.38.6.75.9,1.12.37.46.74.91,1.1,1.36,1.23,1.5,2.43,2.96,3.58,4.34.39.46.76.91,1.13,1.35.41.49.82.97,1.21,1.44l2.44,2.87c2.58,3.01,4.28,4.93,4.28,4.93l5.82-1.58s.52-2.66,1.26-6.77l.65-3.69c.08-.5.17-1,.25-1.52.1-.57.2-1.15.29-1.74.3-1.77.6-3.64.89-5.56l.27-1.73c.02-.12.04-.25.05-.38.2-1.31.39-2.64.58-3.97.06-.39.11-.79.16-1.18l.23-1.72c.25-1.87.47-3.72.66-5.49l.17-1.7c.16-1.71.29-3.33.38-4.84.03-.58.06-1.14.07-1.68.07-2.11.03-3.91-.16-5.27-.03-.19-.06-.38-.09-.56-.08-.54-.17-1.06-.27-1.58-.35-1.72-.83-3.36-1.4-4.93ZM874.59,586.79c.13.61.24,1.24.33,1.87.14,1,.19,2.33.16,3.89,0,.53-.02,1.09-.05,1.67-.06,1.29-.14,2.7-.26,4.18-.01.21-.03.42-.05.63-.05.56-.1,1.12-.14,1.69-.07.74-.14,1.48-.22,2.24-.11,1.06-.22,2.15-.35,3.23-.07.57-.13,1.14-.2,1.71-.23,1.87-.46,3.73-.7,5.5-.07.54-.14,1.07-.22,1.6,0,.04,0,.08-.01.12-.19,1.37-.37,2.68-.55,3.89-.08.57-.16,1.12-.24,1.64-.09.61-.18,1.19-.26,1.73-.42,2.76-.7,4.51-.7,4.51l-4.81,1.31s-1.16-1.35-2.96-3.51c-.35-.42-.73-.87-1.13-1.35-.48-.58-.99-1.2-1.52-1.85-.65-.79-1.33-1.63-2.04-2.5-.14-.18-.29-.36-.44-.55-.21-.27-.43-.54-.65-.81-1.13-1.41-2.3-2.88-3.46-4.37-.36-.46-.71-.91-1.06-1.37-1.03-1.34-2.04-2.68-3.01-3.99-.1-.14-.21-.29-.31-.43-.34-.46-.68-.93-1-1.38-.47-.66-.92-1.31-1.36-1.94-.49-.71-.95-1.4-1.38-2.05-.32-.49-.62-.96-.89-1.41-.82-1.35-1.44-2.52-1.8-3.45-.23-.59-.43-1.18-.61-1.79-.16-.51-.31-1.02-.44-1.54-.42-1.68-.7-3.39-.84-5.09-.04-.55-.08-1.09-.09-1.63-.05-1.57,0-3.13.18-4.64.02-.25.06-.5.09-.74.08-.58.17-1.16.28-1.73.08-.43.17-.85.27-1.27.37-1.6.87-3.12,1.48-4.52.28-.66.6-1.3.94-1.91.25-.46.51-.89.79-1.31.38-.57.79-1.11,1.22-1.61,1.29-1.5,2.78-2.63,4.43-3.25.26-.1.53-.18.81-.26.24-.07.49-.12.73-.16,1.73-.31,3.57-.12,5.45.49.62.2,1.24.45,1.86.74.51.24,1.02.51,1.53.8.61.35,1.21.74,1.79,1.17.86.63,1.71,1.32,2.52,2.09.67.63,1.32,1.3,1.95,2.01.13.14.25.29.37.43.25.3.5.61.74.92,1.09,1.39,2.09,2.91,2.95,4.51.25.48.5.96.73,1.46.73,1.54,1.34,3.16,1.78,4.83.14.51.26,1.03.38,1.55h0Z"/>
    <path class="cls-1" d="M864.41,634.25l10.58-2.88.77,2.82-10.58,2.88-.77-2.82Z"/>
    <path class="cls-10" d="M866.4,636.74l8.12-2.21,7.23,26.6-8.12,2.21-7.23-26.6Z"/>
    <path class="cls-9" d="M702.82,511.64c-.08-.54-.17-1.06-.27-1.58l-7.14,1.94-1.35-4.95,7.09-1.93c-.19-.51-.38-1.01-.59-1.49l-6.91,1.88-1.35-4.95,5.81-1.58-.94-1.4-5.29,1.44-1.35-4.95,2.92-.79c-.46-.44-.94-.87-1.42-1.27l-1.92.52-.66-2.44c-.65-.42-1.31-.81-1.97-1.16l1.09,4.02-2.43.66c-1.09.3-2.22-.35-2.52-1.44l-.66-2.43,3.99-1.08c-.77-.39-1.56-.73-2.36-1.02l-2.05.56-.35-1.27c-.58-.13-1.16-.24-1.74-.31l.54,2-4.95,1.35-.86-3.17c-.26.05-.52.12-.77.19s-.51.15-.77.23l.86,3.17-4.95,1.35-.54-2c-.46.36-.91.75-1.34,1.17l.34,1.24-1.98.54c-.53.64-1.02,1.33-1.48,2.06l3.89-1.06.68,2.49c.29,1.06-.34,2.15-1.39,2.43l-3.04.83-.92-3.39c-.38.7-.74,1.42-1.07,2.17l.45,1.64-1.22.33c-.21.59-.4,1.19-.57,1.81l2.21-.6,1.35,4.95-4.55,1.24c-.05.55-.08,1.12-.11,1.68l5.08-1.38,1.35,4.95-6.21,1.69c.06.53.14,1.06.22,1.59l6.4-1.74,1.35,4.95-6.54,1.78c.16.5.33,1.01.52,1.51l6.44-1.75,1.49,5.49-5.27,1.43c.28.46.58.93.9,1.41l4.03-.63,1.96,3.74-3.25.88,1,1.38,2.66-.72,1.35,4.95-.68.18c.35.45.71.91,1.06,1.37h.03s.02.07.02.07c.83,1.06,1.68,2.13,2.52,3.18l-1-3.68,4.95-1.35,1.35,4.95-4.39,1.19c.37.46.74.91,1.1,1.36l3.71-1.01,1.35,4.95-1.48.4c.39.46.76.91,1.13,1.35l.76-.21.45,1.64,2.44,2.87-1.34-4.93,4.95-1.35,2.55,9.37,1.54-.42-2.55-9.37,4.95-1.35,1.26,4.62.65-3.69-.37-1.35.62-.17c.1-.57.2-1.15.29-1.74l-1.34.36-1.35-4.95,3.58-.97.27-1.73-4.26,1.16-1.35-4.95,4.41-1.2,1.25,4.61c.2-1.31.39-2.64.58-3.97l-.29-1.06.45-.12.23-1.72-1.1.3-1.35-4.95,3.1-.84.17-1.7-3.69,1c-.66-2.43.78-4.94,3.21-5.61l.85-.23c.03-.58.06-1.14.07-1.68l-5.75,1.56-1.49-5.49,7-1.9h0ZM693.86,512.42l-4.41,1.2-1.35-4.95,4.41-1.2,1.35,4.95ZM693.21,533.51l-4.95,1.35-1.35-4.95,4.95-1.35,1.35,4.95ZM678.81,525.72l4.95-1.35,1.2,4.41-4.95,1.35-1.2-4.41ZM679.44,502.4l-1.35-4.95,4.95-1.35,1.35,4.95-4.95,1.35ZM684.8,502.6l1.35,4.95-4.95,1.35-1.35-4.95,4.95-1.35ZM677.89,502.82l-4.95,1.35-1.35-4.95,4.95-1.35,1.35,4.95ZM678.31,504.36l1.35,4.95-4.95,1.35-1.35-4.95,4.95-1.35ZM680.08,510.86l1.35,4.95-4.95,1.35-1.35-4.95,4.95-1.35ZM681.84,517.35l1.49,5.49-4.95,1.35-1.49-5.49,4.95-1.35ZM685.37,530.33l1.35,4.95-4.95,1.35-1.35-4.95,4.95-1.35ZM686.49,528.37l-1.2-4.41,4.95-1.35,1.2,4.41-4.95,1.35ZM684.88,522.42l-1.49-5.49,4.95-1.35,1.49,5.49-4.95,1.35ZM682.97,515.38l-1.35-4.95,4.95-1.35,1.35,4.95-4.95,1.35ZM692.1,505.93l-4.41,1.2-1.35-4.95,4.41-1.2,1.35,4.95ZM688.99,494.49l1.35,4.95-4.41,1.2-1.35-4.95,4.41-1.2ZM681.42,490.16l1.2,4.41-4.95,1.35-1.2-4.41,4.95-1.35ZM669.98,493.27l4.95-1.35,1.2,4.41-4.95,1.35-1.2-4.41ZM665.11,500.98l4.95-1.35,1.35,4.95-4.95,1.35-1.35-4.95ZM666.87,507.47l4.95-1.35,1.35,4.95-4.95,1.35-1.35-4.95ZM668.64,513.96l4.95-1.35,1.35,4.95-4.95,1.35-1.35-4.95ZM670.4,520.46l4.95-1.35,1.49,5.49-4.95,1.35-1.49-5.49ZM677.26,526.14l1.2,4.41-4.95,1.35-1.2-4.41,4.95-1.35ZM675.28,538.38l-1.35-4.95,4.95-1.35,1.35,4.95-4.95,1.35ZM682.19,538.16l4.95-1.35,1.35,4.95-4.95,1.35-1.35-4.95ZM685.3,549.6l-1.35-4.95,4.95-1.35,1.35,4.95-4.95,1.35ZM696.74,546.49l-4.95,1.35-1.35-4.95,4.95-1.35,1.35,4.95ZM694.97,540l-4.95,1.35-1.35-4.95,4.95-1.35,1.35,4.95ZM694.75,533.09l-1.35-4.95,4.41-1.2,1.35,4.95-4.41,1.2ZM697.39,525.4l-4.41,1.2-1.2-4.41,4.41-1.2,1.2,4.41ZM695.77,519.45l-4.41,1.2-1.49-5.49,4.41-1.2,1.49,5.49Z"/>
    <path class="cls-9" d="M701.14,505.13c-.19-.51-.38-1.01-.59-1.49-.7-1.65-1.53-3.2-2.45-4.65l-.94-1.4c-1.13-1.59-2.38-3.03-3.71-4.3-.46-.44-.94-.87-1.42-1.27-.84-.7-1.7-1.34-2.58-1.92-.65-.42-1.31-.81-1.97-1.16-.18-.09-.35-.18-.53-.27-.77-.39-1.56-.73-2.36-1.02-.79-.3-1.6-.53-2.4-.71-.58-.13-1.16-.24-1.74-.31-1.8-.24-3.57-.19-5.27.17-.26.05-.52.12-.77.19s-.51.15-.77.23c-1.65.55-3.21,1.41-4.63,2.52-.46.36-.91.75-1.34,1.17-.58.55-1.12,1.14-1.65,1.78-.53.64-1.02,1.33-1.48,2.06-.27.42-.53.86-.78,1.31-.38.7-.74,1.42-1.07,2.17-.28.64-.54,1.3-.78,1.98-.21.59-.4,1.19-.57,1.81-.49,1.77-.83,3.64-1,5.59-.05.55-.08,1.12-.11,1.68-.06,1.71,0,3.47.21,5.26.06.53.14,1.06.22,1.59.27,1.65.67,3.31,1.2,4.99.16.5.33,1.01.52,1.51.06.18.13.35.2.53.48,1.25,1.33,2.84,2.46,4.64.28.46.58.93.9,1.41.82,1.26,1.75,2.6,2.75,3.99l1,1.38c1.06,1.43,2.18,2.92,3.33,4.41.35.45.71.91,1.06,1.37.02.02.03.04.05.07.83,1.06,1.68,2.13,2.52,3.18.3.38.6.75.9,1.12.37.46.74.91,1.1,1.36,1.23,1.5,2.43,2.96,3.58,4.34.39.46.76.91,1.13,1.35.41.49.82.97,1.21,1.44l2.44,2.87c2.58,3.01,4.28,4.93,4.28,4.93l5.82-1.58s.52-2.66,1.26-6.77l.65-3.69c.08-.5.17-1,.25-1.52.1-.57.2-1.15.29-1.74.3-1.77.6-3.64.89-5.56l.27-1.73c.02-.12.04-.25.05-.38.2-1.31.39-2.64.58-3.97.06-.39.11-.79.16-1.18l.23-1.72c.25-1.87.47-3.72.66-5.49l.17-1.7c.16-1.71.29-3.33.38-4.84.03-.58.06-1.14.07-1.68.07-2.11.03-3.91-.16-5.27-.03-.19-.06-.38-.09-.56-.08-.54-.17-1.06-.27-1.58-.35-1.72-.83-3.36-1.4-4.93ZM698.59,512.79c.13.61.24,1.24.33,1.87.14,1,.19,2.33.16,3.89,0,.53-.02,1.09-.05,1.67-.06,1.29-.14,2.7-.26,4.18-.01.21-.03.42-.05.63-.05.56-.1,1.12-.14,1.69-.07.74-.14,1.48-.22,2.24-.11,1.06-.22,2.15-.35,3.23-.07.57-.13,1.14-.2,1.71-.23,1.87-.46,3.73-.7,5.5-.07.54-.14,1.07-.22,1.6,0,.04,0,.08-.01.12-.19,1.37-.37,2.68-.55,3.89-.08.57-.16,1.12-.24,1.64-.09.61-.18,1.19-.26,1.73-.42,2.76-.7,4.51-.7,4.51l-4.81,1.31s-1.16-1.35-2.96-3.51c-.35-.42-.73-.87-1.13-1.35-.48-.58-.99-1.2-1.52-1.85-.65-.79-1.33-1.63-2.04-2.5-.14-.18-.29-.36-.44-.55-.21-.27-.43-.54-.65-.81-1.13-1.41-2.3-2.88-3.46-4.37-.36-.46-.71-.91-1.06-1.37-1.03-1.34-2.04-2.68-3.01-3.99-.1-.14-.21-.29-.31-.43-.34-.46-.68-.93-1-1.38-.47-.66-.92-1.31-1.36-1.94-.49-.71-.95-1.4-1.38-2.05-.32-.49-.62-.96-.89-1.41-.82-1.35-1.44-2.52-1.8-3.45-.23-.59-.43-1.18-.61-1.79-.16-.51-.31-1.02-.44-1.54-.42-1.68-.7-3.39-.84-5.09-.04-.55-.08-1.09-.09-1.63-.05-1.57,0-3.13.18-4.64.02-.25.06-.5.09-.74.08-.58.17-1.16.28-1.73.08-.43.17-.85.27-1.27.37-1.6.87-3.12,1.48-4.52.28-.66.6-1.3.94-1.91.25-.46.51-.89.79-1.31.38-.57.79-1.11,1.22-1.61,1.29-1.5,2.78-2.63,4.43-3.25.26-.1.53-.18.81-.26.24-.07.49-.12.73-.16,1.73-.31,3.57-.12,5.45.49.62.2,1.24.45,1.86.74.51.24,1.02.51,1.53.8.61.35,1.21.74,1.79,1.17.86.63,1.71,1.32,2.52,2.09.67.63,1.32,1.3,1.95,2.01.13.14.25.29.37.43.25.3.5.61.74.92,1.09,1.39,2.09,2.91,2.95,4.51.25.48.5.96.73,1.46.73,1.54,1.34,3.16,1.78,4.83.14.51.26,1.03.38,1.55h0Z"/>
    <path class="cls-1" d="M688.41,560.25l10.58-2.88.77,2.82-10.58,2.88-.77-2.82Z"/>
    <path class="cls-10" d="M690.4,562.74l8.12-2.21,7.23,26.6-8.12,2.21-7.23-26.6Z"/>
    <path class="cls-9" d="M428.82,366.64c-.08-.54-.17-1.06-.27-1.58l-7.14,1.94-1.35-4.95,7.09-1.93c-.19-.51-.38-1.01-.59-1.49l-6.91,1.88-1.35-4.95,5.81-1.58-.94-1.4-5.29,1.44-1.35-4.95,2.92-.79c-.46-.44-.94-.87-1.42-1.27l-1.92.52-.66-2.44c-.65-.42-1.31-.81-1.97-1.16l1.09,4.02-2.43.66c-1.09.3-2.22-.35-2.52-1.44l-.66-2.43,3.99-1.08c-.77-.39-1.56-.73-2.36-1.02l-2.05.56-.35-1.27c-.58-.13-1.16-.24-1.74-.31l.54,2-4.95,1.35-.86-3.17c-.26.05-.52.12-.77.19s-.51.15-.77.23l.86,3.17-4.95,1.35-.54-2c-.46.36-.91.75-1.34,1.17l.34,1.24-1.98.54c-.53.64-1.02,1.33-1.48,2.06l3.89-1.06.68,2.49c.29,1.06-.34,2.15-1.39,2.43l-3.04.83-.92-3.39c-.38.7-.74,1.42-1.07,2.17l.45,1.64-1.22.33c-.21.59-.4,1.19-.57,1.81l2.21-.6,1.35,4.95-4.55,1.24c-.05.55-.08,1.12-.11,1.68l5.08-1.38,1.35,4.95-6.21,1.69c.06.53.14,1.06.22,1.59l6.4-1.74,1.35,4.95-6.54,1.78c.16.5.33,1.01.52,1.51l6.44-1.75,1.49,5.49-5.27,1.43c.28.46.58.93.9,1.41l4.03-.63,1.96,3.74-3.25.88,1,1.38,2.66-.72,1.35,4.95-.68.18c.35.45.71.91,1.06,1.37h.03s.02.07.02.07c.83,1.06,1.68,2.13,2.52,3.18l-1-3.68,4.95-1.35,1.35,4.95-4.39,1.19c.37.46.74.91,1.1,1.36l3.71-1.01,1.35,4.95-1.48.4c.39.46.76.91,1.13,1.35l.76-.21.45,1.64,2.44,2.87-1.34-4.93,4.95-1.35,2.55,9.37,1.54-.42-2.55-9.37,4.95-1.35,1.26,4.62.65-3.69-.37-1.35.62-.17c.1-.57.2-1.15.29-1.74l-1.34.36-1.35-4.95,3.58-.97.27-1.73-4.26,1.16-1.35-4.95,4.41-1.2,1.25,4.61c.2-1.31.39-2.64.58-3.97l-.29-1.06.45-.12.23-1.72-1.1.3-1.35-4.95,3.1-.84.17-1.7-3.69,1c-.66-2.43.78-4.94,3.21-5.61l.85-.23c.03-.58.06-1.14.07-1.68l-5.75,1.56-1.49-5.49,7-1.9h0ZM419.86,367.42l-4.41,1.2-1.35-4.95,4.41-1.2,1.35,4.95ZM419.21,388.51l-4.95,1.35-1.35-4.95,4.95-1.35,1.35,4.95ZM404.81,380.72l4.95-1.35,1.2,4.41-4.95,1.35-1.2-4.41ZM405.44,357.4l-1.35-4.95,4.95-1.35,1.35,4.95-4.95,1.35ZM410.8,357.6l1.35,4.95-4.95,1.35-1.35-4.95,4.95-1.35ZM403.89,357.82l-4.95,1.35-1.35-4.95,4.95-1.35,1.35,4.95ZM404.31,359.36l1.35,4.95-4.95,1.35-1.35-4.95,4.95-1.35ZM406.08,365.86l1.35,4.95-4.95,1.35-1.35-4.95,4.95-1.35ZM407.84,372.35l1.49,5.49-4.95,1.35-1.49-5.49,4.95-1.35ZM411.37,385.33l1.35,4.95-4.95,1.35-1.35-4.95,4.95-1.35ZM412.49,383.37l-1.2-4.41,4.95-1.35,1.2,4.41-4.95,1.35ZM410.88,377.42l-1.49-5.49,4.95-1.35,1.49,5.49-4.95,1.35ZM408.97,370.38l-1.35-4.95,4.95-1.35,1.35,4.95-4.95,1.35ZM418.1,360.93l-4.41,1.2-1.35-4.95,4.41-1.2,1.35,4.95ZM414.99,349.49l1.35,4.95-4.41,1.2-1.35-4.95,4.41-1.2ZM407.42,345.16l1.2,4.41-4.95,1.35-1.2-4.41,4.95-1.35ZM395.98,348.27l4.95-1.35,1.2,4.41-4.95,1.35-1.2-4.41ZM391.11,355.98l4.95-1.35,1.35,4.95-4.95,1.35-1.35-4.95ZM392.87,362.47l4.95-1.35,1.35,4.95-4.95,1.35-1.35-4.95ZM394.64,368.96l4.95-1.35,1.35,4.95-4.95,1.35-1.35-4.95ZM396.4,375.46l4.95-1.35,1.49,5.49-4.95,1.35-1.49-5.49ZM403.26,381.14l1.2,4.41-4.95,1.35-1.2-4.41,4.95-1.35ZM401.28,393.38l-1.35-4.95,4.95-1.35,1.35,4.95-4.95,1.35ZM408.19,393.16l4.95-1.35,1.35,4.95-4.95,1.35-1.35-4.95ZM411.3,404.6l-1.35-4.95,4.95-1.35,1.35,4.95-4.95,1.35ZM422.74,401.49l-4.95,1.35-1.35-4.95,4.95-1.35,1.35,4.95ZM420.97,395l-4.95,1.35-1.35-4.95,4.95-1.35,1.35,4.95ZM420.75,388.09l-1.35-4.95,4.41-1.2,1.35,4.95-4.41,1.2ZM423.39,380.4l-4.41,1.2-1.2-4.41,4.41-1.2,1.2,4.41ZM421.77,374.45l-4.41,1.2-1.49-5.49,4.41-1.2,1.49,5.49Z"/>
    <path class="cls-9" d="M427.14,360.13c-.19-.51-.38-1.01-.59-1.49-.7-1.65-1.53-3.2-2.45-4.65l-.94-1.4c-1.13-1.59-2.38-3.03-3.71-4.3-.46-.44-.94-.87-1.42-1.27-.84-.7-1.7-1.34-2.58-1.92-.65-.42-1.31-.81-1.97-1.16-.18-.09-.35-.18-.53-.27-.77-.39-1.56-.73-2.36-1.02-.79-.3-1.6-.53-2.4-.71-.58-.13-1.16-.24-1.74-.31-1.8-.24-3.57-.19-5.27.17-.26.05-.52.12-.77.19s-.51.15-.77.23c-1.65.55-3.21,1.41-4.63,2.52-.46.36-.91.75-1.34,1.17-.58.55-1.12,1.14-1.65,1.78-.53.64-1.02,1.33-1.48,2.06-.27.42-.53.86-.78,1.31-.38.7-.74,1.42-1.07,2.17-.28.64-.54,1.3-.78,1.98-.21.59-.4,1.19-.57,1.81-.49,1.77-.83,3.64-1,5.59-.05.55-.08,1.12-.11,1.68-.06,1.71,0,3.47.21,5.26.06.53.14,1.06.22,1.59.27,1.65.67,3.31,1.2,4.99.16.5.33,1.01.52,1.51.06.18.13.35.2.53.48,1.25,1.33,2.84,2.46,4.64.28.46.58.93.9,1.41.82,1.26,1.75,2.6,2.75,3.99l1,1.38c1.06,1.43,2.18,2.92,3.33,4.41.35.45.71.91,1.06,1.37.02.02.03.04.05.07.83,1.06,1.68,2.13,2.52,3.18.3.38.6.75.9,1.12.37.46.74.91,1.1,1.36,1.23,1.5,2.43,2.96,3.58,4.34.39.46.76.91,1.13,1.35.41.49.82.97,1.21,1.44l2.44,2.87c2.58,3.01,4.28,4.93,4.28,4.93l5.82-1.58s.52-2.66,1.26-6.77l.65-3.69c.08-.5.17-1,.25-1.52.1-.57.2-1.15.29-1.74.3-1.77.6-3.64.89-5.56l.27-1.73c.02-.12.04-.25.05-.38.2-1.31.39-2.64.58-3.97.06-.39.11-.79.16-1.18l.23-1.72c.25-1.87.47-3.72.66-5.49l.17-1.7c.16-1.71.29-3.33.38-4.84.03-.58.06-1.14.07-1.68.07-2.11.03-3.91-.16-5.27-.03-.19-.06-.38-.09-.56-.08-.54-.17-1.06-.27-1.58-.35-1.72-.83-3.36-1.4-4.93ZM424.59,367.79c.13.61.24,1.24.33,1.87.14,1,.19,2.33.16,3.89,0,.53-.02,1.09-.05,1.67-.06,1.29-.14,2.7-.26,4.18-.01.21-.03.42-.05.63-.05.56-.1,1.12-.14,1.69-.07.74-.14,1.48-.22,2.24-.11,1.06-.22,2.15-.35,3.23-.07.57-.13,1.14-.2,1.71-.23,1.87-.46,3.73-.7,5.5-.07.54-.14,1.07-.22,1.6,0,.04,0,.08-.01.12-.19,1.37-.37,2.68-.55,3.89-.08.57-.16,1.12-.24,1.64-.09.61-.18,1.19-.26,1.73-.42,2.76-.7,4.51-.7,4.51l-4.81,1.31s-1.16-1.35-2.96-3.51c-.35-.42-.73-.87-1.13-1.35-.48-.58-.99-1.2-1.52-1.85-.65-.79-1.33-1.63-2.04-2.5-.14-.18-.29-.36-.44-.55-.21-.27-.43-.54-.65-.81-1.13-1.41-2.3-2.88-3.46-4.37-.36-.46-.71-.91-1.06-1.37-1.03-1.34-2.04-2.68-3.01-3.99-.1-.14-.21-.29-.31-.43-.34-.46-.68-.93-1-1.38-.47-.66-.92-1.31-1.36-1.94-.49-.71-.95-1.4-1.38-2.05-.32-.49-.62-.96-.89-1.41-.82-1.35-1.44-2.52-1.8-3.45-.23-.59-.43-1.18-.61-1.79-.16-.51-.31-1.02-.44-1.54-.42-1.68-.7-3.39-.84-5.09-.04-.55-.08-1.09-.09-1.63-.05-1.57,0-3.13.18-4.64.02-.25.06-.5.09-.74.08-.58.17-1.16.28-1.73.08-.43.17-.85.27-1.27.37-1.6.87-3.12,1.48-4.52.28-.66.6-1.3.94-1.91.25-.46.51-.89.79-1.31.38-.57.79-1.11,1.22-1.61,1.29-1.5,2.78-2.63,4.43-3.25.26-.1.53-.18.81-.26.24-.07.49-.12.73-.16,1.73-.31,3.57-.12,5.45.49.62.2,1.24.45,1.86.74.51.24,1.02.51,1.53.8.61.35,1.21.74,1.79,1.17.86.63,1.71,1.32,2.52,2.09.67.63,1.32,1.3,1.95,2.01.13.14.25.29.37.43.25.3.5.61.74.92,1.09,1.39,2.09,2.91,2.95,4.51.25.48.5.96.73,1.46.73,1.54,1.34,3.16,1.78,4.83.14.51.26,1.03.38,1.55h0Z"/>
    <path class="cls-1" d="M414.41,415.25l10.58-2.88.77,2.82-10.58,2.88-.77-2.82Z"/>
    <path class="cls-10" d="M416.4,417.74l8.12-2.21,7.23,26.6-8.12,2.21-7.23-26.6Z"/>
  </g>
  <g id="Camada_2" data-name="Camada 2">
    <path class="cls-1" d="M1292.43,44.24c4.7,11.16,1.41,23.79-7.29,31.97-2.63,2.47-5.76,4.54-9.32,6.04s-7.23,2.29-10.83,2.45c-11.94.52-23.28-5.94-27.98-17.11s-1.4-23.8,7.31-31.97c2.63-2.48,5.76-4.55,9.32-6.05s7.23-2.29,10.84-2.44c11.93-.53,23.26,5.93,27.97,17.11Z"/>
    <path class="cls-7" d="M1264.46,27.13l20.67,49.08c-2.63,2.47-5.76,4.54-9.32,6.04s-7.23,2.29-10.83,2.45l-20.67-49.08c2.63-2.48,5.76-4.55,9.32-6.05,3.56-1.5,7.23-2.29,10.84-2.44Z"/>
    <path class="cls-7" d="M1264.46,27.13l20.67,49.08c-2.63,2.47-5.76,4.54-9.32,6.04s-7.23,2.29-10.83,2.45l-20.67-49.08c2.63-2.48,5.76-4.55,9.32-6.05,3.56-1.5,7.23-2.29,10.84-2.44Z"/>
    <path class="cls-1" d="M1149.43,353.24c4.7,11.16,1.41,23.79-7.29,31.97-2.63,2.47-5.76,4.54-9.32,6.04s-7.23,2.29-10.83,2.45c-11.94.52-23.28-5.94-27.98-17.11-4.71-11.17-1.4-23.8,7.31-31.97,2.63-2.48,5.76-4.55,9.32-6.05s7.23-2.29,10.84-2.44c11.93-.53,23.26,5.93,27.97,17.11Z"/>
    <path class="cls-7" d="M1121.46,336.13l20.67,49.08c-2.63,2.47-5.76,4.54-9.32,6.04s-7.23,2.29-10.83,2.45l-20.67-49.08c2.63-2.48,5.76-4.55,9.32-6.05,3.56-1.5,7.23-2.29,10.84-2.44Z"/>
    <path class="cls-7" d="M1121.46,336.13l20.67,49.08c-2.63,2.47-5.76,4.54-9.32,6.04s-7.23,2.29-10.83,2.45l-20.67-49.08c2.63-2.48,5.76-4.55,9.32-6.05,3.56-1.5,7.23-2.29,10.84-2.44Z"/>
    <path class="cls-1" d="M1166.43,87.24c4.7,11.16,1.41,23.79-7.29,31.97-2.63,2.47-5.76,4.54-9.32,6.04s-7.23,2.29-10.83,2.45c-11.94.52-23.28-5.94-27.98-17.11-4.71-11.17-1.4-23.8,7.31-31.97,2.63-2.48,5.76-4.55,9.32-6.05s7.23-2.29,10.84-2.44c11.93-.53,23.26,5.93,27.97,17.11Z"/>
    <path class="cls-7" d="M1138.46,70.13l20.67,49.08c-2.63,2.47-5.76,4.54-9.32,6.04s-7.23,2.29-10.83,2.45l-20.67-49.08c2.63-2.48,5.76-4.55,9.32-6.05,3.56-1.5,7.23-2.29,10.84-2.44Z"/>
    <path class="cls-7" d="M1138.46,70.13l20.67,49.08c-2.63,2.47-5.76,4.54-9.32,6.04s-7.23,2.29-10.83,2.45l-20.67-49.08c2.63-2.48,5.76-4.55,9.32-6.05,3.56-1.5,7.23-2.29,10.84-2.44Z"/>
    <path class="cls-1" d="M903.43,66.24c4.7,11.16,1.41,23.79-7.29,31.97-2.63,2.47-5.76,4.54-9.32,6.04s-7.23,2.29-10.83,2.45c-11.94.52-23.28-5.94-27.98-17.11-4.71-11.17-1.4-23.8,7.31-31.97,2.63-2.48,5.76-4.55,9.32-6.05s7.23-2.29,10.84-2.44c11.93-.53,23.26,5.93,27.97,17.11Z"/>
    <path class="cls-7" d="M875.46,49.13l20.67,49.08c-2.63,2.47-5.76,4.54-9.32,6.04s-7.23,2.29-10.83,2.45l-20.67-49.08c2.63-2.48,5.76-4.55,9.32-6.05,3.56-1.5,7.23-2.29,10.84-2.44Z"/>
    <path class="cls-7" d="M875.46,49.13l20.67,49.08c-2.63,2.47-5.76,4.54-9.32,6.04s-7.23,2.29-10.83,2.45l-20.67-49.08c2.63-2.48,5.76-4.55,9.32-6.05,3.56-1.5,7.23-2.29,10.84-2.44Z"/>
    <path class="cls-1" d="M153.43,349.24c4.7,11.16,1.41,23.79-7.29,31.97-2.63,2.47-5.76,4.54-9.32,6.04s-7.23,2.29-10.83,2.45c-11.94.52-23.28-5.94-27.98-17.11-4.71-11.17-1.4-23.8,7.31-31.97,2.63-2.48,5.76-4.55,9.32-6.05s7.23-2.29,10.84-2.44c11.93-.53,23.26,5.93,27.97,17.11Z"/>
    <path class="cls-7" d="M125.46,332.13l20.67,49.08c-2.63,2.47-5.76,4.54-9.32,6.04s-7.23,2.29-10.83,2.45l-20.67-49.08c2.63-2.48,5.76-4.55,9.32-6.05,3.56-1.5,7.23-2.29,10.84-2.44Z"/>
    <path class="cls-7" d="M125.46,332.13l20.67,49.08c-2.63,2.47-5.76,4.54-9.32,6.04s-7.23,2.29-10.83,2.45l-20.67-49.08c2.63-2.48,5.76-4.55,9.32-6.05,3.56-1.5,7.23-2.29,10.84-2.44Z"/>
  </g>
  <g id="Camada_3" data-name="Camada 3">
    <path class="cls-3" d="M792.38,643.99c2.02,3.14,3.46,6.48,4.35,9.9,1.21,4.63,1.42,9.42.68,14.04-1.13,7.17-4.52,13.95-9.92,19.2-1.63,1.59-3.44,3.04-5.43,4.31s-4.06,2.33-6.18,3.15c-7.02,2.72-14.6,3-21.59,1.05-4.36-1.21-8.5-3.28-12.13-6.15-2.89-2.29-5.46-5.09-7.57-8.36s-3.55-6.68-4.43-10.21c-1.11-4.44-1.3-9.01-.64-13.44,1.1-7.32,4.55-14.27,10.1-19.61,1.59-1.53,3.35-2.94,5.29-4.18s3.94-2.27,6-3.07c7.16-2.83,14.92-3.09,22.04-1.05,1.3.37,2.57.81,3.81,1.34h0c1.68.71,3.31,1.54,4.87,2.51h.02c1.07.69,2.11,1.41,3.11,2.21,2.9,2.29,5.48,5.09,7.59,8.38Z"/>
    <g>
      <path class="cls-7" d="M761.55,636.21l.6,12.64-10.65,6.85-11.25-5.8-.61-12.04c1.59-1.54,3.35-2.94,5.29-4.18s3.94-2.27,6-3.07l10.62,5.6Z"/>
      <path class="cls-7" d="M784.9,635.69l.89,12.43-10.53,6.77-11.74-6.05-.61-12.65,10.22-6.6c1.3.37,2.51.81,3.75,1.33,1.68.7,3.38,1.6,4.94,2.57,1.07.68,2.08,1.4,3.08,2.19Z"/>
      <path class="cls-7" d="M750.81,657.02l.8,13.02-10.52,6.82-10.86-5.79c-1.11-4.44-1.3-9.01-.64-13.44l9.97-6.41,11.25,5.8Z"/>
      <path class="cls-7" d="M763.56,676.85l.6,12.64-9.81,6.31c-4.36-1.21-8.5-3.28-12.13-6.15l-.57-11.75,10.65-6.85,11.25,5.8Z"/>
      <path class="cls-7" d="M786.99,675.77l.55,11.51c-1.63,1.59-3.44,3.04-5.43,4.31s-4.06,2.33-6.18,3.15l-10.24-5.28-.6-12.64,10.65-6.85,11.25,5.8Z"/>
      <path class="cls-7" d="M796.77,654.04c1.21,4.63,1.42,9.42.68,14.04l-9.48,6.09-11.25-5.8-.6-12.64,10.65-6.85,10,5.15Z"/>
    </g>
    <path class="cls-3" d="M1297.38,293.99c2.02,3.14,3.46,6.48,4.35,9.9,1.21,4.63,1.42,9.42.68,14.04-1.13,7.17-4.52,13.95-9.92,19.2-1.63,1.59-3.44,3.04-5.43,4.31s-4.06,2.33-6.18,3.15c-7.02,2.72-14.6,3-21.59,1.05-4.36-1.21-8.5-3.28-12.13-6.15-2.89-2.29-5.46-5.09-7.57-8.36s-3.55-6.68-4.43-10.21c-1.11-4.44-1.3-9.01-.64-13.44,1.1-7.32,4.55-14.27,10.1-19.61,1.59-1.53,3.35-2.94,5.29-4.18s3.94-2.27,6-3.07c7.16-2.83,14.92-3.09,22.04-1.05,1.3.37,2.57.81,3.81,1.34h0c1.68.71,3.31,1.54,4.87,2.51h.02c1.07.69,2.11,1.41,3.11,2.21,2.9,2.29,5.48,5.09,7.59,8.38Z"/>
    <g>
      <path class="cls-7" d="M1266.55,286.21l.6,12.64-10.65,6.85-11.25-5.8-.61-12.04c1.59-1.54,3.35-2.94,5.29-4.18s3.94-2.27,6-3.07l10.62,5.6Z"/>
      <path class="cls-7" d="M1289.9,285.69l.89,12.43-10.53,6.77-11.74-6.05-.61-12.65,10.22-6.6c1.3.37,2.51.81,3.75,1.33,1.68.7,3.38,1.6,4.94,2.57,1.07.68,2.08,1.4,3.08,2.19Z"/>
      <path class="cls-7" d="M1255.81,307.02l.8,13.02-10.52,6.82-10.86-5.79c-1.11-4.44-1.3-9.01-.64-13.44l9.97-6.41,11.25,5.8Z"/>
      <path class="cls-7" d="M1268.56,326.85l.6,12.64-9.81,6.31c-4.36-1.21-8.5-3.28-12.13-6.15l-.57-11.75,10.65-6.85,11.25,5.8Z"/>
      <path class="cls-7" d="M1291.99,325.77l.55,11.51c-1.63,1.59-3.44,3.04-5.43,4.31s-4.06,2.33-6.18,3.15l-10.24-5.28-.6-12.64,10.65-6.85,11.25,5.8Z"/>
      <path class="cls-7" d="M1301.77,304.04c1.21,4.63,1.42,9.42.68,14.04l-9.48,6.09-11.25-5.8-.6-12.64,10.65-6.85,10,5.15Z"/>
    </g>
    <path class="cls-3" d="M315.38,409.99c2.02,3.14,3.46,6.48,4.35,9.9,1.21,4.63,1.42,9.42.68,14.04-1.13,7.17-4.52,13.95-9.92,19.2-1.63,1.59-3.44,3.04-5.43,4.31s-4.06,2.33-6.18,3.15c-7.02,2.72-14.6,3-21.59,1.05-4.36-1.21-8.5-3.28-12.13-6.15-2.89-2.29-5.46-5.09-7.57-8.36s-3.55-6.68-4.43-10.21c-1.11-4.44-1.3-9.01-.64-13.44,1.1-7.32,4.55-14.27,10.1-19.61,1.59-1.53,3.35-2.94,5.29-4.18s3.94-2.27,6-3.07c7.16-2.83,14.92-3.09,22.04-1.05,1.3.37,2.57.81,3.81,1.34h0c1.68.71,3.31,1.54,4.87,2.51h.02c1.07.69,2.11,1.41,3.11,2.21,2.9,2.29,5.48,5.09,7.59,8.38Z"/>
    <g>
      <path class="cls-7" d="M284.55,402.21l.6,12.64-10.65,6.85-11.25-5.8-.61-12.04c1.59-1.54,3.35-2.94,5.29-4.18s3.94-2.27,6-3.07l10.62,5.6Z"/>
      <path class="cls-7" d="M307.9,401.69l.89,12.43-10.53,6.77-11.74-6.05-.61-12.65,10.22-6.6c1.3.37,2.51.81,3.75,1.33,1.68.7,3.38,1.6,4.94,2.57,1.07.68,2.08,1.4,3.08,2.19Z"/>
      <path class="cls-7" d="M273.81,423.02l.8,13.02-10.52,6.82-10.86-5.79c-1.11-4.44-1.3-9.01-.64-13.44l9.97-6.41,11.25,5.8Z"/>
      <path class="cls-7" d="M286.56,442.85l.6,12.64-9.81,6.31c-4.36-1.21-8.5-3.28-12.13-6.15l-.57-11.75,10.65-6.85,11.25,5.8Z"/>
      <path class="cls-7" d="M309.99,441.77l.55,11.51c-1.63,1.59-3.44,3.04-5.43,4.31s-4.06,2.33-6.18,3.15l-10.24-5.28-.6-12.64,10.65-6.85,11.25,5.8Z"/>
      <path class="cls-7" d="M319.77,420.04c1.21,4.63,1.42,9.42.68,14.04l-9.48,6.09-11.25-5.8-.6-12.64,10.65-6.85,10,5.15Z"/>
    </g>
    <path class="cls-3" d="M547.38,87.99c2.02,3.14,3.46,6.48,4.35,9.9,1.21,4.63,1.42,9.42.68,14.04-1.13,7.17-4.52,13.95-9.92,19.2-1.63,1.59-3.44,3.04-5.43,4.31s-4.06,2.33-6.18,3.15c-7.02,2.72-14.6,3-21.59,1.05-4.36-1.21-8.5-3.28-12.13-6.15-2.89-2.29-5.46-5.09-7.57-8.36s-3.55-6.68-4.43-10.21c-1.11-4.44-1.3-9.01-.64-13.44,1.1-7.32,4.55-14.27,10.1-19.61,1.59-1.53,3.35-2.94,5.29-4.18s3.94-2.27,6-3.07c7.16-2.83,14.92-3.09,22.04-1.05,1.3.37,2.57.81,3.81,1.34h0c1.68.71,3.31,1.54,4.87,2.51h.02c1.07.69,2.11,1.41,3.11,2.21,2.9,2.29,5.48,5.09,7.59,8.38Z"/>
    <g>
      <path class="cls-7" d="M516.55,80.21l.6,12.64-10.65,6.85-11.25-5.8-.61-12.04c1.59-1.54,3.35-2.94,5.29-4.18s3.94-2.27,6-3.07l10.62,5.6Z"/>
      <path class="cls-7" d="M539.9,79.69l.89,12.43-10.53,6.77-11.74-6.05-.61-12.65,10.22-6.6c1.3.37,2.51.81,3.75,1.33,1.68.7,3.38,1.6,4.94,2.57,1.07.68,2.08,1.4,3.08,2.19Z"/>
      <path class="cls-7" d="M505.81,101.02l.8,13.02-10.52,6.82-10.86-5.79c-1.11-4.44-1.3-9.01-.64-13.44l9.97-6.41,11.25,5.8Z"/>
      <path class="cls-7" d="M518.56,120.85l.6,12.64-9.81,6.31c-4.36-1.21-8.5-3.28-12.13-6.15l-.57-11.75,10.65-6.85,11.25,5.8Z"/>
      <path class="cls-7" d="M541.99,119.77l.55,11.51c-1.63,1.59-3.44,3.04-5.43,4.31s-4.06,2.33-6.18,3.15l-10.24-5.28-.6-12.64,10.65-6.85,11.25,5.8Z"/>
      <path class="cls-7" d="M551.77,98.04c1.21,4.63,1.42,9.42.68,14.04l-9.48,6.09-11.25-5.8-.6-12.64,10.65-6.85,10,5.15Z"/>
    </g>
  </g>
  <g id="Camada_6" data-name="Camada 6">
    <path class="cls-8" d="M107.63,145.96l16.95-4.28-20.7,51.42-12.62-5.08,16.37-42.06Z"/>
    <path class="cls-7" d="M60.92,156.78l-15.92,3.3,37.27,37.38,9.63-9.61-30.99-31.08Z"/>
    <circle class="cls-5" cx="93.54" cy="196.2" r="13.67"/>
    <path class="cls-8" d="M350.63,250.96l16.95-4.28-20.7,51.42-12.62-5.08,16.37-42.06Z"/>
    <path class="cls-7" d="M303.92,261.78l-15.92,3.3,37.27,37.38,9.63-9.61-30.99-31.08Z"/>
    <circle class="cls-5" cx="336.54" cy="301.2" r="13.67"/>
    <path class="cls-8" d="M1195.63,144.96l16.95-4.28-20.7,51.42-12.62-5.08,16.37-42.06Z"/>
    <path class="cls-7" d="M1148.92,155.78l-15.92,3.3,37.27,37.38,9.63-9.61-30.99-31.08Z"/>
    <circle class="cls-5" cx="1181.54" cy="195.2" r="13.67"/>
    <path class="cls-8" d="M1045.63,643.96l16.95-4.28-20.7,51.42-12.62-5.08,16.37-42.06Z"/>
    <path class="cls-7" d="M998.92,654.78l-15.92,3.3,37.27,37.38,9.63-9.61-30.99-31.08Z"/>
    <circle class="cls-5" cx="1031.54" cy="694.2" r="13.67"/>
    <path class="cls-8" d="M532.63,631.96l16.95-4.28-20.7,51.42-12.62-5.08,16.37-42.06Z"/>
    <path class="cls-7" d="M485.92,642.78l-15.92,3.3,37.27,37.38,9.63-9.61-30.99-31.08Z"/>
    <circle class="cls-5" cx="518.54" cy="682.2" r="13.67"/>
    <path class="cls-8" d="M62.63,625.96l16.95-4.28-20.7,51.42-12.62-5.08,16.37-42.06Z"/>
    <path class="cls-7" d="M15.92,636.78l-15.92,3.3,37.27,37.38,9.63-9.61-30.99-31.08Z"/>
    <circle class="cls-5" cx="48.54" cy="676.2" r="13.67"/>
  </g>
</svg>