<svg xmlns="http://www.w3.org/2000/svg" viewBox="0 0 1200 1400" width="1200" height="1400"><path fill="#FFF" d="M0 0h1200v1400H0z"/><g transform="translate(61.0 43.0) rotate(0.0 294.5 663.0) scale(0.9969397841599978 0.9979123613195322)"><svg width="590.808" height="1328.774" viewBox="0 0 590.808 1328.774"><path d="M174.313 631.645c-25.505 30.316-66.432 257.19-63.4 318.316-16.674 48.505-36.293 160.154-34.931 226.139 21.726 5.762 45.695 4.16 67.295 3.311 49.516-110.94 51.364-192.999 57.428-214.22 23.892-41.482 75.132-164.4 75.132-164.4s59.413 144.695 70.024 164.4c0 28.8 46.989 178.412 62.1 214.22 21.221 1.228 45.795 1.286 67.774-5.822-1.767-46.659-28.316-200.89-38.926-223.627-.505-48.505-30.038-275.874-49.124-301.642s-199.913-32.669-213.37-16.674z" fill="#47704D"/><path d="M114.659 1186.272c-13.417 0-27.2-.921-40.216-4.373a6 6 0 0 1-4.46-5.676c-1.346-65.188 17.897-176.908 34.885-227.127-1.383-34.515 9.566-110.442 21.15-170.975 7.327-38.292 26.256-129.594 43.703-150.339 2.695-3.204 8.856-7.156 32.774-9.305 15.051-1.353 35.05-1.732 56.313-1.076 11.884.368 116.599 4.262 133.697 27.346 11.464 15.478 24.08 87.386 32.644 144.983 9.487 63.809 17.149 132.945 17.641 158.929 11.83 28.351 37.274 180.692 38.94 224.702a6 6 0 0 1-4.149 5.936c-23.6 7.633-49.786 7.271-69.966 6.104a6.002 6.002 0 0 1-5.181-3.657c-14.21-33.674-61.047-181.381-62.536-215.011-10.072-19.736-49.427-114.706-64.119-150.325-13.904 32.872-50 116.986-69.488 151.106-1.216 4.619-2.363 12.558-3.798 22.48-5.34 36.941-15.281 105.704-53.735 191.861a6 6 0 0 1-5.244 3.55c-1.779.07-3.576.146-5.385.221-7.527.314-15.432.646-23.468.646zm-32.739-14.915c17.839 3.861 37.066 3.058 55.706 2.28l1.677-.07c36.53-83.046 46.125-149.413 51.311-185.289 1.633-11.298 2.813-19.46 4.321-24.735.134-.471.326-.922.57-1.346 23.428-40.677 74.282-162.489 74.792-163.715a6 6 0 0 1 5.538-3.691h.016a6.001 6.001 0 0 1 5.534 3.721c.593 1.444 59.415 144.628 69.756 163.835a6 6 0 0 1 .717 2.845c0 26.224 43.38 166.431 60.21 208.433 17.224.854 38.258.831 57.434-4.436-3.157-51.395-28.379-195.788-38.134-216.69a5.997 5.997 0 0 1-.563-2.475c-.255-24.501-7.955-94.135-17.529-158.527-13.516-90.901-24.574-131.718-30.417-139.605-4.585-6.19-29.426-15.167-84.344-20.092-26.605-2.386-55.162-3.257-78.345-2.385-28.535 1.07-39.474 4.472-41.308 6.14-10.52 12.596-26.631 69.414-41.061 144.823-13.698 71.584-22.292 141.197-20.899 169.287a5.996 5.996 0 0 1-.318 2.247c-16.369 47.618-35.037 154.414-34.667 219.446z" fill="#47704D"/><path d="m408.213 1250.66 1.581 21.913s48.803 32.388 64.428 41.394c9.436 5.439 21.903 10.482 42.77 8.275 29.786-3.15 28.23-18.691 28.23-18.691l-.706-19.054" fill="#fff"/><path d="M507.412 1328.768c-17.053 0-28.164-4.978-36.186-9.602-15.61-8.998-62.75-40.267-64.75-41.594a6 6 0 0 1-2.667-4.567l-1.582-21.913a6 6 0 0 1 5.552-6.416c3.301-.249 6.178 2.247 6.417 5.553l1.369 18.971c10.083 6.669 48.363 31.91 61.652 39.57 8.443 4.867 19.695 9.565 39.143 7.507 18.029-1.907 22.828-8.749 22.875-12.215-.024-.145 0-.047-.01-.287l-.706-19.055a6 6 0 0 1 5.774-6.218 5.984 5.984 0 0 1 6.218 5.774l.706 19.055c.127 2.97-.446 21.373-33.595 24.879a97.127 97.127 0 0 1-10.211.558z"/><path d="M478.231 1174.671s-1.615 34.392 18.879 56.161c6.461 6.863 46.421 32.749 47.406 53.666.941 19.973-36.145 22.455-53.623 15.389-12.701-5.135-82.681-49.227-82.681-49.227s-3.25-19.208.606-34.436l-.859-36.814s44.124 8.991 70.272-4.74z" fill="#fff"/><path d="M512.172 1309.477c-8.633 0-17.136-1.443-23.526-4.027-13.048-5.274-80.755-47.901-83.631-49.714a5.997 5.997 0 0 1-2.717-4.075c-.139-.821-3.305-19.985.505-36.091l-.84-36.02a6.004 6.004 0 0 1 2.149-4.742 5.992 5.992 0 0 1 5.047-1.276c.418.084 42.363 8.388 66.284-4.174a6 6 0 0 1 8.784 5.585c-.014.32-1.194 32.18 17.254 51.776 1.167 1.239 4.518 3.904 8.065 6.726 14.989 11.92 40.075 31.871 40.965 50.771.338 7.182-2.803 13.333-9.084 17.788-7.311 5.184-18.385 7.473-29.254 7.474zm-98.402-62.41c20.922 13.145 69.745 43.365 79.374 47.258 11.067 4.475 31.977 4.531 41.341-2.11 3.808-2.7 4.129-5.536 4.04-7.435-.634-13.461-24.824-32.698-36.448-41.943-4.397-3.497-7.575-6.023-9.333-7.892-15.438-16.398-19.34-38.879-20.271-51.339-20.476 6.915-45.972 4.652-58.344 2.907l.69 29.571a5.996 5.996 0 0 1-.182 1.612c-2.702 10.669-1.542 23.868-.866 29.37z"/><path d="M438.092 1275.246a6.001 6.001 0 0 1-5.899-4.942c-4.605-25.701-12.009-30.93-17.958-35.131-4.851-3.426-10.349-7.31-11.391-18.387a6 6 0 0 1 11.947-1.123c.525 5.582 2.235 6.79 6.366 9.708 7.332 5.178 17.373 12.27 22.846 42.815a6.001 6.001 0 0 1-5.913 7.06zm13.956-63.361a6 6 0 0 1-1.35-11.846l28.922-6.71a6 6 0 1 1 2.712 11.689l-28.922 6.71a6.062 6.062 0 0 1-1.361.156zm10.506 24.377a6 6 0 0 1-1.756-11.738l27.624-8.466a6 6 0 1 1 3.516 11.473l-27.624 8.466a5.986 5.986 0 0 1-1.76.266zm14.91 20.641a6 6 0 0 1-2.33-11.532l29.029-12.219a6 6 0 1 1 4.655 11.06l-29.029 12.219a5.999 5.999 0 0 1-2.325.472zm4.324 44.347a6 6 0 0 1-5.907-7.095c4.404-23.762 19.384-33.48 31.175-37.45 12.402-4.174 23.737-2.846 24.213-2.787a6 6 0 0 1 5.223 6.688c-.404 3.285-3.39 5.609-6.676 5.225-1.544-.183-35.789-3.73-42.136 30.513a6 6 0 0 1-5.893 4.907z"/><path d="m143.024 1250.66-1.581 21.913s-48.803 32.388-64.428 41.394c-9.436 5.439-21.903 10.482-42.77 8.275-29.786-3.15-28.23-18.691-28.23-18.691l.706-19.054" fill="#fff"/><path d="M43.825 1328.768c-3.19 0-6.587-.175-10.211-.558-33.149-3.506-33.722-21.909-33.595-24.879l.706-19.055a5.976 5.976 0 0 1 6.218-5.774 6 6 0 0 1 5.774 6.218l-.706 19.055c-.009.24.015.142-.01.287.048 3.467 4.847 10.308 22.875 12.215 19.446 2.059 30.7-2.641 39.143-7.507 13.29-7.661 51.569-32.901 61.652-39.57l1.369-18.971a6.007 6.007 0 0 1 6.416-5.553 6 6 0 0 1 5.553 6.416l-1.581 21.913a5.999 5.999 0 0 1-2.667 4.567c-2 1.327-49.14 32.596-64.75 41.594-8.021 4.623-19.135 9.602-36.187 9.602z"/><path d="M73.005 1174.671s1.615 34.392-18.879 56.161c-6.461 6.863-46.421 32.749-47.406 53.666-.941 19.973 36.145 22.455 53.623 15.389 12.701-5.135 82.681-49.227 82.681-49.227s3.25-19.208-.606-34.436l.859-36.814s-44.124 8.991-70.272-4.74z" fill="#fff"/><path d="M39.065 1309.477c-10.87 0-21.942-2.289-29.254-7.474-6.282-4.455-9.423-10.606-9.084-17.788.89-18.899 25.976-38.85 40.964-50.77 3.548-2.822 6.899-5.487 8.066-6.727 18.449-19.597 17.269-51.456 17.254-51.776a6.006 6.006 0 0 1 2.778-5.334 6.006 6.006 0 0 1 6.005-.251c23.92 12.562 65.866 4.258 66.287 4.173a5.998 5.998 0 0 1 7.193 6.019l-.84 36.02c3.81 16.105.643 35.27.504 36.091a5.999 5.999 0 0 1-2.717 4.075c-2.876 1.813-70.583 44.439-83.63 49.714-6.39 2.583-14.895 4.027-23.527 4.027zm39.7-125.87c-.931 12.459-4.833 34.939-20.271 51.337-1.759 1.869-4.937 4.396-9.334 7.894-11.625 9.245-35.813 28.481-36.448 41.942-.089 1.898.232 4.734 4.04 7.435 9.364 6.64 30.272 6.584 41.342 2.11 9.629-3.894 58.451-34.113 79.373-47.258.676-5.499 1.836-18.7-.865-29.37a5.996 5.996 0 0 1-.182-1.612l.69-29.571c-12.373 1.747-37.867 4.009-58.345-2.906z"/><path d="M113.144 1275.246a6.001 6.001 0 0 1-5.913-7.06c5.474-30.546 15.515-37.638 22.847-42.815 4.131-2.918 5.841-4.126 6.366-9.708a6 6 0 0 1 11.947 1.123c-1.042 11.077-6.54 14.961-11.391 18.387-5.949 4.201-13.352 9.43-17.958 35.131a6.002 6.002 0 0 1-5.899 4.942zm-13.955-63.361c-.449 0-.905-.051-1.361-.156l-28.922-6.71a6 6 0 0 1-4.489-7.201c.749-3.228 3.977-5.232 7.201-4.488l28.922 6.71a6 6 0 0 1-1.35 11.846zm-10.506 24.377a5.986 5.986 0 0 1-1.76-.266l-27.624-8.466a6 6 0 0 1 3.516-11.473l27.624 8.466a6 6 0 0 1-1.756 11.738zm-14.911 20.641a5.98 5.98 0 0 1-2.325-.472l-29.029-12.219a6.001 6.001 0 0 1-3.203-7.858 6.005 6.005 0 0 1 7.858-3.202l29.029 12.219a6.001 6.001 0 0 1-2.33 11.532zm-4.323 44.347a6.002 6.002 0 0 1-5.893-4.907c-6.355-34.288-40.684-30.684-42.143-30.513-3.281.401-6.268-1.961-6.663-5.244a5.991 5.991 0 0 1 5.216-6.668c.476-.06 11.811-1.388 24.213 2.787 11.791 3.97 26.771 13.688 31.175 37.45a6 6 0 0 1-5.907 7.095z"/><path d="M284.608 373.656c20.716-123.485 30.198-167.416 51.652-216.453 21.221-48.505 106.248-123.348 130.484-138.316 6.963-4.3 20.218-12.749 30.695-12.884 16.674-.215 25.023 10.11 40.192 22.615 14.588 12.026 25.936 7.896 32.757 6.538s4.547 6.523 5.684 11.108 10.228 8.871 8.524 13.549c-1.703 4.678-25.653 17.432-37.895 14.021s-36.038-10.989-48.096-18.695c-11.085 16.168-61.902 94.484-84.031 118.232-7.686 39.121-15.631 177.38-25.146 187.911l-104.822 12.374z" fill="#fff"/><path d="M284.615 379.657a6 6 0 0 1-5.925-6.994c20.836-124.204 30.199-167.868 52.072-217.865 22.43-51.267 109.331-126.503 132.829-141.015l.794-.491C472.323 8.379 485.607.155 497.361.004c.194-.003.388-.004.581-.004 15.713 0 25.24 8.261 36.251 17.809 2.299 1.993 4.677 4.055 7.255 6.18 10.948 9.025 19.061 7.21 25.58 5.756a96.913 96.913 0 0 1 2.189-.473c4.191-.831 6.917.446 8.466 1.669 3.66 2.889 3.835 7.502 3.963 10.87.04 1.045.084 2.223.225 2.897.354.669 1.836 2.133 2.732 3.019 3.157 3.118 7.929 7.831 5.631 14.141-3.063 8.416-30.434 21.842-45.142 17.748-5.121-1.427-29.113-8.324-44.64-16.494-1.758 2.622-3.908 5.847-6.361 9.525-19.339 29.01-54.943 82.42-73.794 103.36-1.838 14.504-4.796 27.447-4.927 28.015a6.001 6.001 0 0 1-11.695-2.688c.032-.139 3.212-14.067 4.942-28.667.15-1.266.7-2.451 1.569-3.384 17.794-19.098 55.703-75.964 73.921-103.292 4.204-6.306 7.524-11.286 9.551-14.242a6.002 6.002 0 0 1 8.18-1.663c10.288 6.574 31.465 13.789 46.475 17.97 8.094 2.256 24.759-5.781 29.784-9.813-.596-.663-1.372-1.431-1.925-1.977-2.359-2.33-5.033-4.971-5.922-8.557-.458-1.848-.531-3.758-.595-5.443l-.032-.805c-7.122 1.589-20.351 4.529-35.807-8.212-2.693-2.221-5.128-4.332-7.483-6.373-10.305-8.936-17.155-14.875-28.401-14.875-.138 0-.275 0-.414.002-8.424.109-20.388 7.515-26.815 11.493l-.804.497c-24.238 14.97-107.583 88.629-128.14 135.616-21.357 48.815-30.585 91.971-51.231 215.041a6.002 6.002 0 0 1-5.91 5.008z"/><path d="M387.469 599.029c16.748-19.3 38.727-49.995 47.818-61.572 9.458-12.044 70.979-96.989 60.508-110.796-11.002-14.508-22.763-26.933-33.877-33.709-10.125-6.174-47.667-29.365-72.617-41.408-7.47-3.606-17.169-3.349-30.558-3.352-18.379-.004-65.937 8.938-89.802 31.399-21.911 20.622-50.409 54.622-63.921 100.03-8.606 28.92-24.761 95.939-30.709 152.023 24.894 39.411 198.486 43.641 213.37 16.674-.704-15.158-.918-29.584-.214-49.29z" fill="#fff"/><path d="M307.908 671.484c-50.139 0-121.386-9.276-138.668-36.635a6.004 6.004 0 0 1-.894-3.837c5.902-55.664 22.1-123.45 30.924-153.102 14-47.05 43.379-81.812 65.56-102.688 24.804-23.345 73.387-33.03 93.901-33.03h.014l2.507-.002c12.54.007 22.425-.022 30.658 3.951 23.513 11.348 57.788 32.306 70.69 40.195l2.442 1.492c10.906 6.65 22.862 18.496 35.534 35.208 4.537 5.982 5.415 18.129-22.47 62.858-15.58 24.99-33.379 49.257-38.1 55.269-2.693 3.429-6.604 8.654-11.132 14.705-10.151 13.563-23.906 31.944-35.481 45.477-.557 16.795-.47 30.476.283 46.695a6.004 6.004 0 0 1-.741 3.178c-8.751 15.854-50.053 19.402-73.895 20.105-3.563.105-7.289.16-11.133.16zm-127.387-41.437c15.802 20.188 83.052 30.913 138.167 29.282 36.683-1.083 57.724-7.177 62.91-12.783-.712-16.347-.745-30.336-.124-47.731a6.005 6.005 0 0 1 1.464-3.719c11.565-13.327 25.879-32.453 36.33-46.418 4.573-6.11 8.522-11.388 11.302-14.927 4.375-5.571 21.066-28.305 36.127-52.245 25.905-41.178 24.472-50.413 24.209-51.364-11.556-15.216-22.657-26.304-32.11-32.067l-2.455-1.5c-12.764-7.805-46.67-28.537-69.646-39.627-5.755-2.778-14.014-2.761-25.43-2.758l-2.522.002h-.012c-18.263 0-63.594 8.985-85.676 29.769-21.106 19.865-49.044 52.885-62.282 97.372-8.585 28.849-24.246 94.281-30.251 148.715z"/><path d="M451.862 183.148a49.279 49.279 0 0 0 5.891 22.441s70.521 40.132 40.951 95.82c0 0 14.564-7.624 23.345-3.03 9.179 4.804 12.128 16.776 4.508 25.531-11.524 13.243-27.918 10.313-27.918 10.313s-9.565 7.71-15.185 21.734c12.267 3.313 37.286.576 61.194-20.971 31.521-28.407 30.242-69.295 11.637-100.841-19.654-33.325-48.283-38.585-63.985-42.161l-1.17-1.529c-21.038-28.203-13.573-43.816-13.573-43.816-25.651 15.104-25.696 36.508-25.696 36.508z" fill="#850000"/><path d="M493.433 363.163c-4.245 0-8.136-.492-11.544-1.413a5.995 5.995 0 0 1-3.804-3.112 6.004 6.004 0 0 1-.201-4.912c6.133-15.303 16.548-23.817 16.988-24.172a6.002 6.002 0 0 1 4.821-1.235c.501.083 13.286 2.054 22.336-8.346 2.337-2.686 3.298-5.896 2.706-9.041-.581-3.083-2.574-5.721-5.47-7.235-4.488-2.35-13.924 1.03-17.791 3.035a6.009 6.009 0 0 1-7.03-1.103 5.996 5.996 0 0 1-1.042-7.032c10.977-20.673 8.104-41.513-8.537-61.942-13.041-16.01-29.918-25.756-30.087-25.853a6.021 6.021 0 0 1-2.309-2.365 55.543 55.543 0 0 1-6.608-25.174v-.127c.002-1.014.377-25.017 28.651-41.665 2.323-1.368 5.343-1.156 7.283.717 1.92 1.854 2.451 4.616 1.213 6.971-.376 1.047-4.531 14.163 12.74 37.454 16.04 3.605 45.598 10.394 65.704 44.486 22.65 38.403 17.63 80.932-12.788 108.346-18.753 16.901-39.432 23.718-55.231 23.719zm-.912-12.069c11.339.174 29.665-3.94 48.11-20.563 31.583-28.463 25.387-68.068 10.485-93.336-17.568-29.788-43.026-35.509-58.236-38.927l-1.913-.432a6.009 6.009 0 0 1-3.432-2.203l-1.17-1.528c-10.941-14.667-14.838-26.41-15.842-34.843-12.124 11.325-12.642 23.093-12.662 23.861a43.507 43.507 0 0 0 4.439 18.197c4.803 2.957 19.479 12.642 31.655 27.492 16.542 20.175 21.728 41.609 15.343 62.681 5.048-.922 10.716-.947 15.53 1.57 6.169 3.229 10.433 8.932 11.698 15.646 1.268 6.73-.717 13.707-5.446 19.141-10.482 12.046-24.235 12.907-30.35 12.598-1.919 1.907-5.194 5.529-8.211 10.646z" fill="#850000"/><path d="M524.327 222.804a5.977 5.977 0 0 1-3.587-1.194c-14.838-11.089-25.697-20.467-33.197-28.669-12.99-14.205-16.629-26.962-17.059-36.093-16.694 13.281-13.579 29.436-13.54 29.625a6 6 0 0 1-11.747 2.455c-2.258-10.804 1.165-35.001 30.285-49.256a6.002 6.002 0 0 1 8.08 7.916c-.244.572-6.563 16.042 12.835 37.255 6.889 7.533 17.495 16.669 31.525 27.155a5.999 5.999 0 0 1-3.597 10.805z"/><path d="M426.935 346.051c-9.133-3.128-17.373-8.329-24.041-15.636-25.156-27.567-18.411-74.678 15.064-105.225 10.156-9.268 25.25-19.366 41.791-17.03 0 0 75.794 36.905 43.212 95.933 0 0 11.47-9.462 20.175-4.952 9.098 4.716 11.958 16.59 4.327 25.333-11.541 13.225-24.555 10.345-27.825 10.415-7.67 12.482-15.085 18.512-21.519 23.669-3.457 2.77-9.661 12.72-16.198 34.395-30.737 15.762-80.881-23.44-72.617-41.408 6.689-9.075 9.015-10.947 14.621-18.018" fill="#fff"/><path d="M445.775 402.615c-17.709 0-36.787-9.513-49.789-21.971-11.765-11.273-16.188-22.793-12.134-31.606.171-.371.379-.725.621-1.053 4.188-5.681 6.804-8.729 9.335-11.675.978-1.139 1.975-2.3 3.085-3.639-25.495-30.173-18.142-79.826 17.021-111.913 15.601-14.237 31.74-20.646 46.674-18.54a5.998 5.998 0 0 1 1.788.547c1.674.815 41.117 20.354 51.989 54.69 3.607 11.392 3.651 23.021.152 34.726 3.658-.593 7.594-.329 11.379 1.632 6.102 3.162 10.322 8.781 11.581 15.416 1.277 6.731-.725 13.726-5.494 19.189-10.784 12.358-22.994 12.909-29.168 12.643-7.631 11.508-14.962 17.383-20.945 22.177-2.153 1.727-7.895 10.521-14.206 31.446a5.999 5.999 0 0 1-3.007 3.606c-5.844 2.997-12.269 4.324-18.882 4.324zm-51.185-48.129c-.952 3.145 1.612 9.746 9.697 17.493 13.965 13.381 36.952 22.807 52.692 16.627 5.562-17.708 11.849-30.294 17.386-34.731 6.062-4.857 12.931-10.363 20.16-22.128a6.002 6.002 0 0 1 4.983-2.857c.671-.009 1.381.033 2.2.088 4.575.306 13.096.875 21.233-8.449 2.365-2.71 3.34-5.928 2.745-9.063-.567-2.991-2.504-5.542-5.313-6.998-3.861-2.002-10.837 2.01-13.61 4.266-2.229 1.813-5.438 1.799-7.643-.043s-2.802-4.981-1.414-7.497c7.556-13.688 9.311-27.186 5.217-40.115-8.537-26.96-39.464-44.208-44.966-47.095-13.903-1.481-27.181 7.631-35.957 15.639-30.978 28.269-37.562 71.67-14.676 96.749 5.832 6.391 13.083 11.102 21.553 14.004a5.999 5.999 0 1 1-3.889 11.351c-7.235-2.479-13.758-6.045-19.484-10.646-.917 1.095-1.763 2.08-2.595 3.049-2.399 2.793-4.67 5.438-8.321 10.357z"/><ellipse cx="470.419" cy="281.723" rx="12.787" ry="9.3" transform="matrix(.57218882 -.82012192 .82012192 .57218882 -29.795 506.33)"/><ellipse cx="427.549" cy="251.813" rx="12.787" ry="8.451" transform="matrix(.5721745 -.8201319 .8201319 .5721745 -23.606 458.375)"/><path d="M581.779 609.251c-12.269-50.917-49.922-139.605-85.983-182.589-17.305 9.826-64.185 62.455-57.852 106.078 7.347 8.071 51.085 63.511 62.986 79.201-27.383 3.973-64.711 31.843-87.301 43.722 0 0-22.295-17.422-34.499-19.471-21.046-3.534-43.996 2.637-42.606 6.917.83 2.557-9.077 5.71-7.228 9.81 1.742 3.863-4.677 7.639-2.75 13.321 1.334 3.932-3.394 11.984 1.839 11.89 20.913-.378 27.327-4.156 32.704 1.564 10.507 11.178 23.676 23.208 56.382 23.194 17.167-.624 86.778-15.978 133.73-30.79 20.495-6.466 39.263-26.806 30.578-62.847z" fill="#fff"/><path d="M417.41 708.888c-34.248 0-48.762-12.392-60.693-25.085-1.363-1.449-2.705-1.542-11.042-.747-4.412.42-9.901.941-17.181 1.073-3.666.023-5.737-1.731-6.654-2.809-2.751-3.234-2.023-7.249-1.438-10.475.158-.87.416-2.296.394-2.885-1.741-5.412.601-9.741 2.006-12.341.206-.381.462-.854.64-1.222-2.037-6.214 3.818-10.536 6.391-12.437.223-.164.491-.362.749-.558.25-1.337.879-2.629 1.865-3.771 5.841-6.772 29.457-10.419 47.677-7.357 10.838 1.82 27.075 13.112 34.044 18.271 5.468-3.047 11.745-6.893 18.324-10.922 18.601-11.394 39.313-24.08 57.949-29.488-16.324-21.083-50.549-64.345-56.933-71.356a5.994 5.994 0 0 1-1.5-3.177c-6.832-47.055 42.519-101.764 60.827-112.158a6.001 6.001 0 0 1 7.559 1.361c35.775 42.645 73.98 130.107 87.219 185.04 9.762 40.51-12.541 63.013-34.606 69.974-47.356 14.94-117.515 30.417-135.317 31.064-.092.004-.184.005-.279.004zm-64.779-38.313c4.983 0 9.098 1.04 12.83 5.01 10.546 11.22 22.456 21.291 51.897 21.304 16.924-.669 86.435-16.125 132.037-30.512 17.961-5.667 34.368-23.279 26.55-55.72-12.234-50.772-48.096-133.707-81.357-175.964-8.481 6.449-21.037 19.67-31.575 35.64-14.346 21.738-21.173 42.896-19.349 59.827 10.216 11.862 50.692 63.188 62.045 78.156a5.999 5.999 0 0 1-3.919 9.563c-18.464 2.679-43.175 17.815-63.031 29.978-8.133 4.981-15.814 9.688-22.339 13.118a6.003 6.003 0 0 1-6.486-.582c-8.165-6.375-24.018-16.977-31.799-18.283-15.818-2.656-31.171.751-35.716 2.91-.751 3.12-3.671 5.276-5.459 6.597-.421.311-1.002.74-1.488 1.132.605 3.551-1.051 6.613-2.115 8.581-.928 1.716-1.29 2.51-1.129 2.983.886 2.611.559 5.353.155 7.695 4.874-.206 8.835-.582 12.155-.898 2.949-.28 5.627-.535 8.093-.535zm-210.81 58.398a6.001 6.001 0 0 1-2.576-11.421c17.697-8.4 27.135-30.472 27.228-30.693a6.008 6.008 0 0 1 7.849-3.216 5.996 5.996 0 0 1 3.225 7.838c-.449 1.078-11.243 26.511-33.156 36.911a5.97 5.97 0 0 1-2.569.581zm267.847 26.022a6.01 6.01 0 0 1-1.544-.203c-32.174-8.545-43.01-38.091-43.456-39.345a6 6 0 0 1 11.302-4.034c.379 1.043 9.316 24.897 35.234 31.781a6 6 0 0 1-1.536 11.801zm-139.577 67.578a6.003 6.003 0 0 1-5.65-3.982l-13.074-36.568a6 6 0 0 1 3.63-7.669 5.997 5.997 0 0 1 7.67 3.63l13.074 36.568a6 6 0 0 1-3.63 7.669 5.984 5.984 0 0 1-2.02.353z"/></svg></g><g transform="translate(661.0 862.0) rotate(0.0 228.0 230.5) scale(0.998349220805948 0.997926218400807)"><svg width="456.754" height="461.958" viewBox="0 0 456.754 461.958"><path d="M6 299.174h444.754v156.784H6z" fill="#ED722B"/><path d="M450.753 461.958H6a6 6 0 0 1-6-6V299.174a6 6 0 0 1 6-6h444.753a6 6 0 0 1 6 6v156.784a6 6 0 0 1-6 6zM12 449.958h432.753V305.174H12z" fill="#4A3F3F"/><path d="M415.947 305.174a6 6 0 0 1-6-6V249.9H43.424v49.272a6 6 0 0 1-12 0V243.9a6 6 0 0 1 6-6h378.523a6 6 0 0 1 6 6v55.272a6 6 0 0 1-6 6.002z" fill="#4A3F3F"/><rect height="21.712" rx="6" width="390.523" x="31.424" y="233.047" fill="#4A3F3F"/><path d="M295.612 461.958h-134.47a6 6 0 0 1-6-6v-86.392a6 6 0 0 1 6-6h134.47a6 6 0 0 1 6 6v86.392a6 6 0 0 1-6 6zm-128.47-12h122.47v-74.392h-122.47z" fill="#4A3F3F"/><circle cx="80.295" cy="377.566" r="54.981" fill="#4A3F3F"/><path d="M80.3 438.547a60.981 60.981 0 1 1 60.981-60.982A61.051 61.051 0 0 1 80.3 438.547zm0-109.962a48.981 48.981 0 1 0 48.981 48.98 49.035 49.035 0 0 0-48.981-48.98z" fill="#4A3F3F"/><circle cx="376.459" cy="377.566" r="54.981" fill="#4A3F3F"/><path d="M376.459 438.547a60.981 60.981 0 1 1 60.981-60.982 61.051 61.051 0 0 1-60.981 60.982zm0-109.962a48.981 48.981 0 1 0 48.981 48.98 49.035 49.035 0 0 0-48.981-48.98z" fill="#4A3F3F"/><circle cx="80.295" cy="377.566" fill="#ED722B" r="15.604"/><path d="M80.3 399.17a21.6 21.6 0 1 1 21.6-21.605 21.629 21.629 0 0 1-21.6 21.605zm0-31.208a9.6 9.6 0 1 0 9.6 9.6 9.614 9.614 0 0 0-9.6-9.6z" fill="#4A3F3F"/><circle cx="376.459" cy="377.566" fill="#ED722B" r="15.604"/><path d="M376.459 399.17a21.6 21.6 0 1 1 21.6-21.605 21.629 21.629 0 0 1-21.6 21.605zm0-31.208a9.6 9.6 0 1 0 9.6 9.6 9.614 9.614 0 0 0-9.6-9.6zm-80.847 60.532h-134.47a6 6 0 1 1 0-12h134.47a6 6 0 0 1 0 12z" fill="#4A3F3F"/><path d="M259.274 428.494H197.48a6 6 0 0 1-6-6V393.17a6 6 0 0 1 6-6h61.794a6 6 0 0 1 6 6v29.324a6 6 0 0 1-6 6zm-55.794-12h49.794V399.17H203.48zM64.691 284.091h15.083v15.083H64.691z" fill="#4A3F3F"/><path d="M79.774 305.174H64.691a6 6 0 0 1-6-6v-15.083a6 6 0 0 1 6-6h15.083a6 6 0 0 1 6 6v15.083a6 6 0 0 1-6 6zm-9.083-12h3.083v-3.083h-3.083zm34.198-9.083h15.083v15.083h-15.083z" fill="#4A3F3F"/><path d="M119.972 305.174h-15.083a6 6 0 0 1-6-6v-15.083a6 6 0 0 1 6-6h15.083a6 6 0 0 1 6 6v15.083a6 6 0 0 1-6 6zm-9.083-12h3.083v-3.083h-3.083zm32.764-9.083h15.083v15.083h-15.083z" fill="#4A3F3F"/><path d="M158.737 305.174h-15.084a6 6 0 0 1-6-6v-15.083a6 6 0 0 1 6-6h15.084a6 6 0 0 1 6 6v15.083a6 6 0 0 1-6 6zm-9.084-12h3.084v-3.083h-3.084zm167.426-9.083h32.975v15.083h-32.975z" fill="#4A3F3F"/><path d="M350.054 305.174h-32.976a6 6 0 0 1-6-6v-15.083a6 6 0 0 1 6-6h32.976a6 6 0 0 1 6 6v15.083a6 6 0 0 1-6 6zm-26.976-12h20.976v-3.083h-20.976zm68.99 12a5.991 5.991 0 0 1-4.836-2.442L176.352 16.455a6 6 0 1 1 9.662-7.117l210.88 286.277a6 6 0 0 1-4.826 9.559z" fill="#4A3F3F"/><circle cx="181.183" cy="12.897" r="6.897" fill="#4A3F3F"/><path d="M181.183 25.793a12.9 12.9 0 1 1 12.9-12.9 12.911 12.911 0 0 1-12.9 12.9zm0-13.793a.9.9 0 1 0 .9.9.9.9 0 0 0-.9-.9z" fill="#4A3F3F"/></svg></g><g transform="translate(604.0 241.0) rotate(4.23410384965675 68.5 105.5) scale(1.0036630036630036 1.002851711026616)"><svg width="136.5" height="210.4" viewBox="0 0 136.5 210.4"><g fill="#850000"><path d="M130.5 80.3C130.9 26.1 98.7 6 62.9 6 31.4 6 9.4 32.8 9.4 32.8c4.4 5.3 11.6 16.3 14.4 33.9v.1C70.7 72.2 53 118.1 56.3 156c3.8 43.4 36.5 48.4 36.5 48.4-14.9-39.2 37.3-70 37.7-124.1z"/><path d="M130.5 80c.4-54.2-31.8-74.3-67.6-74.3-31.5.1-53.5 26.8-53.5 26.8 4.4 5.3 11.6 16.3 14.4 33.9v.1c46.9 5.4 29.2 51.2 32.5 89.2 3.8 43.4 36.5 48.4 36.5 48.4-14.9-39.2 37.3-69.9 37.7-124.1z"/><path d="M92.9 210.4c-.3 0-.6 0-.9-.1-7.1-1.5-13.9-4.6-19.6-9.1-8.8-6.8-19.8-20.1-22-44.7-.9-9.8-.4-20 .1-29.8 1.5-32.3 1-50.7-27.3-54-2.1-.2-4-1.6-4.8-3.6V69c-.2-.5-.3-.9-.4-1.4-2.5-16.3-9.3-26.4-13-31-2-2.2-2-5.4-.2-7.6 1-1.2 24.1-29 58.1-29 21.7 0 40 6.9 52.9 19.8 13.9 14 20.9 34.4 20.7 60.5-.2 27.4-12.7 48.9-23.8 67.9-11.8 20.2-21.1 36.2-14.3 54.1 1.2 3.1-.4 6.6-3.5 7.7-.6.3-1.3.4-2 .4zm-64-148.9c36.3 6.5 34.8 37.9 33.5 65.8-.4 9.4-.9 19.1-.1 28.2 2.1 23.9 13.6 34.7 22.1 39.4-2-18.4 7.7-35.2 18-52.8 10.8-18.5 22-37.7 22.1-61.9.2-22.8-5.6-40.3-17.2-51.9C93.9 14.8 75.8 12 62.9 12 41 12 24 26.4 17.2 33.2 23 41.7 27 51.4 28.9 61.5z"/></g><path d="M78.3 158.1c-3.2 0-5.9-2.5-6-5.7-.5-12.7 2-22.7 4.2-31.4 1.8-7.2 3.5-13.9 3.5-21.7 0-26.7-12.2-28.8-12.2-28.8s-5.3-1.5-5-6c.1-6.5 6-6 6-6 .9.1 23.2 2.5 23.2 40.7 0 9.2-2 17-3.9 24.6-2.2 8.8-4.3 17-3.8 28 .1 3.3-2.4 6.1-5.7 6.2-.2.1-.3.1-.3.1z"/><path d="M107.5 88.9c-3.3 0-6-2.7-6-6 0-.4 0-.9.1-1.3 2.5-11.4.7-22.3-5.1-30.5-4.6-6.6-11.8-11.1-19.8-12.2-16.7-2.2-25.9 7.6-26.3 8-2.2 2.5-6 2.7-8.5.5s-2.7-6-.5-8.5c.6-.5 13.6-15 36.9-11.9 11.4 1.5 21.5 7.8 28 17.2 7.7 11 10.2 25.2 7 40-.6 2.8-3 4.7-5.8 4.7zM24.4 78.2c-3.1 0-5.7-2.4-6-5.5-.8-10.4-3.9-20.5-9.1-29.6-2-3.5-4.4-6.7-7.3-9.5-2.5-2.2-2.7-6-.5-8.5 2.1-2.4 5.8-2.7 8.3-.6.7.6 17.6 15.4 20.5 47.1.3 3.3-2.1 6.2-5.4 6.5-.1.1-.3.1-.5.1z"/></svg></g><g transform="translate(803.0 973.0) rotate(12.233936531179321 31.0 39.5) scale(0.8083547373499003 0.8068222437828728)"><svg width="76.699" height="97.915" viewBox="0 0 76.699 97.915"><path d="M41.809 76.092c.238 8.244-5.358 12.457-15.193 14.914S7.637 90.77 6.193 84.991s5.359-12.457 15.194-14.915 19.821-1.82 20.422 6.016z"/><path d="M19.319 97.944c-9.586 0-17.147-4.3-18.947-11.5-1.217-4.872.6-10.134 4.985-14.439a32.074 32.074 0 0 1 14.575-7.751C25.518 62.86 35.878 61.23 42.493 66a12.693 12.693 0 0 1 5.3 9.633c.008.1.013.191.014.286.3 10.525-6.336 17.56-19.736 20.908a36.21 36.21 0 0 1-8.752 1.117zM30.775 74.8a33.4 33.4 0 0 0-7.934 1.1 20.281 20.281 0 0 0-9.078 4.671c-1.457 1.431-1.846 2.579-1.749 2.967.3 1.194 5.279 3.615 13.148 1.649 10.577-2.643 10.721-6.273 10.655-8.746-.054-.5-.182-.59-.343-.706-.774-.56-2.394-.935-4.699-.935z"/><path d="M41.809 82.092h-.019a6 6 0 0 1-5.981-6.02l.229-70.091A6 6 0 0 1 45.079.828c2.893 1.7 28.363 17.1 31.514 33.645a6 6 0 1 1-11.788 2.245C63.661 30.71 55.756 23.087 48 17.242l-.192 58.869a6 6 0 0 1-5.999 5.981z"/></svg></g><g transform="translate(1156.0 828.0) rotate(25.50872938015355 -37.0 47.0) scale(-0.96481049296601 0.9600163407036715)"><svg width="76.699" height="97.915" viewBox="0 0 76.699 97.915"><path d="M41.809 76.092c.238 8.244-5.358 12.457-15.193 14.914S7.637 90.77 6.193 84.991s5.359-12.457 15.194-14.915 19.821-1.82 20.422 6.016z"/><path d="M19.319 97.944c-9.586 0-17.147-4.3-18.947-11.5-1.217-4.872.6-10.134 4.985-14.439a32.074 32.074 0 0 1 14.575-7.751C25.518 62.86 35.878 61.23 42.493 66a12.693 12.693 0 0 1 5.3 9.633c.008.1.013.191.014.286.3 10.525-6.336 17.56-19.736 20.908a36.21 36.21 0 0 1-8.752 1.117zM30.775 74.8a33.4 33.4 0 0 0-7.934 1.1 20.281 20.281 0 0 0-9.078 4.671c-1.457 1.431-1.846 2.579-1.749 2.967.3 1.194 5.279 3.615 13.148 1.649 10.577-2.643 10.721-6.273 10.655-8.746-.054-.5-.182-.59-.343-.706-.774-.56-2.394-.935-4.699-.935z"/><path d="M41.809 82.092h-.019a6 6 0 0 1-5.981-6.02l.229-70.091A6 6 0 0 1 45.079.828c2.893 1.7 28.363 17.1 31.514 33.645a6 6 0 1 1-11.788 2.245C63.661 30.71 55.756 23.087 48 17.242l-.192 58.869a6 6 0 0 1-5.999 5.981z"/></svg></g><g transform="translate(769.0 513.0) rotate(22.9875447587196 49.5 52.0) scale(0.8541256858888083 0.861362111662346)"><svg width="115.908" height="120.739" viewBox="0 0 115.908 120.739"><path d="M41.809 98.915c.238 8.245-5.358 12.457-15.193 14.914s-18.979-.236-20.423-6.015S11.552 95.357 21.387 92.9s19.821-1.821 20.422 6.015z"/><path d="M19.32 120.767c-9.587 0-17.15-4.3-18.948-11.5-2.319-9.284 6.09-18.823 19.56-22.189 5.586-1.4 15.947-3.025 22.561 1.745a12.685 12.685 0 0 1 5.3 9.633c.007.1.013.19.015.285.3 10.525-6.336 17.56-19.736 20.908a36.159 36.159 0 0 1-8.752 1.118zM30.774 97.62a33.414 33.414 0 0 0-7.934 1.1c-7.864 1.965-11.124 6.445-10.826 7.639s5.283 3.614 13.148 1.648c10.578-2.643 10.72-6.272 10.655-8.746-.054-.5-.183-.59-.343-.706-.774-.555-2.394-.935-4.7-.935z"/><path d="M41.809 104.915h-.017a6 6 0 0 1-5.983-6.015l.23-81.4a6 6 0 0 1 5-5.9L108.905.084a6 6 0 0 1 2.006 11.831L48.024 22.582l-.215 76.35a6 6 0 0 1-6 5.983zm67.87-17.515c.238 8.245-5.358 12.457-15.193 14.914s-18.979-.236-20.423-6.015 5.358-12.457 15.193-14.914 19.822-1.818 20.423 6.015z"/><path d="M87.19 109.255c-9.587 0-17.15-4.3-18.948-11.5-1.217-4.871.6-10.134 4.985-14.439A32.063 32.063 0 0 1 87.8 75.567c5.588-1.4 15.947-3.025 22.561 1.744a12.7 12.7 0 0 1 5.3 9.634c.007.1.012.19.014.285.3 10.526-6.337 17.56-19.736 20.908a36.2 36.2 0 0 1-8.749 1.117zm11.454-23.147a33.407 33.407 0 0 0-7.934 1.1 20.273 20.273 0 0 0-9.077 4.672c-1.457 1.43-1.846 2.578-1.749 2.966.3 1.193 5.284 3.614 13.148 1.649 10.577-2.643 10.72-6.273 10.655-8.746-.054-.5-.183-.59-.343-.7-.774-.563-2.395-.941-4.7-.941z"/><path d="M109.679 93.4h-.016a6 6 0 0 1-5.984-6.016l.229-81.4a6 6 0 0 1 6-5.983h.016a6 6 0 0 1 5.984 6.016l-.229 81.4a6 6 0 0 1-6 5.983z"/></svg></g></svg>