<svg height="47" viewBox="0 0 46.15 46.15" width="47" xmlns="http://www.w3.org/2000/svg"><circle cx="23.07" cy="23.07" fill="#ffeea6" r="23.07"/><g fill="#ee442b"><path d="m20.12 18.74a22.86 22.86 0 0 0 6.64-18.44 22.41 22.41 0 0 0 -3.69-.3h-.38a19.53 19.53 0 0 1 -5.39 15.9 19.55 19.55 0 0 1 -17.21 5.2c-.06.65-.09 1.31-.09 2s0 1.41.1 2.1a22.7 22.7 0 0 0 3.75.32 23 23 0 0 0 16.27-6.78z"/><path d="m45.85 19.36a23 23 0 0 0 -24.85 26.69c.69.06 1.4.1 2.11.1s1.31 0 1.95-.09a19.7 19.7 0 0 1 5.19-17.24 19.6 19.6 0 0 1 15.93-5.4c0-.12 0-.23 0-.35a23.91 23.91 0 0 0 -.33-3.71z"/></g></svg>